<svg width="200" height="200" viewBox="0 0 200 200" fill="none" xmlns="http://www.w3.org/2000/svg"><path d="M60.373 132.342C61.1541 133.123 61.1541 134.389 60.373 135.17L46.1869 149.356C45.4059 150.137 44.1395 150.137 43.3585 149.356C42.5774 148.575 42.5774 147.309 43.3585 146.528L57.5446 132.342C58.3256 131.561 59.592 131.561 60.373 132.342Z" fill="currentColor"></path><path fill-rule="evenodd" clip-rule="evenodd" d="M90.7974 119.631L112.6 141.433C113.381 142.214 114.647 142.214 115.428 141.433L124.079 132.782C149.872 107.003 161.128 84.0443 165.409 66.9112C167.547 58.3527 167.943 51.2508 167.54 45.9897C167.338 43.3624 166.935 41.1692 166.436 39.4694C165.966 37.8681 165.33 36.4209 164.482 35.5731C163.633 34.724 162.187 34.0842 160.582 33.6095C158.881 33.1062 156.687 32.6995 154.059 32.4946C148.798 32.0843 141.698 32.4753 133.141 34.6099C116.011 38.8831 93.0522 50.1393 67.2448 75.9467L58.5934 84.5981C57.8123 85.3792 57.8123 86.6455 58.5934 87.4266L80.4098 109.243L70.3486 119.304L66.3449 115.301C65.5638 114.52 64.2975 114.52 63.5165 115.301L36.7173 142.1L36.7132 142.104C30.869 147.982 30.869 157.485 36.7132 163.363L36.7173 163.367C42.5691 169.219 52.0468 169.213 57.9224 163.371L57.9264 163.367L84.7547 136.539C85.1298 136.164 85.3405 135.655 85.3405 135.125C85.3405 134.594 85.1298 134.086 84.7547 133.71L80.7361 129.692L90.7974 119.631ZM134.109 38.4909C117.784 42.5633 95.4465 53.4019 70.0733 78.7751L62.836 86.0124L83.2383 106.415L94.0732 95.5797C96.9516 92.7013 101.597 92.7013 104.475 95.5797C107.346 98.4507 107.363 103.1 104.471 105.957L104.465 105.963L93.6258 116.802L114.014 137.19L121.251 129.953C146.609 104.609 157.448 82.271 161.528 65.9416C163.57 57.7688 163.92 51.0978 163.552 46.2956C163.367 43.8912 163.005 41.9802 162.598 40.5969C162.395 39.9046 162.188 39.3688 162 38.9806C161.906 38.7876 161.824 38.6438 161.757 38.5419C161.694 38.4456 161.657 38.4056 161.654 38.4017C161.653 38.4014 161.654 38.4015 161.654 38.4017C161.654 38.4024 161.614 38.3633 161.508 38.2936C161.405 38.2259 161.26 38.1425 161.067 38.0483C160.677 37.8589 160.14 37.6501 159.448 37.4452C158.063 37.0357 156.152 36.67 153.748 36.4825C148.947 36.1081 142.28 36.4527 134.109 38.4909ZM76.2902 130.903C76.347 130.979 76.4099 131.052 76.479 131.121C76.548 131.19 76.6208 131.253 76.6967 131.309L80.5121 135.125L76.6413 138.996L61.0727 123.401L64.9307 119.543L76.2902 130.903ZM77.9077 126.863L101.657 103.114C102.954 101.835 102.969 99.7299 101.647 98.4081C100.331 97.0918 98.2179 97.0918 96.9016 98.4081L73.177 122.133L77.9077 126.863ZM39.5497 144.924L39.5477 144.926C35.2576 149.243 35.2575 156.224 39.5476 160.541C43.8324 164.823 50.7808 164.829 55.1001 160.537L55.1021 160.535L73.8129 141.824L58.2443 126.23L39.5497 144.924Z" fill="currentColor"></path></svg>