<svg width="200" height="200" viewBox="0 0 200 200" fill="none" xmlns="http://www.w3.org/2000/svg"><path fill-rule="evenodd" clip-rule="evenodd" d="M96.9613 34C131.841 34 159.355 62.2005 158.621 97.0001C158.639 97.1174 158.647 97.2378 158.643 97.3605C157.771 129.456 131.076 155.468 98.9768 155.468C66.9567 155.468 41.6355 129.586 42.3108 97.6101C42.2929 97.493 42.2852 97.3731 42.2885 97.251C43.1014 67.9543 67.449 44.228 96.7507 44.228C126.085 44.228 149.211 68.0038 148.446 97.3296C148.446 97.3397 148.446 97.3502 148.445 97.3606C147.724 123.83 125.723 145.301 99.2174 145.301C72.8404 145.301 51.9998 124.038 52.4457 97.755C52.4091 97.594 52.3915 97.4257 52.396 97.2529C53.0272 73.5784 72.7446 54.3652 96.4499 54.3652C120.197 54.3652 138.939 73.6134 138.308 97.3594C138.304 97.4789 138.291 97.5956 138.268 97.7088L138.278 97.3578C137.738 118.238 120.365 135.133 99.4882 135.133C78.5692 135.133 62.0522 118.171 62.6245 97.2515L62.624 97.244L62.6433 96.7126C63.4053 78.9122 78.3104 64.563 96.2094 64.563C114.331 64.563 128.621 79.2387 128.14 97.3594C128.137 97.4803 128.123 97.5984 128.099 97.7128L128.11 97.3571C127.721 112.613 115.009 124.966 99.7588 124.966C84.584 124.966 72.5579 112.738 72.7843 97.6069C72.7663 97.4919 72.7588 97.374 72.7619 97.254C73.0911 84.6782 83.5446 74.52 96.089 74.52C108.68 74.52 118.634 84.7771 118.303 97.3588C118.299 97.4822 118.285 97.6026 118.261 97.7192C117.834 107.363 109.744 115.129 100.03 115.129C90.2713 115.129 82.5464 107.325 82.6224 97.6098C82.6026 97.491 82.595 97.3688 82.5988 97.2442C82.8125 90.3355 88.564 84.7173 95.4874 84.7173C102.355 84.7173 107.784 90.1975 107.809 96.9812C107.83 97.1065 107.839 97.2357 107.835 97.3674C107.712 101.388 104.367 104.661 100.331 104.661C96.2598 104.661 93.0023 101.327 93.1272 97.245C93.161 96.1409 94.0834 95.2733 95.1875 95.3071C96.2915 95.3409 97.1591 96.2633 97.1254 97.3674C97.0698 99.1814 98.505 100.661 100.331 100.661C102.101 100.661 103.624 99.2654 103.818 97.5146C103.807 97.4295 103.803 97.3426 103.806 97.2545C103.928 92.5391 100.225 88.7173 95.4874 88.7173C90.8423 88.7173 86.9181 92.4378 86.6119 97.0587C86.625 97.1571 86.63 97.2583 86.6272 97.3611C86.4175 104.988 92.4004 111.129 100.03 111.129C107.701 111.129 114.09 104.893 114.275 97.2579C114.277 97.1451 114.289 97.0348 114.31 96.9276L114.311 96.5824C114.22 86.5525 106.196 78.52 96.089 78.52C85.8191 78.52 77.2134 86.7779 76.7717 97.0351C76.7875 97.1415 76.7935 97.2505 76.7904 97.3613C76.4305 110.403 86.7157 120.966 99.7588 120.966C112.846 120.966 123.778 110.336 124.111 97.2552C124.114 97.1432 124.126 97.0335 124.146 96.9269L124.141 97.2532C124.563 81.3818 112.08 68.563 96.2094 68.563C80.2987 68.563 67.0483 81.4744 66.6232 97.3545C66.6231 97.3569 66.6231 97.3589 66.623 97.3609C66.1124 116.028 80.82 131.133 99.4882 131.133C118.2 131.133 133.796 115.962 134.279 97.2545C134.282 97.1428 134.293 97.0335 134.314 96.9272L134.309 97.253C134.881 75.7564 117.946 58.3652 96.4499 58.3652C75.0705 58.3652 57.2313 75.5961 56.4107 96.8871C56.4447 97.0393 56.4598 97.1979 56.4554 97.3606C55.7941 121.624 74.9249 141.301 99.2174 141.301C123.551 141.301 143.784 121.56 144.446 97.2517L144.445 97.244L144.461 96.442C144.742 69.7235 123.569 48.228 96.7507 48.228C69.7298 48.228 47.2236 70.0473 46.2981 97.0313C46.3147 97.1386 46.3209 97.2486 46.3179 97.3605C45.5062 127.249 69.0883 151.468 98.9768 151.468C128.797 151.468 153.649 127.362 154.634 97.579C154.617 97.4726 154.611 97.3636 154.614 97.2528C155.486 64.5339 129.706 38 96.9613 38C64.313 38 37.084 64.3946 36.0099 97.0348C36.0269 97.1411 36.0329 97.2497 36.0299 97.3602C35.0676 132.935 63.1031 161.756 98.6758 161.756C134.291 161.756 163.938 132.87 164.902 97.2521C164.932 96.1479 165.851 95.277 166.955 95.3069C168.059 95.3368 168.93 96.2561 168.9 97.3602C167.878 135.141 136.461 165.756 98.6758 165.756C60.9689 165.756 31.1966 135.269 32.0226 97.6097C32.0052 97.4931 31.9975 97.3732 32.0007 97.2511C32.9638 62.298 62.0351 34 96.9613 34Z" fill="currentColor"></path></svg>