<svg width="200" height="200" viewBox="0 0 200 200" fill="none" xmlns="http://www.w3.org/2000/svg"><path d="M115.144 53.2751C127.401 41.3209 146.45 40.8292 157.924 52.3399C169.044 63.523 168.505 81.704 157.389 94.7392L156.956 95.237L156.931 95.2807C156.901 95.3291 156.869 95.3764 156.834 95.4227L156.722 95.5578C152.164 100.62 146.553 104.27 140.214 106.267C137.562 107.092 134.589 107.426 130.307 107.546L125.761 107.635C124.106 107.671 123.045 107.715 122.058 107.796L121.691 107.828L121.324 107.863C119.378 108.073 118.161 108.462 116.851 109.23C116.773 109.276 116.705 109.316 116.643 109.353L116.284 109.571C116.04 109.727 115.74 109.937 115.068 110.421L130.743 123.953C131.209 124.358 131.722 124.81 132.398 125.409L134.699 127.441C135.733 128.346 136.51 129.009 137.275 129.634L137.734 130.006L138.107 130.304C142.058 133.442 143.991 135.484 145.202 138.547C146.774 142.432 146.579 148.159 143.083 151.638C139.396 155.308 132.657 155.72 128.654 153.626C126.587 152.564 125.272 151.357 122.807 148.579L103.066 126.231L101.156 124.078L99.9518 125.479L86.4361 141.24L83.1147 145.03C82.103 146.193 81.3951 147.032 80.7039 147.892L79.6471 149.217C76.8541 152.671 74.8913 154.435 72.0406 155.569C68.1653 157.149 62.4463 156.953 58.9745 153.443C55.3193 149.747 54.9093 142.996 56.9942 138.983C58.0918 136.834 59.3505 135.491 62.3387 132.84L65.9091 129.671L87.3555 110.587C85.0479 108.929 83.0238 108.151 79.7062 107.517L79.2738 107.436C77.5657 107.123 75.9763 107.036 73.2956 107.068L72.0764 107.089C65.9332 107.194 61.258 106.624 56.9409 104.881C52.614 103.121 48.6382 100.419 44.8277 96.8213C44.6787 96.7131 44.5449 96.5856 44.4305 96.4421C44.1555 96.1776 43.8812 95.9078 43.6075 95.6333C31.3412 83.3567 30.7238 63.9584 42.3107 52.3636C53.6895 40.977 72.3385 41.7729 85.382 53.5965C90.4277 58.1694 94.0655 63.7961 96.0551 70.1547C96.8089 72.5915 97.1512 75.299 97.2951 79.0406L97.3452 80.6942L97.4249 84.9516C97.4689 86.8383 97.5267 87.9303 97.6462 89.1006C97.8414 90.9246 98.1923 92.1121 98.8617 93.3317L99.2069 93.9305L99.4424 94.306C99.5341 94.4444 99.6495 94.6116 99.8159 94.8473L100.602 95.9412C101.803 93.7788 102.615 91.6077 103.011 89.4149C103.324 87.7 103.411 86.1045 103.379 83.4144L103.35 81.5584C103.295 75.7035 103.881 71.1925 105.557 67.0141C107.302 62.6986 109.975 58.7308 113.533 54.9267C113.67 54.7095 113.849 54.5213 114.058 54.3723C114.293 54.128 114.533 53.8833 114.777 53.6391L115.144 53.2751ZM100.835 102.735L100.601 103.029L100.224 103.492C98.0298 106.141 95.9577 108.2 91.9871 111.801L90.7792 112.892L86.7842 116.462L64.427 136.338C62.224 138.321 61.2892 139.368 60.5501 140.815C59.2022 143.409 59.4982 148.284 61.8184 150.63C63.9259 152.761 67.9911 152.9 70.5462 151.859C72.7604 150.978 74.4064 149.41 77.1181 145.974L77.4298 145.581L77.7399 145.195L78.0538 144.81C78.7417 143.971 79.4921 143.095 80.5422 141.894L82.5491 139.61C82.9408 139.164 83.2644 138.793 83.562 138.449L99.4787 119.892C103.525 115.174 106.024 112.478 108.713 110.218L108.396 109.943C104.975 106.961 102.71 104.841 100.835 102.735ZM111.781 112.874C109.323 114.872 107.08 117.218 103.521 121.329L103.789 121.019L106.059 123.577L126.023 146.176C128.009 148.397 129.051 149.333 130.495 150.075C133.075 151.424 137.926 151.128 140.261 148.803C142.388 146.686 142.528 142.602 141.488 140.032C140.639 137.886 139.153 136.272 135.968 133.715L135.036 132.969C134.139 132.244 133.274 131.509 132.086 130.469L128.119 126.972L111.911 112.985L111.781 112.874ZM75.147 67.251L75.3389 82.7026C75.3514 83.7131 74.6101 84.5654 73.6249 84.7068L73.4754 84.7226L57.849 85.79L57.5732 100.803C57.8618 100.932 58.1517 101.056 58.4432 101.174C62.1615 102.675 66.3534 103.186 71.9996 103.089L72.89 103.073C75.8907 103.027 77.7189 103.108 79.7072 103.45L79.9925 103.501C84.4743 104.316 87.1851 105.408 90.3797 107.852C93.2949 105.179 95.041 103.427 96.7463 101.414L97.1414 100.943C97.5302 100.472 97.9015 100.001 98.2552 99.5302C98.2533 99.5303 98.2528 99.5296 98.2523 99.529L96.2639 96.7489C96.097 96.5068 95.9896 96.3415 95.8872 96.174L95.5546 95.6086C94.4963 93.7936 93.9367 92.0278 93.6679 89.5166L93.6103 88.9094C93.487 87.4987 93.4388 86.071 93.3929 83.3599L93.3311 80.1987L93.298 79.1948C93.166 75.779 92.8622 73.3682 92.2357 71.343C91.8258 70.033 91.3372 68.7576 90.7723 67.5202L75.147 67.251ZM109.637 67.6358C109.509 67.9252 109.385 68.216 109.267 68.5082C107.771 72.2397 107.262 76.4444 107.357 82.1148C107.43 85.5144 107.377 87.4843 107.045 89.5596L106.947 90.1293C106.374 93.3032 105.104 96.3713 103.218 99.3746C105.236 101.754 107.713 104.067 111.954 107.734C112.344 107.454 112.658 107.227 112.917 107.041L113.724 106.469C113.922 106.332 114.068 106.236 114.209 106.148L114.471 105.989L115.145 105.598C116.847 104.653 118.547 104.14 120.906 103.885C122.197 103.753 123.355 103.69 125.313 103.644L128.61 103.583L130.702 103.532C134.369 103.41 136.905 103.107 139.018 102.449C140.305 102.044 141.558 101.562 142.774 101.006L143.066 85.24L127.647 85.4315C126.636 85.444 125.783 84.7023 125.642 83.7167L125.627 83.5671L124.561 67.889L109.637 67.6358ZM116.127 58.0122C114.432 59.8616 112.974 61.7402 111.758 63.6714L126.467 63.9214C127.454 63.9382 128.272 64.6701 128.412 65.6319L128.428 65.7857L129.489 81.408L145.079 81.215C146.159 81.2016 147.044 82.0448 147.101 83.1059L147.104 83.2518L146.815 98.7991C149.341 97.1777 151.665 95.1965 153.75 92.8811L153.478 93.177L152.678 75.585L137.182 75.7543C136.172 75.7653 135.321 75.0241 135.18 74.0398L135.165 73.8904L134.1 58.271L116.127 58.0122ZM82.9428 56.7863L65.5 57.609L65.6929 73.1612C65.7054 74.1728 64.9627 75.0256 63.9764 75.1658L63.8267 75.1815L48.266 76.224L48.0082 94.3179C49.8394 96.0051 51.6998 97.4564 53.6118 98.6692L53.8846 83.8831C53.9027 82.8977 54.6339 82.0808 55.5944 81.941L55.7479 81.9246L71.316 80.86L71.1231 65.2414C71.1098 64.1628 71.9515 63.2777 73.0115 63.2198L73.1573 63.217L88.5726 63.4819C87.0184 61.0521 85.1343 58.8096 82.9428 56.7863ZM45.14 55.1911C35.9504 64.3871 35.6738 79.4104 44.0669 90.1297L44.2924 74.323C44.3066 73.3335 45.04 72.5117 46.0044 72.3723L46.1586 72.356L61.67 71.317L61.4771 55.7273C61.4644 54.7011 62.2281 53.8411 63.2307 53.7177L63.3828 53.7048L78.0395 53.0135C67.0892 46.0913 53.6647 46.6606 45.14 55.1911ZM155.089 55.162C145.905 45.9481 130.967 45.6667 120.291 54.0735L136 54.2983C136.988 54.3126 137.81 55.0448 137.95 56.0083L137.966 56.1622L139.027 71.733L154.566 71.5648C155.592 71.5536 156.451 72.3187 156.573 73.3216L156.586 73.4737L157.256 88.1858C164.162 77.1951 163.596 63.7168 155.089 55.162Z" fill="currentColor"></path></svg>