<svg width="200" height="200" viewBox="0 0 200 200" fill="none" xmlns="http://www.w3.org/2000/svg"><path fill-rule="evenodd" clip-rule="evenodd" d="M121.346 68.2523C122.31 60.9656 119.276 54.7824 112.939 50.1739C105.276 44.6688 94.6469 44.6472 86.8541 50.0154L86.5092 50.2579C76.2782 57.4863 75.1687 71.481 84.1947 79.9499C88.535 84.0732 93.7931 85.9828 100.832 86.0911L101.094 86.0952L101.461 86.0049C101.502 85.9957 101.546 85.9863 101.593 85.9766L101.914 85.9148L103.328 85.6785L104.242 85.5218C104.96 85.3915 105.589 85.2582 106.207 85.1003C106.574 85.0065 106.928 84.906 107.27 84.7972C115.349 81.913 120.284 76.326 121.346 68.2523ZM88.8173 53.5248L88.83 53.5158C95.2659 48.8928 104.226 48.8401 110.596 53.4158C115.794 57.1962 118.141 61.9789 117.38 67.729C116.523 74.2442 112.65 78.6295 105.99 81.0079C105.871 81.0451 105.723 81.0886 105.559 81.1338L105.217 81.2248C104.594 81.384 103.933 81.5183 103.122 81.6578L101.733 81.888L100.97 82.0221L100.658 82.0864L100.391 82.0804C94.571 81.91 90.4183 80.3451 86.9407 77.0414C79.7661 70.3096 80.6388 59.3031 88.8173 53.5248Z" fill="currentColor"></path><path fill-rule="evenodd" clip-rule="evenodd" d="M127.821 50.5127C116.882 34.0976 92.4998 31.0358 77.1565 44.2773C64.3706 55.3441 63.5403 74.0751 75.3301 86.1864C87.2434 98.4188 107.804 99.6012 121.214 88.8519C128.417 83.0261 132.345 75.5011 132.562 67.1433C132.563 60.8142 131.158 55.8078 128.157 51.0278L127.821 50.5127ZM79.7721 47.3036C93.4434 35.5051 115.331 38.3908 124.778 53.1686L125.024 53.5689C127.444 57.5753 128.563 61.7421 128.563 67.0914C128.378 74.1914 125.015 80.6328 118.705 85.7364C106.904 95.1961 88.6669 94.1474 78.196 83.396C68.0136 72.9359 68.726 56.8645 79.7721 47.3036Z" fill="currentColor"></path><path fill-rule="evenodd" clip-rule="evenodd" d="M131.663 96.0566V116.593L108.362 116.593V145.593L131.663 145.593V160.293H82.463C81.4389 160.293 80.1969 160.614 78.6058 161.25C77.8621 161.548 77.0906 161.888 76.2404 162.29C75.7682 162.513 75.2886 162.747 74.7263 163.028L68.363 166.229V145.693L91.7621 145.693V116.693L68.363 116.693V102.093H117.363C118.501 102.093 119.871 101.756 121.42 101.136C122.146 100.846 122.903 100.503 123.759 100.083C124.095 99.9182 124.441 99.7441 124.83 99.5446L127.872 97.9595C128.188 97.7969 128.48 97.6484 128.769 97.5041L131.663 96.0566ZM127.662 112.593V102.58L126.651 103.106C126.244 103.315 125.88 103.498 125.522 103.674L125.059 103.898C124.3 104.262 123.596 104.574 122.906 104.85C120.925 105.642 119.094 106.093 117.363 106.093L72.3621 106.093V112.693L95.763 112.693V149.693L72.3621 149.693V159.738L73.0062 159.416C73.2371 159.301 73.4554 159.193 73.6661 159.09L74.2804 158.793L75.0734 158.42C75.7871 158.092 76.4599 157.8 77.1203 157.536C79.1428 156.727 80.8247 156.293 82.463 156.293L127.662 156.293V149.593L104.363 149.593V112.593L127.662 112.593Z" fill="currentColor"></path></svg>