<svg xmlns="http://www.w3.org/2000/svg" width="122" height="36" viewBox="0 0 122 36" fill="none" data-src="/de1d6343ac9507a71395441d25c039ca.svg" xmlns:xlink="http://www.w3.org/1999/xlink"><g opacity="0.8"><path d="M7.66004 35.279C7.3917 35.279 7.12335 35.279 6.85501 35.279C6.34271 35.2549 5.75722 35.2309 5.17174 35.1348C4.61065 35.0386 4.12275 34.8704 3.68364 34.6541C3.22013 34.4138 2.78102 34.1254 2.41509 33.7409C2.04916 33.3804 1.73203 32.9719 1.48808 32.4912C1.24413 32.0346 1.09776 31.554 1.00018 31.0253C0.8782 30.4245 0.853811 29.8237 0.853811 29.3671C0.853811 29.1748 0.829407 28.55 0.829407 28.55V7.52194C0.829407 7.52194 0.829416 6.89711 0.853811 6.72888C0.853811 6.27228 0.902595 5.64744 1.00018 5.07067C1.09776 4.51794 1.26852 4.03729 1.48808 3.58069C1.73203 3.12408 2.02477 2.6915 2.41509 2.33102C2.78102 1.97054 3.22013 1.65812 3.68364 1.4178C4.14715 1.17748 4.63504 1.03329 5.17174 0.937161C5.78161 0.841033 6.3915 0.792969 6.85501 0.792969H7.66004H114.389H115.218C115.682 0.792969 116.292 0.841033 116.901 0.937161C117.438 1.03329 117.926 1.20151 118.414 1.4178C118.877 1.65812 119.292 1.94651 119.682 2.33102C120.048 2.6915 120.366 3.10004 120.609 3.58069C120.853 4.03729 121 4.51794 121.097 5.04664C121.195 5.59938 121.244 6.17615 121.244 6.72888C121.244 6.9692 121.244 7.25759 121.244 7.52194C121.244 7.85839 121.244 8.17081 121.244 8.48322V27.5647C121.244 27.8771 121.244 28.2135 121.244 28.5259C121.244 28.8143 121.244 29.0787 121.244 29.343C121.219 29.8717 121.195 30.4485 121.097 31.0012C121 31.554 120.853 32.0346 120.609 32.4912C120.366 32.9478 120.048 33.3804 119.682 33.7169C119.317 34.0774 118.877 34.3898 118.414 34.6301C117.95 34.8704 117.462 35.0146 116.901 35.1107C116.316 35.2069 115.73 35.2309 115.218 35.2549C114.95 35.2549 114.681 35.2549 114.413 35.2549H113.437L7.66004 35.279Z" fill="black"></path><path d="M45.3018 24.3448H41.0082L39.9592 27.1565H38.0808L42.2768 16.6064H44.0576L48.3512 27.1565H46.3752L45.3018 24.3448ZM41.5449 22.9028H44.7407L43.5941 19.8748C43.4477 19.4663 43.277 18.9856 43.1306 18.4809C42.9842 18.9376 42.8379 19.3942 42.6915 19.8508L41.5449 22.9028Z" fill="white"></path><path d="M49.1074 21.2207C49.1074 20.6439 49.083 19.995 49.0586 19.2981H50.7663C50.8394 19.6346 50.8638 19.947 50.8882 20.2834C51.5957 19.5144 52.4007 19.1299 53.3277 19.1299C53.8644 19.1299 54.3523 19.25 54.8158 19.5144C55.2793 19.7787 55.6453 20.1873 55.9136 20.7641C56.182 21.3408 56.3283 22.0618 56.3283 22.9269C56.3283 23.8402 56.1576 24.6332 55.8404 25.2821C55.5233 25.9309 55.0842 26.4356 54.4987 26.748C53.9376 27.0845 53.2789 27.2527 52.5227 27.2527C51.986 27.2527 51.4493 27.1566 50.9126 26.9884V30.2807L49.083 30.4249V21.2207H49.1074ZM53.9132 25.234C54.2791 24.7534 54.4743 24.0324 54.4743 23.0711C54.4743 22.1819 54.3279 21.5571 54.0108 21.1726C53.6937 20.7881 53.3033 20.5718 52.791 20.5718C52.4251 20.5718 52.108 20.6439 51.8152 20.8121C51.5225 20.9803 51.2298 21.1966 50.9614 21.485V25.6906C51.1322 25.7868 51.3517 25.8588 51.5957 25.9069C51.8396 25.955 52.0836 25.979 52.3031 25.979C52.9862 25.979 53.5229 25.7387 53.9132 25.234Z" fill="white"></path><path d="M57.4262 21.2207C57.4262 20.6439 57.4018 19.995 57.3774 19.2981H59.085C59.1582 19.6346 59.1826 19.947 59.207 20.2834C59.9145 19.5144 60.7195 19.1299 61.6465 19.1299C62.1832 19.1299 62.6711 19.25 63.1346 19.5144C63.5981 19.7787 63.9641 20.1873 64.2324 20.7641C64.5008 21.3408 64.6471 22.0618 64.6471 22.9269C64.6471 23.8402 64.4764 24.6332 64.1592 25.2821C63.8421 25.9309 63.403 26.4356 62.8175 26.748C62.2564 27.0845 61.5977 27.2527 60.8415 27.2527C60.3048 27.2527 59.7681 27.1566 59.2314 26.9884V30.2807L57.4018 30.4249V21.2207H57.4262ZM62.232 25.234C62.5979 24.7534 62.7931 24.0324 62.7931 23.0711C62.7931 22.1819 62.6467 21.5571 62.3296 21.1726C62.0125 20.7881 61.6221 20.5718 61.1098 20.5718C60.7439 20.5718 60.4268 20.6439 60.134 20.8121C59.8413 20.9803 59.5486 21.1966 59.2802 21.485V25.6906C59.451 25.7868 59.6705 25.8588 59.9145 25.9069C60.1584 25.955 60.4024 25.979 60.6219 25.979C61.305 25.979 61.8661 25.7387 62.232 25.234Z" fill="white"></path><path d="M67.9893 26.6519C67.2086 26.2193 66.5987 25.6185 66.184 24.8014C65.7693 24.0084 65.5497 23.0471 65.5497 21.9656C65.5497 20.7881 65.7937 19.7787 66.2816 18.9616C66.7695 18.1445 67.4282 17.5197 68.282 17.1112C69.1114 16.7026 70.0629 16.4863 71.1119 16.4863C71.7217 16.4863 72.3072 16.5584 72.8683 16.6786C73.4294 16.8228 73.9417 16.991 74.4296 17.2313L73.9661 18.6252C72.9903 18.1686 72.0633 17.9523 71.185 17.9523C70.4532 17.9523 69.7945 18.1205 69.2334 18.4329C68.6723 18.7453 68.2332 19.202 67.9405 19.8028C67.6233 20.4036 67.477 21.1485 67.477 21.9897C67.477 22.7347 67.5989 23.4076 67.8429 23.9843C68.0869 24.5611 68.4528 25.0177 68.9651 25.3782C69.4774 25.7146 70.136 25.8829 70.9167 25.8829C71.2826 25.8829 71.6242 25.8588 71.9901 25.7867C72.356 25.7146 72.6731 25.6425 72.9903 25.5224V23.3835H70.5264V21.9897H74.7711V26.4356C74.1613 26.724 73.527 26.9403 72.8439 27.0845C72.1608 27.2287 71.5022 27.3008 70.8435 27.3008C69.7213 27.3008 68.7943 27.0845 67.9893 26.6519Z" fill="white"></path><path d="M81.187 27.1564C81.1138 26.8439 81.0894 26.5075 81.065 26.123C80.7723 26.4594 80.4307 26.7238 79.9672 26.9641C79.5281 27.2044 79.0158 27.3006 78.4303 27.3006C77.9668 27.3006 77.5521 27.2044 77.1862 27.0362C76.8202 26.868 76.5031 26.6036 76.2835 26.2431C76.064 25.8827 75.942 25.4501 75.942 24.9454C75.942 24.1764 76.2104 23.5756 76.7714 23.119C77.3325 22.6624 78.2596 22.4461 79.5525 22.4461C80.0404 22.4461 80.5283 22.4701 80.9918 22.5422V22.398C80.9918 21.7011 80.8454 21.2205 80.5527 20.9321C80.2599 20.6437 79.8208 20.4995 79.2597 20.4995C78.8694 20.4995 78.4547 20.5476 78.0156 20.6677C77.5765 20.7879 77.1862 20.908 76.8446 21.0763L76.5519 19.7785C76.869 19.6343 77.3081 19.4901 77.8448 19.37C78.3815 19.2498 78.9426 19.1777 79.5281 19.1777C80.2112 19.1777 80.7966 19.2739 81.2845 19.4901C81.7724 19.7064 82.1384 20.0429 82.4067 20.5476C82.6751 21.0522 82.8214 21.7251 82.8214 22.5662V25.6904C82.8214 26.0269 82.8458 26.5075 82.8702 27.1564H81.187ZM80.1136 25.6904C80.5039 25.5222 80.7966 25.2819 81.0406 25.0175V23.5516C80.5527 23.5035 80.138 23.4795 79.8208 23.4795C79.0646 23.4795 78.5523 23.5996 78.2596 23.8399C77.9668 24.0803 77.8204 24.3927 77.8204 24.8012C77.8204 25.1857 77.918 25.4741 78.1376 25.6664C78.3571 25.8586 78.6255 25.9548 78.9914 25.9548C79.3573 25.9788 79.7233 25.8827 80.1136 25.6904Z" fill="white"></path><path d="M84.2607 25.2819V16.0055L86.066 15.8613V24.9695C86.066 25.3059 86.1148 25.5462 86.2368 25.6904C86.3588 25.8346 86.5295 25.9067 86.7979 25.9067C86.9198 25.9067 87.0662 25.8827 87.2858 25.8346L87.5053 27.1324C87.3346 27.2045 87.115 27.2525 86.8711 27.3006C86.6271 27.3486 86.3831 27.3727 86.1636 27.3727C84.895 27.3006 84.2607 26.6277 84.2607 25.2819Z" fill="white"></path><path d="M88.7983 25.2819V16.0055L90.6035 15.8613V24.9695C90.6035 25.3059 90.6523 25.5462 90.7743 25.6904C90.8963 25.8346 91.067 25.9067 91.3354 25.9067C91.4573 25.9067 91.6037 25.8827 91.8233 25.8346L92.0428 27.1324C91.8721 27.2045 91.6525 27.2525 91.4085 27.3006C91.1646 27.3486 90.9207 27.3727 90.7011 27.3727C89.4325 27.3006 88.7983 26.6277 88.7983 25.2819Z" fill="white"></path><path d="M99.5078 23.4557H94.2872C94.3604 25.0898 95.1654 25.931 96.6779 25.931C97.0438 25.931 97.4342 25.8829 97.8245 25.7868C98.2148 25.6906 98.5807 25.5705 98.9467 25.4263L99.337 26.6519C98.4344 27.0845 97.4342 27.3008 96.3364 27.3008C95.4826 27.3008 94.7751 27.1326 94.1896 26.8201C93.6041 26.5077 93.165 26.0511 92.8723 25.4503C92.5795 24.8495 92.4332 24.1526 92.4332 23.3115C92.4332 22.4463 92.5795 21.7013 92.8967 21.0765C93.2138 20.4516 93.6285 19.971 94.1896 19.6346C94.7507 19.2981 95.385 19.1299 96.1168 19.1299C96.8731 19.1299 97.5073 19.2981 97.9952 19.6586C98.5075 19.995 98.8735 20.4757 99.1174 21.0524C99.3614 21.6292 99.4833 22.2781 99.4833 22.975V23.4557H99.5078ZM97.7269 22.3261C97.7025 21.7013 97.5317 21.2207 97.239 20.9083C96.9463 20.5958 96.5803 20.4276 96.0924 20.4276C95.6289 20.4276 95.2386 20.5958 94.9459 20.9083C94.6287 21.2207 94.4336 21.7013 94.336 22.3021H97.7269V22.3261Z" fill="white"></path><path d="M100.874 21.2685C100.874 20.8359 100.849 20.1871 100.825 19.2979H102.533C102.557 19.5142 102.581 19.7785 102.606 20.091C102.63 20.4034 102.655 20.6437 102.655 20.8359C102.874 20.4995 103.069 20.2111 103.289 19.9708C103.484 19.7305 103.728 19.5382 103.996 19.394C104.265 19.2498 104.582 19.1777 104.923 19.1777C105.216 19.1777 105.436 19.2018 105.655 19.2739L105.436 20.8359C105.265 20.7879 105.07 20.7638 104.85 20.7638C104.411 20.7638 104.045 20.86 103.728 21.0763C103.411 21.2926 103.069 21.653 102.703 22.1337V27.1804H100.898V21.2685H100.874Z" fill="white"></path><path d="M106.68 30.3766C106.412 30.3286 106.192 30.2805 106.021 30.2084L106.363 28.9107C106.485 28.9347 106.631 28.9828 106.826 29.0068C107.021 29.0308 107.192 29.0549 107.363 29.0549C108.168 29.0549 108.778 28.5502 109.168 27.5168L109.29 27.2284L106.363 19.3219H108.314L109.802 23.7438C110.046 24.4888 110.193 25.0896 110.266 25.4741C110.412 24.8973 110.559 24.3446 110.754 23.7678L112.242 19.2979H114.072L111.144 27.2525C110.876 27.9975 110.559 28.6223 110.242 29.0789C109.924 29.5355 109.534 29.872 109.119 30.1123C108.68 30.3286 108.168 30.4487 107.534 30.4487C107.241 30.4487 106.948 30.4247 106.68 30.3766Z" fill="white"></path><path d="M38.9591 11.7518C38.5443 11.5355 38.2516 11.1991 38.032 10.7905C37.8125 10.382 37.7149 9.90132 37.7149 9.34858C37.7149 8.77181 37.8369 8.26714 38.0564 7.83456C38.276 7.40199 38.6175 7.06554 39.0322 6.84925C39.4714 6.60893 39.9593 6.48877 40.5447 6.48877C41.1058 6.48877 41.5693 6.60893 41.9841 6.82522C42.3744 7.04151 42.6915 7.37796 42.9111 7.7865C43.1306 8.19504 43.2282 8.67569 43.2282 9.20439C43.2282 9.78116 43.1062 10.2858 42.8867 10.7184C42.6671 11.151 42.3256 11.4874 41.9109 11.7037C41.4962 11.944 40.9838 12.0642 40.4228 12.0642C39.8617 12.0882 39.3738 11.9681 38.9591 11.7518ZM41.4474 11.0789C41.7157 10.9107 41.9109 10.6703 42.0572 10.3579C42.1792 10.0455 42.2524 9.68503 42.2524 9.30052C42.2524 8.91601 42.2036 8.55553 42.0816 8.26714C41.9597 7.95472 41.7889 7.7144 41.5205 7.54618C41.2522 7.35392 40.9351 7.28183 40.5203 7.28183C40.13 7.28183 39.8129 7.37796 39.5445 7.54618C39.2762 7.73844 39.081 7.97876 38.9347 8.29117C38.7883 8.60359 38.7395 8.94004 38.7395 9.32455C38.7395 9.70906 38.8127 10.0695 38.9347 10.382C39.0566 10.6944 39.2518 10.9347 39.5202 11.127C39.7885 11.3192 40.1056 11.3913 40.496 11.3913C40.8375 11.3432 41.179 11.2711 41.4474 11.0789Z" fill="white"></path><path d="M45.1554 7.35409H43.4478L43.5209 6.56104H47.8389L47.7413 7.35409H46.1068V12.0163H45.1554V7.35409Z" fill="white"></path><path d="M52.9618 12.0161H51.8885L50.254 9.61294H49.5953V12.0161H48.6439V6.5849H49.5953V8.81988H50.0832L51.2298 7.1857C51.4006 6.94538 51.5713 6.77715 51.7421 6.65699C51.9129 6.53683 52.1324 6.48877 52.3764 6.48877C52.5959 6.48877 52.7911 6.5128 52.9375 6.5849L52.7423 7.30586C52.6447 7.25779 52.5471 7.23376 52.4496 7.23376C52.3276 7.23376 52.23 7.25779 52.1568 7.30586C52.0836 7.35392 51.986 7.45005 51.9129 7.57021L50.9127 8.9881L52.9618 12.0161Z" fill="white"></path><path d="M53.6937 6.58496H55.1818C55.8893 6.58496 56.426 6.72915 56.7919 7.01754C57.1578 7.30592 57.353 7.71447 57.353 8.24317C57.353 8.60365 57.2798 8.91607 57.109 9.18042C56.9383 9.44477 56.7187 9.66106 56.4016 9.80525C56.1088 9.94945 55.7673 10.0215 55.377 10.0215C55.1574 10.0215 54.9135 9.99751 54.6451 9.94945V12.0162H53.6937V6.58496ZM56.0844 9.0122C56.2796 8.81994 56.3772 8.57962 56.3772 8.24317C56.3772 7.90672 56.2796 7.6664 56.0601 7.52221C55.8649 7.37802 55.5478 7.30592 55.1574 7.30592H54.6451V9.22849C54.8891 9.27655 55.0598 9.27655 55.1818 9.27655C55.5721 9.27655 55.8893 9.18042 56.0844 9.0122Z" fill="white"></path><path d="M59.1826 11.7518C58.7678 11.5355 58.4751 11.1991 58.2555 10.7905C58.036 10.382 57.9384 9.90132 57.9384 9.34858C57.9384 8.77181 58.0604 8.26714 58.2799 7.83456C58.4995 7.40199 58.841 7.06554 59.2557 6.84925C59.6949 6.60893 60.1828 6.48877 60.7682 6.48877C61.3293 6.48877 61.7928 6.60893 62.2076 6.82522C62.5979 7.04151 62.915 7.37796 63.1346 7.7865C63.3541 8.19504 63.4517 8.67569 63.4517 9.20439C63.4517 9.78116 63.3297 10.2858 63.1102 10.7184C62.8906 11.151 62.5491 11.4874 62.1344 11.7037C61.7197 11.944 61.2074 12.0642 60.6463 12.0642C60.0608 12.0882 59.5729 11.9681 59.1826 11.7518ZM61.6465 11.0789C61.9148 10.9107 62.11 10.6703 62.2563 10.3579C62.3783 10.0455 62.4515 9.68503 62.4515 9.30052C62.4515 8.91601 62.4027 8.55553 62.2807 8.26714C62.1588 7.95472 61.988 7.7144 61.7197 7.54618C61.4513 7.35392 61.1342 7.28183 60.7195 7.28183C60.3291 7.28183 60.012 7.37796 59.7436 7.54618C59.4753 7.73844 59.2801 7.97876 59.1338 8.29117C58.9874 8.60359 58.9386 8.94004 58.9386 9.32455C58.9386 9.70906 59.0118 10.0695 59.1338 10.382C59.2557 10.6944 59.4509 10.9347 59.7193 11.127C59.9876 11.3192 60.3047 11.3913 60.6951 11.3913C61.061 11.3432 61.3781 11.2711 61.6465 11.0789Z" fill="white"></path><path d="M68.282 12.0161V9.03615C68.282 8.65164 68.3064 8.21906 68.3308 7.73842L65.5497 12.0161H64.5007V6.58488H65.379V9.68501C65.379 10.0215 65.379 10.3819 65.3546 10.7905L68.0868 6.58488H69.1846V12.0161H68.282ZM66.1352 6.10424C65.9401 6.00811 65.7693 5.86392 65.6717 5.6957C65.5741 5.52747 65.5009 5.35925 65.4765 5.16699H66.1596C66.2328 5.57554 66.4767 5.76779 66.8671 5.76779C67.2574 5.76779 67.5013 5.57554 67.5989 5.16699H68.282C68.2576 5.35925 68.1844 5.52747 68.0868 5.6957C67.9892 5.86392 67.8185 5.98408 67.6233 6.10424C67.4282 6.2244 67.1598 6.27247 66.8671 6.27247C66.5987 6.27247 66.3304 6.20037 66.1352 6.10424Z" fill="white"></path><path d="M71.6973 7.35409H69.9896L70.0628 6.56104H74.3564L74.2588 7.35409H72.6243V12.0163H71.6729V7.35409H71.6973Z" fill="white"></path><path d="M75.1614 6.58496H78.406L78.3084 7.35399H76.1129V8.84397H78.1865V9.56493H76.1129V11.2231H78.4304L78.3572 11.9922H75.1614V6.58496Z" fill="white"></path><path d="M85.0902 9.32461C85.2854 9.44477 85.4317 9.58896 85.5537 9.80525C85.6757 9.99751 85.7245 10.2378 85.7245 10.4781C85.7245 10.7906 85.6513 11.0549 85.5049 11.2712C85.3586 11.5115 85.1146 11.6798 84.8219 11.7999C84.5291 11.9201 84.1632 11.9922 83.7485 11.9922H81.9432V6.58496H83.6753C84.2608 6.58496 84.6999 6.70512 84.9926 6.92141C85.2854 7.1377 85.4317 7.45011 85.4317 7.83463C85.4317 8.14704 85.3342 8.43543 85.1634 8.65172C84.9682 8.868 84.7243 9.0122 84.4316 9.10832C84.6755 9.13236 84.8951 9.20445 85.0902 9.32461ZM82.8947 8.79591H83.4801C83.6753 8.79591 83.8461 8.74784 83.9924 8.67575C84.1388 8.60365 84.2608 8.48349 84.334 8.36333C84.4072 8.24317 84.4559 8.09898 84.4559 7.93075C84.4559 7.71447 84.3828 7.54624 84.212 7.42608C84.0412 7.30592 83.8217 7.25786 83.5045 7.25786H82.8703V8.79591H82.8947ZM84.4803 11.079C84.6755 10.9107 84.7731 10.6944 84.7731 10.4061C84.7731 10.0936 84.6755 9.87735 84.4559 9.70913C84.2364 9.5409 83.9436 9.46881 83.5289 9.46881H82.8947V11.2952H83.6021C83.9924 11.3193 84.2852 11.2472 84.4803 11.079Z" fill="white"></path><path fill-rule="evenodd" clip-rule="evenodd" d="M24.6634 6.60889H14.5394C9.758 6.60889 8.02594 8.33919 8.02594 13.0254V22.9987C8.02594 27.709 9.78239 29.4153 14.5394 29.4153H24.6634C29.4449 29.4153 31.1769 27.685 31.1769 22.9987V13.0254C31.2013 8.33919 29.4449 6.60889 24.6634 6.60889Z" fill="#C8102E"></path><path d="M12.6123 18.0239H13.2221V21.0039H12.6123V19.8023H11.2218V21.0039H10.6119V18.0239H11.2218V19.2255H12.6123V18.0239ZM16.0764 19.7302C16.0764 20.2108 15.8324 20.4752 15.3933 20.4752C14.9542 20.4752 14.7103 20.2108 14.7103 19.7062V18.0239H14.1004V19.7302C14.1004 20.5713 14.5639 21.052 15.3933 21.052C16.2228 21.052 16.7107 20.5713 16.7107 19.7062V18.0239H16.1008V19.7302H16.0764ZM23.1754 20.0667L22.4923 18.0239H21.98L21.2969 20.0667L20.6383 18.0239H19.9796L21.0286 21.0039H21.5409L22.224 19.0333L22.907 21.0039H23.4193L24.4683 18.0239H23.834L23.1754 20.0667ZM25.5905 19.7302H26.7127V19.1775H25.5905V18.5767H27.225V18.0239H25.005V21.0039H27.2981V20.4512H25.6149V19.7302H25.5905ZM28.0056 21.0039H28.6155V18.0239H28.0056V21.0039ZM17.906 20.3791L17.6377 21.0039H17.0034L18.3207 18.0239H18.8574L20.1748 21.0039H19.5405L19.2721 20.3791H17.906ZM18.1256 19.8504H19.0526L18.5891 18.793L18.1256 19.8504Z" fill="white"></path><path d="M19.6137 14.2268C17.4913 14.2268 15.7593 12.5205 15.7593 10.4297H16.296C16.296 12.2321 17.7841 13.698 19.6137 13.698C21.4433 13.698 22.9314 12.2321 22.9314 10.4297H23.4681C23.4681 12.5205 21.7361 14.2268 19.6137 14.2268Z" fill="white"></path></g></svg>