<svg width="200" height="200" viewBox="0 0 200 200" fill="none" xmlns="http://www.w3.org/2000/svg"><path fill-rule="evenodd" clip-rule="evenodd" d="M167.976 50.1615C167.947 50.3402 167.898 50.5068 167.828 50.664C167.691 50.9731 167.475 51.2503 167.187 51.462C167.14 51.496 167.096 51.5257 167.051 51.5538L119.062 81.205L130.648 88.364L164.949 67.1714L165.092 67.0908L165.106 67.0836L165.239 67.0231C165.246 67.02 165.254 67.0169 165.261 67.0139C165.278 67.0076 165.295 67.0011 165.312 66.9949C165.346 66.982 165.38 66.9706 165.414 66.9601C165.434 66.9544 165.454 66.9486 165.474 66.9431C165.512 66.9322 165.551 66.9228 165.59 66.9147C165.603 66.9126 165.616 66.91 165.628 66.9077C165.669 66.8994 165.71 66.893 165.751 66.8879C165.77 66.8859 165.79 66.8838 165.81 66.8819C165.847 66.8779 165.884 66.8755 165.921 66.874C165.937 66.8737 165.953 66.8733 165.969 66.8731C166.136 66.8703 166.303 66.889 166.466 66.9278C166.489 66.9332 166.512 66.9393 166.536 66.9458C166.566 66.9545 166.597 66.9637 166.627 66.9736C166.647 66.9802 166.668 66.9874 166.688 66.995C166.722 67.0074 166.756 67.0207 166.789 67.0348C166.806 67.0422 166.823 67.0499 166.84 67.0579C166.881 67.0767 166.921 67.0967 166.96 67.118C166.964 67.1206 166.969 67.1233 166.974 67.1261L166.984 67.1313C167.025 67.1543 167.065 67.1787 167.104 67.2047L166.974 67.1261C167.025 67.1547 167.075 67.1853 167.123 67.2179C167.156 67.2397 167.187 67.2624 167.218 67.286C167.234 67.2982 167.249 67.3106 167.264 67.3231C167.287 67.3409 167.309 67.3595 167.33 67.3787C167.349 67.3959 167.367 67.4129 167.386 67.4302C167.406 67.4495 167.426 67.4696 167.445 67.49C167.464 67.5091 167.481 67.5283 167.498 67.5477C167.513 67.565 167.528 67.5825 167.543 67.6003C167.563 67.6243 167.582 67.6486 167.601 67.6733C167.615 67.6928 167.629 67.7129 167.643 67.7334C167.66 67.7572 167.676 67.7814 167.692 67.8058C167.695 67.8112 167.698 67.8164 167.701 67.8216L167.724 67.8584C167.738 67.8821 167.751 67.9061 167.764 67.9304L167.701 67.8216C167.733 67.8733 167.762 67.926 167.789 67.9794C167.808 68.0172 167.826 68.0561 167.843 68.0955C167.852 68.1184 167.862 68.1418 167.871 68.1652C167.88 68.1906 167.89 68.2166 167.898 68.2428C167.903 68.2571 167.907 68.2705 167.912 68.2839C167.923 68.3202 167.933 68.3584 167.943 68.3969C167.964 68.4825 167.979 68.568 167.988 68.6536C167.996 68.7256 168 68.7989 168 68.8729V87.6916C168 88.3849 167.641 89.0288 167.051 89.3932L149.677 100.125L167.051 110.858C167.641 111.222 168 111.866 168 112.559V131.378C168 131.455 167.996 131.532 167.987 131.608C167.984 131.638 167.979 131.668 167.975 131.698L167.962 131.767L167.944 131.85L167.92 131.937C167.914 131.959 167.907 131.981 167.9 132.004C167.89 132.031 167.881 132.058 167.871 132.085C167.862 132.109 167.852 132.133 167.842 132.157C167.805 132.243 167.763 132.326 167.715 132.406L167.701 132.429L167.695 132.437L167.67 132.476L167.65 132.507C167.633 132.533 167.615 132.558 167.596 132.583C167.586 132.596 167.577 132.608 167.567 132.62C167.508 132.695 167.444 132.765 167.377 132.829C167.371 132.834 167.364 132.84 167.358 132.846C167.325 132.877 167.292 132.906 167.258 132.933C167.246 132.942 167.235 132.951 167.223 132.96C167.192 132.985 167.16 133.008 167.128 133.03C167.116 133.038 167.104 133.046 167.092 133.053C167.061 133.074 167.029 133.094 166.997 133.112C166.989 133.116 166.982 133.121 166.974 133.125L166.866 133.18L166.784 133.218C166.753 133.231 166.721 133.244 166.689 133.256C166.668 133.263 166.647 133.271 166.626 133.278C166.597 133.287 166.566 133.296 166.536 133.305C166.512 133.312 166.489 133.318 166.465 133.323C166.43 133.331 166.394 133.339 166.357 133.346C166.321 133.352 166.284 133.358 166.247 133.363C166.217 133.366 166.187 133.369 166.156 133.372L166.13 133.374L166.095 133.376L166.031 133.378L165.968 133.378C165.955 133.377 165.941 133.377 165.927 133.376C165.884 133.375 165.841 133.372 165.798 133.368C165.786 133.366 165.773 133.365 165.761 133.363C165.717 133.359 165.672 133.352 165.628 133.343L165.59 133.335C165.547 133.327 165.503 133.316 165.46 133.304C165.449 133.3 165.437 133.297 165.426 133.293C165.381 133.281 165.337 133.266 165.294 133.249C165.283 133.245 165.272 133.24 165.261 133.236C165.218 133.219 165.175 133.2 165.133 133.18C165.122 133.175 165.112 133.169 165.101 133.164C165.05 133.138 164.999 133.11 164.949 133.079L130.648 111.886L119.062 119.044L167.051 148.697C167.168 148.769 167.274 148.851 167.371 148.941L167.396 148.966L167.429 148.999C167.624 149.198 167.772 149.432 167.868 149.684C167.899 149.764 167.924 149.845 167.944 149.929L167.946 149.938C167.982 150.088 168 150.241 168 150.396L168 169.251C168 169.976 167.608 170.644 166.974 170.997C166.341 171.351 165.566 171.333 164.949 170.952L99.9998 130.837L35.0509 170.952C34.434 171.333 33.6591 171.35 33.0258 170.997C32.3925 170.644 32 169.976 32 169.251V150.398C32 150.279 32.0107 150.161 32.0313 150.045C32.1228 149.537 32.4092 149.066 32.8622 148.753C32.8904 148.734 32.9193 148.715 32.9487 148.697L80.9386 119.045L69.3524 111.886L35.0513 133.079L34.9218 133.151L34.8584 133.184C34.8207 133.202 34.7823 133.219 34.7436 133.235C34.729 133.24 34.7147 133.246 34.7005 133.251C34.6712 133.262 34.6416 133.273 34.6119 133.282L34.5636 133.297C34.5583 133.298 34.553 133.3 34.5477 133.301C34.5021 133.315 34.4567 133.326 34.4112 133.336L34.369 133.343C34.3268 133.352 34.2841 133.358 34.2413 133.364C34.2285 133.365 34.2155 133.366 34.2025 133.367C34.1593 133.372 34.1163 133.375 34.0733 133.377L34.0519 133.377L34.0308 133.377C33.989 133.379 33.9467 133.378 33.9045 133.376C33.8884 133.375 33.8731 133.374 33.8578 133.373C33.8216 133.37 33.7847 133.367 33.748 133.362C33.7167 133.358 33.6854 133.353 33.6542 133.348C33.613 133.341 33.5725 133.332 33.5322 133.322C33.5148 133.318 33.4977 133.314 33.4807 133.309C33.443 133.299 33.4054 133.288 33.3681 133.275C33.3529 133.271 33.3378 133.265 33.3228 133.26C33.2847 133.246 33.2467 133.231 33.2092 133.215L33.1557 133.191C33.1208 133.175 33.086 133.158 33.0518 133.139C33.0431 133.134 33.0345 133.13 33.026 133.125L33.0238 133.123L32.9138 133.056L32.8718 133.029C32.8397 133.008 32.8079 132.985 32.7767 132.961L32.742 132.933C32.6294 132.842 32.5254 132.738 32.4327 132.62C32.4234 132.608 32.414 132.596 32.4047 132.584C32.3821 132.554 32.3605 132.524 32.3397 132.493C32.3299 132.478 32.3206 132.464 32.3115 132.45C32.3075 132.443 32.3031 132.436 32.2986 132.429L32.2298 132.309L32.1944 132.238C32.1821 132.212 32.1702 132.186 32.1588 132.159C32.1012 132.024 32.0598 131.886 32.0337 131.746C32.0312 131.73 32.0284 131.714 32.0259 131.699C32.008 131.591 31.9995 131.483 31.9998 131.375L32 112.559C32 111.866 32.3591 111.222 32.949 110.858L50.3228 100.125L32.949 89.3932C32.3591 89.0288 32 88.3849 32 87.6916L31.9998 68.8624C32.0009 68.6038 32.0521 68.3431 32.1571 68.0952C32.1688 68.0681 32.181 68.0409 32.1938 68.014C32.2046 67.9911 32.216 67.9681 32.228 67.9454C32.2367 67.9289 32.2454 67.9128 32.2544 67.8967C32.2684 67.8717 32.2832 67.8465 32.2986 67.8216C32.3304 67.7701 32.3642 67.7206 32.3997 67.673C32.4148 67.6531 32.4303 67.6332 32.4462 67.6136C32.5015 67.5448 32.5606 67.4809 32.6231 67.4216L32.6453 67.4015C32.6777 67.371 32.7105 67.3427 32.744 67.3157L32.7658 67.299C32.8491 67.2333 32.9369 67.1751 33.0283 67.1244L33.0628 67.106L33.1142 67.0797L33.1368 67.069L33.1468 67.064L33.2039 67.0381C33.2433 67.0209 33.283 67.0052 33.3231 66.9908C33.3378 66.9855 33.3529 66.9803 33.368 66.9753C33.4054 66.9628 33.443 66.9515 33.4809 66.9414C33.4977 66.9368 33.5148 66.9325 33.5319 66.9283C33.6951 66.8891 33.8629 66.8703 34.0314 66.8728C34.0472 66.8733 34.0636 66.8737 34.08 66.8744C34.1166 66.8755 34.1529 66.8779 34.1892 66.8813L34.2199 66.8849L34.2505 66.8885C34.2901 66.893 34.3298 66.8992 34.3694 66.9067C34.383 66.9097 34.397 66.9125 34.411 66.9154C34.4513 66.9234 34.4913 66.9331 34.5311 66.9441C34.5484 66.9493 34.5651 66.9542 34.5817 66.9592C34.6184 66.9699 34.6556 66.9824 34.6926 66.9961L34.7442 67.0163C34.7803 67.0306 34.8157 67.046 34.8508 67.0626L34.8723 67.073L34.9083 67.0908L35.0513 67.1714L69.3524 88.3651L77.7038 83.204L80.9368 81.206L32.9487 51.5538L32.8628 51.495L32.8127 51.462C32.525 51.2503 32.3088 50.9731 32.1719 50.664C32.1441 50.601 32.1193 50.5364 32.0979 50.4705C32.0335 50.272 32.0002 50.0643 31.9998 49.8549L32 31.0001C32 30.2749 32.3925 29.6066 33.0258 29.2534C33.6591 28.9001 34.434 28.9174 35.0509 29.2984L99.9998 69.412L164.949 29.2984C165.566 28.9174 166.341 28.9001 166.974 29.2534C167.608 29.6066 168 30.2749 168 31.0001L168 49.8549C168 49.9578 167.992 50.0603 167.976 50.1615ZM84.6079 102.476L73.1598 109.535L78.9008 113.083L85.7911 117.341C85.7927 117.342 85.7944 117.343 85.796 117.344L101.051 126.786L164 165.665L164 151.513L114.205 120.746L114.2 120.742L98.9501 111.338L98.9487 111.337L93.2758 107.831L84.6079 102.476ZM84.7425 121.396L35.9998 151.513L36 165.665L96.1969 128.486L84.7425 121.396ZM145.871 102.476L134.452 109.534L163.897 127.726L164 127.791V113.675L145.871 102.476ZM84.7444 83.5561L70.4152 92.4102C70.4115 92.4126 70.4077 92.4149 70.4039 92.4173L55.1809 101.827L55.1718 101.831L36 113.675V127.791L68.3011 107.833L68.3025 107.832L83.5591 98.423L84.6078 97.774L96.1926 90.6167L96.0998 90.559L84.7444 83.5561ZM164 72.4596L137.372 88.912L131.71 92.4105C131.706 92.4131 131.702 92.4156 131.698 92.4182L119.947 99.665L116.441 101.828L116.434 101.831L103.807 109.634L115.256 116.694L129.596 107.833L144.819 98.424L144.829 98.417L164 86.5762V72.4596ZM99.9999 92.9662L88.4138 100.125L90.8648 101.639L99.9998 107.283L107.782 102.475L111.585 100.125L99.9999 92.9662ZM36 72.4596V86.5762L54.129 97.7744L65.5468 90.716L62.3368 88.732L36 72.4596ZM36 34.586V48.7372L85.7864 79.4992L85.7932 79.5035L101.05 88.9128L101.051 88.9137L115.392 97.7749L126.84 90.7144L123.445 88.616L114.205 82.9073L114.198 82.903L98.9475 73.4635L98.9378 73.457L36 34.586ZM164 34.586L103.803 71.7646L115.258 78.8542L159.443 51.553L164 48.7372V34.586Z" fill="currentColor"></path></svg>