<svg xmlns="http://www.w3.org/2000/svg" width="32" height="32" viewBox="0 0 32 32" data-src="data:image/svg+xml,%3Csvg width='32' height='32' viewBox='0 0 32 32' xmlns='http://www.w3.org/2000/svg'%3E %3Cpath d='M25.8345 16.5546L11.7025 25.9759C11.6021 26.0427 11.4855 26.081 11.365 26.0868C11.2446 26.0925 11.1248 26.0655 11.0185 26.0086C10.9122 25.9517 10.8233 25.867 10.7613 25.7636C10.6993 25.6601 10.6666 25.5418 10.6665 25.4212V6.57855C10.6666 6.45796 10.6993 6.33965 10.7613 6.23621C10.8233 6.13277 10.9122 6.04808 11.0185 5.99117C11.1248 5.93425 11.2446 5.90723 11.365 5.91299C11.4855 5.91876 11.6021 5.95708 11.7025 6.02389L25.8345 15.4452C25.9258 15.5061 26.0007 15.5886 26.0525 15.6853C26.1042 15.7821 26.1313 15.8901 26.1313 15.9999C26.1313 16.1096 26.1042 16.2177 26.0525 16.3144C26.0007 16.4112 25.9258 16.4937 25.8345 16.5546V16.5546Z' /%3E %3C/svg%3E" xmlns:xlink="http://www.w3.org/1999/xlink"><path d="M25.8345 16.5546L11.7025 25.9759C11.6021 26.0427 11.4855 26.081 11.365 26.0868C11.2446 26.0925 11.1248 26.0655 11.0185 26.0086C10.9122 25.9517 10.8233 25.867 10.7613 25.7636C10.6993 25.6601 10.6666 25.5418 10.6665 25.4212V6.57855C10.6666 6.45796 10.6993 6.33965 10.7613 6.23621C10.8233 6.13277 10.9122 6.04808 11.0185 5.99117C11.1248 5.93425 11.2446 5.90723 11.365 5.91299C11.4855 5.91876 11.6021 5.95708 11.7025 6.02389L25.8345 15.4452C25.9258 15.5061 26.0007 15.5886 26.0525 15.6853C26.1042 15.7821 26.1313 15.8901 26.1313 15.9999C26.1313 16.1096 26.1042 16.2177 26.0525 16.3144C26.0007 16.4112 25.9258 16.4937 25.8345 16.5546V16.5546Z"></path></svg>