<svg width="200" height="200" viewBox="0 0 200 200" fill="none" xmlns="http://www.w3.org/2000/svg"><path fill-rule="evenodd" clip-rule="evenodd" d="M101.793 34.113C101.455 33.4314 100.761 33 100 33C99.2396 33 98.5449 33.4314 98.2076 34.113L95.6437 39.2945L89.8731 40.1359C89.118 40.246 88.4914 40.7762 88.2578 41.5026C88.0241 42.229 88.2241 43.025 88.7734 43.5547L92.929 47.5617L91.9431 53.2453C91.8131 53.9948 92.1194 54.7531 92.7336 55.2019C93.3477 55.6507 94.1633 55.7123 94.8378 55.3609L100 52.671L105.162 55.3609C105.837 55.7123 106.653 55.6507 107.267 55.2019C107.881 54.7531 108.187 53.9948 108.057 53.2453L107.071 47.5617L111.227 43.5547C111.776 43.025 111.976 42.229 111.743 41.5026C111.509 40.7762 110.882 40.246 110.127 40.1359L104.357 39.2945L101.793 34.113ZM98.7633 42.0092L100 39.5097L101.237 42.0092C101.528 42.5982 102.091 43.0064 102.741 43.1013L105.515 43.5057L103.531 45.4186C103.054 45.8791 102.835 46.5464 102.949 47.2001L103.425 49.9451L100.924 48.6421C100.345 48.3403 99.6551 48.3403 99.076 48.6421L96.5753 49.9451L97.0515 47.2001C97.1649 46.5464 96.9467 45.8791 96.4692 45.4186L94.4854 43.5057L97.2593 43.1013C97.9097 43.0064 98.4719 42.5982 98.7633 42.0092Z" fill="currentColor"></path><path fill-rule="evenodd" clip-rule="evenodd" d="M100 53.9589C100.676 53.9589 101.305 54.2997 101.675 54.8651L124.803 90.2729C124.857 90.3447 124.907 90.4208 124.952 90.5006L132.802 102.519C133.203 103.134 133.236 103.919 132.886 104.565C132.537 105.21 131.862 105.613 131.128 105.613H125.345L144.808 135.419C145.21 136.034 145.242 136.819 144.893 137.465C144.543 138.11 143.868 138.512 143.134 138.512H138.326L154.924 163.906C155.326 164.52 155.358 165.306 155.009 165.952C154.66 166.598 153.984 167 153.25 167H46.75C46.0157 167 45.3404 166.598 44.9909 165.952C44.6415 165.306 44.6741 164.52 45.0759 163.906L61.6743 138.512H56.8665C56.1323 138.512 55.4571 138.11 55.1076 137.465C54.7581 136.819 54.7905 136.034 55.1919 135.419L60.6731 127.025C60.7209 126.938 60.775 126.856 60.8344 126.778L74.6552 105.613H68.8728C68.1386 105.613 67.4634 105.21 67.1139 104.565C66.7644 103.919 66.7968 103.134 67.1984 102.519L98.3257 54.8651C98.6951 54.2997 99.3248 53.9589 100 53.9589ZM135.272 163C114.942 162.988 105.063 156.078 100.192 149.559C97.7186 146.25 96.4581 142.94 95.8167 140.463C95.6271 139.73 95.4922 139.073 95.3963 138.513H133.547L149.553 163H135.272ZM91.9443 141.465C91.6456 140.311 91.4613 139.307 91.3475 138.513H66.4529L50.4467 163H111.767C104.772 160.153 100.094 156.11 96.9875 151.954C94.1383 148.141 92.6855 144.328 91.9443 141.465ZM63.4077 130.153L60.5611 134.512H139.439L125.288 112.841C125.171 113.082 125.045 113.33 124.91 113.585C123.447 116.333 120.872 119.83 116.412 123.011C107.608 129.291 91.7775 134.13 63.4077 130.153ZM122.615 108.748C122.594 108.818 122.571 108.893 122.546 108.972C122.341 109.621 121.981 110.573 121.378 111.706C120.176 113.966 117.995 116.969 114.09 119.755C106.582 125.11 92.3959 129.866 65.8303 126.443L79.4325 105.613H120.568L122.615 108.748ZM100 59.616L119.99 90.2185C106.936 93.1831 98.2327 90.9456 92.7878 88.0267C89.8574 86.4558 87.8134 84.657 86.5128 83.2697C86.0476 82.7735 85.6781 82.3306 85.3981 81.9708L100 59.616ZM72.5681 101.613L83.1103 85.4733C83.2618 85.6448 83.4232 85.8226 83.5947 86.0055C85.1446 87.6587 87.5265 89.7448 90.898 91.5521C97.4811 95.0812 107.626 97.4351 122.314 93.7766L127.432 101.613H121.671L121.65 101.613H78.3499L78.3292 101.613H72.5681Z" fill="currentColor"></path></svg>