<svg width="200" height="200" viewBox="0 0 200 200" fill="none" xmlns="http://www.w3.org/2000/svg"><path fill-rule="evenodd" clip-rule="evenodd" d="M55.0169 68.141C55.3781 68.0617 56.7042 68.0283 59.6457 68.013L70.9462 68.0098C73.1782 68.0212 74.1676 68.0457 74.4383 68.1032L75.9327 68.4202L76.02 69.9453L76.038 70.2092C76.0458 70.3333 76.0493 70.4273 76.0496 70.5459L76.05 88.609L94.1029 88.6099C95.5413 88.6099 96.6085 89.6175 96.6885 91.0271L96.6933 91.1981V108.652C96.6922 108.8 96.6906 108.894 96.685 108.983L96.6671 109.165C96.6076 109.637 96.4418 110.076 96.0365 110.479C95.632 110.881 95.1928 111.044 94.7209 111.101C94.5501 111.121 94.4443 111.124 94.1997 111.124L76.05 111.124L76.0508 131.521L74.2155 131.672L73.8033 131.711C73.7255 131.717 73.6603 131.718 73.5662 131.718L55.9994 131.719L55.7337 131.721C54.4755 131.7 53.4613 130.727 53.5087 129.371L53.506 111.127L33.5296 111.127L33.1396 109.632C33.0623 109.336 33.0293 108.009 33.0138 104.994L33.001 96.5601C33.0061 92.4249 33.02 90.6496 33.0794 90.2987L33.3488 88.7078L34.9607 88.6347L35.3219 88.6152L35.5116 88.6108L53.506 88.609L53.5066 68.5461L55.0169 68.141ZM68.6652 72.003L62.4602 72.0047C62.1236 72.0056 61.7929 72.0066 61.47 72.0078L57.506 72.032L57.5064 90.187C57.5054 90.3661 57.5009 90.4959 57.4828 90.6365L57.4599 90.7829C57.3688 91.2839 57.133 91.7551 56.6658 92.1236C56.2735 92.433 55.8918 92.549 55.4737 92.5914C55.3221 92.6068 55.2353 92.6088 54.9963 92.6099L37.015 92.61L37.0057 94.4893L37.0009 99.7342C37.0021 100.824 37.0044 101.897 37.0078 102.903L37.032 107.127L55.1253 107.129C55.2659 107.132 55.3796 107.139 55.5009 107.155L55.626 107.175C56.1456 107.266 56.6299 107.506 57.0087 107.986C57.3285 108.391 57.4468 108.788 57.4888 109.228C57.4993 109.339 57.5035 109.418 57.5052 109.543L57.506 127.719L72.05 127.718L72.0497 109.451L72.054 109.316C72.0627 109.138 72.0749 109.011 72.112 108.838C72.1996 108.432 72.387 108.045 72.7445 107.711C73.089 107.39 73.4634 107.234 73.8544 107.165C74.0174 107.136 74.1396 107.128 74.313 107.124L92.693 107.124V92.609L74.7839 92.6099L74.5097 92.612L74.2322 92.6051C74.103 92.5989 73.998 92.5882 73.8657 92.5646C73.429 92.4864 73.0156 92.3026 72.6537 91.9206C72.2999 91.5472 72.1408 91.1401 72.0794 90.712C72.0671 90.626 72.0597 90.5514 72.0555 90.4733L72.05 90.2141L72.049 72.019L71.6274 72.0159C70.8027 72.01 69.7938 72.0057 68.6652 72.003Z" fill="currentColor"></path><path fill-rule="evenodd" clip-rule="evenodd" d="M122.687 69.6484L124.737 71.5781L137.363 84.2006L151.324 70.2606L152.673 70.6965L152.747 70.726C153.205 70.9246 153.829 71.5407 158.604 76.2985L163.591 81.2895C165.272 82.9809 166.396 84.1249 166.529 84.2873L167.345 85.2897L166.766 86.4457C166.734 86.5106 166.689 86.5835 166.629 86.6688L166.549 86.7775C166.253 87.1617 165.676 87.7747 164.559 88.9078L161.691 91.7882C161.309 92.1696 160.929 92.5468 160.562 92.9108L158.55 94.8925C157.805 95.626 157.018 96.4083 156.112 97.3129L153.306 100.123L153.891 100.698L154.85 101.665L156.376 103.169L160.228 107.03L163.721 110.513L167.475 114.272L166.757 115.58L166.717 115.659C166.614 115.854 166.494 116.03 166.318 116.201L160.75 121.738L153.698 128.788L153.473 129.004C153.374 129.095 153.288 129.166 153.176 129.244C152.81 129.501 152.387 129.666 151.859 129.654C151.336 129.641 150.929 129.463 150.578 129.197C150.439 129.092 150.351 129.009 150.208 128.866L137.376 116.043L122.764 130.637L106.896 114.787L108.191 113.374L108.631 112.89L112.802 108.717C113.126 108.394 113.404 108.119 113.848 107.679L121.427 100.121L116.26 94.9819C115.895 94.6161 115.538 94.2547 114.867 93.5745L110.849 89.5425L108.346 87.0528C108.273 86.9735 108.236 86.9339 108.207 86.899L108.111 86.7732L107.177 85.3889L108.142 84.2335L108.373 83.9488C108.452 83.8557 108.525 83.7752 108.613 83.6873L122.687 69.6484ZM122.744 75.2406L112.459 85.4996L115.947 88.9824L116.605 89.6434L118.688 91.7507L125.481 98.5184C125.575 98.6168 125.65 98.7035 125.732 98.8158C125.995 99.1754 126.168 99.5934 126.168 100.12C126.168 100.646 125.995 101.064 125.732 101.423C125.623 101.571 125.532 101.671 125.383 101.82L119.028 108.175L116.985 110.202L112.471 114.703L122.764 124.984L137.025 110.74L138.59 111.659C138.64 111.694 138.673 111.716 138.701 111.738L138.786 111.807L138.918 111.927L150.053 123.064L151.913 124.917L157.923 118.908L161.009 115.829L162.201 114.648L161.175 113.622L159.899 112.356L153.923 106.37L152.39 104.86L151.07 103.534L150.096 102.574C149.655 102.132 149.334 101.795 149.002 101.416L147.764 100.006L149.092 98.681L154.399 93.3733L157.747 90.0686L159.869 87.9534C160.266 87.5551 160.646 87.1732 160.999 86.8158L162.213 85.5806L161.251 84.6105L156.307 79.6571C155.515 78.8672 154.775 78.1325 154.108 77.4723L151.919 75.3196L139.48 87.7389L138.911 88.3018C138.824 88.3844 138.751 88.4458 138.648 88.5213C138.287 88.7862 137.861 88.9588 137.323 88.9469C136.813 88.9355 136.428 88.7678 136.088 88.5201C135.964 88.4299 135.892 88.3664 135.758 88.2409L135.599 88.0919L122.744 75.2406Z" fill="currentColor"></path></svg>