<svg width="200" height="200" viewBox="0 0 200 200" fill="none" xmlns="http://www.w3.org/2000/svg"><path fill-rule="evenodd" clip-rule="evenodd" d="M93.948 39.8027L90.8263 44.164C84.2598 53.3378 80.4 64.5335 80.4 76.5999C80.4 107.395 105.405 132.4 136.2 132.4C140.732 132.4 145.179 131.821 149.347 130.852L154.496 129.654L151.429 133.96C140.669 149.066 122.873 159 102.8 159C69.7954 159 43 132.204 43 99.1999C43 70.9561 62.4526 47.3666 88.733 41.0552L93.948 39.8027ZM84.5961 46.4208C62.6864 53.9482 47 74.6958 47 99.1999C47 129.995 72.0046 155 102.8 155C119.638 155 134.759 147.51 144.936 135.754C142.098 136.169 139.171 136.4 136.2 136.4C103.195 136.4 76.4 109.604 76.4 76.5999C76.4 65.6147 79.3867 55.3 84.5961 46.4208Z" fill="currentColor"></path><path fill-rule="evenodd" clip-rule="evenodd" d="M111.3 54.0659L115.535 62.6817L124.958 64.1314L118.147 70.7975L119.752 80.2851L111.3 75.7676L102.848 80.2851L104.453 70.7975L97.6424 64.1314L107.065 62.6817L111.3 54.0659ZM111.3 63.1338L109.735 66.318L106.158 66.8684L108.747 69.4022L108.152 72.9146L111.3 71.2321L114.448 72.9146L113.854 69.4022L116.442 66.8684L112.865 66.318L111.3 63.1338Z" fill="currentColor"></path><path fill-rule="evenodd" clip-rule="evenodd" d="M145.6 51.266L149.835 59.8817L159.258 61.3314L152.447 67.9975L154.052 77.4851L145.6 72.9676L137.148 77.4851L138.753 67.9975L131.942 61.3314L141.365 59.8817L145.6 51.266ZM145.6 60.3338L144.035 63.518L140.458 64.0684L143.046 66.6022L142.452 70.1146L145.6 68.4321L148.748 70.1146L148.154 66.6022L150.742 64.0684L147.165 63.518L145.6 60.3338Z" fill="currentColor"></path><path fill-rule="evenodd" clip-rule="evenodd" d="M131.5 82.5659L135.726 91.1645L145.212 92.4779L138.347 99.1975L139.952 108.685L131.5 104.168L123.048 108.685L124.654 99.1975L117.788 92.4779L127.274 91.1644L131.5 82.5659ZM131.5 91.6338L129.926 94.8353L126.412 95.3219L128.947 97.8022L128.352 101.315L131.5 99.6321L134.648 101.315L134.053 97.8022L136.588 95.3219L133.074 94.8353L131.5 91.6338Z" fill="currentColor"></path></svg>