<svg width="200" height="200" viewBox="0 0 200 200" fill="none" xmlns="http://www.w3.org/2000/svg"><path fill-rule="evenodd" clip-rule="evenodd" d="M132.707 22.003C133.266 21.7971 133.888 21.8514 134.403 22.1512L157.821 35.7752C158.211 36.0006 158.528 36.3587 158.696 36.8149C158.787 37.0605 158.826 37.3126 158.82 37.5593V163.115C158.82 163.825 158.443 164.482 157.831 164.841L134.447 178.538C134.142 178.726 133.783 178.834 133.398 178.834C133.363 178.834 133.329 178.834 133.294 178.832C133.287 178.831 133.279 178.831 133.271 178.831C133.014 178.814 132.77 178.75 132.548 178.646L42.3534 138.305C41.6334 137.983 41.1699 137.268 41.1699 136.479V57.1268C41.1656 56.8519 41.218 56.5734 41.3317 56.3092C41.3942 56.1636 41.4736 56.0261 41.5681 55.8997C41.7511 55.6544 41.9825 55.4613 42.2409 55.3261C42.3172 55.2861 42.3966 55.2508 42.479 55.2204L132.707 22.003ZM154.82 161.969L135.398 173.345V71.8057C135.398 71.1514 135.078 70.5384 134.541 70.1645C134.004 69.7906 133.318 69.7029 132.705 69.9297L89.3211 85.9668C88.5387 86.256 88.0179 87.0006 88.0146 87.8348L87.9274 109.772L68.4995 116.871V72.2111L154.82 40.3762V161.969ZM65.6821 121.557C65.686 121.559 65.6899 121.56 65.6938 121.562L108.88 140.9C109.498 141.177 110.214 141.122 110.782 140.755C111.351 140.388 111.695 139.758 111.698 139.081L111.757 120.377C111.802 120.135 111.801 119.891 111.759 119.657L111.879 81.8927L131.398 74.6773V173.749L45.1699 135.183V60.5938L64.4995 71.9611V119.688C64.4954 119.874 64.5175 120.064 64.5682 120.251C64.5939 120.347 64.6267 120.441 64.666 120.531C64.8425 120.935 65.1508 121.277 65.5503 121.492C65.5932 121.515 65.6372 121.537 65.6821 121.557ZM107.768 116.921L107.874 83.3731L92.009 89.2377L91.927 109.875L107.768 116.921ZM107.754 121.293L107.707 135.992L71.8127 119.919L89.8482 113.329L107.754 121.293ZM152.143 37.0999L133.205 26.0819L47.825 57.5148L66.6964 68.6127L152.143 37.0999Z" fill="currentColor"></path></svg>