<svg width="200" height="200" viewBox="0 0 200 200" fill="none" xmlns="http://www.w3.org/2000/svg"><path d="M83.1909 44C87.3208 44.0073 90.6785 44.16 93.8948 44.5392L96.4845 44.8445L96.4535 44.9221L97.7008 45.0045C98.3207 45.0459 98.9226 45.0906 99.5187 45.1399L100.41 45.2176L101.617 45.3358C105.002 45.6882 108.661 46.2449 114.794 47.2687L118.713 47.9233L120.25 48.1769L121.302 60.4631L124.194 93.3307C124.717 99.4051 125.116 104.219 125.517 109.288L125.559 109.841L128.269 109.494C129.329 109.354 130.436 109.202 131.699 109.025L134.556 108.62L134.185 103.917C133.788 98.7684 133.389 93.2253 132.886 85.9665L131.398 64.3728L130.877 57.177L130.361 50.387L133.413 51.1516C133.739 51.2357 134.126 51.3387 134.573 51.4599L135.116 51.6079C137.341 52.2183 140.622 53.1568 144.013 54.1525L146.561 54.9056C148.119 55.3691 149.602 55.8162 150.947 56.228L153.363 56.9738L153.813 62.8769L154.678 74.9671L156.92 108.155L157.105 108.139C157.669 108.092 158.151 108.055 158.617 108.024L163.251 107.751L163.441 113.117L163.725 120.213L164.065 128.127C164.104 129.04 163.651 129.85 162.878 130.291C162.469 130.524 162.112 130.607 161.623 130.662C159.089 130.936 156.469 131.315 153.35 131.843L149.875 132.454L144.046 133.517L143.8 123.17L143.184 123.243C131.163 124.689 119.098 127.356 106.986 131.249L106.435 131.427L106.552 131.609L104.337 132.115L103.203 132.489L103.191 132.378C102.533 132.53 101.886 132.683 101.242 132.838L99.9884 133.144C97.3276 133.802 94.5874 134.538 91.0522 135.54L87.0037 136.702C85.2484 137.211 83.3087 137.779 81.1318 138.419L79.6339 138.859L78.0373 136.135C77.0794 134.487 76.1317 132.825 74.954 130.729L68.5394 119.223C68.2076 118.631 67.8915 118.068 67.5848 117.525L63.7543 110.749L63.7566 110.839L64.6263 124.062L65.9892 144.599L64.6295 145.135C63.4022 145.618 62.2284 146.101 61.0368 146.616L60.3847 146.9L59.4784 147.303C57.4975 148.192 55.3887 149.202 52.847 150.469L50.3853 151.707C49.4857 152.163 48.5331 152.649 47.5179 153.17L41.6836 156.168L38.9432 115.825L37.5792 95.1416C36.394 76.735 35.6048 62.9988 35.1494 52.4303L35 48.8171L36.6642 48.4745C43.3701 47.0941 50.1212 46.0356 56.8956 45.3034L58.9741 45.0788L60.9615 76.1701L63.9188 66.0978C65.1644 61.8888 66.2475 58.285 67.3132 54.8078L68.3999 51.2863L69.6692 47.2321C69.7659 46.931 69.8259 46.7593 69.9037 46.559C70.6206 44.714 71.5379 44.2503 73.9364 44.1206L74.7212 44.0898L81.2492 44.006C81.7783 44.002 82.2614 44 82.7592 44H83.1909ZM83.9231 48.0032L82.7601 48C82.131 48 81.5239 48.0032 80.8117 48.0099L74.5901 48.0959L73.832 48.129L73.5805 48.1451L73.4733 48.4688L72.9984 49.978L71.9484 53.348L70.3844 58.4494C68.5618 64.4519 66.5914 71.139 63.7752 80.813L61.541 88.4975L59.8095 88.6473L57.7691 88.8279L55.2465 49.5161L53.7018 49.7039C49.477 50.2352 45.2629 50.8958 41.0649 51.6848L39.1365 52.0561L39.3312 56.3495C39.9429 69.2514 40.9961 86.4995 42.5811 110.282L45.2625 149.831L48.297 148.281C53.4737 145.653 56.949 143.99 60.466 142.511L61.1323 142.233C61.3549 142.141 61.5781 142.049 61.8023 141.958L59.5942 108.489L59.1335 101.431L60.9862 101.184C61.1937 101.156 61.3498 101.149 61.5297 101.154L61.7477 101.165L62.9116 101.166L64.8135 104.491L69.9724 113.626L70.8376 115.151C71.294 115.958 71.7682 116.801 72.2807 117.717L78.4343 128.757C79.1498 130.031 79.7793 131.142 80.3772 132.186L81.5035 134.14L85.663 132.926C91.4865 131.236 95.32 130.178 99.0148 129.264L100.134 128.989L99.2875 127.65C91.8395 115.817 84.7 103.529 77.647 90.4545L76.1231 87.6159L76.405 86.792C80.1877 75.7383 84.4839 64.2779 89.9064 50.5599L90.8175 48.2591L90.5068 48.2356C88.5022 48.09 86.3567 48.0185 83.9231 48.0032ZM99.7645 49.1761L102.788 83.5222C103.802 94.9319 104.761 105.61 105.691 115.83L106.725 127.134L107.189 126.988C119.538 123.114 131.85 120.488 144.124 119.106L145.54 118.953L147.696 118.727L147.934 128.74L150.847 128.217L151.942 128.026C154.707 127.549 157.095 127.182 159.357 126.899L160.004 126.82L159.689 119.437L159.418 112.567L159.396 111.981L158.371 112.051C157.712 112.1 156.971 112.164 155.967 112.257L153.216 112.518L152.128 96.6327L150.826 77.2565C150.494 72.4223 150.22 68.5326 149.942 64.7688L149.583 59.9941L147.781 59.4466C147.055 59.2276 146.303 59.0021 145.531 58.7724L142.884 57.99L139.036 56.871C138.159 56.6185 137.32 56.3789 136.539 56.158L134.774 55.6631L135.477 65.3562L137.347 92.4127C137.703 97.4141 138.014 101.599 138.332 105.643L138.492 107.657L138.851 112.044L133.246 112.847C131.034 113.16 129.31 113.395 127.599 113.616L125.181 113.919L121.897 114.314L121.552 109.893L120.729 99.7871C120.393 95.7884 120.014 91.3902 119.538 85.9634L116.797 54.7975L116.525 51.6141L110.723 50.6521C106.184 49.9171 103.221 49.5026 100.341 49.229L99.7645 49.1761ZM95.5704 47.1321L93.6684 51.9239C88.8495 64.1122 84.9257 74.5031 81.466 84.3975L80.4725 87.2621L81.1669 88.5544C88.137 101.475 95.1892 113.619 102.541 125.309L100.464 102.456C99.517 91.926 98.5306 80.8345 97.4811 68.919L95.5704 47.1321Z" fill="currentColor"></path></svg>