<svg xmlns="http://www.w3.org/2000/svg" width="118" height="36" viewBox="0 0 118 36" fill="none" data-src="/a6b43432cb3ab11d10e3bd14aaf5d257.svg" xmlns:xlink="http://www.w3.org/1999/xlink"><g opacity="0.8"><path d="M113.63 35.9106H4.37037C1.96667 35.9106 0 33.8957 0 31.433V4.56736C0 2.10468 1.96667 0.0897522 4.37037 0.0897522H113.63C116.033 0.0897522 118 2.10468 118 4.56736V31.433C118 33.8957 116.033 35.9106 113.63 35.9106Z" fill="black"></path><path d="M93.47 26.9556H95.101V15.7605H93.47V26.9556ZM108.161 19.7932L106.291 24.6469H106.235L104.294 19.7932H102.538L105.447 26.5771L103.788 30.3506H105.49L109.974 19.7932H108.161ZM98.9111 25.6841C98.3761 25.6841 97.6314 25.4105 97.6314 24.7333C97.6314 23.8692 98.5597 23.538 99.3603 23.538C100.078 23.538 100.414 23.6964 100.851 23.9126C100.724 24.9495 99.8524 25.6841 98.9111 25.6841ZM99.1077 19.5483C97.9269 19.5483 96.704 20.0814 96.1979 21.2624L97.6454 21.8816C97.9548 21.2624 98.5308 21.0606 99.1357 21.0606C99.9792 21.0606 100.837 21.5794 100.851 22.5011V22.6162C100.555 22.4434 99.9232 22.1842 99.1497 22.1842C97.5895 22.1842 96.0004 23.0625 96.0004 24.7046C96.0004 26.2025 97.28 27.1676 98.7135 27.1676C99.8105 27.1676 100.414 26.6635 100.795 26.0731H100.851V26.9371H102.425V22.6449C102.425 20.6576 100.977 19.5483 99.1077 19.5483ZM89.0279 21.156H86.7081V17.3186H89.0279C90.2472 17.3186 90.9395 18.353 90.9395 19.2373C90.9395 20.1049 90.2472 21.156 89.0279 21.156ZM88.986 15.7605H85.078V26.9556H86.7081V22.7142H88.986C90.7935 22.7142 92.5705 21.3733 92.5705 19.2373C92.5705 17.1014 90.7935 15.7605 88.986 15.7605ZM67.6751 25.6861C66.5484 25.6861 65.605 24.7196 65.605 23.3921C65.605 22.0506 66.5484 21.0694 67.6751 21.0694C68.7876 21.0694 69.6606 22.0506 69.6606 23.3921C69.6606 24.7196 68.7876 25.6861 67.6751 25.6861ZM69.5479 20.4201H69.4916C69.1256 19.973 68.4212 19.569 67.5342 19.569C65.6754 19.569 63.9716 21.2425 63.9716 23.3921C63.9716 25.5274 65.6754 27.1865 67.5342 27.1865C68.4212 27.1865 69.1256 26.7824 69.4916 26.3211H69.5479V26.8692C69.5479 28.3266 68.7876 29.1056 67.5625 29.1056C66.5627 29.1056 65.9431 28.3696 65.6893 27.7493L64.2673 28.3552C64.6757 29.3651 65.7601 30.606 67.5625 30.606C69.4776 30.606 71.097 29.4515 71.097 26.6383V19.7999H69.5479V20.4201ZM72.2234 26.9556H73.8569V15.7602H72.2234V26.9556ZM76.2649 23.2623C76.2226 21.7906 77.3774 21.0406 78.2081 21.0406C78.8563 21.0406 79.4052 21.3722 79.5879 21.8487L76.2649 23.2623ZM81.3343 21.9928C81.0249 21.1414 80.0809 19.569 78.1517 19.569C76.2366 19.569 74.6455 21.1127 74.6455 23.3777C74.6455 25.513 76.2226 27.1865 78.3347 27.1865C80.0389 27.1865 81.0249 26.1189 81.4331 25.4986L80.1657 24.6328C79.7435 25.2677 79.1657 25.6861 78.3347 25.6861C77.504 25.6861 76.9127 25.2965 76.5323 24.5321L81.503 22.4255L81.3343 21.9928ZM41.7316 20.7377V22.3534H45.5054C45.3927 23.2623 45.097 23.9259 44.6464 24.3876C44.0973 24.9505 43.2383 25.5707 41.7316 25.5707C39.408 25.5707 37.5916 23.652 37.5916 21.2715C37.5916 18.891 39.408 16.972 41.7316 16.972C42.9849 16.972 43.9 17.4771 44.576 18.1263L45.6884 16.9867C44.745 16.0631 43.4916 15.3562 41.7316 15.3562C38.549 15.3562 35.8735 18.0109 35.8735 21.2715C35.8735 24.5321 38.549 27.1865 41.7316 27.1865C43.4497 27.1865 44.745 26.6097 45.7588 25.5274C46.8009 24.4597 47.1249 22.9594 47.1249 21.7476C47.1249 21.3722 47.0968 21.0263 47.0402 20.7377H41.7316ZM51.4154 25.6861C50.2886 25.6861 49.3169 24.7339 49.3169 23.3777C49.3169 22.0072 50.2886 21.0694 51.4154 21.0694C52.5417 21.0694 53.5134 22.0072 53.5134 23.3777C53.5134 24.7339 52.5417 25.6861 51.4154 25.6861ZM51.4154 19.569C49.3592 19.569 47.6834 21.1704 47.6834 23.3777C47.6834 25.5707 49.3592 27.1865 51.4154 27.1865C53.4711 27.1865 55.1469 25.5707 55.1469 23.3777C55.1469 21.1704 53.4711 19.569 51.4154 19.569ZM59.5558 25.6861C58.4295 25.6861 57.4577 24.7339 57.4577 23.3777C57.4577 22.0072 58.4295 21.0694 59.5558 21.0694C60.6822 21.0694 61.6539 22.0072 61.6539 23.3777C61.6539 24.7339 60.6822 25.6861 59.5558 25.6861ZM59.5558 19.569C57.4997 19.569 55.8243 21.1704 55.8243 23.3777C55.8243 25.5707 57.4997 27.1865 59.5558 27.1865C61.6116 27.1865 63.2874 25.5707 63.2874 23.3777C63.2874 21.1704 61.6116 19.569 59.5558 19.569Z" fill="white"></path><path d="M9.18638 29.0952L9.12144 29.0315C8.86708 28.7558 8.71692 28.3277 8.71692 27.7732V27.9037V8.09834C8.71692 8.09655 8.71692 8.09521 8.71692 8.09377C8.71692 8.09547 8.71692 8.09691 8.71692 8.0987V8.22953C8.71692 7.62918 8.892 7.17694 9.18533 6.90577L20.0149 18.0009L9.18638 29.0952ZM8.71692 8.0927C8.71692 8.04336 8.71823 7.99545 8.72068 7.94825C8.71823 7.99509 8.71692 8.04336 8.71692 8.0927ZM8.72068 7.9461C8.72068 7.94547 8.72068 7.94476 8.72094 7.94404C8.72068 7.94476 8.72068 7.94547 8.72068 7.9461ZM8.72094 7.93983C8.72094 7.93947 8.72094 7.93912 8.72094 7.93876C8.72094 7.93912 8.72094 7.93947 8.72094 7.93983Z" fill="url(#paint0_linear_4888_80709-1)"></path><path d="M23.6242 21.8315L23.7065 21.7836L27.9833 19.294C28.3911 19.0565 28.6628 18.7686 28.7984 18.4639C28.6632 18.7686 28.3913 19.0569 27.9833 19.2943L23.7065 21.784L23.6242 21.8315ZM23.6253 21.7003L20.0149 18.0008L23.6249 14.3018L27.9833 16.8386C28.5368 17.1609 28.8475 17.5761 28.8994 18.0004C28.8994 18.0008 28.8994 18.0015 28.8994 18.0021C28.8475 18.4254 28.5368 18.841 27.9833 19.1632L23.6253 21.7003Z" fill="url(#paint1_linear_4888_80709-2)"></path><path d="M9.95837 29.5176C9.65586 29.5176 9.39188 29.4168 9.18604 29.2265L9.18639 29.2262C9.39224 29.4165 9.65656 29.5176 9.95907 29.5176C9.98529 29.5176 10.012 29.5169 10.039 29.5155C10.0116 29.5169 9.98459 29.5176 9.95837 29.5176ZM9.95872 29.3864C9.65621 29.3867 9.39224 29.2856 9.18639 29.0953V29.0951L20.0149 18.0007L23.6253 21.7003L10.9379 29.0859C10.5869 29.2898 10.2543 29.3864 9.95872 29.3864ZM9.18333 29.2241C9.16419 29.2063 9.1454 29.1874 9.12695 29.1678L9.18333 29.2241Z" fill="url(#paint2_linear_4888_80709-3)"></path><path d="M20.0149 18.001L9.1853 6.90591C9.39115 6.71597 9.65477 6.61522 9.95694 6.61522C10.2533 6.61522 10.5862 6.71212 10.9379 6.91639L23.6249 14.302L20.0149 18.001ZM23.7066 14.2185L10.9379 6.78564C10.5862 6.58128 10.2533 6.48439 9.95694 6.48439C9.95554 6.48439 9.95458 6.48439 9.95318 6.48439C9.95493 6.48439 9.95624 6.48439 9.95833 6.48439C10.254 6.48439 10.5865 6.58092 10.9379 6.78528L23.7066 14.2185Z" fill="url(#paint3_linear_4888_80709-4)"></path><path d="M10.0389 29.5156C10.3137 29.4995 10.6179 29.4026 10.9378 29.2169L23.6241 21.8316L10.9378 29.2169C10.6182 29.403 10.3137 29.4995 10.0389 29.5156ZM9.18593 29.2266L9.18322 29.2242C9.18418 29.2249 9.18523 29.2259 9.18593 29.2266ZM9.12684 29.1679L9.12134 29.1623V29.162C9.12344 29.164 9.1251 29.1661 9.12684 29.1679Z" fill="black"></path><path d="M23.6243 21.8315L23.7066 21.7836L23.6243 21.8315Z" fill="url(#paint4_linear_4888_80709-5)"></path><path d="M9.95896 29.5176C9.65645 29.5176 9.39213 29.4165 9.18628 29.2262L9.18593 29.2265C9.18523 29.2258 9.18418 29.2248 9.18322 29.2241L9.12684 29.1678C9.1251 29.166 9.12344 29.1639 9.12134 29.1619L9.18628 29.0953C9.39213 29.2856 9.6561 29.3867 9.95861 29.3864C10.2542 29.3864 10.5868 29.2898 10.9378 29.0859L23.6252 21.7003L23.7065 21.7836L23.6241 21.8315L10.9378 29.2168C10.6179 29.4025 10.3137 29.4994 10.0389 29.5155C10.0118 29.5169 9.98519 29.5176 9.95896 29.5176Z" fill="url(#paint5_linear_4888_80709-6)"></path><path d="M9.12144 29.1626C8.86708 28.8869 8.71692 28.4587 8.71692 27.9043V27.9039C8.71692 28.4587 8.86708 28.8865 9.12144 29.1622V29.1626Z" fill="black"></path><path d="M9.12144 29.1621C8.86708 28.8864 8.71692 28.4586 8.71692 27.9038V27.7733C8.71692 28.3278 8.86708 28.7559 9.12144 29.0316L9.18638 29.0953L9.12144 29.1621Z" fill="url(#paint6_linear_4888_80709-7)"></path><path d="M9.12134 29.1621L9.18628 29.0953V29.0956L9.12134 29.1621Z" fill="url(#paint7_linear_4888_80709-8)"></path><path d="M28.7984 18.4639C28.8656 18.3127 28.8994 18.1574 28.8994 18.0021C28.8994 18.0018 28.8994 18.0014 28.8994 18.0014C28.8994 18.1571 28.8656 18.3123 28.7984 18.4639Z" fill="black"></path><path d="M23.7065 21.7837L23.6252 21.7004L27.9833 19.1632C28.5367 18.8411 28.8475 18.4255 28.8994 18.0022C28.8994 18.1575 28.8656 18.3128 28.7983 18.464C28.6628 18.7686 28.391 19.0565 27.9833 19.294L23.7065 21.7837Z" fill="url(#paint8_linear_4888_80709-9)"></path><path d="M28.8994 18.001V18.0006C28.899 17.5322 28.5935 17.0638 27.9833 16.7084L23.7065 14.2187H23.7062L23.7065 14.2185L27.9833 16.708C28.5942 17.0635 28.9001 17.5325 28.8994 18.001Z" fill="#404040"></path><path d="M28.8994 18.0005C28.8475 17.5762 28.5367 17.1609 27.9833 16.8387L23.6249 14.3019L23.7062 14.2186H23.7065L27.9833 16.7082C28.5935 17.0637 28.899 17.532 28.8994 18.0005Z" fill="url(#paint9_linear_4888_80709-10)"></path><path d="M8.71692 8.09375C8.71692 8.09339 8.71692 8.09303 8.71692 8.09268C8.71692 8.09303 8.71692 8.09339 8.71692 8.09375ZM8.72068 7.94823C8.72068 7.94751 8.72068 7.9468 8.72068 7.94608C8.72068 7.9468 8.72068 7.94751 8.72068 7.94823ZM8.72094 7.94402C8.72094 7.94259 8.72094 7.94124 8.72094 7.93981C8.72094 7.94124 8.72094 7.94259 8.72094 7.94402ZM8.72094 7.93874C8.77155 7.01877 9.25981 6.48736 9.9505 6.48423C9.65104 6.48602 9.39022 6.58677 9.18603 6.77527V6.77492L9.18359 6.77742C9.16208 6.7973 9.14163 6.81835 9.12144 6.84002C8.892 7.08871 8.74725 7.46124 8.72094 7.93874Z" fill="#404040"></path><path d="M8.71692 8.22949V8.09866C8.71692 8.09687 8.71692 8.09543 8.71692 8.09373C8.71692 8.09337 8.71692 8.09302 8.71692 8.09266C8.71692 8.04331 8.71823 7.99504 8.72068 7.94821C8.72068 7.94749 8.72068 7.94678 8.72068 7.94606C8.72068 7.94543 8.72068 7.94472 8.72094 7.944C8.72094 7.94257 8.72094 7.94122 8.72094 7.93979C8.72094 7.93943 8.72094 7.93908 8.72094 7.93872C8.74725 7.46122 8.892 7.08869 9.12144 6.84L9.18534 6.90573C8.892 7.1769 8.71692 7.62913 8.71692 8.22949ZM9.18359 6.7774L9.18603 6.7749C9.18533 6.77597 9.18429 6.77668 9.18359 6.7774Z" fill="url(#paint10_linear_4888_80709-11)"></path><path d="M23.6248 14.3018L10.9378 6.91612C10.5861 6.71185 10.2533 6.61495 9.95687 6.61495C9.6547 6.61495 9.39108 6.7157 9.18523 6.90564L9.12134 6.83991C9.14153 6.81823 9.16198 6.79719 9.18348 6.77731C9.18418 6.77659 9.18523 6.77588 9.18593 6.77516C9.39012 6.58665 9.65094 6.48591 9.9504 6.48412C9.9511 6.48412 9.95206 6.48412 9.95311 6.48412C9.95451 6.48412 9.95547 6.48412 9.95687 6.48412C10.2533 6.48412 10.5861 6.58101 10.9378 6.78537L23.7065 14.2182L23.7061 14.2185L23.6248 14.3018Z" fill="url(#paint11_linear_4888_80709-12)"></path><path d="M38.0192 9.01541C38.0294 9.86544 37.8631 10.5511 37.5216 11.0716H40.1729V7.01867H38.0192V9.01541ZM36.8105 12.8721H36.1662V11.0716H36.679C37.1331 10.6707 37.355 9.9858 37.3459 9.01541V6.35858H40.8472V11.0716H41.4329V12.8721H40.7882V11.7317H36.8105V12.8721Z" fill="white"></path><path d="M38.0192 9.01522L37.9318 9.01629L37.9324 9.08865C37.9321 9.89292 37.7682 10.5352 37.4489 11.0214L37.3575 11.161H40.2603V6.92892H37.9318V9.01593V9.01629L38.0192 9.01522H38.1066V7.10802H40.0855V10.9819H37.5216V11.0714L37.5941 11.1211C37.9379 10.5971 38.1073 9.91701 38.1073 9.08865L38.1066 9.01414L38.0192 9.01522H38.1066H38.0192ZM36.8105 12.8719V12.7823H36.2536V11.161H36.679H36.7115L36.736 11.1393C37.2085 10.7216 37.4336 10.0258 37.4336 9.07396L37.4333 9.0145V9.01522V6.44793H40.7598V11.161H41.3454V12.7823H40.8756V11.7315V11.642H36.7231V12.8719H36.8105V12.7823V12.8719H36.8979V11.8211H40.7008V12.8719V12.9614H41.4329H41.5203V10.9819H40.9346V6.26883H37.2585V9.01557V9.01593L37.2588 9.07396C37.2584 10.0006 37.0392 10.6363 36.6219 11.0032L36.679 11.0714V10.9819H36.1662H36.0788V12.9614H36.8105H36.8979V12.8719H36.8105Z" fill="white"></path><path d="M43.3404 10.5874C43.729 10.99 44.2036 11.1911 44.7653 11.1911C45.3269 11.1911 45.8022 10.99 46.1897 10.5874C46.5783 10.1847 46.7728 9.67007 46.7728 9.04499C46.7728 8.41992 46.5783 7.90526 46.1897 7.50264C45.8022 7.10001 45.3269 6.89887 44.7653 6.89887C44.2036 6.89887 43.729 7.10001 43.3404 7.50264C42.9529 7.90526 42.7583 8.41992 42.7583 9.04499C42.7583 9.67007 42.9529 10.1847 43.3404 10.5874ZM46.6882 11.0372C46.1726 11.5804 45.5317 11.8516 44.7653 11.8516C43.9987 11.8516 43.3575 11.5804 42.8429 11.0372C42.3274 10.4946 42.0703 9.83037 42.0703 9.04499C42.0703 8.25962 42.3274 7.59532 42.8429 7.05281C43.3575 6.5095 43.9987 6.23807 44.7653 6.23807C45.5273 6.23807 46.1668 6.51093 46.6847 7.05631C47.202 7.60168 47.4608 8.26455 47.4608 9.04499C47.4608 9.83037 47.2031 10.4946 46.6882 11.0372Z" fill="white"></path><path d="M43.3404 10.5872L43.2783 10.6501C43.6808 11.0689 44.183 11.2815 44.7653 11.2805C45.3471 11.2815 45.8503 11.0689 46.2518 10.6501C46.6571 10.231 46.8609 9.68877 46.8602 9.0448C46.8609 8.40083 46.6571 7.85859 46.2518 7.43948C45.8503 7.02074 45.3471 6.80805 44.7653 6.80913C44.183 6.80805 43.6808 7.02074 43.2783 7.43948C42.874 7.85859 42.6702 8.40083 42.6709 9.0448C42.6702 9.68877 42.874 10.231 43.2783 10.6501L43.3404 10.5872L43.4029 10.5242C43.0321 10.1376 42.8467 9.65133 42.8457 9.0448C42.8467 8.43826 43.0321 7.95199 43.4029 7.5654H43.4026C43.7768 7.17889 44.2237 6.98931 44.7653 6.98823C45.3064 6.98931 45.7544 7.17889 46.1275 7.5654L46.1289 7.56683L46.1275 7.5654C46.4993 7.95199 46.6845 8.43826 46.6854 9.0448C46.6845 9.65133 46.4993 10.1376 46.1275 10.5242C45.7544 10.9107 45.3064 11.1003 44.7653 11.1014C44.2237 11.1003 43.7768 10.9107 43.4026 10.5242L43.3404 10.5872ZM46.6882 11.037L46.6257 10.9747C46.1248 11.5009 45.5116 11.7607 44.7653 11.7618C44.0185 11.7607 43.4056 11.5009 42.9054 10.9747C42.4055 10.4468 42.1587 9.8102 42.1577 9.0448C42.1587 8.27939 42.4055 7.64277 42.9054 7.11486C43.4056 6.58874 44.0185 6.3285 44.7653 6.32742C45.5072 6.3285 46.1187 6.58981 46.6223 7.11871C47.1242 7.64904 47.3725 8.28468 47.3734 9.0448C47.3725 9.8102 47.1249 10.4468 46.6257 10.9747L46.6882 11.037L46.751 11.0992C47.2809 10.5417 47.5489 9.85005 47.5482 9.0448C47.5489 8.24411 47.2802 7.55393 46.7476 6.99387C46.2149 6.43166 45.5478 6.14734 44.7653 6.14832C43.9786 6.14734 43.3093 6.43032 42.7802 6.99038V6.99002C42.2492 7.54793 41.9822 8.23954 41.9829 9.0448C41.9822 9.85005 42.2492 10.5417 42.7802 11.0996V11.0992C43.3093 11.6593 43.9786 11.9416 44.7653 11.9409C45.5516 11.9416 46.2208 11.6593 46.751 11.0992L46.6882 11.037Z" fill="white"></path><path d="M50.853 11.8516C50.0814 11.8516 49.4344 11.584 48.912 11.0484C48.3886 10.5132 48.1284 9.84532 48.1284 9.04499C48.1284 8.24458 48.3886 7.57678 48.912 7.04162C49.4344 6.50601 50.0814 6.23807 50.853 6.23807C51.6435 6.23807 52.2861 6.5309 52.7794 7.11613L52.31 7.58171C51.9542 7.12625 51.4676 6.89887 50.853 6.89887C50.2811 6.89887 49.7986 7.09652 49.406 7.4918C49.0127 7.88708 48.8163 8.40487 48.8163 9.04499C48.8163 9.68511 49.0127 10.2033 49.406 10.5982C49.7986 10.9935 50.2811 11.1911 50.853 11.1911C51.483 11.1911 52.0198 10.9311 52.4646 10.411L52.9331 10.8909C52.6934 11.1862 52.3936 11.4202 52.0316 11.5923C51.6707 11.7651 51.2771 11.8516 50.853 11.8516Z" fill="white"></path><path d="M50.853 11.8514V11.7618C50.1009 11.7607 49.4812 11.5036 48.9738 10.9849C48.4667 10.4654 48.2165 9.82525 48.2158 9.0448C48.2165 8.26435 48.4667 7.62423 48.9738 7.10474C49.4812 6.5856 50.1009 6.3285 50.853 6.32743C51.6226 6.32886 52.2345 6.60799 52.7131 7.17432L52.7794 7.11593L52.7186 7.05155L52.2492 7.51749L52.3099 7.58151L52.3782 7.52554C52.0074 7.04913 51.4881 6.80778 50.853 6.80913C50.2613 6.80841 49.7522 7.01662 49.3449 7.42758C48.9335 7.84005 48.7279 8.38641 48.7289 9.0448C48.7279 9.70319 48.9335 10.2503 49.3449 10.662C49.7522 11.073 50.2613 11.2812 50.853 11.2805C51.5068 11.2815 52.0733 11.0065 52.5301 10.4699L52.4645 10.4108L52.4027 10.4741L52.8712 10.9541L52.933 10.8907L52.8657 10.8338C52.6343 11.1185 52.3461 11.3438 51.9947 11.511C51.6454 11.6782 51.2658 11.7615 50.853 11.7618V11.8514V11.9409C51.2887 11.9409 51.6957 11.8521 52.0685 11.6733C52.4414 11.4963 52.7521 11.2539 53.0003 10.9481L53.0511 10.8855L52.5264 10.3475L52.4602 10.2796L52.3987 10.3517C51.9664 10.8558 51.4591 11.1003 50.853 11.1014C50.3006 11.1003 49.8455 10.9135 49.4674 10.534H49.4672C49.0916 10.1561 48.9045 9.66674 48.9038 9.0448C48.9045 8.42286 49.0916 7.93417 49.4672 7.55563H49.4674C49.8455 7.17611 50.3006 6.98931 50.853 6.98823C51.4468 6.98966 51.9005 7.20307 52.2416 7.63749L52.3017 7.7145L52.8401 7.18032L52.8996 7.12149L52.8456 7.05754C52.3379 6.45307 51.6642 6.14734 50.853 6.14832C50.0615 6.1476 49.3872 6.42647 48.8502 6.97811C48.3104 7.52868 48.0399 8.22486 48.041 9.0448C48.0399 9.86474 48.3104 10.5609 48.8502 11.1118C49.3872 11.6631 50.0615 11.9416 50.853 11.9409V11.8514Z" fill="white"></path><path d="M55.6587 11.7314H54.9844V7.0184H53.5197V6.35831H57.1235V7.0184H55.6587V11.7314Z" fill="white"></path><path d="M55.6587 11.7317V11.6422H55.0718V6.92914H53.6071V6.44815H57.0361V6.92914H55.5713V11.7317H55.6587V11.6422V11.7317H55.7461V7.10824H57.2109V6.3586V6.26905H53.4323V7.01869V7.10824H54.897V11.8213H55.6587H55.7461V11.7317H55.6587Z" fill="white"></path><path d="M61.7503 6.35843L59.7659 10.8909C59.4917 11.5315 59.085 11.8516 58.5429 11.8516C58.3817 11.8516 58.2082 11.8117 58.0222 11.7316L58.1979 11.0935C58.3106 11.1589 58.4277 11.1911 58.5497 11.1911C58.706 11.1911 58.8272 11.16 58.9126 11.0977C58.998 11.0351 59.0772 10.9207 59.1506 10.7559L59.3411 10.3277L57.5759 6.35843H58.367L59.6634 9.4427H59.6924L60.9588 6.35843H61.7503Z" fill="white"></path><path d="M61.7503 6.35822L61.6704 6.3215L59.686 10.8544L59.6857 10.8551C59.4159 11.4759 59.0475 11.7587 58.5429 11.7618C58.3957 11.7618 58.2338 11.7254 58.056 11.6488L58.0222 11.7314L58.1065 11.7558L58.282 11.1177L58.198 11.0933L58.1553 11.1713C58.2796 11.2434 58.4124 11.2808 58.5497 11.2805C58.7167 11.2805 58.8566 11.2479 58.9635 11.1702C59.0687 11.0922 59.153 10.9652 59.2302 10.7931L59.4207 10.365L59.4371 10.3275L57.7118 6.44777H58.3097L59.6058 9.53204H59.6925H59.7505L61.0169 6.44777H61.7503V6.35822L61.6704 6.3215L61.7503 6.35822V6.26866H60.9588H60.9008L59.6115 9.40792L59.6925 9.44249V9.35293H59.6635V9.44249L59.7437 9.4072L58.4247 6.26866H57.5759H57.44L59.2449 10.3275L59.0711 10.7186C59.0018 10.8757 58.9273 10.9771 58.8618 11.0243C58.798 11.0716 58.6952 11.1017 58.5497 11.1013C58.4428 11.1013 58.3421 11.0737 58.241 11.0153L58.1441 10.9593L57.9382 11.7069L57.917 11.7831L57.9884 11.8139C58.1826 11.8975 58.3674 11.9409 58.5429 11.9409C59.1222 11.9437 59.5675 11.5862 59.8458 10.9268L59.8454 10.9274L61.8852 6.26866H61.7503V6.35822Z" fill="white"></path><path d="M62.5134 11.7314V6.35831H66.3077V11.7314H65.6334V7.0184H63.1867V11.7314H62.5134Z" fill="white"></path><path d="M62.5134 11.7317H62.6008V6.44815H66.22V11.6422H65.7209V6.92914H63.0993V11.6422H62.5134V11.7317H62.6008H62.5134V11.8213H63.1867H63.2741V7.10824H65.546V11.8213H66.3077H66.3951V6.26905H62.426V11.8213H62.5134V11.7317Z" fill="white"></path><path d="M67.5086 11.7314V6.35831H68.1823V8.66186H70.8045V6.35831H71.4788V11.7314H70.8045V9.30726H68.1823V11.7314H67.5086Z" fill="white"></path><path d="M67.5086 11.7317H67.596V6.44815H68.0948V8.75171H70.8918V6.44815H71.3914V11.6422H70.8918V9.218H68.0948V11.6422H67.5086V11.7317H67.596H67.5086V11.8213H68.1822H68.2696V9.39711H70.717V11.8213H71.4788H71.5662V6.26905H70.8044H70.717V8.5726H68.2696V6.26905H67.5086H67.4211V11.8213H67.5086V11.7317Z" fill="white"></path><path d="M73.6209 10.5874C74.0095 10.99 74.484 11.1911 75.0457 11.1911C75.6074 11.1911 76.0827 10.99 76.4702 10.5874C76.8587 10.1847 77.0534 9.67007 77.0534 9.04499C77.0534 8.41992 76.8587 7.90526 76.4702 7.50264C76.0827 7.10001 75.6074 6.89887 75.0457 6.89887C74.484 6.89887 74.0095 7.10001 73.6209 7.50264C73.2338 7.90526 73.0388 8.41992 73.0388 9.04499C73.0388 9.67007 73.2338 10.1847 73.6209 10.5874ZM76.9687 11.0372C76.4535 11.5804 75.8123 11.8516 75.0457 11.8516C74.2792 11.8516 73.6384 11.5804 73.1234 11.0372C72.6079 10.4946 72.3508 9.83037 72.3508 9.04499C72.3508 8.25962 72.6079 7.59532 73.1234 7.05281C73.6384 6.5095 74.2792 6.23807 75.0457 6.23807C75.8082 6.23807 76.4473 6.51093 76.9653 7.05631C77.4825 7.60168 77.7414 8.26455 77.7414 9.04499C77.7414 9.83037 77.4836 10.4946 76.9687 11.0372Z" fill="white"></path><path d="M73.6209 10.5872L73.5588 10.6501C73.9617 11.0689 74.4636 11.2815 75.0457 11.2805C75.6278 11.2815 76.1308 11.0689 76.5327 10.6501C76.9376 10.231 77.1415 9.68877 77.1408 9.0448C77.1415 8.40083 76.9376 7.85859 76.5327 7.43948C76.1308 7.02074 75.6278 6.80805 75.0457 6.80913C74.4636 6.80805 73.9617 7.02074 73.5588 7.43948C73.1546 7.85859 72.9506 8.40083 72.9513 9.0448C72.9506 9.68877 73.1546 10.231 73.5588 10.6501L73.6209 10.5872L73.6834 10.5242C73.3126 10.1376 73.1272 9.65133 73.1262 9.0448C73.1272 8.43826 73.3126 7.95199 73.6834 7.5654C74.0573 7.17889 74.5046 6.98931 75.0457 6.98823C75.5869 6.98931 76.0349 7.17889 76.408 7.5654L76.4107 7.56826L76.408 7.5654C76.7799 7.95199 76.9653 8.43826 76.966 9.0448C76.9653 9.65133 76.7799 10.1376 76.408 10.5242C76.0349 10.9107 75.5869 11.1003 75.0457 11.1014C74.5046 11.1003 74.0573 10.9107 73.6834 10.5242L73.6209 10.5872ZM76.9687 11.037L76.9062 10.9747C76.4053 11.5009 75.7921 11.7607 75.0457 11.7618C74.2993 11.7607 73.6862 11.5009 73.1863 10.9747L73.1836 10.972L73.1863 10.9747C72.6861 10.4468 72.4392 9.8102 72.4382 9.0448C72.4392 8.27939 72.6861 7.64277 73.1863 7.11486C73.6862 6.58874 74.2993 6.3285 75.0457 6.32742C75.7877 6.3285 76.3992 6.58981 76.9028 7.11871C77.4047 7.64904 77.6532 8.28468 77.6539 9.0448C77.6532 9.8102 77.4054 10.4468 76.9062 10.9747L76.9687 11.037L77.0315 11.0992C77.5617 10.5417 77.8294 9.85005 77.8287 9.0448C77.8294 8.24411 77.5608 7.55393 77.0281 6.99387C76.4954 6.43166 75.8283 6.14734 75.0457 6.14832C74.259 6.14734 73.5902 6.43032 73.0606 6.99038V6.99002C72.5297 7.54793 72.2627 8.23954 72.2634 9.0448C72.2627 9.85005 72.5297 10.5417 73.0606 11.0996V11.0992C73.5902 11.6593 74.259 11.9416 75.0457 11.9409C75.8324 11.9416 76.5013 11.6593 77.0315 11.0992L76.9687 11.037Z" fill="white"></path><path d="M81.17 11.0714H82.5257C82.7844 11.0714 82.9942 10.9787 83.1559 10.7929C83.3167 10.6085 83.3971 10.4056 83.3971 10.1852C83.3971 9.96521 83.3141 9.76407 83.148 9.58147C82.9828 9.39888 82.7643 9.30726 82.496 9.30726H81.17V11.0714ZM81.17 8.66186H82.3937C82.6481 8.66186 82.8517 8.57616 83.0056 8.40297C83.1594 8.23049 83.2363 8.04198 83.2363 7.83664C83.2363 7.63165 83.162 7.44341 83.0125 7.27416C82.864 7.10374 82.6673 7.0184 82.4234 7.0184H81.17V8.66186ZM80.4969 11.7314V6.35831H82.3937C82.8036 6.35831 83.1594 6.49756 83.4592 6.77455C83.7599 7.0527 83.9102 7.40141 83.9102 7.82159C83.9102 8.07655 83.8456 8.30186 83.7153 8.49709C83.5868 8.69222 83.4146 8.83989 83.1996 8.93992V8.96965C83.4575 9.05956 83.6707 9.21485 83.8368 9.43488C84.002 9.65527 84.0859 9.91067 84.0859 10.2006C84.0859 10.6407 83.9286 11.0059 83.613 11.296C83.2984 11.5863 82.926 11.7314 82.496 11.7314H80.4969Z" fill="white"></path><path d="M81.17 11.0716V11.1612H82.5257C82.8045 11.1623 83.0449 11.0573 83.2206 10.853C83.3937 10.656 83.4854 10.4287 83.4846 10.1855C83.4854 9.94212 83.3902 9.71573 83.2118 9.5206C83.0309 9.31938 82.7836 9.21693 82.496 9.218H81.0826V11.1612H81.17V11.0716H81.2574V9.39711H82.496C82.746 9.39809 82.9339 9.47932 83.0842 9.64266C83.2381 9.81335 83.3089 9.98932 83.3097 10.1855C83.3089 10.3832 83.2398 10.5616 83.0903 10.7337C82.9444 10.9002 82.7643 10.9807 82.5257 10.9821H81.17V11.0716H81.2574H81.17ZM81.17 8.66215V8.7517H82.3937C82.6664 8.75269 82.9007 8.65615 83.0702 8.46344V8.46379C83.2354 8.27905 83.3237 8.06564 83.3237 7.83693C83.3237 7.60955 83.2389 7.39687 83.0772 7.21427V7.21463C82.9138 7.02496 82.6865 6.92806 82.4234 6.92914H81.0826V8.7517H81.17V8.66215H81.2574V7.10824H82.4234C82.6481 7.10967 82.8141 7.18311 82.947 7.33391L82.9479 7.33454L82.947 7.33427C83.0842 7.49099 83.148 7.65469 83.1489 7.83693C83.148 8.01845 83.0825 8.18287 82.9409 8.34272V8.34308C82.8028 8.49666 82.6288 8.57152 82.3937 8.5726H81.17V8.66215H81.2574H81.17ZM80.497 11.7317H80.5844V6.44815H82.3937C82.7844 6.44887 83.1148 6.57827 83.4006 6.84137C83.6847 7.10511 83.822 7.42382 83.8228 7.82188C83.8228 8.06152 83.7625 8.26687 83.6436 8.44696C83.523 8.62893 83.3648 8.7646 83.1629 8.85872L83.1122 8.88254V8.96994V9.03397L83.1708 9.05457C83.4146 9.14 83.6113 9.28338 83.7678 9.49015L83.7686 9.49114L83.7678 9.48979C83.9216 9.69549 83.9985 9.92842 83.9985 10.2009C83.9976 10.6193 83.8526 10.9541 83.5545 11.2298C83.2538 11.5058 82.9068 11.6415 82.496 11.6422H80.497V11.7317H80.5844H80.497V11.8213H82.496C82.9453 11.822 83.3421 11.6673 83.6716 11.3627C84.0038 11.0587 84.1742 10.663 84.1733 10.2009C84.1742 9.8935 84.0833 9.6157 83.9059 9.38063L83.905 9.37956L83.9059 9.38027C83.7302 9.14735 83.5012 8.98006 83.2276 8.88532L83.1996 8.96994H83.287V8.94021H83.1996L83.2354 9.0217C83.4636 8.91576 83.6506 8.75654 83.7879 8.54735V8.5477C83.9277 8.33753 83.9976 8.09224 83.9976 7.82188C83.9985 7.38003 83.8359 7.00087 83.5178 6.70839L83.516 6.70669L83.5178 6.70839C83.2031 6.41699 82.8229 6.26833 82.3937 6.26905H80.4095V11.8213H80.497V11.7317Z" fill="white"></path></g><defs><linearGradient id="paint0_linear_4888_80709-1" x1="19.0547" y1="7.88942" x2="4.02999" y2="22.5543" gradientUnits="userSpaceOnUse"><stop stop-color="#00A0FF"></stop><stop offset="0.00657445" stop-color="#00A1FF"></stop><stop offset="0.2601" stop-color="#00BEFF"></stop><stop offset="0.5122" stop-color="#00D2FF"></stop><stop offset="0.7604" stop-color="#00DFFF"></stop><stop offset="1" stop-color="#00E3FF"></stop></linearGradient><linearGradient id="paint1_linear_4888_80709-2" x1="29.5738" y1="18.0013" x2="8.4238" y2="18.0013" gradientUnits="userSpaceOnUse"><stop stop-color="#FFE000"></stop><stop offset="0.4087" stop-color="#FFBD00"></stop><stop offset="0.7754" stop-color="#FFA500"></stop><stop offset="1" stop-color="#FF9C00"></stop></linearGradient><linearGradient id="paint2_linear_4888_80709-3" x1="21.7007" y1="20.0562" x2="1.32609" y2="39.9428" gradientUnits="userSpaceOnUse"><stop stop-color="#FF3A44"></stop><stop offset="1" stop-color="#C31162"></stop></linearGradient><linearGradient id="paint3_linear_4888_80709-4" x1="6.37839" y1="0.247616" x2="15.4765" y2="9.12778" gradientUnits="userSpaceOnUse"><stop stop-color="#32A071"></stop><stop offset="0.0685" stop-color="#2DA771"></stop><stop offset="0.4762" stop-color="#15CF74"></stop><stop offset="0.8009" stop-color="#06E775"></stop><stop offset="1" stop-color="#00F076"></stop></linearGradient><linearGradient id="paint4_linear_4888_80709-5" x1="29.5726" y1="18.0016" x2="8.42692" y2="18.0016" gradientUnits="userSpaceOnUse"><stop stop-color="#CCB300"></stop><stop offset="0.4087" stop-color="#CC9700"></stop><stop offset="0.7754" stop-color="#CC8400"></stop><stop offset="1" stop-color="#CC7D00"></stop></linearGradient><linearGradient id="paint5_linear_4888_80709-6" x1="21.7006" y1="20.0562" x2="1.326" y2="39.9428" gradientUnits="userSpaceOnUse"><stop stop-color="#CC2E36"></stop><stop offset="1" stop-color="#9C0E4E"></stop></linearGradient><linearGradient id="paint6_linear_4888_80709-7" x1="19.0546" y1="7.88953" x2="4.02995" y2="22.5543" gradientUnits="userSpaceOnUse"><stop stop-color="#008DE0"></stop><stop offset="0.00657445" stop-color="#008DE0"></stop><stop offset="0.2601" stop-color="#00A7E0"></stop><stop offset="0.5122" stop-color="#00B8E0"></stop><stop offset="0.7604" stop-color="#00C4E0"></stop><stop offset="1" stop-color="#00C7E0"></stop></linearGradient><linearGradient id="paint7_linear_4888_80709-8" x1="21.7009" y1="20.0566" x2="1.3266" y2="39.9437" gradientUnits="userSpaceOnUse"><stop stop-color="#E0333C"></stop><stop offset="1" stop-color="#AB0F56"></stop></linearGradient><linearGradient id="paint8_linear_4888_80709-9" x1="29.5737" y1="18.0014" x2="8.42383" y2="18.0014" gradientUnits="userSpaceOnUse"><stop stop-color="#E0C500"></stop><stop offset="0.4087" stop-color="#E0A600"></stop><stop offset="0.7754" stop-color="#E09100"></stop><stop offset="1" stop-color="#E08900"></stop></linearGradient><linearGradient id="paint9_linear_4888_80709-10" x1="29.5737" y1="18.0014" x2="8.42378" y2="18.0014" gradientUnits="userSpaceOnUse"><stop stop-color="#FFE840"></stop><stop offset="0.4087" stop-color="#FFCE40"></stop><stop offset="0.7754" stop-color="#FFBC40"></stop><stop offset="1" stop-color="#FFB540"></stop></linearGradient><linearGradient id="paint10_linear_4888_80709-11" x1="19.0547" y1="7.88937" x2="4.02999" y2="22.5542" gradientUnits="userSpaceOnUse"><stop stop-color="#40B8FF"></stop><stop offset="0.00657445" stop-color="#40B9FF"></stop><stop offset="0.2601" stop-color="#40CEFF"></stop><stop offset="0.5122" stop-color="#40DDFF"></stop><stop offset="0.7604" stop-color="#40E7FF"></stop><stop offset="1" stop-color="#40EAFF"></stop></linearGradient><linearGradient id="paint11_linear_4888_80709-12" x1="6.37832" y1="0.247338" x2="15.4764" y2="9.1275" gradientUnits="userSpaceOnUse"><stop stop-color="#65B895"></stop><stop offset="0.0685" stop-color="#62BD95"></stop><stop offset="0.4762" stop-color="#50DB97"></stop><stop offset="0.8009" stop-color="#44ED98"></stop><stop offset="1" stop-color="#40F498"></stop></linearGradient></defs></svg>