<svg width="200" height="200" viewBox="0 0 200 200" fill="none" xmlns="http://www.w3.org/2000/svg"><path fill-rule="evenodd" clip-rule="evenodd" d="M168 34C168 32.8954 167.104 32 166 32L165.982 32.0001L165.965 32C141.635 32 118.82 38.4933 99.1541 49.8373C99.0473 49.887 98.9446 49.9463 98.8474 50.0147C79.5794 61.197 63.3514 77.0428 51.7064 95.9994C41.9858 78.1215 36.339 57.7121 36.0148 36.0152C50.3077 36.2317 64.0189 38.7476 76.8528 43.233C77.8956 43.5974 79.0363 43.0475 79.4007 42.0048C79.7651 40.9621 79.2152 39.8213 78.1725 39.4569C64.3172 34.6146 49.474 32 34 32C32.8954 32 32 32.8954 32 34L32.0001 34.0181L32 34.0361C32 58.3636 38.4919 81.1757 49.8336 100.841C49.8846 100.951 49.9459 101.057 50.0169 101.158C61.1988 120.423 77.0433 136.65 95.9981 148.294C78.1206 158.014 57.7116 163.661 36.0152 163.986C36.2297 149.761 38.713 136.121 43.1633 123.392C43.5278 122.349 42.978 121.209 41.9354 120.844C40.8927 120.48 39.7519 121.029 39.3874 122.072C34.579 135.825 32 150.599 32 166.001C32 167.106 32.8954 168.001 34 168.001C34.0171 168.001 34.0341 168.001 34.0511 168C58.3678 167.997 81.1699 161.508 100.828 150.173C100.947 150.119 101.061 150.053 101.169 149.976C120.43 138.795 136.651 122.953 148.293 104.002C158.014 121.879 163.661 142.288 163.985 163.985C149.657 163.769 135.912 161.252 123.077 156.767C122.035 156.402 120.894 156.952 120.53 157.995C120.165 159.038 120.715 160.178 121.758 160.543C135.614 165.385 150.492 168 166 168C167.104 168 168 167.104 168 166L168 165.966C168 141.641 161.51 118.832 150.17 99.1684C150.117 99.0519 150.053 98.9402 149.978 98.8351C138.796 79.5728 122.953 63.3496 104 51.7072C121.878 41.9864 142.288 36.3393 163.985 36.0148C163.766 50.3439 161.219 64.1203 156.732 76.9573C156.368 78 156.918 79.1407 157.96 79.5051C159.003 79.8695 160.144 79.3197 160.508 78.2769C165.35 64.4233 168 49.5106 168 34ZM53.97 99.9926C65.1744 81.0361 81.0483 65.1653 100.007 53.9709C118.964 65.1754 134.835 81.0496 146.029 100.009C134.825 118.965 118.95 134.836 99.9913 146.03C81.0348 134.826 65.1642 118.952 53.97 99.9926ZM98.7117 79.3254C99.3382 78.798 100.252 78.6909 101.002 79.1249C109.24 83.8945 116.107 90.7599 120.843 98.9669C121.028 99.2876 121.114 99.6383 121.111 99.9835C121.114 100.33 121.028 100.681 120.842 101.002C116.077 109.232 109.221 116.093 101.025 120.829C100.715 121.013 100.361 121.111 100.002 121.111C99.7007 121.112 99.3962 121.045 99.1113 120.903C99.0643 120.88 99.0182 120.855 98.973 120.828C90.7601 116.067 83.9123 109.223 79.1817 101.043C79.1243 100.949 79.0751 100.851 79.0342 100.749C78.9358 100.506 78.8885 100.252 78.8887 100.001C78.8884 99.7475 78.9364 99.4915 79.0363 99.2468C79.0771 99.1463 79.1261 99.0489 79.183 98.9558C83.8955 90.8332 90.6464 84.047 98.7117 79.3254ZM100.001 116.785C106.832 112.627 112.61 106.847 116.795 99.9821C112.645 93.1585 106.878 87.3855 100.027 83.1986C93.1889 87.3552 87.4054 93.1348 83.2149 100.002C87.3703 106.827 93.1435 112.601 100.001 116.785Z" fill="currentColor"></path></svg>