<svg width="200" height="200" viewBox="0 0 200 200" fill="none" xmlns="http://www.w3.org/2000/svg"><path fill-rule="evenodd" clip-rule="evenodd" d="M57.8656 31.9782C57.0196 31.6194 56.038 31.8833 55.4859 32.618L45.4761 45.938C45.0347 46.5254 44.9509 47.3076 45.2579 47.9752L47.1042 51.9897L42.5327 52.26C41.9102 52.2968 41.3404 52.6219 40.992 53.1391L32.4477 65.8222C32.0401 66.4273 31.9943 67.2064 32.3283 67.8551L35.3479 73.72L26.3676 83.7436C25.9402 84.2206 25.7672 84.8734 25.9021 85.4995L28.2665 96.4709L25.1289 104.781C24.9419 105.276 24.9589 105.825 25.1761 106.308L30.9829 119.213C31.2582 119.825 31.8219 120.258 32.4839 120.366L43.5869 122.182L45.7639 135.74C45.8525 136.292 46.1677 136.781 46.6333 137.09L70.7211 153.063L79.0593 167.205C79.4189 167.815 80.0741 168.189 80.7821 168.189H101.244C101.264 168.19 101.284 168.19 101.304 168.189H112.924C112.955 168.19 112.986 168.19 113.017 168.189H144.934C145.674 168.189 146.355 167.78 146.701 167.125C147.048 166.47 147.004 165.678 146.588 165.065L121.798 128.6L127.409 96.592L153.042 107.252C154.062 107.676 155.233 107.193 155.657 106.173C156.081 105.154 155.598 103.983 154.578 103.559L128.117 92.5543L129.649 83.8174C129.723 83.3976 129.66 82.9652 129.471 82.5834L126.643 76.8811L172.229 95.9246C173.248 96.3504 174.42 95.8693 174.846 94.8501C175.271 93.8309 174.79 92.6595 173.771 92.2337L123.931 71.4133L119.391 62.2597L150.33 75.157C151.35 75.582 152.521 75.1001 152.946 74.0805C153.371 73.061 152.889 71.89 151.869 71.465L113.738 55.5695C113.675 55.5432 113.611 55.5203 113.547 55.5008L81.029 41.801C80.9955 41.7858 80.9618 41.7715 80.9278 41.7582L57.8656 31.9782ZM77.1552 44.5032L57.744 36.2714L49.3904 47.3875L51.6865 52.3801L61.8657 57.9883C62.8332 58.5213 63.1853 59.7377 62.6523 60.7051C62.1193 61.6726 60.9029 62.0248 59.9355 61.4918L49.6846 55.8441L43.7566 56.1946L36.4261 67.0759L39.233 72.5276L54.0423 79.8234C55.0331 80.3115 55.4407 81.5105 54.9525 82.5013C54.4644 83.4922 53.2654 83.8997 52.2746 83.4116L38.2331 76.494L30.0271 85.6534L32.0548 95.0623L64.1005 104.969L72.4828 88.8894C72.9934 87.9099 74.2013 87.5298 75.1808 88.0404C76.1603 88.551 76.5403 89.759 76.0297 90.7384L66.9887 108.081L64.4192 118.564C64.2649 119.193 63.8152 119.709 63.2126 119.948L54.1153 123.548C53.7845 123.678 53.4248 123.719 53.0733 123.664L47.7435 122.839L49.5744 134.241L73.3155 149.984C73.568 150.151 73.7791 150.374 73.933 150.635L81.9247 164.189H97.573L84.1411 143.663C83.5363 142.738 83.7953 141.499 84.7196 140.894C85.6438 140.289 86.8834 140.548 87.4882 141.473L102.353 164.189H109.204L98.4807 148.312C97.8625 147.397 98.1034 146.153 99.0188 145.535C99.9341 144.917 101.177 145.158 101.796 146.073L114.031 164.189H141.155L118.034 130.178C117.741 129.748 117.628 129.221 117.718 128.708L125.596 83.7729L113.774 59.9372L80.9194 46.0953L61.4486 74.1389L65.1228 83.1336L87.6931 77.9174L91.2306 70.5842C91.4788 70.0697 91.9351 69.6858 92.4846 69.5295C93.034 69.3731 93.6241 69.4592 94.106 69.766L101.24 74.3075C101.688 74.5925 102.004 75.0436 102.119 75.5616C102.233 76.0796 102.138 76.622 101.853 77.0695L94.0607 89.2977L91.2609 116.602C91.1625 117.562 90.3924 118.315 89.4304 118.392C88.4683 118.468 87.5887 117.847 87.3393 116.915L82.1685 97.5855C81.883 96.5184 82.5166 95.422 83.5837 95.1365C84.6507 94.8511 85.7471 95.4847 86.0326 96.5518L88.3916 105.37L90.1299 88.4184C90.1617 88.1085 90.2654 87.8104 90.4328 87.5477L97.4041 76.6073L93.8558 74.3485L90.8791 80.519C90.6157 81.0651 90.1188 81.4622 89.5281 81.5987L64.3653 87.4141C63.4094 87.635 62.4344 87.13 62.0635 86.2218L57.335 74.6464C57.079 74.0195 57.1575 73.3056 57.5437 72.7494L77.1552 44.5032ZM45.6756 118.471L53.1486 119.628L60.7802 116.608L62.7122 108.726L31.5519 99.0936L29.1631 105.421L34.1899 116.592L45.6558 118.468C45.6624 118.469 45.669 118.47 45.6756 118.471Z" fill="currentColor"></path></svg>