<svg width="200" height="200" viewBox="0 0 200 200" fill="none" xmlns="http://www.w3.org/2000/svg"><path fill-rule="evenodd" clip-rule="evenodd" d="M77.2267 51.0605C77.9909 51.0605 78.6883 51.496 79.0237 52.1827L100.005 95.1314L120.986 52.1827C121.321 51.496 122.019 51.0605 122.783 51.0605C123.547 51.0605 124.245 51.496 124.58 52.1827L170.137 145.438C170.44 146.058 170.402 146.79 170.036 147.375C169.671 147.96 169.03 148.316 168.34 148.316H145.618C145.468 148.32 145.32 148.307 145.174 148.278C144.965 148.237 144.768 148.164 144.588 148.063C144.31 147.909 144.067 147.687 143.885 147.408C143.833 147.327 143.786 147.242 143.745 147.154L120.928 100.451C120.443 99.4582 120.855 98.2606 121.847 97.7757C122.84 97.2908 124.037 97.7023 124.522 98.6948L146.81 144.316H165.137L122.783 57.617L102.231 99.6878L124.565 145.407C124.62 145.515 124.666 145.629 124.701 145.747C124.804 146.091 124.809 146.447 124.728 146.782C124.725 146.797 124.721 146.813 124.717 146.828C124.697 146.903 124.673 146.977 124.644 147.049C124.636 147.071 124.627 147.092 124.617 147.114C124.613 147.124 124.609 147.134 124.604 147.144C124.419 147.552 124.095 147.901 123.661 148.113C123.36 148.26 123.04 148.325 122.727 148.315H77.2832C77.047 148.322 76.807 148.287 76.5742 148.207C76.5457 148.197 76.5174 148.186 76.4892 148.175C76.4204 148.148 76.3534 148.117 76.2885 148.082C75.9284 147.891 75.6494 147.605 75.4679 147.269C75.3596 147.07 75.2843 146.85 75.249 146.618C75.2125 146.38 75.2186 146.134 75.2713 145.892C75.309 145.717 75.3698 145.55 75.4501 145.395L97.779 99.6878L77.2267 57.617L34.8728 144.316H53.1995L75.4874 98.6948C75.9723 97.7023 77.1699 97.2908 78.1624 97.7757C79.1548 98.2606 79.5663 99.4582 79.0815 100.451L56.2634 147.157C56.2271 147.235 56.1857 147.311 56.1399 147.383C55.8406 147.859 55.3649 148.172 54.8419 148.277C54.6946 148.307 54.5437 148.32 54.3918 148.316H31.6699C30.9801 148.316 30.3389 147.96 29.9735 147.375C29.6081 146.79 29.5701 146.058 29.8729 145.438L75.4296 52.1827C75.7651 51.496 76.4625 51.0605 77.2267 51.0605ZM100.005 104.244L119.58 144.315H80.4294L100.005 104.244Z" fill="currentColor"></path></svg>