<svg width="200" height="200" viewBox="0 0 200 200" fill="none" xmlns="http://www.w3.org/2000/svg"><path fill-rule="evenodd" clip-rule="evenodd" d="M117.918 31.6314C118.348 32.011 118.594 32.5567 118.594 33.13V65.6119L133.013 63.8338C133.119 63.8019 133.229 63.7785 133.343 63.7644L165.734 59.7442C166.83 59.6081 167.829 60.3865 167.965 61.4826C168.101 62.5788 167.322 63.5777 166.226 63.7137L134.135 67.6968C134.028 67.729 133.917 67.7526 133.802 67.7668L116.838 69.8586C116.27 69.9287 115.698 69.7515 115.269 69.3719C114.84 68.9923 114.594 68.4467 114.594 67.8736V35.3931L83.5995 39.2331L36 45.1279V54.3749C36 55.4795 35.1045 56.3749 34 56.3749C32.8954 56.3749 32 55.4795 32 54.3749V43.3603C32 42.3507 32.7523 41.4995 33.7542 41.3754L83.1076 35.2634L116.348 31.1452C116.917 31.0747 117.489 31.2517 117.918 31.6314ZM84.678 59.1518C85.1076 59.5314 85.3535 60.0771 85.3535 60.6504V71.9919C85.3535 73.0014 84.6012 73.8526 83.5994 73.9767L36 79.8715V133.954L83.1073 128.12L113.63 124.333C113.737 124.301 113.848 124.277 113.963 124.263L132.495 121.975C133.064 121.905 133.635 122.082 134.065 122.462C134.494 122.842 134.74 123.387 134.74 123.96V135.302C134.74 136.311 133.987 137.163 132.986 137.287L85.3862 143.181V152.265C85.3862 153.37 84.4908 154.265 83.3862 154.265C82.2817 154.265 81.3862 153.37 81.3862 152.265V141.414C81.3862 140.404 82.1386 139.553 83.1404 139.429L130.74 133.534V126.222L114.752 128.196C114.646 128.228 114.535 128.251 114.421 128.266L83.5998 132.09L34.2458 138.202C33.6769 138.272 33.1051 138.095 32.6755 137.716C32.246 137.336 32 136.79 32 136.217V78.1039C32 77.0944 32.7523 76.2431 33.7542 76.1191L81.3535 70.2243V62.9133L34.2458 68.7472C33.1496 68.883 32.1509 68.1044 32.0151 67.0082C31.8794 65.912 32.658 64.9133 33.7542 64.7775L83.1077 58.6655C83.6767 58.5951 84.2485 58.7721 84.678 59.1518ZM165.98 71.0378C167.085 71.0378 167.98 71.9332 167.98 73.0378V85.0984C167.98 86.1079 167.228 86.9591 166.226 87.0832L116.872 93.1952L83.6321 97.3134L69.2728 99.0901V106.401L83.1403 104.685L116.38 100.567L132.494 98.5733L165.734 94.4551C166.303 94.3846 166.875 94.5616 167.304 94.9412C167.734 95.3209 167.98 95.8666 167.98 96.4399V154.553C167.98 155.562 167.228 156.414 166.226 156.538L132.986 160.656L83.632 166.768C82.5358 166.904 81.5372 166.125 81.4014 165.029C81.2656 163.933 82.0442 162.934 83.1404 162.798L163.98 152.785V98.703L132.986 102.543L116.872 104.537L83.6321 108.655L67.5184 110.649C66.9495 110.719 66.3777 110.542 65.9482 110.162C65.5187 109.783 65.2728 109.237 65.2728 108.664V97.3224C65.2728 96.3128 66.0252 95.4615 67.0272 95.3375L83.1403 93.3438L116.38 89.2255L163.98 83.3308V73.0378C163.98 71.9332 164.875 71.0378 165.98 71.0378Z" fill="currentColor"></path></svg>