<svg xmlns="http://www.w3.org/2000/svg" width="24" height="24" viewBox="0 0 24 24" data-src="data:image/svg+xml,%3Csvg width='24' height='24' viewBox='0 0 24 24' xmlns='http://www.w3.org/2000/svg'%3E %3Cpath fill-rule='evenodd' clip-rule='evenodd' d='M11.5851 12.3532C14.8292 12.3532 17.4663 9.80729 17.4663 6.67745C17.4663 3.5466 14.8292 1 11.5851 1C8.34162 1 5.7038 3.5466 5.7038 6.67745C5.7038 9.80729 8.34162 12.3532 11.5851 12.3532ZM11.5851 4.32717C12.9279 4.32717 14.0202 5.3812 14.0202 6.67743C14.0202 7.97264 12.9279 9.02735 11.5851 9.02735C10.2433 9.02735 9.14993 7.97264 9.14993 6.67743C9.14993 5.3812 10.2433 4.32717 11.5851 4.32717Z' /%3E %3Cpath d='M17.3948 15.6218C16.3314 16.2665 15.1768 16.7237 13.9796 16.9869L17.2674 20.1609C17.9409 20.8097 17.9409 21.8634 17.2674 22.5129C16.5946 23.1624 15.5041 23.1624 14.8319 22.5129L11.5994 19.3939L8.36968 22.5129C8.03292 22.8373 7.59164 22.9997 7.15036 22.9997C6.70978 22.9997 6.26921 22.8373 5.93244 22.5129C5.25961 21.8634 5.25961 20.8104 5.93174 20.1609L9.21987 16.9869C8.02271 16.7237 6.86814 16.2658 5.8047 15.6218C4.99991 15.1319 4.75816 14.1058 5.26524 13.3282C5.77092 12.5497 6.83435 12.3153 7.64055 12.8051C10.0482 14.2671 13.1499 14.2674 15.5589 12.8051C16.3651 12.3153 17.4282 12.5497 17.935 13.3282C18.442 14.1051 18.1996 15.1319 17.3948 15.6218Z' /%3E %3C/svg%3E" xmlns:xlink="http://www.w3.org/1999/xlink"><path fill-rule="evenodd" clip-rule="evenodd" d="M11.5851 12.3532C14.8292 12.3532 17.4663 9.80729 17.4663 6.67745C17.4663 3.5466 14.8292 1 11.5851 1C8.34162 1 5.7038 3.5466 5.7038 6.67745C5.7038 9.80729 8.34162 12.3532 11.5851 12.3532ZM11.5851 4.32717C12.9279 4.32717 14.0202 5.3812 14.0202 6.67743C14.0202 7.97264 12.9279 9.02735 11.5851 9.02735C10.2433 9.02735 9.14993 7.97264 9.14993 6.67743C9.14993 5.3812 10.2433 4.32717 11.5851 4.32717Z"></path><path d="M17.3948 15.6218C16.3314 16.2665 15.1768 16.7237 13.9796 16.9869L17.2674 20.1609C17.9409 20.8097 17.9409 21.8634 17.2674 22.5129C16.5946 23.1624 15.5041 23.1624 14.8319 22.5129L11.5994 19.3939L8.36968 22.5129C8.03292 22.8373 7.59164 22.9997 7.15036 22.9997C6.70978 22.9997 6.26921 22.8373 5.93244 22.5129C5.25961 21.8634 5.25961 20.8104 5.93174 20.1609L9.21987 16.9869C8.02271 16.7237 6.86814 16.2658 5.8047 15.6218C4.99991 15.1319 4.75816 14.1058 5.26524 13.3282C5.77092 12.5497 6.83435 12.3153 7.64055 12.8051C10.0482 14.2671 13.1499 14.2674 15.5589 12.8051C16.3651 12.3153 17.4282 12.5497 17.935 13.3282C18.442 14.1051 18.1996 15.1319 17.3948 15.6218Z"></path></svg>