<svg width="200" height="200" viewBox="0 0 200 200" fill="none" xmlns="http://www.w3.org/2000/svg"><path d="M141.732 36.5111C147.713 30.4969 157.439 30.4969 163.446 36.5034C169.46 42.4847 169.46 52.2111 163.45 58.2213L153.363 68.308L153.633 68.7646C158.996 77.9641 161.935 88.4097 162.06 99.2549L162.064 99.9785C162.064 111.083 159.116 121.788 153.633 131.192L153.363 131.648L163.446 141.732C169.374 147.627 169.459 157.163 163.708 163.186L163.454 163.446C157.473 169.46 147.746 169.46 141.736 163.45L131.649 153.363L131.193 153.633C121.994 158.997 111.548 161.935 100.703 162.06L99.9789 162.065C88.8742 162.065 78.168 159.116 68.7644 153.633L68.307 153.363L58.2253 163.446C52.3294 169.375 42.7945 169.459 36.7708 163.707L36.5111 163.454C30.4969 157.472 30.4969 147.746 36.5072 141.735L46.594 131.648L46.3241 131.192C40.9605 121.993 38.0222 111.548 37.897 100.702L37.8928 99.9785C37.8928 88.8743 40.8414 78.1682 46.3241 68.7645L46.594 68.308L36.5111 58.2252C30.5829 52.3294 30.4982 42.7946 36.2496 36.7708L36.5034 36.5111C42.4846 30.4969 52.2111 30.4969 58.2214 36.5072L68.308 46.594L68.7645 46.324C77.9637 40.9605 88.4095 38.0222 99.2553 37.897L99.9789 37.8928C111.083 37.8928 121.789 40.8415 131.193 46.3241L131.649 46.593L141.732 36.5111ZM160.622 39.3357C156.174 34.8887 148.987 34.8887 144.568 39.3318L133.364 50.5356C132.704 51.1959 131.675 51.3114 130.884 50.8139C121.685 45.0217 111.046 41.8928 99.9789 41.8928C88.9115 41.8928 78.2723 45.0216 69.0728 50.8139C68.2826 51.3114 67.2532 51.1959 66.5929 50.5356L55.3929 39.3356C50.946 34.8887 43.7583 34.8887 39.3357 39.3356C34.8888 43.7825 34.8888 50.9703 39.3357 55.3929L50.5357 66.5929C51.196 67.2532 51.3115 68.2825 50.8139 69.0728C45.0216 78.2723 41.8928 88.9114 41.8928 99.9785C41.8928 111.046 45.0215 121.684 50.8139 130.884C51.3115 131.674 51.196 132.703 50.5357 133.364L39.3357 144.564C34.8887 149.011 34.8887 156.199 39.3357 160.621C43.7825 165.069 50.9703 165.069 55.3929 160.621L66.5929 149.421C67.2532 148.761 68.2826 148.646 69.0728 149.143C78.2721 154.936 88.9113 158.065 99.9789 158.065C111.046 158.065 121.685 154.936 130.884 149.143C131.674 148.646 132.704 148.761 133.364 149.421L144.564 160.621C149.011 165.069 156.199 165.069 160.622 160.621C165.068 156.175 165.068 148.986 160.622 144.564L149.422 133.364C148.761 132.703 148.646 131.674 149.143 130.884C154.935 121.684 158.064 111.045 158.064 99.9785C158.064 88.9117 154.935 78.2726 149.143 69.0727C148.646 68.2825 148.761 67.2532 149.422 66.5929L160.622 55.393C165.068 50.9462 165.068 43.7582 160.622 39.3357ZM152.607 150.122C154.14 150.122 155.407 151.359 155.407 152.922C155.407 154.454 154.141 155.722 152.607 155.722C151.074 155.722 149.807 154.454 149.807 152.922C149.807 151.388 151.074 150.122 152.607 150.122ZM47.3214 150.122C48.8679 150.122 50.1214 151.375 50.1214 152.922C50.1214 154.468 48.8679 155.722 47.3214 155.722C45.7751 155.722 44.5214 154.468 44.5214 152.922C44.5214 151.375 45.7751 150.122 47.3214 150.122ZM152.607 151.722C151.931 151.722 151.407 152.246 151.407 152.922C151.407 153.59 151.952 154.122 152.607 154.122C153.283 154.122 153.807 153.598 153.807 152.922C153.807 152.245 153.284 151.722 152.607 151.722ZM47.3214 151.722C46.6589 151.722 46.1214 152.259 46.1214 152.922C46.1214 153.584 46.6589 154.122 47.3214 154.122C47.9841 154.122 48.5214 153.584 48.5214 152.922C48.5214 152.259 47.9841 151.722 47.3214 151.722ZM99.9499 49.75C127.691 49.75 150.179 72.2381 150.179 99.9785C150.179 127.719 127.691 150.208 99.9499 150.208C72.2095 150.208 49.7214 127.719 49.7214 99.9785C49.7214 72.2381 72.2095 49.75 99.9499 49.75ZM99.9499 53.75C74.4186 53.75 53.7214 74.4472 53.7214 99.9785C53.7214 125.51 74.4187 146.208 99.9499 146.208C125.481 146.208 146.179 125.51 146.179 99.9785C146.179 74.4473 125.481 53.75 99.9499 53.75ZM99.9499 82.1213C109.812 82.1213 117.807 90.1161 117.807 99.9785C117.807 109.841 109.813 117.836 99.9499 117.836C90.0875 117.836 82.0927 109.841 82.0927 99.9785C82.0927 90.1163 90.0877 82.1213 99.9499 82.1213ZM99.9499 86.1213C92.2968 86.1213 86.0927 92.3254 86.0927 99.9785C86.0927 107.632 92.2967 113.836 99.9499 113.836C107.603 113.836 113.807 107.632 113.807 99.9785C113.807 92.3252 107.603 86.1213 99.9499 86.1213ZM152.607 44.5215C154.14 44.5215 155.407 45.7583 155.407 47.3215C155.407 48.8546 154.141 50.1215 152.607 50.1215C151.074 50.1215 149.807 48.8546 149.807 47.3215C149.807 45.7883 151.074 44.5215 152.607 44.5215ZM47.3214 44.5215C48.8537 44.5215 50.1214 45.7583 50.1214 47.3215C50.1214 48.8546 48.8546 50.1215 47.3214 50.1215C45.7884 50.1215 44.5214 48.8546 44.5214 47.3215C44.5214 45.7884 45.7884 44.5215 47.3214 44.5215ZM152.607 46.1215C151.931 46.1215 151.407 46.6458 151.407 47.3215C151.407 47.9896 151.952 48.5215 152.607 48.5215C153.283 48.5215 153.807 47.9979 153.807 47.3215C153.807 46.6451 153.283 46.1215 152.607 46.1215ZM47.3214 46.1215C46.6454 46.1215 46.1214 46.6455 46.1214 47.3215C46.1214 47.9899 46.6664 48.5215 47.3214 48.5215C47.9974 48.5215 48.5214 47.9976 48.5214 47.3215C48.5214 46.6455 47.9975 46.1215 47.3214 46.1215Z" fill="currentColor"></path></svg>