<svg width="200" height="200" viewBox="0 0 200 200" fill="none" xmlns="http://www.w3.org/2000/svg"><path d="M100.207 30C107.348 30 118.872 40.0266 121.545 47.3298C121.823 48.0926 121.98 48.992 122.028 50.0244C125.992 49.3603 130.245 49.6166 134.306 51.3971C135.628 51.9768 136.888 52.7086 138.074 53.6006L138.516 53.9427L138.854 54.222C141.078 56.1114 142.647 58.5418 143.65 61.3636C144.698 64.3122 145.048 67.3522 144.97 70.1278C145.152 70.1643 145.343 70.2058 145.542 70.2521C147.487 70.7062 149.433 71.4877 151.257 72.6815C153.315 74.0279 155.079 75.8142 156.448 78.0801L156.701 78.5106L156.883 78.8354C159.134 82.9157 159.418 86.167 158.209 89.0185L158.25 89.0939C159.361 91.1382 160.498 93.7428 161.371 96.7079C162.796 101.549 163.168 106.284 162.079 110.667C160.753 116.018 158.199 120.041 154.774 122.868C152.926 124.394 150.945 125.473 148.959 126.182C147.745 126.616 146.773 126.833 146.16 126.908C146.08 126.918 146.001 126.923 145.922 126.923L139.481 126.923L139.482 131.261C143.152 132.158 145.876 135.469 145.876 139.415C145.876 143.384 143.122 146.709 139.421 147.584L139.421 150.093C141.845 150.904 143.592 153.193 143.592 155.89C143.592 159.265 140.856 162 137.481 162C134.106 162 131.37 159.265 131.37 155.89C131.37 153.238 133.059 150.981 135.42 150.135L135.42 147.554C131.78 146.636 129.086 143.34 129.086 139.415C129.086 135.468 131.811 132.158 135.481 131.261L135.481 126.923H133.339C132.327 126.923 131.484 126.169 131.356 125.181L131.342 125.031C131.341 125.011 131.339 124.981 131.336 124.94L131.331 124.872L131.271 124.199L131.21 123.632C131.074 122.473 130.873 121.177 130.593 119.778C129.793 115.784 128.526 111.793 126.7 108.087C121.557 97.6505 113.106 91.4826 100.329 91.4826C87.5531 91.4826 79.1148 97.6494 73.9906 108.084C72.1706 111.791 70.9111 115.781 70.1178 119.775C69.8401 121.173 69.6409 122.47 69.5075 123.629C69.4921 123.763 69.478 123.891 69.4651 124.015L69.4467 124.195L69.4019 124.688L69.3639 125.178C69.2443 126.115 68.4802 126.843 67.5386 126.917L67.3801 126.923H65.269L65.2698 131.261C68.9401 132.158 71.664 135.469 71.664 139.415C71.664 143.373 68.9249 146.691 65.2387 147.577L65.239 150.103C67.6475 150.923 69.3803 153.204 69.3803 155.89C69.3803 159.265 66.6442 162 63.2693 162C59.8943 162 57.1582 159.265 57.1582 155.89C57.1582 153.227 58.8618 150.962 61.2385 150.125L61.238 147.562C57.5828 146.654 54.874 143.351 54.874 139.415C54.874 135.468 57.5984 132.158 61.2692 131.261L61.269 126.923H54.5293C54.473 126.923 54.4174 126.921 54.3623 126.916C54.2726 126.924 54.1814 126.925 54.0892 126.92L53.9503 126.908L53.7923 126.885L53.39 126.814C51.388 126.429 48.9552 125.495 46.4948 123.754C42.5073 120.933 39.5113 116.638 38.0323 110.668C36.9426 106.284 37.3146 101.549 38.7399 96.7079C39.6128 93.7428 40.7499 91.1382 41.8637 89.0885L42.045 88.758L41.9019 89.018C40.6597 86.0897 40.9922 82.7421 43.4106 78.5107C44.8131 76.0391 46.6674 74.1119 48.8541 72.6814C50.6787 71.4877 52.6241 70.7062 54.5695 70.2521C54.7692 70.2055 54.962 70.1637 55.1477 70.1264L55.1417 69.9051L55.139 69.6774V69.3055C55.1843 63.3634 56.9067 57.8903 61.2823 54.1998L61.5919 53.9453L61.956 53.6616C65.2505 51.1561 69.0258 49.9388 73.0176 49.7365C75.1507 49.6284 77.1176 49.8115 78.819 50.1545C78.812 49.1831 78.8976 48.3264 79.0831 47.5887C80.8683 40.4846 93.1532 30 100.207 30ZM63.2693 153.779C62.1036 153.779 61.1582 154.724 61.1582 155.89C61.1582 157.055 62.1032 158 63.2693 158C64.4353 158 65.3803 157.055 65.3803 155.89C65.3803 154.724 64.435 153.779 63.2693 153.779ZM137.481 153.779C136.315 153.779 135.37 154.724 135.37 155.89C135.37 157.056 136.315 158 137.481 158C138.647 158 139.592 157.055 139.592 155.89C139.592 154.725 138.647 153.779 137.481 153.779ZM63.269 135.021C60.8418 135.021 58.874 136.989 58.874 139.415C58.874 141.842 60.8414 143.809 63.269 143.809C65.6966 143.809 67.664 141.842 67.664 139.415C67.664 136.989 65.6962 135.021 63.269 135.021ZM137.481 135.021C135.054 135.021 133.086 136.988 133.086 139.415C133.086 141.842 135.053 143.809 137.481 143.809C139.909 143.809 141.876 141.842 141.876 139.415C141.876 136.988 139.909 135.021 137.481 135.021ZM100.329 68.1616L99.6188 68.1665L99.5887 68.1671L99.6198 68.1673L99.459 68.17L99.0709 68.1802C83.0193 68.6942 71.6592 79.0794 64.1317 96.3411C61.3894 102.629 59.3706 109.387 57.9699 116.147C57.5339 118.251 57.1869 120.221 56.9192 122.014L56.8225 122.679L56.7883 122.923H65.5633L65.5916 122.691C65.6895 121.912 65.8133 121.085 65.966 120.216L66.086 119.557L66.1945 118.996C67.0511 114.683 68.4131 110.368 70.4001 106.321C76.153 94.6059 85.9003 87.4826 100.329 87.4826C114.757 87.4826 124.515 94.6048 130.288 106.319C132.282 110.365 133.651 114.68 134.515 118.993C134.779 120.313 134.979 121.552 135.124 122.688L135.152 122.923H143.582L143.427 121.912L143.075 119.711L142.841 118.286C142.688 117.371 142.548 116.556 142.424 115.863C142.162 114.579 141.875 113.296 141.566 112.015C141.504 111.787 141.438 111.546 141.369 111.292L141.261 110.903L140.708 108.934L140.269 107.404L140.128 106.915L139.985 106.422L139.403 104.439L139.092 103.393L139.025 103.193L138.965 103.053L138.099 100.834L137.338 98.923L136.708 97.3678C136.169 96.0527 135.733 95.0353 135.442 94.4204L135.377 94.2857L132.926 89.2923C131.33 86.4659 129.596 83.892 127.72 81.5897C126.564 80.2912 125.258 78.9038 123.795 77.4417C122.973 76.6195 121.988 75.7861 120.876 74.9565C119.568 73.9807 118.158 73.0627 116.747 72.2338C116.669 72.1885 116.593 72.1439 116.518 72.1002C115.014 71.2884 113.448 70.5967 111.821 70.0302C111.373 69.8942 110.906 69.7602 110.424 69.6299C107.027 68.7114 103.583 68.1616 100.329 68.1616ZM44.4913 92.7615L44.3424 93.0845C43.7028 94.4967 43.0883 96.101 42.577 97.8375C41.3362 102.052 41.0183 106.099 41.9145 109.705C43.1595 114.73 45.5897 118.214 48.8052 120.489C49.8443 121.224 50.917 121.795 51.9852 122.222L52.3855 122.375L52.5523 122.434L52.91 120.173L53.1819 118.493C53.5007 116.547 53.7739 114.975 53.9911 113.864L54.0368 113.634L54.1634 113.028C54.3179 112.354 54.5667 111.396 54.8964 110.193L54.9883 109.858L55.5562 107.836L55.9983 106.294C56.1876 105.639 56.3816 104.973 56.5771 104.306L56.8711 103.307L56.946 103.048L54.8838 101.434C54.2721 100.952 53.6594 100.468 53.0526 99.9851L52.1476 99.2638L50.5797 98.0042C48.2382 96.1122 46.4452 94.609 45.3717 93.6178L45.2161 93.473L44.9998 93.2681C44.8249 93.1 44.6553 92.9312 44.4913 92.7615ZM155.618 92.762C155.39 92.9993 155.149 93.2351 154.898 93.4696C153.9 94.4061 152.185 95.8528 149.902 97.7042L149.555 97.9849L148.492 98.8404C147.919 99.3003 147.332 99.7678 146.74 100.238L145.846 100.946L144.046 102.362L143.188 103.032C144.044 105.671 144.795 108.349 145.446 111.041C145.556 111.458 145.655 111.836 145.741 112.176L145.803 112.423L145.952 113.046C146.063 113.551 146.197 114.243 146.351 115.101L146.402 115.343C146.9 117.797 147.283 120.076 147.565 122.125C147.579 122.225 147.592 122.324 147.605 122.421C148.907 121.953 150.206 121.288 151.446 120.389L151.858 120.08L152.227 119.784C154.995 117.499 157.078 114.218 158.196 109.704C159.092 106.099 158.774 102.052 157.533 97.8375C157.022 96.101 156.408 94.4967 155.767 93.0845L155.618 92.762ZM56.295 73.983L56.0904 74.019C55.8937 74.0556 55.6895 74.0982 55.4786 74.1474C53.9638 74.501 52.4489 75.1095 51.0439 76.0287C49.3768 77.1194 47.969 78.5824 46.8865 80.4901C44.7706 84.1923 44.7383 86.5141 46.3085 88.7298L48.9893 91.1467L50.2537 92.2765C51.2687 93.1802 52.1091 93.9198 52.7278 94.4522L52.891 94.5922L53.4378 95.0524C53.8275 95.3732 54.3785 95.8117 55.0625 96.3463L55.3252 96.5513L57.2501 98.0376C57.6436 98.3394 58.0464 98.6473 58.453 98.9571L59.0619 97.4292L59.5731 96.1654C60.0621 94.9668 60.4761 93.984 60.8051 93.2498L60.9013 93.037L61.1389 92.5304L64.719 85.239L56.295 73.983ZM143.731 73.9687L143.814 73.983L135.391 85.237L136.499 87.4848C137.683 89.595 138.792 91.8294 139.827 94.1802L140.075 94.7485C140.663 96.1117 141.219 97.4943 141.743 98.8922L143.513 97.5359L144.984 96.3963C145.301 96.1487 145.59 95.9212 145.849 95.7159L146.037 95.5662L146.798 94.9485C147.167 94.641 147.696 94.1842 148.359 93.6019L148.585 93.4032L150.56 91.6492C150.929 91.3188 151.308 90.9791 151.693 90.634L152.272 90.1125L153.8 88.7334C155.327 86.5814 155.342 84.3278 153.401 80.8042L153.225 80.4899L153.004 80.1144C151.953 78.3891 150.623 77.0468 149.067 76.0288C147.662 75.1096 146.147 74.501 144.633 74.1474C144.316 74.0736 144.015 74.0146 143.731 73.9687ZM73.22 53.7314C70.0079 53.8941 67.0219 54.851 64.4268 56.8079L64.0906 57.0688L63.8065 57.3042C60.6395 60.0164 59.2558 64.2282 59.1454 68.9076L59.1389 69.3217V69.665C59.1418 70.0956 59.1563 70.4968 59.1794 70.8632L59.186 70.96V70.959L67.096 81.645L67.7413 80.8602C69.198 79.1123 70.9377 77.1919 72.9728 75.131L73.4877 74.6129C74.4581 73.6427 75.587 72.6873 76.8441 71.7494C78.2803 70.6779 79.81 69.6823 81.3389 68.7844L81.6553 68.6L81.9621 68.4239L81.9923 68.406L78.3893 54.153L78.1348 54.0972C76.7225 53.804 75.0401 53.6391 73.22 53.7314ZM122.51 54.0003L122.097 54.0771L121.773 54.1439C121.595 55.4069 121.331 56.7849 120.992 58.2747C120.65 59.7842 120.235 61.369 119.765 63.0011C119.373 64.3582 118.96 65.6906 118.542 66.9645L118.281 67.749L118.29 67.722L118.121 68.396C122.928 70.9302 127.165 74.5484 130.863 79.1057C131.398 79.7117 131.903 80.2999 132.378 80.8698L132.728 81.2937L133.013 81.645L140.922 70.96L140.943 70.6676C141.066 68.4871 140.88 66.0489 140.202 63.7021L140.049 63.2008L139.881 62.703C139.111 60.5381 137.946 58.7201 136.326 57.3233L136.017 57.0663L135.626 56.764C134.704 56.076 133.726 55.5105 132.699 55.0604C129.391 53.6096 125.825 53.4178 122.51 54.0003ZM100.207 34C95.0638 34 84.3175 43.1716 82.9624 48.5639C82.6306 49.8832 82.8743 52.4413 83.6129 55.7713L83.7003 56.159L83.8882 56.9541C84.2118 58.2847 84.5967 59.6888 85.0301 61.14C85.4245 62.4605 85.8418 63.764 86.2637 65.0137L86.5807 65.9403L86.6373 66.106L87.116 65.9689C90.6889 64.9696 94.7545 64.2863 99.1047 64.177C99.5106 64.1658 99.9185 64.1602 100.329 64.1602C105.085 64.1602 109.471 64.9173 113.503 66.3627L113.794 66.4552L114.079 66.548L114.426 66.663L114.454 66.58L117.88 53.022C118.107 51.1501 118.098 49.7075 117.835 48.8425L117.788 48.7026C115.645 42.848 105.475 34 100.207 34Z" fill="currentColor"></path></svg>