<svg width="200" height="200" viewBox="0 0 200 200" fill="none" xmlns="http://www.w3.org/2000/svg"><path d="M112.315 57.8979L99.9184 36.9781L87.9793 58.1872C87.4374 59.1498 86.2179 59.4908 85.2554 58.949C84.2928 58.4072 83.9518 57.1876 84.4936 56.2251L98.1108 32.0349C98.2132 31.8434 98.3475 31.6671 98.5116 31.5149C98.6553 31.3812 98.8165 31.271 98.989 31.1861C99.272 31.0461 99.5747 30.9792 99.8739 30.9795C100.146 30.9792 100.421 31.0346 100.682 31.1503C100.885 31.2396 101.074 31.3628 101.239 31.5176C101.39 31.6582 101.516 31.8193 101.614 31.9941L115.756 55.8587C116.32 56.8089 116.006 58.0358 115.056 58.5989C114.105 59.162 112.878 58.8481 112.315 57.8979Z" fill="currentColor"></path><path d="M46.3016 129.968C46.8541 129.011 46.5267 127.788 45.5702 127.235C44.6137 126.683 43.3905 127.01 42.838 127.967L28.9427 152.021C28.8748 152.137 28.8182 152.261 28.7745 152.39C28.6893 152.642 28.6571 152.904 28.6741 153.16C28.7408 154.204 29.6089 155.03 30.6699 155.03H58.4695C59.5741 155.03 60.4695 154.135 60.4695 153.03C60.4695 151.926 59.5741 151.03 58.4695 151.03H34.1346L46.3016 129.968Z" fill="currentColor"></path><path d="M141.54 151.03C140.436 151.03 139.54 151.926 139.54 153.03C139.54 154.135 140.436 155.03 141.54 155.03H169.34C169.84 155.03 170.297 154.847 170.647 154.544C170.781 154.428 170.899 154.295 170.998 154.148C171.171 153.894 171.286 153.597 171.325 153.277C171.377 152.859 171.299 152.422 171.072 152.029L157.172 127.967C156.62 127.01 155.396 126.683 154.44 127.235C153.483 127.788 153.156 129.011 153.708 129.968L165.876 151.03H141.54Z" fill="currentColor"></path><path fill-rule="evenodd" clip-rule="evenodd" d="M101.737 88.9547C101.379 88.3361 100.719 87.9551 100.005 87.9551C99.2905 87.9551 98.6304 88.3361 98.2731 88.9547L78.6363 122.95C78.2789 123.569 78.2788 124.331 78.636 124.95C78.9932 125.569 79.6536 125.951 80.3682 125.951H119.642C120.356 125.951 121.017 125.569 121.374 124.95C121.731 124.331 121.731 123.569 121.374 122.95L101.737 88.9547ZM83.8331 121.951L100.005 93.9536L116.177 121.951H83.8331Z" fill="currentColor"></path><path fill-rule="evenodd" clip-rule="evenodd" d="M101.737 58.1074C101.38 57.4886 100.719 57.1074 100.005 57.1074C99.2904 57.1074 98.6301 57.4886 98.2729 58.1074L51.9184 138.392C51.5611 139.011 51.5611 139.773 51.9183 140.392C52.2756 141.011 52.9359 141.392 53.6504 141.392H146.359C147.074 141.392 147.734 141.011 148.091 140.392C148.449 139.773 148.449 139.011 148.091 138.392L101.737 58.1074ZM142.895 137.392H57.1146L100.005 63.1073L142.895 137.392Z" fill="currentColor"></path></svg>