<svg width="200" height="200" viewBox="0 0 200 200" fill="none" xmlns="http://www.w3.org/2000/svg"><path fill-rule="evenodd" clip-rule="evenodd" d="M99.0018 32.327C99.6187 31.9716 100.378 31.971 100.996 32.3254L110.334 37.6844L126.369 46.934C126.988 47.2912 127.37 47.9517 127.37 48.6665V103.832C127.37 104.545 126.989 105.205 126.371 105.563C125.754 105.92 124.992 105.921 124.373 105.565L108.338 96.3492C107.717 95.9924 107.335 95.3311 107.335 94.6152V58.8081L100.002 54.6002L43.7579 86.999C43.139 87.3553 42.3771 87.3546 41.7589 86.9971C41.1407 86.6397 40.76 85.9798 40.76 85.2657V67.0326C40.76 66.3174 41.142 65.6566 41.7617 65.2996L99.0018 32.327ZM100.002 36.3671L44.76 68.1886V81.8065L99.0016 50.5602C99.6186 50.2047 100.378 50.2041 100.996 50.5585L110.33 55.9153C110.951 56.2718 111.335 56.9335 111.335 57.6499V93.4579L123.37 100.375V49.8217L108.339 41.1515L100.002 36.3671Z" fill="currentColor"></path><path fill-rule="evenodd" clip-rule="evenodd" d="M140.404 56.1841C141.022 55.8267 141.784 55.826 142.403 56.1822L158.238 65.2988C158.858 65.6557 159.24 66.3167 159.24 67.0321V132.977C159.24 133.694 158.857 134.355 158.235 134.712L132.835 149.317C132.216 149.673 131.455 149.673 130.838 149.316L115.033 140.198L83.1295 121.732C82.511 121.374 82.1305 120.713 82.1313 119.999C82.1322 119.284 82.5143 118.624 83.1336 118.268L99.2021 109.018C99.8216 108.662 100.584 108.663 101.203 109.021L132.075 126.909L139.405 122.703V57.9155C139.405 57.2014 139.785 56.5415 140.404 56.1841ZM143.405 61.3747V123.861C143.405 124.577 143.022 125.239 142.4 125.595L133.066 130.952C132.447 131.307 131.685 131.306 131.068 130.948L100.197 113.061L88.132 120.006L117.035 136.735L131.838 145.275L146.91 136.599L155.24 131.819V68.1884L143.405 61.3747Z" fill="currentColor"></path><path fill-rule="evenodd" clip-rule="evenodd" d="M92.499 76.1489C92.499 75.434 92.1174 74.7735 91.498 74.4163C90.8787 74.0592 90.1158 74.0598 89.4971 74.418L57.5973 92.8816L41.7621 101.998C41.1421 102.355 40.76 103.016 40.76 103.731V132.978C40.76 133.693 41.142 134.354 41.7617 134.711L99.0018 167.683C99.6196 168.039 100.38 168.039 100.998 167.683L116.833 158.567C117.453 158.21 117.835 157.549 117.835 156.834C117.835 156.118 117.453 155.457 116.833 155.1L60.5952 122.705V114.266L91.5022 96.3451C92.1192 95.9873 92.499 95.3281 92.499 94.6149V76.1489ZM59.5931 96.3482L88.499 79.6174V93.4627L57.592 111.384C56.975 111.742 56.5952 112.401 56.5952 113.114V123.861C56.5952 124.576 56.9771 125.237 57.5967 125.594L111.827 156.834L100 163.642L44.76 131.822V104.888L59.5931 96.3482Z" fill="currentColor"></path></svg>