<svg width="200" height="200" viewBox="0 0 200 200" fill="none" xmlns="http://www.w3.org/2000/svg"><path d="M99.2474 25.7392C99.8489 25.4072 100.579 25.4072 101.18 25.7392L166.966 62.0454C167.604 62.3974 168 63.0683 168 63.7968C168 64.5253 167.604 65.1961 166.966 65.5478L151.249 74.2145C150.281 74.7478 149.065 74.3961 148.531 73.4288C147.998 72.4616 148.35 71.2451 149.317 70.7117L161.859 63.7957L100.214 29.7746L38.5679 63.7959L68.3062 80.1983C68.4212 80.2617 68.5276 80.3349 68.6248 80.4161L100.708 98.1327C100.718 98.1381 100.729 98.1435 100.739 98.1491L100.753 98.1568L133.626 116.31L133.648 116.322L163.572 132.827V101.089L131.7 83.5102L131.693 83.5061L98.8192 65.3527C98.7776 65.3298 98.7372 65.3056 98.6979 65.2802L82.3629 56.2569C81.396 55.7228 81.0452 54.506 81.5793 53.5392C82.1134 52.5723 83.3301 52.2215 84.297 52.7556L133.626 80.0042L133.652 80.0185L166.472 98.1205C167.075 98.4249 167.503 99.0262 167.564 99.7323C167.571 99.8043 167.573 99.8767 167.572 99.9493V136.191C167.572 136.198 167.572 136.206 167.572 136.214C167.572 136.311 167.565 136.408 167.551 136.503C167.462 137.116 167.091 137.66 166.539 137.965L100.752 174.271C100.151 174.603 99.4212 174.603 98.8197 174.271L33.0336 137.965C32.3957 137.613 31.9997 136.942 32 136.213C32.0003 135.485 32.3969 134.814 33.0351 134.462L50.5417 124.82C51.5093 124.287 52.7256 124.639 53.2585 125.606C53.7914 126.574 53.4391 127.79 52.4716 128.323L38.1423 136.216L99.7861 170.236L161.432 136.215L131.694 119.812L131.671 119.8L98.8641 101.683C98.8538 101.678 98.8436 101.672 98.8333 101.667L98.8193 101.659L65.9457 83.506C65.8316 83.4431 65.7261 83.3706 65.6296 83.2901L36 66.9477V98.7267L67.8783 116.309L67.8997 116.321L117.209 143.559C118.176 144.094 118.527 145.31 117.993 146.277C117.459 147.244 116.242 147.595 115.275 147.061L65.9454 119.812L65.9262 119.801L33.034 101.659C32.6427 101.443 32.3521 101.115 32.1802 100.738C32.1072 100.578 32.0546 100.407 32.0257 100.228C32.006 100.108 31.9973 99.9849 32 99.8617V64C32 63.1184 32.5704 62.37 33.3624 62.1038C33.3947 62.0835 33.4277 62.064 33.4614 62.0454L99.2474 25.7392Z" fill="currentColor"></path></svg>