<svg width="200" height="200" viewBox="0 0 200 200" fill="none" xmlns="http://www.w3.org/2000/svg"><path fill-rule="evenodd" clip-rule="evenodd" d="M33.6 122.1H59.9L60.1 121.4L71.5 88.7004L86.2 109.8L73.3 146.7L72.8 148H128.9L129.2 147.8L153.4 130.5L153.8 130.2V112.7L165.7 95.7004L166.1 95.1004L165.7 94.5004L153.6 77.2004L153.3 76.8004H124L132.6 52.2004L133.1 50.9004H106.8L106.6 51.6004L95.1 84.4004L72.1 51.4004L71.8 51.0004H58.5L58.3 51.7004L34.1 120.8L33.6 122.1ZM39.2838 118.1H57.0143L70.3026 79.9842L90.6504 109.191L78.4813 144H127.637L149.8 128.157V111.439L161.238 95.0997L151.237 80.8004H118.364L127.419 54.9004H109.682L96.2882 93.1008L69.7334 55.0004H61.3825L39.2838 118.1ZM136.288 106.8H109.37L114.458 92.2004H146.464L136.288 106.8ZM105.458 118.1H131.8V132.7H100.37L105.458 118.1ZM134.2 102.8H115L117.3 96.2004H138.8L134.2 102.8ZM108.3 122.1H127.8V128.7H106L108.3 122.1Z" fill="currentColor"></path></svg>