<svg width="200" height="200" viewBox="0 0 200 200" fill="none" xmlns="http://www.w3.org/2000/svg"><path fill-rule="evenodd" clip-rule="evenodd" d="M101.072 17.8094C101.312 16.4706 100.612 14.995 99.2961 14.3828C98.0017 13.6842 96.5 13.9811 95.5292 14.9168C93.3298 16.9114 90.9637 19.5846 89.4246 22.5529L89.4205 22.5609C87.2249 26.8423 86.5277 31.4774 89.0496 36.0409L89.0565 36.0534L89.0636 36.0658C90.2634 38.1653 91.9925 39.6607 93.3755 40.7144C93.77 41.0149 94.2283 41.3457 94.6071 41.619C94.8281 41.7785 95.0222 41.9186 95.1605 42.0215C95.4801 42.2595 95.6337 42.3944 95.6955 42.4486C95.7184 42.4688 95.7288 42.4779 95.7301 42.4768C95.7307 42.4762 95.729 42.4729 95.7253 42.467L95.8244 42.6227C95.8656 42.8197 95.8981 43.1172 95.9143 43.5068C95.9377 44.0678 95.9249 44.567 95.9129 45.0335C95.9073 45.253 95.9019 45.4657 95.9005 45.6738C95.7849 46.8587 95.5851 48.3821 95.377 49.9683C95.2183 51.1778 95.0547 52.4246 94.9201 53.585C94.6961 54.9623 95.4591 56.4712 96.8573 57.0305C97.7386 57.383 99.2654 57.5687 100.445 56.4553C102.594 54.6186 104.949 51.938 106.577 48.7924L106.6 48.7473L106.621 48.7011C108.193 45.2417 109.246 41.1412 107.786 37.2061C106.425 33.1681 103.125 30.8924 101.224 29.5817C100.958 29.3984 100.72 29.234 100.518 29.0863C100.079 28.7342 100.072 28.7072 100.059 28.6558C100.059 28.6538 100.058 28.6517 100.058 28.6495C100.057 28.6474 100.057 28.6452 100.056 28.6429C100.055 28.6398 100.054 28.6365 100.053 28.633C99.9615 28.3683 99.8462 27.659 99.9935 25.7368C100.179 23.6095 100.634 20.6554 101.027 18.1007L101.072 17.8094ZM96.0076 25.4003C96.1619 23.6256 96.4862 21.353 96.805 19.2465C95.3198 20.7827 93.9289 22.557 92.9777 24.3902C91.1776 27.9023 90.874 31.0621 92.5436 34.0935C93.344 35.4881 94.5613 36.5891 95.7997 37.5327C96.1962 37.8348 96.5124 38.0618 96.827 38.2877C97.0581 38.4536 97.2886 38.619 97.5491 38.813C97.936 39.101 98.5228 39.542 98.9347 40.0816C99.4604 40.6604 99.6456 41.3743 99.7269 41.7441C99.8431 42.2726 99.8902 42.8431 99.9109 43.3403C99.9396 44.0293 99.92 44.8536 99.9078 45.3663C99.9035 45.5474 99.9001 45.6899 99.9001 45.7735V45.8685L99.8911 45.9631C99.7744 47.1884 99.5484 48.9187 99.3239 50.6374L99.3232 50.6427C99.2531 51.1796 99.1831 51.7153 99.1167 52.2341C100.543 50.8005 101.961 48.9953 103 46.9994C104.408 43.8869 104.943 41.0178 104.027 38.5758L104.014 38.5411L104.003 38.506C103.106 35.8147 101.02 34.3439 99.0774 32.9733C98.75 32.7423 98.4267 32.5142 98.1137 32.2836L98.0817 32.2601L98.0507 32.2353C98.0225 32.2127 97.9929 32.1892 97.9619 32.1647C97.4805 31.7836 96.6945 31.1613 96.2722 29.9391C95.8888 28.8292 95.8544 27.3905 96.006 25.4201L96.0068 25.4102L96.0076 25.4003Z" fill="currentColor"></path><path fill-rule="evenodd" clip-rule="evenodd" d="M73.7213 81.5746H54.9V104.575H70.8565L73.7565 111.675H82.9435L85.8435 104.575H92.5388L95.3388 111.675H104.543L107.443 104.575H113.957L116.856 111.675H126.043L128.943 104.575H144.879L145.121 81.5746H126.479L123.579 88.3746H119.721L116.821 81.5746H104.979L102.079 88.3746H98.2394L95.4394 81.5746H83.3787L80.4787 88.3746H76.6213L73.7213 81.5746ZM58.9 100.575V85.5746H71.0787L73.9787 92.3746H83.1213L86.0213 85.5746H92.7606L95.5606 92.3746H104.721L107.621 85.5746H114.179L117.079 92.3746H126.221L129.121 85.5746H141.079L140.921 100.575H126.257L123.356 107.675H119.543L116.644 100.575H104.757L101.857 107.675H98.0612L95.2612 100.575H83.1565L80.2565 107.675H76.4435L73.5435 100.575H58.9Z" fill="currentColor"></path><path fill-rule="evenodd" clip-rule="evenodd" d="M67.7 122.575C63.8684 122.575 60.9 125.697 60.9 129.375C60.9 133.206 64.0227 136.175 67.7 136.175C71.4711 136.175 74.361 133.026 74.4985 129.451L74.5 129.413V129.375C74.5 125.543 71.3773 122.575 67.7 122.575ZM64.9 129.375C64.9 127.852 66.1316 126.575 67.7 126.575C69.2103 126.575 70.4793 127.786 70.4997 129.337C70.4181 130.943 69.1176 132.175 67.7 132.175C66.1773 132.175 64.9 130.943 64.9 129.375Z" fill="currentColor"></path><path fill-rule="evenodd" clip-rule="evenodd" d="M89.2 122.575C85.3684 122.575 82.4 125.697 82.4 129.375C82.4 133.206 85.5227 136.175 89.2 136.175C92.9711 136.175 95.861 133.026 95.9985 129.451L96 129.413V129.375C96 125.543 92.8773 122.575 89.2 122.575ZM86.4 129.375C86.4 127.852 87.6316 126.575 89.2 126.575C90.7103 126.575 91.9792 127.786 91.9997 129.336C91.9181 130.943 90.6176 132.175 89.2 132.175C87.6773 132.175 86.4 130.943 86.4 129.375Z" fill="currentColor"></path><path fill-rule="evenodd" clip-rule="evenodd" d="M110.8 122.575C106.968 122.575 104 125.697 104 129.375C104 133.206 107.123 136.175 110.8 136.175C114.505 136.175 117.6 133.079 117.6 129.375C117.6 125.543 114.477 122.575 110.8 122.575ZM108 129.375C108 127.852 109.232 126.575 110.8 126.575C112.323 126.575 113.6 127.806 113.6 129.375C113.6 130.87 112.295 132.175 110.8 132.175C109.277 132.175 108 130.943 108 129.375Z" fill="currentColor"></path><path fill-rule="evenodd" clip-rule="evenodd" d="M132.4 122.575C128.568 122.575 125.6 125.697 125.6 129.375C125.6 133.206 128.723 136.175 132.4 136.175C136.171 136.175 139.061 133.026 139.199 129.451L139.2 129.413V129.375C139.2 125.543 136.077 122.575 132.4 122.575ZM129.6 129.375C129.6 127.852 130.832 126.575 132.4 126.575C133.91 126.575 135.179 127.786 135.2 129.337C135.118 130.943 133.818 132.175 132.4 132.175C130.877 132.175 129.6 130.943 129.6 129.375Z" fill="currentColor"></path><path fill-rule="evenodd" clip-rule="evenodd" d="M75.2 72.9746H46V166.875H64.4V145.375H135.5V166.875H154V72.9746H124.6L121.4 77.2413L118.2 72.9746H103.1L99.9 77.2413L96.7 72.9746H81.6L78.4 77.2413L75.2 72.9746ZM50 162.875V76.9746H73.2L78.4 83.9079L83.6 76.9746H94.7L99.9 83.9079L105.1 76.9746H116.2L121.4 83.9079L126.6 76.9746H150V162.875H139.5V141.375H60.4V162.875H50Z" fill="currentColor"></path><path fill-rule="evenodd" clip-rule="evenodd" d="M79.999 31.2406C80.4805 31.5037 80.9107 31.8992 81.1887 32.4553C81.4622 33.0022 81.4999 33.5328 81.4999 33.8747V33.9515L81.494 34.0281C81.4002 35.248 81.2148 36.65 81.0748 37.3085C81.0259 37.7301 80.9598 38.2093 80.8933 38.6911L80.8765 38.8134C80.7966 39.3927 80.7155 39.9884 80.6499 40.5728C80.5095 41.8234 80.4782 42.7401 80.5656 43.2061L80.5676 43.2166L80.5695 43.2271C80.5709 43.2355 80.5722 43.2436 80.5734 43.2517C80.5899 43.3585 80.6044 43.4522 81.0827 43.8087C81.2036 43.8988 81.3635 44.0098 81.5534 44.1415C82.1503 44.5554 83.0429 45.1745 83.9452 45.9948L83.958 46.0065L83.9706 46.0183C85.9959 47.9244 87.1302 50.2023 87.4119 52.6594C87.69 55.0855 87.1227 57.5447 85.9974 59.8516L85.9931 59.8604L85.9887 59.8691C84.6588 62.5289 82.5723 65.0604 80.4392 66.7445L80.3761 66.7942L80.3093 66.8388C79.7704 67.1981 78.4746 67.7776 77.2007 67.0088C76.7192 66.7457 76.2891 66.3502 76.011 65.7941C75.7376 65.2472 75.6999 64.7166 75.6999 64.3747V64.284L75.7081 64.1936C75.813 63.0399 75.9945 61.695 76.1688 60.4376L76.2342 59.967C76.3814 58.9085 76.5164 57.9381 76.601 57.1574C76.6034 57.0222 76.6089 56.8559 76.6142 56.6946C76.6172 56.6029 76.6202 56.5126 76.6226 56.4306C76.6315 56.1133 76.6364 55.78 76.626 55.4663C76.6183 55.2366 76.6033 55.0532 76.5849 54.9169L76.5467 54.8853C76.3956 54.7608 76.21 54.6128 76.0186 54.4633C75.8279 54.3143 75.6384 54.1692 75.4811 54.0513C75.4024 53.9922 75.3346 53.9421 75.2805 53.9028L75.2505 53.8812L75.2149 53.8558C75.1989 53.8445 75.1914 53.8394 75.1905 53.8388L75.1636 53.8209L75.1374 53.8022C72.9139 52.214 70.4702 50.215 69.7303 46.0223L69.7261 45.9983L69.7225 45.9743C69.102 41.8792 71.0835 37.9257 73.2146 35.1553C74.3136 33.7266 75.5224 32.5176 76.7334 31.5268L76.8091 31.4649L76.8905 31.4106C77.4294 31.0513 78.7251 30.4718 79.999 31.2406ZM77.1179 36.7019C76.8685 36.9867 76.6236 37.2841 76.3851 37.5941C74.5221 40.0161 73.3054 42.8524 73.6738 45.3516C74.1365 47.9329 75.4826 49.1315 77.4418 50.5326C77.6737 50.6907 78.1066 51.0185 78.4812 51.3112C78.8254 51.5801 79.2908 51.9511 79.5588 52.2066C80.2021 52.7904 80.3968 53.5837 80.4711 53.9306C80.573 54.4061 80.6097 54.9104 80.6238 55.3331C80.6433 55.9186 80.6162 56.7549 80.6046 57.1103C80.6018 57.1982 80.5999 57.2567 80.5999 57.2747V57.3797L80.5889 57.4841C80.4975 58.352 80.3472 59.4326 80.1957 60.5207L80.1309 60.9868C80.1034 61.1858 80.0759 61.3845 80.049 61.5822C80.96 60.5284 81.7897 59.3208 82.4066 58.0891C83.2781 56.2992 83.6095 54.6115 83.4379 53.115C83.2701 51.6515 82.6079 50.2335 81.2415 48.9427C80.5558 48.3208 80.0231 47.952 79.4766 47.5736L79.4757 47.5729C79.223 47.3979 78.9672 47.2208 78.692 47.0157C77.8334 46.3756 76.9135 45.5074 76.6322 43.9328C76.4222 42.8002 76.5407 41.3223 76.6749 40.1266C76.7468 39.486 76.8344 38.8442 76.9139 38.2672L76.9282 38.1635C77.0035 37.6179 77.0685 37.1465 77.1121 36.7538L77.1179 36.7019Z" fill="currentColor"></path><path fill-rule="evenodd" clip-rule="evenodd" d="M122.694 31.1855C122.171 30.9237 121.579 30.8021 120.958 30.8976C120.385 30.9859 119.952 31.236 119.691 31.4103L119.602 31.4695L119.52 31.5379C117.574 33.1596 115.357 35.5754 113.997 38.4089L113.988 38.4277L113.979 38.4467C113.937 38.5387 113.893 38.6342 113.848 38.7334C113.382 39.7441 112.743 41.1322 112.518 42.9087C111.912 47.1855 113.674 50.1248 115.605 52.0706C116.543 53.0155 117.529 53.7381 118.25 54.2594L118.384 54.356C118.696 54.5815 118.924 54.7459 119.106 54.8912C119.181 54.951 119.228 54.9922 119.254 55.0162L119.275 55.0501C119.298 55.1909 119.317 55.3965 119.326 55.666C119.336 55.9796 119.332 56.3129 119.323 56.6303C119.32 56.7123 119.317 56.8024 119.314 56.8941C119.309 57.0578 119.303 57.2264 119.301 57.3627C119.212 58.2298 119.065 59.2764 118.907 60.4049L118.869 60.6721C118.695 61.9145 118.513 63.2372 118.408 64.3933L118.4 64.4836V64.5744C118.4 64.9163 118.438 65.4468 118.711 65.9938C119.009 66.5899 119.482 67.0015 120.005 67.2632C120.529 67.525 121.121 67.6466 121.742 67.5511C122.315 67.4628 122.748 67.2127 123.009 67.0385L123.076 66.9939L123.139 66.9441C125.272 65.2601 127.359 62.7286 128.689 60.0688C130.476 56.495 131.069 52.5696 128.954 48.7127L128.947 48.7014L128.941 48.6902C127.662 46.4274 125.718 45.0349 124.451 44.1275C124.19 43.9412 123.959 43.7754 123.768 43.6267C123.61 43.4911 123.52 43.4118 123.456 43.3495C123.443 43.3367 123.433 43.3264 123.425 43.3183C123.414 43.285 123.395 43.2224 123.37 43.1169C123.309 42.6258 123.306 41.9337 123.388 41.1952L123.389 41.1843L123.39 41.1734C123.478 40.2896 123.63 39.2105 123.793 38.0439L123.831 37.7766C124.005 36.5342 124.187 35.2115 124.292 34.0554L124.3 33.9651V33.8744C124.3 33.5324 124.262 33.0019 123.989 32.4549C123.691 31.8588 123.218 31.4473 122.694 31.1855ZM117.612 40.1219C118.204 38.8941 119.034 37.7253 119.943 36.6927C119.919 36.8682 119.894 37.0448 119.869 37.2221L119.829 37.5115C119.669 38.6467 119.508 39.7997 119.411 40.7646C119.298 41.7845 119.291 42.8546 119.42 43.7572L119.431 43.8332L119.448 43.9082C119.568 44.4518 119.737 45.0179 120.112 45.5662C120.436 46.0405 120.855 46.3987 121.162 46.6617L121.231 46.7206L121.264 46.747C121.655 47.054 122.033 47.3292 122.397 47.5938C123.605 48.473 124.651 49.2342 125.452 50.6473C126.731 52.987 126.522 55.4582 125.111 58.2799C124.495 59.5124 123.665 60.7211 122.754 61.776C122.779 61.5938 122.805 61.4106 122.831 61.2267L122.871 60.9372C123.031 59.798 123.193 58.6403 123.29 57.6734L123.3 57.5741V57.4744C123.3 57.4564 123.302 57.3979 123.305 57.3099C123.316 56.9545 123.343 56.1182 123.324 55.5327C123.31 55.1101 123.273 54.6057 123.171 54.1303C123.104 53.8178 122.94 53.1434 122.438 52.586C122.158 52.2192 121.819 51.939 121.602 51.7657C121.338 51.5544 121.02 51.3255 120.722 51.1107L120.593 51.0174C119.883 50.5044 119.132 49.9457 118.445 49.2531C117.128 47.9266 116.092 46.1711 116.48 43.4572L116.482 43.4398L116.484 43.4224C116.628 42.2754 117.023 41.4095 117.502 40.362L117.612 40.1219Z" fill="currentColor"></path></svg>