<svg width="200" height="200" viewBox="0 0 200 200" fill="none" xmlns="http://www.w3.org/2000/svg"><path fill-rule="evenodd" clip-rule="evenodd" d="M112.986 44.1846C116.495 40.6755 122.386 41.5499 125.925 45.1957L154.414 73.6846C158.029 77.299 158.938 83.0897 155.414 86.6131L149.8 92.2273L135.4 77.8277L79.8323 133.396L56.6135 142.986L66.2039 119.767L121.772 64.1993L107.372 49.7989L112.986 44.1846ZM115.814 47.0131C117.301 45.5262 120.601 45.4458 123.063 47.9897L123.074 48.0015L151.586 76.5131C154.171 79.0987 154.062 82.3081 152.586 83.7846L149.8 86.5704L113.028 49.7989L115.814 47.0131ZM63.9868 135.613L69.5964 122.032L124.6 67.028L132.572 74.9995L77.568 130.003L63.9868 135.613Z" fill="currentColor"></path></svg>