<svg width="200" height="200" viewBox="0 0 200 200" fill="none" xmlns="http://www.w3.org/2000/svg"><path fill-rule="evenodd" clip-rule="evenodd" d="M73.8065 54.0362C73.0253 53.2559 71.7596 53.2562 70.9788 54.037L54.0382 70.9776C53.2574 71.7584 53.2571 73.0241 54.0374 73.8052L80.2012 99.9988L54.0374 126.192C53.2571 126.974 53.2574 128.239 54.0382 129.02L70.9788 145.961C71.7596 146.741 73.0253 146.742 73.8065 145.962L100 119.798L126.194 145.962C126.975 146.742 128.241 146.741 129.021 145.961L145.962 129.02C146.743 128.239 146.743 126.974 145.963 126.192L119.799 99.9988L145.963 73.8052C146.743 73.0241 146.743 71.7584 145.962 70.9776L129.021 54.037C128.241 53.2562 126.975 53.2559 126.194 54.0362L100 80.2L73.8065 54.0362ZM58.28 72.3926L72.3939 58.2788L98.5866 84.4418C99.3675 85.2218 100.633 85.2218 101.413 84.4418L127.606 58.2788L141.72 72.3926L115.557 98.5854C114.777 99.3663 114.777 100.631 115.557 101.412L141.72 127.605L127.606 141.719L101.413 115.556C100.633 114.776 99.3675 114.776 98.5866 115.556L72.3939 141.719L58.28 127.605L84.443 101.412C85.223 100.631 85.223 99.3663 84.443 98.5854L58.28 72.3926Z" fill="currentColor"></path><path fill-rule="evenodd" clip-rule="evenodd" d="M73.8072 34.0858C73.0262 33.3047 71.7598 33.3047 70.9788 34.0858L34.0858 70.9788C33.3047 71.7598 33.3047 73.0262 34.0858 73.8072L60.2786 100L34.0858 126.193C33.7107 126.568 33.5 127.077 33.5 127.607C33.5 128.137 33.7107 128.646 34.0858 129.021L70.9788 165.914C71.3539 166.289 71.8626 166.5 72.393 166.5C72.9234 166.5 73.4321 166.289 73.8072 165.914L100 139.721L126.193 165.914C126.568 166.289 127.077 166.5 127.607 166.5C128.137 166.5 128.646 166.289 129.021 165.914L165.914 129.021C166.289 128.646 166.5 128.137 166.5 127.607C166.5 127.077 166.289 126.568 165.914 126.193L139.721 100L165.914 73.8072C166.289 73.4321 166.5 72.9234 166.5 72.393C166.5 71.8626 166.289 71.3539 165.914 70.9788L129.021 34.0858C128.646 33.7107 128.137 33.5 127.607 33.5C127.077 33.5 126.568 33.7107 126.193 34.0858L100 60.2786L73.8072 34.0858ZM101.414 64.5212L127.607 38.3284L161.672 72.393L135.479 98.5858C135.104 98.9609 134.893 99.4696 134.893 100C134.893 100.53 135.104 101.039 135.479 101.414L161.672 127.607L127.607 161.672L101.414 135.479C101.039 135.104 100.53 134.893 100 134.893C99.4696 134.893 98.9609 135.104 98.5858 135.479L72.393 161.672L38.3284 127.607L64.5212 101.414C64.8963 101.039 65.107 100.53 65.107 100C65.107 99.4696 64.8963 98.9609 64.5212 98.5858L38.3284 72.393L72.393 38.3284L98.5858 64.5212C98.9609 64.8963 99.4696 65.107 100 65.107C100.53 65.107 101.039 64.8963 101.414 64.5212Z" fill="currentColor"></path></svg>