<svg width="200" height="200" viewBox="0 0 200 200" fill="none" xmlns="http://www.w3.org/2000/svg"><path d="M167.368 29.8815L167.297 29.9699C167.243 30.0343 167.157 30.1315 167.036 30.2589C166.631 30.6857 166.082 31.177 165.37 31.7186C163.249 33.3333 160.253 34.9749 156.233 36.5257C152.951 37.792 149.133 38.9355 144.741 39.9237L143.911 40.1072C132.254 42.6372 124.325 47.3228 120.462 53.5209C116.941 59.169 117.117 65.7008 120.575 71.2442C122.491 74.3191 123.919 79.6807 123.894 84.257C123.866 89.3256 122.201 92.5775 119.002 93.4243L118.673 93.5081C115.326 94.3276 113.581 93.7121 111.971 91.9778L111.83 91.8223L111.608 91.3285C111.542 91.1769 111.472 91.0149 111.4 90.8431C110.983 89.854 110.565 88.7545 110.176 87.5772C109.203 84.6384 108.572 81.7309 108.441 79.0614C108.27 75.57 108.971 72.7798 110.644 70.8455C111.87 69.4283 110.649 67.2546 108.801 67.5644L92.7411 70.2568L92.5753 70.2919C91.9763 70.4453 91.4781 70.869 91.2326 71.4435L90.331 73.5513L90.2467 73.554C89.0781 73.5888 87.8185 73.7409 86.5732 74.071C82.9394 75.0342 80.5271 77.313 80.5271 81.0849C80.5271 82.3519 81.6848 83.2865 82.9052 83.049L83.3228 82.9507C83.4821 82.9162 83.6876 82.8758 83.9308 82.8346C85.0329 82.6481 86.1643 82.5809 87.174 82.6972L87.3491 82.7191C90.054 83.0864 91.0425 84.5867 89.8094 88.901L89.695 89.2833L89.5897 89.4934C89.5775 89.5185 89.3662 90.0182 89.129 90.5567L88.8431 91.1936C88.7281 91.4434 88.6239 91.6595 88.5523 91.7871C87.3885 93.862 85.4867 94.6009 81.0257 93.4239C77.8278 92.5773 76.1637 89.3316 76.1359 84.2691C76.1117 79.8452 77.4469 74.6808 79.2731 71.5463L79.4574 71.2398C82.9127 65.7009 83.0889 59.1691 79.5686 53.5209C75.7731 47.4315 68.0527 42.8021 56.7293 40.2424L56.1193 40.1072C43.9176 37.4595 36.7339 33.9144 33.2522 30.5195L33.1131 30.3814C32.872 30.1377 32.7304 29.9715 32.6789 29.9042L32.6623 29.8815C31.604 28.3134 29.1943 28.9632 29.015 30.7897L29.004 30.9994L29.0006 31.2664V31.6746C29.0261 35.3767 29.4833 39.7302 30.6626 44.0303C32.4874 50.6844 35.6964 55.7342 40.6991 58.3077L41.1647 58.5478C53.1788 64.7697 58.0352 69.3077 57.9791 73.3969L57.976 73.4933L57.886 73.4776C57.2787 73.3673 56.6308 73.2378 55.9499 73.0876C53.0349 72.4448 50.1225 71.5633 47.4218 70.4131C41.6903 67.9719 37.7666 64.6887 36.3337 60.5465C35.6755 58.6437 32.9353 58.7964 32.4925 60.7605L32.447 60.9832C32.4066 61.1976 32.3612 61.4837 32.3174 61.8362C31.6158 67.4794 32.8615 74.0903 37.6109 80.3764C39.6979 83.1386 42.3808 85.6671 45.7045 87.9141L46.2977 88.3077C46.7689 88.622 47.1749 88.8503 47.9129 89.2254L48.3765 89.4588L48.7525 89.644C54.5888 92.5517 57.9141 95.7091 58.2683 98.0954L58.279 98.1863L58.087 98.1382C57.7879 98.0618 57.4781 97.9798 57.1591 97.8922C54.8835 97.2672 52.6099 96.4889 50.5027 95.5536C46.2158 93.6509 43.2438 91.3676 42.1143 88.8573L42.0108 88.6137C41.2989 86.8344 38.7672 86.9942 38.2403 88.7723L38.1879 88.9871L38.1213 89.3483C37.8003 91.2438 37.6533 93.7047 37.8839 96.5632C38.2284 100.835 39.3723 105.12 41.5286 109.219L41.7266 109.589C47.4057 120.062 58.8218 127.67 77.1426 131.126L77.697 131.228L73.8886 148.848L73.8625 148.992C73.6029 150.753 75.6575 151.975 77.0894 150.835L89.597 140.873L98.0652 169.399L98.1206 169.563C98.7886 171.306 101.35 171.251 101.9 169.399L110.367 140.873L122.876 150.835L122.993 150.922C124.457 151.936 126.464 150.637 126.077 148.847L122.266 131.228L122.884 131.115C140.084 127.857 151.217 120.921 157.224 111.327C161.572 104.382 162.712 97.1085 162.035 90.7693L161.986 90.3385C161.907 89.6865 161.826 89.2108 161.766 88.9334C161.36 87.0603 158.837 86.7962 158.021 88.4618L157.954 88.6138C156.912 91.22 153.888 93.5897 149.462 95.5537C147.355 96.4889 145.082 97.2672 142.806 97.8922L142.335 98.0194L141.698 98.1823L141.708 98.106C142.057 95.7767 145.225 92.7202 150.808 89.8511L151.339 89.5813L151.483 89.5341C151.541 89.5117 151.598 89.4866 151.653 89.4589C152.483 89.0439 153.093 88.7112 153.708 88.3233C157.326 85.9627 160.199 83.3001 162.407 80.3757C167.155 74.085 168.404 67.4709 167.71 61.8295L167.658 61.4426C167.615 61.147 167.572 60.9193 167.538 60.7645C167.099 58.7974 164.355 58.6417 163.696 60.5465C162.263 64.6888 158.339 67.972 152.608 70.4132C149.907 71.5634 146.995 72.4449 144.08 73.0876L143.576 73.1964C143.244 73.2664 142.92 73.3313 142.607 73.3913L142.044 73.4943L142.041 73.3888C141.973 69.2475 146.974 64.6286 159.327 58.3098C164.382 55.7094 167.603 50.5901 169.417 43.8481C170.58 39.5276 171.018 35.1864 171.03 31.567L171.025 30.9446C170.971 29.001 168.456 28.2698 167.368 29.8815ZM93.1874 91.2453L93.2185 91.1788L93.2617 91.0994C93.3433 90.9635 93.4084 90.8183 93.4557 90.667C95.7198 83.4234 93.0855 79.3513 87.6315 78.7234L87.1509 78.6776C86.8294 78.6531 86.5059 78.6406 86.1814 78.639L85.866 78.6423L85.9395 78.5965C86.3852 78.3291 86.9375 78.1126 87.5981 77.9375C88.7169 77.6409 89.9235 77.5349 90.9692 77.5475L91.6544 77.5704C92.4462 77.5667 93.1682 77.0937 93.4833 76.3563L94.48 74.0203L105.332 72.2013L105.259 72.4106C104.574 74.4467 104.322 76.7474 104.446 79.2576C104.597 82.3344 105.301 85.5794 106.378 88.8341C106.732 89.9029 107.107 90.9124 107.486 91.8454L107.713 92.3958C107.99 93.0525 108.209 93.5313 108.34 93.8015C108.414 93.9524 108.506 94.0935 108.615 94.2213C111.294 97.3676 114.607 98.7236 120.025 97.2913C125.329 95.8872 127.857 90.9496 127.894 84.2789C127.922 79.1287 126.395 73.2332 124.179 69.474L123.969 69.1279C121.298 64.8453 121.166 59.9525 123.856 55.6367C127.018 50.5633 133.819 46.4864 144.18 44.1445L144.759 44.0162C149.699 42.9444 153.988 41.6793 157.673 40.2576L158.236 40.0373C161.557 38.7196 164.257 37.3201 166.4 35.892L166.83 35.5993L166.823 35.6851C166.605 37.968 166.202 40.4038 165.554 42.8086C164.004 48.5678 161.365 52.763 157.501 54.7507L156.532 55.251C141.55 63.0549 136.055 69.3155 138.59 76.4358C138.903 77.3146 139.782 77.8604 140.708 77.7513L140.913 77.7254C141.111 77.6992 141.376 77.6611 141.701 77.6098L141.904 77.5775C142.823 77.4287 143.843 77.2359 144.941 76.9938C148.082 76.3013 151.224 75.3501 154.175 74.0933L154.617 73.9022C158.129 72.36 161.09 70.4918 163.354 68.2523L163.616 67.9873L163.589 68.1566C163.037 71.3414 161.682 74.6964 159.214 77.9659C157.289 80.5169 154.757 82.8628 151.548 84.9569L151.374 85.0647L151.005 85.281C150.811 85.3906 150.602 85.5034 150.368 85.6249L150.102 85.7603L149.98 85.8019C149.923 85.8236 149.867 85.848 149.812 85.875C140.532 90.4365 135.572 96.1665 138.416 101.519C138.827 102.293 139.694 102.709 140.555 102.545L140.861 102.484C140.988 102.457 141.138 102.425 141.311 102.386L141.491 102.346C142.209 102.183 143.007 101.985 143.865 101.749C146.32 101.075 148.777 100.234 151.085 99.2098L151.535 99.007C154.062 97.8495 156.225 96.5477 157.942 95.0727L158.204 94.8423L158.198 95.0711C158.048 99.6031 156.78 104.499 153.834 109.204C148.17 118.249 137.214 124.786 119.552 127.638L119.407 127.667C118.358 127.916 117.684 128.963 117.916 130.035L120.982 144.213L110.54 135.898L110.419 135.808C109.314 135.053 107.766 135.582 107.377 136.893L99.982 161.802L92.5881 136.893L92.5402 136.751C92.0674 135.498 90.4944 135.046 89.4248 135.898L78.983 144.212L82.0486 130.035C82.2908 128.915 81.544 127.82 80.4125 127.638C61.5022 124.585 50.3172 117.334 45.0686 107.356C43.1788 103.764 42.1741 100 41.8709 96.2416L41.8368 95.7765C41.8166 95.4693 41.8014 95.1681 41.79 94.8683L42.0232 95.0727C43.8406 96.6344 46.1589 98.002 48.88 99.2097C51.188 100.234 53.6449 101.075 56.0998 101.749L57.0995 102.014C57.4223 102.097 57.7342 102.173 58.034 102.244L58.4744 102.346C58.9117 102.445 59.23 102.511 59.4097 102.545C60.2664 102.708 61.1298 102.297 61.5436 101.529C64.3937 96.2434 59.564 90.5514 50.5163 86.0538L49.7574 85.6757C49.1417 85.363 48.8268 85.1865 48.4985 84.9677C45.2651 82.8618 42.7296 80.5159 40.8024 77.9652L40.5117 77.5729C38.228 74.4316 36.9588 71.2207 36.4319 68.1656L36.4 67.9743L36.6755 68.2522C39.0339 70.585 42.149 72.515 45.8544 74.0932C48.8054 75.3501 51.9482 76.3013 55.0885 76.9938C56.0035 77.1955 56.8649 77.3631 57.6585 77.4994L58.1264 77.5775C58.6857 77.668 59.0925 77.7242 59.3221 77.7513C60.2522 77.8609 61.1339 77.3102 61.4436 76.4263C63.9901 69.158 58.2377 62.8192 42.5277 54.7502C38.7033 52.7827 36.0773 48.6504 34.5202 42.9724L34.3375 42.2808C33.8093 40.2032 33.4593 38.1061 33.2502 36.1042L33.203 35.6283L33.4113 35.7731C37.8243 38.8052 44.6928 41.6605 54.6056 43.8699L55.271 44.0162C65.9576 46.3358 72.9533 50.4694 76.174 55.6367C78.8639 59.9526 78.7319 64.8453 76.0608 69.1272C73.7302 72.8853 72.1069 78.9867 72.136 84.2911C72.1726 90.9558 74.701 95.8872 80.0036 97.2911C86.1831 98.9215 89.9599 97.454 92.041 93.744L92.1609 93.5191C92.5451 92.7691 93.1241 91.4092 93.1874 91.2453Z" fill="currentColor"></path></svg>