<svg width="200" height="200" viewBox="0 0 200 200" fill="none" xmlns="http://www.w3.org/2000/svg"><path fill-rule="evenodd" clip-rule="evenodd" d="M99.627 48.9573L99.7918 48.9467C102.254 48.8134 104.669 49.3862 106.774 50.5391C109.718 46.7478 113.464 45.0596 117.25 45.4169C120.834 45.7552 124.063 47.8938 126.319 51.0466C126.818 50.8661 127.337 50.7173 127.871 50.6034C131.501 49.8225 135.102 50.7829 137.802 52.9226C140.119 51.4271 142.884 50.5586 145.848 50.5586C154.038 50.5586 160.684 57.2043 160.684 65.3941C160.684 68.3138 159.84 71.0373 158.385 73.3299C163.994 75.4212 168 80.8331 168 87.1637C168 91.791 165.868 95.9286 162.526 98.6368C164.873 101.63 166.435 105.276 166.859 109.338C168.105 120.856 159.765 131.212 148.244 132.433C143.848 132.911 139.62 131.987 136.005 130.021C137.184 140.851 134.666 150.308 131.674 157.281C129.96 161.275 128.081 164.475 126.626 166.683C125.898 167.788 125.274 168.647 124.828 169.236C124.604 169.53 124.425 169.758 124.299 169.914C124.236 169.993 124.186 170.053 124.151 170.096L124.109 170.147L124.096 170.162L124.092 170.167L124.09 170.169L124.088 170.167L124.089 170.17C123.503 170.859 122.528 171.07 121.71 170.683C120.893 170.297 120.436 169.41 120.596 168.52C122.284 159.16 120.029 150.533 116.248 143.738C113.102 138.086 108.981 133.842 105.386 131.531C103.084 140.101 94.8268 145.95 85.7471 144.988L85.7424 144.987C84.7948 144.884 83.8719 144.711 82.9784 144.473C78.9101 148.816 73.0997 151.545 66.6788 151.545C54.3304 151.545 44.3218 141.536 44.3218 129.188C44.3218 128.179 44.3938 127.186 44.5246 126.218C37.2501 123.79 32 116.919 32 108.831C32 100.176 38.0111 92.9154 46.0825 90.9987C45.2866 89.7015 44.7672 87.9846 45.0123 85.7791C45.327 82.9471 46.652 81.1327 48.3322 80.1059C48.6931 79.8854 49.0593 79.7078 49.4206 79.5651C49.3825 79.5029 49.3454 79.4369 49.3089 79.3703C47.998 76.9799 47.4718 74.0257 48.02 70.1884C48.6546 65.7464 52.6076 61.8551 57.2243 60.4345C58.4705 60.0511 59.7785 59.8409 61.1068 59.8379L61.0997 59.7833C59.6837 48.7345 67.4875 38.5999 78.5656 37.1755C87.6968 35.9942 96.1499 40.8696 99.627 48.9573ZM79.0781 41.1426L79.0764 41.1428C70.1877 42.2853 63.9262 50.4201 65.0688 59.2862L65.0722 59.3147C65.1202 59.7341 65.1875 60.1404 65.2746 60.5419C67.7135 61.3957 70.0735 63.0693 72.1 65.7714C72.7627 66.655 72.5836 67.9086 71.6999 68.5713C70.8162 69.2341 69.5626 69.0549 68.8999 68.1713C65.6774 63.8743 61.6909 63.2452 58.4007 64.2577C54.8923 65.3372 52.3453 68.1961 51.9798 70.754C51.528 73.9166 52.0019 75.9623 52.8161 77.4469C53.6565 78.9793 54.9783 80.1407 56.6626 81.344C57.5613 81.9861 57.7694 83.2352 57.1273 84.134C56.4852 85.0327 55.2361 85.2408 54.3373 84.5987C53.6615 84.1159 52.9701 83.5927 52.3021 83.0052C51.7445 83.0266 51.0223 83.1498 50.418 83.5191C49.8482 83.8673 49.1732 84.5529 48.9878 86.2209C48.8071 87.8466 49.328 88.802 49.8802 89.433C50.1801 89.7758 50.5167 90.05 50.8405 90.2832C50.9659 90.3735 51.0744 90.4473 51.1896 90.5257C53.8629 90.6482 56.3871 91.3468 58.6309 92.4947C59.6143 92.9978 60.0036 94.2028 59.5005 95.1862C58.9974 96.1695 57.7924 96.5588 56.809 96.0557C54.8774 95.0674 52.6731 94.5039 50.3267 94.5039C42.4208 94.5039 36 100.925 36 108.831C36 115.646 40.7712 121.358 47.1521 122.804C47.1805 122.806 47.2082 122.812 47.2359 122.818L47.338 122.845C48.3021 123.05 49.3019 123.158 50.3267 123.158C51.7267 123.158 53.0999 122.954 54.3759 122.574C55.4344 122.258 56.5484 122.86 56.8641 123.919C57.1798 124.977 56.5776 126.091 55.5191 126.407C53.8686 126.899 52.11 127.158 50.3267 127.158C49.6933 127.158 49.0674 127.126 48.4504 127.063C48.3664 127.763 48.3218 128.474 48.3218 129.188C48.3218 139.327 56.5395 147.545 66.6788 147.545C71.3748 147.545 75.675 145.767 78.922 142.852C75.0093 140.716 72.005 137.216 70.4755 133.062C70.0939 132.026 70.6248 130.876 71.6613 130.494C72.6979 130.113 73.8475 130.644 74.2292 131.68C75.6777 135.614 78.8123 138.793 82.8441 140.244C82.9488 140.269 83.051 140.304 83.1506 140.349C84.1121 140.672 85.1225 140.896 86.1713 141.01C94.0327 141.842 101.105 136.142 101.939 128.259C102.055 127.161 103.039 126.364 104.138 126.48C104.364 126.504 104.578 126.564 104.773 126.656C104.786 126.661 104.799 126.667 104.812 126.673C109.809 128.894 115.631 134.404 119.743 141.793C122.827 147.335 125.016 154.049 125.158 161.422C126.083 159.793 127.067 157.874 127.998 155.703C131.15 148.36 133.678 138.219 131.464 126.691C130.16 125.437 129.015 124.01 128.067 122.444C127.495 121.499 127.798 120.269 128.743 119.698C129.688 119.126 130.918 119.428 131.49 120.373C132.312 121.731 133.316 122.958 134.464 124.024C134.586 124.111 134.698 124.211 134.797 124.324C138.244 127.362 142.903 128.991 147.814 128.457L147.82 128.456C157.14 127.469 163.893 119.088 162.882 109.764L162.881 109.756C162.521 106.303 161.146 103.224 159.072 100.724C157.285 101.495 155.314 101.922 153.242 101.922C151.2 101.922 149.241 101.508 147.481 100.763C146.464 100.332 145.989 99.1578 146.42 98.1407C146.851 97.1237 148.025 96.6486 149.042 97.0795C150.311 97.6174 151.74 97.9222 153.242 97.9222C159.194 97.9222 164 93.0956 164 87.1637C164 81.2345 159.171 76.4053 153.242 76.4053C151.145 76.4053 149.198 77.0087 147.522 78.0535C146.585 78.6378 145.351 78.3516 144.767 77.4143C144.183 76.4769 144.469 75.2434 145.406 74.659C147.684 73.2394 150.358 72.4053 153.242 72.4053C153.526 72.4053 153.807 72.4134 154.087 72.4292C155.706 70.5428 156.684 68.0866 156.684 65.3941C156.684 59.4135 151.829 54.5586 145.848 54.5586C143.992 54.5586 142.25 55.0216 140.727 55.8379L140.515 55.9558C141.225 57.095 141.754 58.3743 142.053 59.7623L142.056 59.7736C142.329 61.078 142.394 62.3766 142.237 63.6599C142.104 64.7564 141.106 65.5368 140.01 65.4031C138.913 65.2694 138.133 64.2722 138.267 63.1757C138.367 62.3557 138.33 61.4999 138.142 60.5987C137.216 56.3166 132.994 53.5919 128.71 54.5142L128.706 54.5152C126.501 54.9847 124.7 56.352 123.611 58.1603C123.041 59.1065 121.812 59.4116 120.865 58.8417C119.919 58.2718 119.614 57.0428 120.184 56.0966C120.878 54.9441 121.769 53.9068 122.82 53.0405C121.141 50.8488 118.977 49.5976 116.875 49.3992C114.708 49.1948 112.199 50.0744 109.947 52.9729C111.189 54.2734 112.181 55.8519 112.818 57.6584C113.242 58.8147 113.488 60.0093 113.549 61.2108C113.606 62.3139 112.758 63.254 111.654 63.3106C110.551 63.3671 109.611 62.5187 109.555 61.4156C109.514 60.6197 109.35 59.8169 109.059 59.0268L109.049 58.9979C107.387 54.2652 102.214 51.7828 97.4794 53.4453L97.4734 53.4474C94.5212 54.4733 92.4529 56.883 91.6888 59.7271C91.4023 60.7938 90.3052 61.4263 89.2384 61.1397C88.1717 60.8531 87.5392 59.756 87.8258 58.6893C88.8658 54.8184 91.6344 51.4453 95.6417 49.8616C92.7076 43.8367 86.1972 40.2213 79.0781 41.1426ZM87.2672 74.9473C94.6091 74.9473 100.574 80.8106 100.739 88.1128L100.742 88.4219V103.491C100.742 110.936 94.7124 116.966 87.2672 116.966C79.8219 116.966 73.7922 110.936 73.7922 103.491C73.7922 102.386 74.6877 101.491 75.7922 101.491C76.8968 101.491 77.7922 102.386 77.7922 103.491C77.7922 108.727 82.031 112.966 87.2672 112.966C92.5033 112.966 96.7421 108.727 96.7421 103.491L96.7429 98.0048C94.3092 100.411 90.9626 101.897 87.2672 101.897C79.8219 101.897 73.7922 95.8675 73.7922 88.4222C73.7922 80.9769 79.8219 74.9473 87.2672 74.9473ZM118.74 75.6133C126.185 75.6133 132.215 81.6429 132.215 89.0882C132.215 89.196 132.206 89.3018 132.19 89.405L132.189 103.491C132.189 110.936 126.159 116.966 118.714 116.966C111.269 116.966 105.239 110.936 105.239 103.491C105.239 103.383 105.248 103.277 105.264 103.174L105.265 89.0882C105.265 81.6429 111.295 75.6133 118.74 75.6133ZM118.74 79.6133C113.504 79.6133 109.265 83.852 109.265 89.0882V104.157L109.263 104.175C109.613 109.091 113.708 112.966 118.714 112.966C123.95 112.966 128.189 108.727 128.189 103.491V88.4219L128.191 88.404C127.84 83.4877 123.746 79.6133 118.74 79.6133ZM87.2672 78.9473C82.031 78.9473 77.7922 83.186 77.7922 88.4222C77.7922 93.6583 82.031 97.8971 87.2672 97.8971C92.5033 97.8971 96.7421 93.6583 96.7421 88.4222C96.7421 83.186 92.5033 78.9473 87.2672 78.9473Z" fill="currentColor"></path></svg>