<svg width="200" height="200" viewBox="0 0 200 200" fill="none" xmlns="http://www.w3.org/2000/svg"><path d="M118.935 46C125.841 46.0027 132.462 48.7557 137.345 53.6533C142.224 58.5495 144.965 65.1883 144.965 72.1102L144.966 81.9719C145.093 82.2458 145.214 82.5227 145.33 82.8024C146.373 85.3301 146.909 88.0389 146.908 90.7733V101.947C146.906 105.692 145.421 109.283 142.78 111.932C142.584 112.129 142.383 112.319 142.176 112.503C141.875 123.514 148.223 132.502 158.493 135.666C163.952 137.428 167.668 141.794 166.902 146.874C166.047 152.794 157.385 156.613 149.924 154.299C138.08 150.653 129.255 142.364 124.982 131.574L125.849 131.694C108.992 129.289 91.8833 129.251 75.0177 131.582C70.7449 142.37 61.9226 150.654 50.0794 154.299C42.6155 156.604 33.9536 152.789 33.1022 146.89C32.3241 141.812 36.0366 137.447 41.5204 135.647C51.6112 132.542 57.9289 123.781 57.8276 112.99C57.4165 112.662 57.0232 112.31 56.6488 111.934C54.007 109.285 52.5232 105.692 52.5232 101.946V90.7733C52.5232 88.0366 53.0592 85.3282 54.1017 82.8023C54.2169 82.5233 54.338 82.247 54.4649 81.9738L54.4663 72.1102C54.4663 65.1866 57.2087 58.5463 62.0909 53.6496C66.9742 48.7519 73.5981 46 80.5054 46H118.935ZM138.216 115.003L138.1 115.053C136.433 115.731 134.639 116.086 132.816 116.084H126.114V116.231C126.141 132.355 135.593 145.488 150.629 150.328L151.105 150.478C156.446 152.134 162.486 149.471 162.945 146.29C163.377 143.43 161.048 140.693 157.29 139.48C146.2 136.064 138.962 126.718 138.227 115.197L138.216 115.003ZM61.766 115.213L61.7345 115.649C60.8402 126.965 53.6406 136.102 42.7324 139.459C38.9514 140.7 36.6204 143.441 37.0587 146.301C37.5155 149.467 43.5565 152.127 48.9008 150.476C64.2154 145.763 73.8645 132.524 73.8885 116.222L73.8863 116.074H66.6155C66.4788 116.074 66.3424 116.072 66.2062 116.068C66.1159 116.066 66.0259 116.063 65.9359 116.058C65.8864 116.055 65.8367 116.053 65.7871 116.05C65.6975 116.045 65.6082 116.039 65.5189 116.033C65.4714 116.028 65.424 116.024 65.3767 116.019C64.1827 115.916 63.01 115.659 61.887 115.258L61.766 115.213ZM122.114 116.075L77.8885 116.075C77.8959 120.012 77.3917 123.796 76.4227 127.361C92.0777 125.365 107.923 125.362 123.579 127.352C122.61 123.79 122.107 120.009 122.114 116.075ZM140.688 75.906L140.685 75.903L140.647 75.867L140.748 75.966L140.722 75.939L140.76 75.977L140.748 75.966L140.759 75.977L140.815 76.031L140.827 76.0423L140.964 76.183L140.965 72.1102C140.965 66.3967 138.761 60.9116 134.826 56.7989L134.512 56.4771C130.379 52.3318 124.777 50.0023 118.934 50H80.5054C74.6615 50 69.0566 52.3285 64.9235 56.4738C60.7892 60.6204 58.466 66.245 58.466 72.1102V76.183L58.5093 76.139L58.6039 76.0425L58.6653 75.9811L58.7087 75.9387C58.7327 75.915 58.7567 75.8913 58.7808 75.8678C58.894 75.7563 59.0083 75.6468 59.1239 75.5387C59.144 75.5205 59.1639 75.5019 59.1838 75.4834C59.2899 75.3844 59.3969 75.2872 59.5048 75.1911C59.5472 75.1539 59.5896 75.1165 59.6322 75.0792C59.7496 74.9758 59.8686 74.874 59.9886 74.7736C60.0107 74.7557 60.0321 74.7379 60.0535 74.7201C60.162 74.6295 60.2719 74.5402 60.3827 74.4521L60.4891 74.3686L60.5145 74.3481C60.8126 74.1148 61.1169 73.8898 61.427 73.6733L61.5433 73.593L61.4918 73.6283C61.6189 73.5403 61.7469 73.4538 61.8758 73.3687L61.9412 73.3263L62.0598 73.2487C62.1273 73.2052 62.195 73.1621 62.263 73.1193L62.3331 73.076C62.3752 73.0498 62.4173 73.0238 62.4596 72.9979C62.5333 72.9522 62.6078 72.9071 62.6826 72.8625L62.8605 72.7582C63.0926 72.6225 63.3276 72.4917 63.5652 72.3654C63.6076 72.3434 63.6498 72.3211 63.6921 72.299C63.9345 72.1718 64.1799 72.0496 64.4278 71.9323C64.498 71.8996 64.5685 71.8667 64.6391 71.8342C64.8723 71.7265 65.1079 71.6235 65.3454 71.5249C65.4298 71.4898 65.5144 71.4553 65.5992 71.4214C65.6665 71.395 65.7337 71.3685 65.8011 71.3424C65.818 71.3354 65.8351 71.3288 65.8522 71.3222L66.2278 71.1823L66.2936 71.1585C66.3621 71.1334 66.4311 71.1091 66.5002 71.0851C66.5914 71.054 66.6824 71.0231 66.7737 70.9928C66.8524 70.9662 66.9314 70.9406 67.0105 70.9154C67.1035 70.8863 67.1968 70.8573 67.2903 70.829C67.3546 70.809 67.4189 70.7899 67.4834 70.7711C67.573 70.7454 67.663 70.7198 67.7531 70.6948C67.8433 70.6692 67.9333 70.6449 68.0235 70.6211C68.0812 70.6065 68.1392 70.5915 68.1973 70.5768C68.2998 70.5502 68.4025 70.525 68.5054 70.5005C68.5443 70.4919 68.5825 70.4829 68.6208 70.474C68.8834 70.4127 69.1478 70.3569 69.4131 70.3062C69.4327 70.3031 69.452 70.2994 69.4714 70.2958C69.5724 70.2763 69.6737 70.258 69.7752 70.2405C69.839 70.2301 69.9027 70.2194 69.9665 70.209C70.0753 70.1908 70.1843 70.1739 70.2934 70.1579C70.3513 70.1501 70.409 70.1419 70.4668 70.1339C70.5572 70.1208 70.6482 70.1089 70.7393 70.0976L71.0138 70.066C71.0942 70.0564 71.1753 70.0479 71.2564 70.0399C71.3344 70.0328 71.412 70.0256 71.4897 70.0188C71.5933 70.0091 71.6971 70.0008 71.8009 69.9933C71.8474 69.9906 71.8944 69.9874 71.9414 69.9843C72.0675 69.9754 72.1932 69.9684 72.319 69.9624C72.3495 69.9617 72.3798 69.9603 72.4101 69.959L72.8343 69.945L73.0303 69.943L73.2992 69.9402L73.2363 69.94L73.1743 69.941L73.0303 69.943L72.9003 69.944H72.9203L73.1593 69.941H73.1113L72.9203 69.944H72.8953L73.0521 69.9416L73.1113 69.941L73.1813 69.94L73.299 69.9395H126.131C126.264 69.9395 126.397 69.9407 126.53 69.9432L126.625 69.9459C126.758 69.9484 126.889 69.9527 127.021 69.9583C127.051 69.9603 127.081 69.9617 127.111 69.9631C127.235 69.9683 127.359 69.9752 127.483 69.9832C127.533 69.9872 127.584 69.9907 127.634 69.9943C127.737 70.0011 127.839 70.0093 127.942 70.0182C128.018 70.0255 128.093 70.0326 128.169 70.04C128.254 70.0477 128.339 70.0566 128.424 70.0661C128.512 70.0765 128.6 70.0869 128.688 70.0978C128.78 70.1086 128.872 70.1207 128.964 70.1334L129.143 70.1593C129.248 70.1742 129.353 70.1904 129.458 70.2075C129.531 70.2198 129.604 70.2322 129.678 70.2449C129.772 70.2607 129.866 70.2776 129.96 70.2952C129.979 70.2994 129.998 70.3031 130.018 70.3068C130.298 70.3597 130.578 70.419 130.856 70.4841L130.914 70.4983C131.018 70.5224 131.122 70.548 131.226 70.5743L131.42 70.6249C131.5 70.6456 131.58 70.6673 131.66 70.6894C131.757 70.7166 131.854 70.7442 131.951 70.7725L132.135 70.8267C132.234 70.8571 132.333 70.8878 132.431 70.9192C132.507 70.9429 132.582 70.9674 132.657 70.9923C132.745 71.0217 132.832 71.0512 132.918 71.0812C132.992 71.1064 133.066 71.1324 133.14 71.1589C133.217 71.1869 133.293 71.215 133.37 71.2436C133.61 71.3325 133.849 71.4264 134.086 71.5249C134.649 71.7588 135.201 72.0171 135.74 72.2987C135.782 72.3212 135.824 72.3434 135.866 72.3658L136.166 72.5278C136.209 72.5521 136.252 72.5762 136.295 72.6005C136.372 72.6435 136.449 72.6873 136.526 72.7317L136.813 72.9015L136.858 72.929L136.813 72.901L136.928 72.9705L137.033 73.036L137.099 73.0761C137.119 73.0891 137.14 73.1022 137.161 73.1152C137.276 73.1873 137.391 73.2607 137.504 73.3352C137.54 73.359 137.576 73.3826 137.612 73.4064C137.736 73.4885 137.859 73.5721 137.981 73.6571C138.015 73.6814 138.05 73.7058 138.085 73.7303C138.388 73.9437 138.685 74.1653 138.976 74.3947C139.005 74.4177 139.033 74.4405 139.062 74.4635C139.177 74.5547 139.291 74.6475 139.404 74.7416C139.439 74.7714 139.474 74.8008 139.509 74.8303C139.609 74.914 139.708 74.9992 139.806 75.0852C139.856 75.1294 139.906 75.1733 139.955 75.2176C140.052 75.3036 140.148 75.3908 140.243 75.4789L140.402 75.629L140.424 75.65L140.646 75.865L140.484 75.707L140.592 75.8105L140.715 75.932L140.688 75.906ZM68.9983 74.501L68.9719 74.5085L68.9393 74.517L68.7623 74.566L68.8314 74.5462C68.6728 74.5901 68.5148 74.6364 68.3575 74.685L68.5534 74.6263L68.3369 74.6919L68.2453 74.72L68.3353 74.691L68.152 74.75C68.0836 74.7721 68.0153 74.7946 67.9472 74.8176L68.1211 74.7605L67.9033 74.833L67.7293 74.893L67.9003 74.833L67.7288 74.893L67.6864 74.9086C67.2634 75.0591 66.8462 75.2268 66.4358 75.4114C65.7527 75.7185 65.0885 76.0722 64.448 76.4712L64.5497 76.4078L64.4848 76.4478L64.4201 76.4881L64.3016 76.5634L64.2415 76.6014L64.2253 76.612L64.2083 76.622L64.2123 76.62L64.2253 76.612L64.2423 76.601L64.2123 76.62L64.1913 76.633L64.1573 76.655L63.9873 76.768L64.0433 76.73L63.8855 76.8369L63.7866 76.9052L63.6803 76.979L63.6643 76.99L63.6253 77.018L63.5433 77.076L63.5026 77.1051L63.4903 77.114L63.4654 77.1325L63.2945 77.2583L63.1403 77.374L63.2903 77.26L63.1398 77.3744L63.1333 77.379L62.9819 77.4964L63.1233 77.387L62.9563 77.516L62.9473 77.523L62.9335 77.5349L62.7968 77.6433L62.7683 77.666L62.7643 77.669L62.7441 77.6864L62.5941 77.8098L62.5813 77.819L62.4306 77.9469C62.3699 77.9986 62.3096 78.0508 62.2497 78.1034L62.4153 77.96L62.1006 78.2365C61.987 78.3386 61.8749 78.4423 61.7642 78.5474L61.4491 78.8547C61.4165 78.8873 61.384 78.9201 61.3517 78.953L61.1428 79.1695L60.9993 79.322L61.1402 79.1715L60.9992 79.3222L60.9383 79.388L60.7933 79.549L60.7133 79.639L60.6497 79.7129L60.5129 79.8724L60.5003 79.886L60.4173 79.985L60.3782 80.0336L60.3543 80.061L60.3023 80.125L60.2393 80.202L60.1523 80.312L60.1353 80.333L60.0999 80.3799L60.0943 80.385L59.9674 80.5516L59.8733 80.676L59.9643 80.554L59.8729 80.6761L59.8373 80.724C59.4394 81.2616 59.0731 81.8227 58.7405 82.4057L58.6884 82.4964L58.6403 82.581L58.6893 82.496L58.6417 82.5812L58.6043 82.649L58.4097 83.0127C58.1878 83.4415 57.984 83.8804 57.7992 84.3283C56.9566 86.3699 56.5232 88.5598 56.5232 90.7733V101.946C56.5232 104.634 57.5874 107.211 59.4814 109.11C59.9472 109.577 60.4538 109.994 60.9928 110.357C62.5403 111.399 64.355 111.996 66.238 112.067L66.5063 112.072L66.6157 112.074H77.7462H132.815C135.378 112.072 137.842 111.093 139.708 109.341L139.948 109.108C141.841 107.209 142.906 104.632 142.908 101.946V90.7725C142.909 88.5613 142.475 86.3714 141.632 84.3282C141.479 83.957 141.313 83.5921 141.134 83.2339C140.716 82.3982 140.232 81.6017 139.687 80.8521L139.685 80.851L139.558 80.6767L139.465 80.554L139.558 80.676L139.467 80.5545C139.424 80.498 139.381 80.4418 139.337 80.3858L139.425 80.502L139.294 80.333L139.331 80.379L139.278 80.312L139.208 80.223C139.165 80.169 139.121 80.1152 139.077 80.0617L139.013 79.985L138.994 79.9629L138.931 79.8861L138.861 79.805L138.751 79.679L138.576 79.4811L138.57 79.474L138.243 79.1218C137.904 78.7674 137.55 78.4277 137.181 78.1038L137.084 78.0187L137.015 77.96L136.849 77.8193L136.836 77.809L136.826 77.801L136.815 77.792L136.786 77.768L136.662 77.666L136.633 77.643L136.497 77.534L136.483 77.5233L136.448 77.496L136.308 77.3877L136.306 77.386L136.29 77.374L136.14 77.2608L136.137 77.258L136.132 77.254L136.12 77.245L135.966 77.132L135.946 77.118L135.928 77.105L135.768 76.9907L135.752 76.9798L135.722 76.959L135.644 76.905L135.57 76.8538L135.593 76.8691C135.36 76.7094 135.122 76.5556 134.881 76.4078C134.668 76.2774 134.453 76.1518 134.235 76.0312C133.918 75.8563 133.597 75.6919 133.271 75.5383L133.268 75.537L133.134 75.4739C133.088 75.4527 133.042 75.4318 132.996 75.4111L133.129 75.473L132.936 75.3848C132.712 75.2849 132.485 75.1901 132.257 75.1003L132.137 75.054L131.962 74.988L132.088 75.035L131.966 74.9885C131.893 74.9612 131.819 74.9344 131.745 74.9081L131.79 74.925L131.729 74.903L131.524 74.832L131.665 74.88L131.528 74.8325L131.312 74.76L131.48 74.817L131.284 74.752L131.085 74.689L131.287 74.752L131.089 74.6899L130.881 74.626L131.069 74.684L130.839 74.6148L130.666 74.565L130.794 74.601L130.669 74.5656L130.599 74.546L130.43 74.5L130.242 74.452L130.357 74.481L130.223 74.4465L130.049 74.404L129.972 74.3858L129.936 74.377L129.778 74.3409L129.585 74.299L129.736 74.332L129.509 74.284L129.581 74.2982L129.388 74.2587L129.242 74.2309L129.064 74.198L129.195 74.2216C129.016 74.1882 128.836 74.1578 128.656 74.1304L128.85 74.1617L128.641 74.128L128.628 74.126H128.629L128.394 74.0932L128.608 74.123L128.628 74.126H128.629L128.642 74.128L128.628 74.126L128.608 74.123L128.433 74.098C128.359 74.0877 128.285 74.0779 128.21 74.0685C128.074 74.0516 127.938 74.0363 127.802 74.0227L127.954 74.0391C127.35 73.9732 126.742 73.94 126.132 73.9402H73.2985C72.7362 73.94 72.1758 73.9682 71.6195 74.0242L71.4208 74.0454L71.2568 74.0641L71.1513 74.078L71.0068 74.0973L70.8123 74.125L71.0314 74.0933L70.8025 74.1262L70.5793 74.161L70.7783 74.13L70.5373 74.168L70.2384 74.2217L70.1143 74.245L69.8813 74.291L69.7613 74.317L69.6463 74.342L69.6563 74.34L69.4656 74.3838L69.2773 74.429L69.4434 74.3896L69.2072 74.4473L69.1443 74.463L69.1863 74.452L69.0355 74.491L69.0233 74.494L68.9963 74.501H68.9983Z" fill="currentColor"></path></svg>