<svg width="200" height="200" viewBox="0 0 200 200" fill="none" xmlns="http://www.w3.org/2000/svg"><path fill-rule="evenodd" clip-rule="evenodd" d="M185.913 73.0637C185.698 72.5827 185.146 72.3517 184.653 72.5337C175.876 75.7837 168.441 78.8597 161.251 81.8347C147.866 87.3727 135.216 92.6067 114.563 98.9007L106.984 92.0177C106.8 91.8507 106.561 91.7587 106.313 91.7577L93.439 91.7377H93.438C93.191 91.7377 92.954 91.8287 92.771 91.9937L84.944 99.0127C64.486 92.7127 51.971 87.4807 38.726 81.9427C31.55 78.9427 24.13 75.8407 15.351 72.5637C14.862 72.3797 14.307 72.6087 14.09 73.0887C13.874 73.5687 14.067 74.1347 14.531 74.3817C41.959 89.0167 71.954 106.726 86.46 127.106C86.648 127.369 86.951 127.526 87.274 127.526H112.72C113.042 127.526 113.345 127.371 113.532 127.109C130.924 102.884 159.412 87.9887 180.213 77.1117C182.02 76.1667 183.775 75.2487 185.467 74.3547C185.933 74.1107 186.128 73.5447 185.913 73.0637ZM103.488 112.356C102.247 113.969 100.884 114.878 99.678 114.915C99.657 114.915 99.596 114.915 99.575 114.917L99.515 114.921C98.381 114.897 97.125 114.067 95.978 112.584C94.583 110.782 93.58 108.295 93.484 106.445C93.484 106.413 93.483 106.365 93.48 106.333C93.468 106.211 93.462 106.089 93.462 105.966C93.462 103.217 96.306 100.896 99.709 100.896C99.733 100.896 99.756 100.895 99.78 100.893C101.475 100.913 103.042 101.462 104.197 102.444C105.332 103.407 105.957 104.697 105.957 106.075C105.957 107.884 104.941 110.467 103.488 112.356Z" fill="currentColor"></path></svg>