<svg width="200" height="200" viewBox="0 0 200 200" fill="none" xmlns="http://www.w3.org/2000/svg"><path d="M42.6997 96.2994C40.8997 77.2994 50.5999 60.5988 64.8999 50.1988H65.1997L65.8735 49.7164C80.0992 39.6736 98.9731 35.7981 116.2 41.9996C116.5 42.0996 118.4 42.7992 120 43.5992C120.8 43.9992 121.7 44.4997 122.3 44.9996C124.076 46.1838 123.908 48.6771 121.809 48.7047L121.6 48.6988C98.6001 47.2988 72.7003 56.0996 62.3003 77.4996L61.9341 78.2682C58.2469 86.2221 57.4754 94.3051 59.8003 100.699C61.6003 105.699 65.4001 109.799 71.6001 112.099C65.1093 104.543 63.9682 95.8602 66.1763 87.8697L66.3999 87.0992C68.9186 79.0587 74.8158 71.7685 82.0005 66.775L82.6997 66.2994L83.5005 65.7994C100.7 54.7995 120.7 53.6993 135.8 61.0992C151 68.4992 161.1 84.3991 158.5 106.699V107.799C154.513 136.257 117.5 172.999 79.6997 155.899L83.3003 155.599C105.6 153.799 128.1 139.299 138.5 119.5L138.9 118.699C146.972 102.752 143.997 88.6461 135.508 80.1969L135.1 79.7994C126.3 71.2994 111.4 68.4994 95.3999 75.7994L94.6001 76.1988L93.7583 76.6207C89.5571 78.7777 85.5318 81.649 83.0005 85.399L82.7065 85.8385C79.7392 90.3551 78.8122 94.3056 79.1997 97.5992C79.5997 100.999 81.2999 103.799 83.8999 105.799C89.0344 109.771 97.5476 110.646 105.53 106.423L106.3 106H106.4L106.5 105.899H106.7L106.792 105.891C106.987 105.872 107.244 105.813 107.5 105.899C108.1 106.099 108.4 106.499 108.6 106.899C108.7 107.299 108.7 107.599 108.6 107.699C108.6 107.899 108.6 108.099 108.5 108.199C108.3 108.699 108 109.299 107.8 109.799C107.2 110.799 106.5 111.899 106.4 112.099L106.015 112.651C97.9554 123.94 83.3615 127.83 70.2339 125.23L69.6001 125.099C56.3002 122.199 44.4999 112.599 42.6997 96.9996V96.2994ZM92.8003 88.4996C101.6 78.8996 114 77.8994 123.1 82.7994C132.3 87.7995 138 98.6993 133.7 112.599L133.5 113.299L133.289 113.925C128.749 127.032 117.693 137.493 104.7 143.399L103.475 143.939C90.9578 149.292 76.5726 150.498 64.3022 145.738L63.6997 145.5L63.1001 145.199C51.1002 139.999 41.9001 128.599 41.1001 115.199V113.899L42.3003 113.599H43.5005C43.9003 113.699 44.2006 113.899 44.5005 114.099C44.7004 114.299 44.9005 114.499 45.0005 114.699C45.1005 114.899 45.2003 114.999 45.3003 115.099L45.6997 115.599L46.0708 116.058C46.9237 117.146 47.7 118.349 48.3999 119.399C49.3999 120.799 50.4001 122.199 51.6001 123.299L52.0005 123.699C69.5005 139.799 99.9003 136.199 114.3 117.699L114.8 117C120.2 109.7 120.7 102.7 118.2 98.4996C115.7 94.3997 109.7 92.1996 100 96.2994C99.1005 96.6994 97.8003 97.5996 96.3003 98.4996C95.6003 98.9996 94.9003 99.3994 94.3003 99.7994L93.9253 100.023C93.6753 100.17 93.4253 100.31 93.1753 100.432L92.8003 100.599H92.6001C91.8125 100.774 91.1014 100.873 90.3999 100.828L90.1001 100.799C89.3502 100.612 88.6882 100.161 88.2788 99.4459L88.1997 99.2994C87.8997 98.5994 87.9005 97.7988 88.0005 97.1988C88.0006 96.599 88.3002 95.8993 88.6001 95.2994C89.4751 93.112 91.1159 90.6948 92.0483 89.4547L92.3999 88.9996L92.8003 88.4996ZM121.19 86.3131C113.659 82.2656 103.326 83.0101 95.8276 91.1168L95.5239 91.4977C94.8937 92.2854 93.4589 94.3129 92.5991 96.1344C93.1724 95.7692 93.4001 95.6545 93.9751 95.2438L94.105 95.151L94.2417 95.069C94.9644 94.6353 95.5631 94.2486 96.2671 93.8121C96.8765 93.4343 97.6425 92.9699 98.3755 92.6442L98.4087 92.6295L98.4429 92.6149C103.765 90.3655 108.5 89.658 112.516 90.3883C116.488 91.1106 119.55 93.2146 121.436 96.1315L121.616 96.4166L121.626 96.4352L121.637 96.4527C125.261 102.54 123.962 111.305 118.054 119.323L118.055 119.324L117.555 120.024L117.507 120.091L117.457 120.156C101.719 140.374 68.6297 144.434 49.2915 126.643L49.231 126.587L49.1714 126.528L48.8091 126.165C48.3534 125.74 47.9275 125.287 47.5269 124.828C50.7334 132.027 56.7904 137.957 64.1851 141.305L64.7905 141.573L64.8892 141.622L65.3374 141.845C76.8791 146.482 90.8574 145.288 103.044 139.757L104.204 139.215C116.088 133.494 125.812 123.812 129.676 112.118L129.854 111.501L129.866 111.459L129.878 111.417C133.626 99.3011 128.682 90.3847 121.19 86.3131ZM46.6997 96.7477C48.3375 110.132 58.457 118.571 70.4399 121.188L71.019 121.308C82.1074 123.505 93.9221 120.542 101.119 112.387C93.8236 114.241 86.5331 112.893 81.4526 108.963C78.0534 106.344 75.7598 102.594 75.2271 98.066C74.7028 93.6089 76.0213 88.7295 79.3638 83.6412L79.6938 83.1481C82.9536 78.3265 88.0532 74.9517 92.811 72.6217L93.6108 72.2213L93.6753 72.1901L93.7397 72.1598C110.956 64.305 127.69 67.0806 137.879 76.9225C148.121 86.7134 151.336 102.969 142.477 120.487L142.478 120.488L142.078 121.288L142.06 121.324L142.042 121.359C133.519 137.585 117.46 150.374 99.7261 156.258C110.468 156.206 120.668 152.115 129.416 145.707C143.091 135.688 152.593 120.423 154.5 107.5V106.466L154.527 106.236C156.938 85.5528 147.658 71.3212 134.049 64.6959L134.04 64.691C120.32 57.9675 101.801 58.8425 85.6548 69.1686L85.6382 69.1803L85.6196 69.191L84.8853 69.649C78.0219 74.2346 72.494 81.0268 70.2173 88.2945C68.0797 95.334 68.9372 102.86 74.6343 109.493L74.8442 109.759C75.8306 111.126 75.8599 112.981 74.8833 114.384C73.9065 115.787 72.1555 116.405 70.5317 115.954L70.2085 115.849C62.9531 113.158 58.2574 108.214 56.0405 102.066L55.7837 101.321C53.2477 93.5723 54.5121 84.3406 58.7046 75.7457C68.4996 55.5965 90.484 46.0859 111.596 44.7281C96.4019 40.5004 80.0455 44.349 67.5532 53.4342L66.5005 54.1988H66.228C53.4112 63.9727 45.0836 79.0461 46.6821 95.9215L46.6997 96.11V96.7477Z" fill="currentColor"></path></svg>