<svg xmlns="http://www.w3.org/2000/svg" width="107" height="36" viewBox="0 0 107 36" fill="none" data-src="/dfcd295f3ee0abb9698d8c6928b6a788.svg" xmlns:xlink="http://www.w3.org/1999/xlink"><g opacity="0.8"><path d="M7.55113 35.2126C7.2787 35.2126 7.01284 35.2091 6.74255 35.203C6.1826 35.1956 5.62396 35.1466 5.07122 35.0562C4.55581 34.9668 4.05652 34.8006 3.58981 34.5631C3.12738 34.3275 2.70561 34.0185 2.34065 33.6481C1.97041 33.2821 1.66217 32.8575 1.42814 32.3913C1.19154 31.922 1.02779 31.419 0.94261 30.8998C0.850621 30.3419 0.800852 29.7778 0.79373 29.2123C0.788061 29.0225 0.78064 28.3905 0.78064 28.3905V7.6C0.78064 7.6 0.788544 6.97774 0.793775 6.79492C0.800594 6.23033 0.850074 5.66709 0.941787 5.11005C1.02713 4.58942 1.191 4.08497 1.42773 3.61416C1.6609 3.14825 1.96743 2.72337 2.33544 2.35601C2.70304 1.98516 3.12616 1.67464 3.58937 1.43579C4.05501 1.19898 4.55335 1.03396 5.06772 0.946241C5.62228 0.85495 6.18286 0.805594 6.74474 0.798587L7.55157 0.787598H99.4441L100.261 0.799028C100.817 0.805687 101.373 0.854603 101.922 0.945359C102.442 1.03418 102.945 1.20035 103.416 1.43842C104.344 1.91979 105.099 2.68134 105.576 3.61636C105.809 4.08392 105.97 4.58425 106.054 5.10039C106.147 5.66199 106.199 6.22966 106.21 6.79888C106.212 7.05376 106.212 7.32754 106.212 7.6C106.219 7.9375 106.219 8.25874 106.219 8.58261V27.4184C106.219 27.7454 106.219 28.0644 106.212 28.3861C106.212 28.6788 106.212 28.9469 106.209 29.2228C106.198 29.7819 106.147 30.3394 106.056 30.891C105.973 31.4139 105.81 31.9209 105.573 32.394C105.338 32.8552 105.031 33.276 104.665 33.6411C104.3 34.0135 103.877 34.3242 103.414 34.5614C102.944 34.8008 102.441 34.9676 101.922 35.0562C101.37 35.147 100.811 35.1961 100.251 35.203C99.989 35.2091 99.7148 35.2126 99.4485 35.2126L98.4792 35.2144L7.55113 35.2126Z" fill="black"></path><path d="M22.1476 18.2711C22.1572 17.5199 22.3554 16.7833 22.7238 16.13C23.0923 15.4766 23.6189 14.9277 24.2547 14.5342C23.8508 13.9536 23.3179 13.4757 22.6984 13.1386C22.0789 12.8015 21.3899 12.6145 20.686 12.5923C19.1844 12.4337 17.7288 13.4967 16.9636 13.4967C16.1837 13.4967 15.0056 12.6081 13.737 12.6343C12.9165 12.661 12.1168 12.9012 11.4158 13.3314C10.7149 13.7617 10.1367 14.3674 9.73746 15.0894C8.00813 18.103 9.29805 22.5319 10.9546 24.9679C11.7834 26.1607 12.752 27.4931 14.0195 27.4459C15.2598 27.3941 15.723 26.6498 17.2201 26.6498C18.7033 26.6498 19.1379 27.4459 20.431 27.4158C21.7619 27.3941 22.6004 26.2177 23.4001 25.0136C23.9956 24.1637 24.4539 23.2243 24.7579 22.2303C23.9847 21.9012 23.3248 21.3502 22.8607 20.6461C22.3965 19.9421 22.1485 19.1161 22.1476 18.2711Z" fill="white"></path><path d="M19.705 10.9902C20.4307 10.1134 20.7882 8.98644 20.7016 7.84863C19.593 7.96583 18.5689 8.49913 17.8335 9.34228C17.4739 9.75418 17.1985 10.2334 17.023 10.7525C16.8475 11.2716 16.7754 11.8204 16.8108 12.3675C17.3653 12.3733 17.9139 12.2523 18.4152 12.0137C18.9166 11.7752 19.3576 11.4252 19.705 10.9902Z" fill="white"></path><path d="M37.8254 24.4259H33.5929L32.5765 27.4467H30.7838L34.7927 16.2705H36.6553L40.6642 27.4467H38.8409L37.8254 24.4259ZM34.0313 23.032H37.3862L35.7323 18.1294H35.6861L34.0313 23.032Z" fill="white"></path><path d="M49.3221 23.3728C49.3221 25.9049 47.9756 27.5318 45.9436 27.5318C45.4289 27.5589 44.917 27.4395 44.4665 27.1874C44.016 26.9353 43.6452 26.5606 43.3965 26.1062H43.358V30.1421H41.6963V19.2982H43.3048V20.6535H43.3353C43.5955 20.2012 43.9726 19.8285 44.4265 19.5748C44.8804 19.3211 45.3942 19.1961 45.9131 19.2129C47.9677 19.2129 49.3221 20.8477 49.3221 23.3728ZM47.6141 23.3728C47.6141 21.7231 46.7671 20.6385 45.4747 20.6385C44.2051 20.6385 43.351 21.7459 43.351 23.3728C43.351 25.0146 44.2051 26.1141 45.4747 26.1141C46.7671 26.1141 47.6141 25.0374 47.6141 23.3728Z" fill="white"></path><path d="M58.2324 23.3728C58.2324 25.9049 56.8859 27.5318 54.8539 27.5318C54.3392 27.5589 53.8273 27.4395 53.3768 27.1874C52.9263 26.9353 52.5555 26.5606 52.3067 26.1062H52.2683V30.1421H50.6066V19.2982H52.215V20.6535H52.2456C52.5057 20.2012 52.8828 19.8285 53.3368 19.5748C53.7907 19.3211 54.3044 19.1961 54.8233 19.2129C56.878 19.2129 58.2324 20.8477 58.2324 23.3728ZM56.5244 23.3728C56.5244 21.7231 55.6773 20.6385 54.385 20.6385C53.1153 20.6385 52.2613 21.7459 52.2613 23.3728C52.2613 25.0146 53.1153 26.1141 54.385 26.1141C55.6773 26.1141 56.5244 25.0374 56.5244 23.3728H56.5244Z" fill="white"></path><path d="M64.1213 24.3326C64.2445 25.4409 65.3142 26.1686 66.7759 26.1686C68.1765 26.1686 69.1842 25.4408 69.1842 24.4415C69.1842 23.574 68.5765 23.0546 67.1374 22.6986L65.6984 22.3497C63.6594 21.854 62.7128 20.8942 62.7128 19.3368C62.7128 17.4085 64.3824 16.084 66.7532 16.084C69.0995 16.084 70.708 17.4085 70.7621 19.3368H69.0847C68.9842 18.2215 68.0682 17.5482 66.7296 17.5482C65.391 17.5482 64.475 18.2294 64.475 19.2208C64.475 20.0109 65.06 20.4759 66.4912 20.8318L67.7146 21.1342C69.9928 21.6764 70.9394 22.5976 70.9394 24.2323C70.9394 26.3232 69.2846 27.6328 66.6528 27.6328C64.1903 27.6328 62.5277 26.354 62.4203 24.3325L64.1213 24.3326Z" fill="white"></path><path d="M74.5256 17.3696V19.298H76.0651V20.6225H74.5256V25.1146C74.5256 25.8124 74.8339 26.1376 75.5106 26.1376C75.6934 26.1344 75.8759 26.1215 76.0573 26.0989V27.4155C75.753 27.4727 75.4438 27.4986 75.1343 27.4928C73.4953 27.4928 72.856 26.8732 72.856 25.2929V20.6225H71.679V19.298H72.856V17.3696H74.5256Z" fill="white"></path><path d="M76.9567 23.3726C76.9567 20.8088 78.4568 19.1978 80.7962 19.1978C83.1434 19.1978 84.6366 20.8088 84.6366 23.3726C84.6366 25.9434 83.1513 27.5473 80.7962 27.5473C78.442 27.5473 76.9567 25.9433 76.9567 23.3726ZM82.9434 23.3726C82.9434 21.6139 82.1427 20.5759 80.7962 20.5759C79.4497 20.5759 78.6498 21.6218 78.6498 23.3726C78.6498 25.1383 79.4497 26.1684 80.7962 26.1684C82.1427 26.1684 82.9434 25.1383 82.9434 23.3726H82.9434Z" fill="white"></path><path d="M86.0067 19.2981H87.5915V20.685H87.63C87.7372 20.2519 87.9893 19.8691 88.344 19.601C88.6986 19.3329 89.1341 19.1958 89.5773 19.2128C89.7688 19.2122 89.9597 19.2331 90.1466 19.2752V20.8397C89.9048 20.7653 89.6526 20.7312 89.4 20.7386C89.1586 20.7288 88.9179 20.7716 88.6945 20.8642C88.4711 20.9568 88.2702 21.097 88.1057 21.2751C87.9412 21.4532 87.817 21.665 87.7415 21.896C87.666 22.127 87.641 22.3717 87.6684 22.6133V27.4464H86.0067L86.0067 19.2981Z" fill="white"></path><path d="M97.8081 25.053C97.5846 26.5322 96.1534 27.5474 94.3222 27.5474C91.9672 27.5474 90.5054 25.9592 90.5054 23.4112C90.5054 20.8554 91.975 19.1978 94.2524 19.1978C96.4922 19.1978 97.9007 20.7464 97.9007 23.217V23.79H92.1829V23.8911C92.1565 24.191 92.1938 24.4931 92.2923 24.7773C92.3908 25.0616 92.5483 25.3215 92.7543 25.5398C92.9603 25.7581 93.21 25.9298 93.487 26.0435C93.7639 26.1571 94.0618 26.2102 94.3607 26.1991C94.7534 26.2361 95.1474 26.1446 95.4843 25.9381C95.8211 25.7316 96.0827 25.4212 96.2302 25.053L97.8081 25.053ZM92.1907 22.6211H96.2381C96.253 22.3515 96.2124 22.0816 96.1188 21.8285C96.0252 21.5754 95.8806 21.3446 95.6942 21.1504C95.5077 20.9562 95.2834 20.8029 95.0353 20.7001C94.7872 20.5973 94.5206 20.5472 94.2524 20.553C93.9818 20.5514 93.7135 20.6037 93.4631 20.707C93.2127 20.8103 92.9851 20.9624 92.7934 21.1547C92.6018 21.347 92.4498 21.5755 92.3464 21.8272C92.2429 22.0789 92.19 22.3487 92.1907 22.6211V22.6211Z" fill="white"></path><path d="M32.8503 10.1281H33.5637C33.6865 10.1435 33.8112 10.1332 33.9298 10.0977C34.0484 10.0622 34.1585 10.0023 34.253 9.92189C34.3475 9.84146 34.4244 9.74221 34.4789 9.63037C34.5334 9.51853 34.5643 9.39655 34.5697 9.2721C34.5697 8.77683 34.1994 8.45691 33.5716 8.45691C33.4458 8.43922 33.3177 8.44707 33.1949 8.48002C33.0722 8.51297 32.9572 8.57034 32.8569 8.64874C32.7565 8.72715 32.6728 8.825 32.6106 8.93651C32.5484 9.04803 32.5091 9.17095 32.4949 9.29803H31.7116C31.7251 9.06736 31.7856 8.84195 31.8894 8.63584C31.9932 8.42973 32.138 8.24733 32.3148 8.1C32.4917 7.95266 32.6968 7.84355 32.9174 7.77945C33.1379 7.71535 33.3692 7.69764 33.5969 7.72742C34.6474 7.72742 35.387 8.31936 35.387 9.17146C35.3895 9.45692 35.2946 9.73459 35.1182 9.95813C34.9418 10.1817 34.6945 10.3375 34.4177 10.3997V10.463C34.7459 10.4777 35.0549 10.6225 35.2773 10.8658C35.4997 11.1092 35.6173 11.4312 35.6044 11.7616C35.5801 11.9991 35.509 12.2293 35.3952 12.4388C35.2813 12.6483 35.1271 12.8328 34.9415 12.9815C34.7559 13.1302 34.5427 13.2401 34.3144 13.3047C34.086 13.3694 33.8472 13.3876 33.6118 13.3581C33.3759 13.3905 33.1359 13.3747 32.9062 13.3118C32.6765 13.2488 32.4617 13.1399 32.2747 12.9916C32.0877 12.8434 31.9323 12.6587 31.8177 12.4486C31.7031 12.2386 31.6317 12.0075 31.6077 11.7691H32.4032C32.4513 12.2828 32.9202 12.6142 33.6118 12.6142C34.3033 12.6142 34.7548 12.242 34.7548 11.7173C34.7548 11.1851 34.3295 10.8572 33.5864 10.8572H32.8503V10.1281Z" fill="white"></path><path d="M36.5082 12.0814C36.5082 11.3519 37.0487 10.9314 38.0057 10.8716L39.0964 10.8083V10.4585C39.0964 10.0305 38.8161 9.78882 38.2721 9.78882C37.8285 9.78882 37.522 9.95273 37.4329 10.2393H36.6636C36.7448 9.54316 37.3962 9.09668 38.3096 9.09668C39.3191 9.09668 39.8884 9.60248 39.8884 10.4585V13.2275H39.1226V12.658H39.0597C38.9321 12.8623 38.7529 13.0288 38.5404 13.1406C38.328 13.2524 38.0898 13.3055 37.8503 13.2943C37.6813 13.312 37.5104 13.2939 37.3488 13.241C37.1872 13.1882 37.0383 13.1019 36.9119 12.9876C36.7854 12.8733 36.6842 12.7336 36.6146 12.5776C36.5451 12.4215 36.5088 12.2525 36.5082 12.0814ZM39.0964 11.7351V11.3963L38.1131 11.4596C37.5586 11.497 37.3071 11.6868 37.3071 12.0441C37.3071 12.4088 37.6215 12.6211 38.0538 12.6211C38.1804 12.634 38.3084 12.6211 38.43 12.5832C38.5516 12.5454 38.6644 12.4832 38.7617 12.4006C38.8589 12.3179 38.9387 12.2164 38.9962 12.1021C39.0537 11.9878 39.0878 11.863 39.0964 11.7351Z" fill="white"></path><path d="M41.9972 9.84854V13.2279H41.2026V9.17529H43.8537V9.84849L41.9972 9.84854Z" fill="white"></path><path d="M48.6694 11.2001C48.6694 12.4877 48.0224 13.295 47.006 13.295C46.7564 13.3121 46.5073 13.2572 46.2877 13.1366C46.0682 13.016 45.8875 12.8348 45.7669 12.6143H45.704V14.5755H44.9094V9.17555H45.6743V9.8453H45.7337C45.8565 9.6171 46.0396 9.4275 46.2627 9.29745C46.4858 9.1674 46.7403 9.10195 46.9981 9.10834C48.0224 9.10831 48.6694 9.91206 48.6694 11.2001ZM47.8521 11.2001C47.8521 10.3441 47.4496 9.82682 46.7763 9.82682C46.1075 9.82682 45.6892 10.355 45.6892 11.2036C45.6892 12.0483 46.1074 12.5769 46.7728 12.5769C47.4496 12.5769 47.8521 12.0597 47.8521 11.2001Z" fill="white"></path><path d="M49.7278 14.6794V13.9908C49.8138 14.0018 49.9004 14.0068 49.9871 14.0058C50.1564 14.0184 50.3243 13.9676 50.4587 13.8633C50.5931 13.7589 50.6845 13.6082 50.7153 13.4402L50.7747 13.2429L49.3173 9.17529H50.1827L51.1921 12.3943H51.255L52.261 9.17529H53.1036L51.6026 13.3954C51.2585 14.3815 50.8778 14.6979 50.057 14.6979C49.9906 14.6979 49.802 14.6904 49.7278 14.6794Z" fill="white"></path><path d="M53.7227 12.0776H54.5139C54.5916 12.4349 54.9243 12.6212 55.3897 12.6212C55.9189 12.6212 56.2437 12.3865 56.2437 12.0218C56.2437 11.6311 55.952 11.4448 55.3897 11.4448H54.7872V10.8234H55.3792C55.8595 10.8234 56.104 10.6375 56.104 10.2987C56.104 10.0012 55.8673 9.774 55.3792 9.774C54.9347 9.774 54.6099 9.96384 54.5584 10.2838H53.7926C53.8498 9.91615 54.0481 9.58584 54.3448 9.36387C54.6416 9.14189 55.013 9.046 55.3792 9.0968C56.3362 9.0968 56.8837 9.5323 56.8837 10.217C56.8882 10.4076 56.8275 10.5941 56.7118 10.7451C56.5961 10.8961 56.4324 11.0026 56.248 11.0467V11.1099C56.4675 11.1384 56.669 11.247 56.8141 11.4151C56.9593 11.5832 57.0382 11.7991 57.0357 12.0218C57.0357 12.7922 56.3843 13.3019 55.3897 13.3019C54.5104 13.3019 53.7961 12.8963 53.7227 12.0776Z" fill="white"></path><path d="M58.1801 13.2279V9.17529H58.9677V11.9628H59.0306L60.8861 9.1753H61.6738V13.2279H60.8861V10.4256H60.8268L58.9677 13.2279L58.1801 13.2279Z" fill="white"></path><path d="M66.0128 9.84898H64.7448V13.2284H63.9493V9.84898H62.6814V9.17578H66.0128V9.84898Z" fill="white"></path><path d="M70.2932 12.1334C70.1849 12.5037 69.9508 12.8241 69.6318 13.0384C69.3127 13.2527 68.929 13.3473 68.5477 13.3058C68.2824 13.3129 68.0188 13.2617 67.7751 13.156C67.5314 13.0502 67.3136 12.8923 67.1366 12.6933C66.9596 12.4943 66.8278 12.2589 66.7503 12.0034C66.6728 11.748 66.6514 11.4786 66.6877 11.214C66.6524 10.9486 66.6741 10.6787 66.7515 10.4225C66.8288 10.1663 66.9599 9.9298 67.1359 9.72903C67.312 9.52827 67.5288 9.36791 67.7718 9.25882C68.0147 9.14974 68.2781 9.09446 68.5442 9.09675C69.6645 9.09675 70.3412 9.86715 70.3412 11.1397V11.4188H67.4981V11.4637C67.4855 11.6124 67.5039 11.7622 67.5523 11.9033C67.6006 12.0445 67.6778 12.1738 67.7787 12.2832C67.8797 12.3925 68.0023 12.4794 68.1387 12.5382C68.275 12.597 68.422 12.6265 68.5704 12.6247C68.7603 12.6475 68.9527 12.613 69.1231 12.5255C69.2935 12.438 69.4343 12.3015 69.5274 12.1333L70.2932 12.1334ZM67.498 10.8273H69.5309C69.5409 10.6914 69.5226 10.5548 69.4771 10.4264C69.4316 10.298 69.3599 10.1806 69.2667 10.0818C69.1734 9.98289 69.0607 9.90475 68.9356 9.85235C68.8106 9.79995 68.6761 9.77444 68.5407 9.77747C68.4032 9.77559 68.2667 9.80146 68.1394 9.85356C68.012 9.90566 67.8963 9.98293 67.7991 10.0808C67.7019 10.1787 67.6252 10.2952 67.5735 10.4234C67.5218 10.5516 67.4961 10.689 67.4981 10.8273H67.498Z" fill="white"></path><path d="M73.6621 9.17529H75.4775C76.2652 9.17529 76.7271 9.57695 76.7271 10.2058C76.7283 10.4053 76.6614 10.5992 76.5376 10.7551C76.4138 10.9109 76.2405 11.0192 76.0469 11.0618V11.1251C76.282 11.1401 76.5025 11.2454 76.6627 11.4192C76.8229 11.5931 76.9107 11.8223 76.9078 12.0594C76.9078 12.7665 76.3795 13.2279 75.4959 13.2279H73.6621V9.17529ZM74.4498 9.78921V10.8386H75.2374C75.7177 10.8386 75.9473 10.6527 75.9473 10.3099C75.9473 9.99399 75.7474 9.7892 75.3256 9.7892L74.4498 9.78921ZM74.4498 11.4266V12.614H75.392C75.8618 12.614 76.1133 12.4053 76.1133 12.0221C76.1133 11.6165 75.8286 11.4266 75.2924 11.4266L74.4498 11.4266Z" fill="white"></path></g></svg>