<svg width="200" height="200" viewBox="0 0 200 200" fill="none" xmlns="http://www.w3.org/2000/svg"><path fill-rule="evenodd" clip-rule="evenodd" d="M74.9256 75.6052C82.3738 71.508 90.9316 69.1819 100.037 69.1819C109.085 69.1819 117.593 71.479 125.008 75.5283C124.836 74.5528 124.543 73.5944 124.133 72.638L124.128 72.6271L124.124 72.6161C123.588 71.3248 122.827 70.1494 121.861 69.0881L121.852 69.0783C118.848 65.7334 119.151 60.6198 122.487 57.6303C125.834 54.6314 130.95 54.9329 133.942 58.2645L133.948 58.2706L133.953 58.2768C134.397 58.779 134.817 59.2904 135.218 59.8105C135.62 59.0115 136.001 58.1972 136.359 57.3676C138.463 52.4533 139.776 47.2676 140.166 41.9514L140.167 41.9443C140.511 37.4708 144.444 34.1294 148.92 34.517C153.328 34.8648 156.735 38.7305 156.342 43.2295C156.168 45.3394 155.897 47.4344 155.528 49.504C158.963 49.1728 162.378 51.0537 163.787 54.4184C165.555 58.553 163.62 63.2688 159.508 65.0289L159.439 65.0588C158.73 65.3631 157.291 65.9803 153.741 66.9023L153.706 66.9113L153.672 66.919C152.276 67.2289 150.87 67.4385 149.498 67.5882C148.821 68.9204 148.099 70.2224 147.325 71.4996C148.345 71.8248 149.348 72.2113 150.318 72.6533C154.399 74.4757 156.217 79.246 154.398 83.3217C152.586 87.381 147.82 89.2704 143.716 87.404C142.408 86.8321 140.995 86.4782 139.539 86.349C139.261 86.3243 138.985 86.3092 138.708 86.3031C147.096 95.5236 152.2 107.798 152.2 121.249C152.2 121.437 152.174 121.619 152.125 121.792C152.125 121.947 152.124 122.103 152.123 122.261C159.314 124.982 164.5 131.915 164.5 140.049V140.086C164.5 148.36 159.206 155.387 151.815 157.995C151.566 162.246 148.029 165.62 143.717 165.62H134.492C130.063 165.62 126.379 161.997 126.379 157.515V122.657C126.379 118.182 130.018 114.551 134.492 114.551H135.869C132.742 97.621 117.873 84.8013 100.037 84.8013C82.2008 84.8013 67.3313 97.621 64.2044 114.551H65.5083C69.982 114.551 73.6212 118.182 73.6212 122.657V157.515C73.6212 161.989 69.982 165.62 65.5083 165.62H56.2834C52.0133 165.62 48.4354 162.252 48.1845 157.993C40.8276 155.384 35.5 148.362 35.5 140.086C35.5 131.913 40.6648 124.957 47.914 122.274C47.9109 121.934 47.9109 121.599 47.9109 121.274V121.249C47.9109 107.742 53.0274 95.4493 61.475 86.2203C61.1281 86.2246 60.7779 86.2426 60.4242 86.274C58.9804 86.4022 57.5995 86.7527 56.2383 87.333C52.136 89.1928 47.3757 87.3032 45.5653 83.2468C43.745 79.1683 45.5663 74.3943 49.6531 72.5746C50.6542 72.1279 51.663 71.7508 52.6835 71.4307C51.9107 70.1495 51.1909 68.8464 50.518 67.5337C49.129 67.3992 47.7074 67.1807 46.2958 66.8365C44.3101 66.3694 42.346 65.743 40.4473 64.9139C36.3402 63.1512 34.4094 58.4383 36.1766 54.3061C37.5826 50.9471 40.9886 49.067 44.4181 49.3904C44.048 47.3097 43.7933 45.2125 43.6201 43.1123L43.6193 43.1033C43.2747 38.677 46.6115 34.7492 51.0527 34.4042C55.4773 34.0605 59.4115 37.3878 59.7588 41.8277C60.1855 47.1524 61.5007 52.342 63.6036 57.2556C63.9617 58.0847 64.3433 58.8937 64.7492 59.6935C65.1487 59.1752 65.5676 58.6654 66.0098 58.1648L66.0152 58.1587L66.0207 58.1526C69.013 54.8209 74.1286 54.5194 77.4755 57.5183C80.6089 60.3258 81.0665 65.0066 78.6225 68.3365V68.4408L78.1016 69.0131C77.15 70.0587 76.3745 71.2773 75.786 72.5794C75.3679 73.5577 75.0845 74.5742 74.9256 75.6052ZM51.3625 38.3922C53.6056 38.218 55.5983 39.9217 55.7711 42.1411L55.7715 42.1456C56.234 47.9205 57.6598 53.5346 59.9276 58.8328L59.9302 58.8387C60.7834 60.8144 61.7486 62.6632 62.8178 64.494L64.477 67.335L66.2353 64.5543C67.0788 63.2202 67.9777 61.9798 69.0018 60.8196C70.5301 59.1241 73.1166 58.9835 74.8063 60.4974C76.5083 62.0225 76.6503 64.6058 75.1345 66.2935L74.6225 66.8636V66.9218C73.5988 68.1627 72.7708 69.5341 72.1316 70.9528L72.1242 70.9692L72.1171 70.9858C71.3561 72.7594 70.9368 74.6096 70.8112 76.4487L70.8066 76.5168V76.5849C70.8066 76.6928 70.7843 76.8586 70.7059 77.1198L70.558 77.612L70.6658 78.1146L70.6692 78.1305L70.6735 78.1516C68.7031 79.4844 66.8357 80.943 65.0581 82.5788C63.4135 82.2238 61.7477 82.1408 60.0704 82.2897C58.187 82.4569 56.3884 82.9177 54.644 83.6644L54.6215 83.674L54.5993 83.6842C52.5572 84.618 50.1455 83.6948 49.218 81.6165C48.2967 79.5523 49.217 77.1474 51.2801 76.2288L51.2817 76.2281C52.8812 75.5142 54.5275 74.9983 56.2678 74.6159L59.1392 73.9849L57.4979 71.5459C56.0374 69.3755 54.7475 67.0871 53.5943 64.7475L53.0843 63.7127L51.9332 63.6361C50.3492 63.5306 48.7639 63.3216 47.2362 62.9486L47.2278 62.9466L47.2194 62.9446C45.4313 62.5244 43.6957 61.9681 42.0425 61.2457L42.0356 61.2427L42.0287 61.2397C39.9198 60.337 38.964 57.9538 39.8564 55.874L39.8604 55.8648L39.8643 55.8554C40.7256 53.7909 43.1269 52.8019 45.235 53.6683C45.4538 53.7642 45.6716 53.8443 45.8289 53.9022L45.8488 53.9095C46.0363 53.9785 46.1499 54.0211 46.2467 54.0641L49.9666 55.7154L49.0011 51.7616C48.2912 48.8543 47.86 45.855 47.607 42.7887C47.4354 40.5558 49.1364 38.5652 51.3625 38.3922ZM147.819 122.366C147.669 120.24 145.888 118.551 143.717 118.551H134.492C132.223 118.551 130.379 120.396 130.379 122.657V157.515C130.379 159.767 132.252 161.62 134.492 161.62H143.717C145.986 161.62 147.829 159.775 147.829 157.515L147.829 123.618L147.829 123.559L147.829 123.543V122.655C147.829 122.637 147.829 122.62 147.829 122.602C147.828 122.523 147.825 122.444 147.819 122.366ZM151.829 126.479V153.674C156.957 151.283 160.5 146.096 160.5 140.086V140.049C160.5 134.084 156.942 128.898 151.829 126.479ZM52.2073 123.543C52.2073 123.674 52.1946 123.803 52.1704 123.927V157.515C52.1704 159.767 54.0435 161.62 56.2834 161.62H65.5083C67.7773 161.62 69.6212 159.775 69.6212 157.515V122.657C69.6212 120.396 67.7773 118.551 65.5083 118.551H56.2834C56.2309 118.551 56.1788 118.552 56.1268 118.554C53.9736 118.657 52.2073 120.467 52.2073 122.655V123.543ZM39.5 140.086C39.5 134.076 43.0428 128.888 48.1704 126.497V153.669C43.0621 151.274 39.5 146.087 39.5 140.086ZM56.3202 114.549C56.1988 114.549 56.078 114.552 55.9578 114.557C54.6058 114.611 53.3378 114.996 52.2336 115.634C53.5714 104.079 58.992 93.7973 67.0587 86.2609L67.0821 86.2387C69.166 84.2278 71.3965 82.4936 73.8181 80.9286L73.8227 80.9256C81.3613 76.0241 90.3573 73.1819 100.037 73.1819C109.329 73.1819 117.991 75.801 125.338 80.3466L125.344 80.4253L126.182 80.9669C128.594 82.5255 130.836 84.3016 132.944 86.2646L133.52 86.8009H133.622C141.371 94.2987 146.585 104.405 147.883 115.701C146.665 114.97 145.239 114.549 143.716 114.549H139.93C136.754 95.3931 120.084 80.8013 100.037 80.8013C79.9897 80.8013 63.3198 95.3931 60.1439 114.549H56.3202ZM148.58 38.5025C146.319 38.3039 144.331 39.9919 144.155 42.2483C143.73 48.0309 142.303 53.6479 140.035 58.9447L140.033 58.9507C139.184 60.9164 138.218 62.807 137.136 64.6219L135.468 67.4183L133.728 64.6663C132.884 63.3322 131.985 62.0918 130.961 60.9317C129.433 59.236 126.846 59.0954 125.157 60.6094C123.456 62.1331 123.313 64.7134 124.825 66.4012C126.077 67.7779 127.091 69.3352 127.813 71.0715C128.554 72.7998 129.019 74.5972 129.15 76.4926L129.15 76.4987C129.169 76.6813 129.182 76.8134 129.2 76.9389C129.209 77.0011 129.218 77.0485 129.226 77.0843C129.229 77.1018 129.233 77.1149 129.235 77.124L129.238 77.1358L129.239 77.1369L129.392 77.5961L129.318 78.0745C129.314 78.1002 129.311 78.1258 129.307 78.1514C131.327 79.5187 133.226 81.0216 135.023 82.6393C136.596 82.3302 138.221 82.2163 139.893 82.3647C141.766 82.531 143.609 82.9894 145.335 83.7463L145.349 83.7526L145.364 83.7591C147.406 84.693 149.817 83.7697 150.745 81.6915C151.666 79.6273 150.746 77.2224 148.683 76.3037L148.675 76.3001L148.667 76.2964C147.098 75.5813 145.427 75.0366 143.762 74.6971L140.834 74.1002L142.502 71.6209C143.967 69.4439 145.254 67.1942 146.4 64.8332L146.895 63.8146L148.023 63.7145C149.626 63.5721 151.226 63.3623 152.77 63.0217C156.023 62.1755 157.282 61.6328 157.851 61.3874L157.934 61.3517C160.043 60.4489 160.999 58.0658 160.107 55.986L160.103 55.9767L160.099 55.9674C159.242 53.9135 156.861 52.9241 154.761 53.7669C154.346 53.9664 153.864 54.1368 153.537 54.2456L150.15 55.3732L150.957 51.8961C151.638 48.9588 152.105 45.9466 152.356 42.8956L152.357 42.8846C152.554 40.6547 150.855 38.6793 148.601 38.5042L148.59 38.5034L148.58 38.5025Z" fill="currentColor"></path></svg>