<svg width="200" height="200" viewBox="0 0 200 200" fill="none" xmlns="http://www.w3.org/2000/svg"><path d="M114.287 69C114.388 69 114.486 69.0074 114.583 69.0217L114.635 69.032H135.884L137.104 69.0369C142.258 69.0805 145.776 69.4281 149.78 70.6165L150.244 70.7574C154.563 72.0965 158.28 74.2659 161.246 77.4407C166.183 82.7179 168.554 91.8674 167.892 101.789C167.347 109.725 164.457 116.546 159.495 121.474C154.51 126.391 146.331 129.217 137.932 129.217C129.712 129.217 121.428 125.146 114.554 117.8C110.038 112.966 107.68 107.667 105.132 98.6132C104.464 96.2525 102.478 94.5409 100.3 94.4129L100.081 94.4054H100.017C99.4544 94.4054 98.9042 94.4788 98.4358 94.6125C96.8018 95.0919 95.4548 96.5683 94.9354 98.4481L94.6025 99.619C92.1668 108.051 89.8215 113.122 85.4757 117.773C78.6578 125.025 70.1279 129.185 62.0692 129.185C53.7758 129.185 45.4326 126.335 40.5024 121.437C35.5239 116.494 32.6178 109.657 32.1089 101.753C31.4459 91.8084 33.7977 82.7058 38.7573 77.4066C41.7179 74.2511 45.4118 72.0892 49.6961 70.7486C53.9135 69.429 57.5167 69.0509 62.8922 69.005L64.1169 69H114.287ZM113.938 73H64.1169C58.4297 73 54.9247 73.3038 50.8906 74.5661C47.2289 75.7119 44.1315 77.5247 41.676 80.1417C37.5796 84.5186 35.5043 92.5512 36.1004 101.491C36.5489 108.457 39.062 114.37 43.3211 118.599C47.4308 122.682 54.7589 125.185 62.0692 125.185C68.9518 125.185 76.4595 121.524 82.5573 115.038C86.544 110.771 88.6842 105.939 91.0817 97.3761C91.9538 94.2199 94.2887 91.6605 97.3234 90.7704C98.0503 90.5626 98.8298 90.4429 99.6208 90.4129L100.101 90.4055C104.231 90.4456 107.825 93.4384 108.981 97.527L109.298 98.637C111.564 106.44 113.686 111.012 117.475 115.068C123.633 121.649 130.895 125.217 137.932 125.217C145.348 125.217 152.514 122.741 156.681 118.631C160.919 114.422 163.421 108.519 163.902 101.519C164.496 92.6104 162.402 84.5314 158.324 80.1724C155.865 77.5401 152.75 75.7223 149.06 74.578C145.318 73.4179 142.033 73.0779 137.026 73.0365L135.884 73.032H114.287C114.187 73.032 114.088 73.0246 113.992 73.0103L113.938 73ZM148.011 110.595C150.78 110.595 153.178 112.499 153.302 115.073L153.307 115.283V115.507C153.307 118.117 150.982 120.089 148.235 120.191L148.011 120.195H127.182C126.078 120.195 125.182 119.3 125.182 118.195C125.182 117.141 125.998 116.277 127.033 116.2L127.182 116.195H148.011C148.75 116.195 149.239 115.835 149.3 115.564L149.307 115.507V115.283C149.307 115.027 148.867 114.649 148.165 114.6L148.011 114.595H121.518C118.749 114.595 116.352 112.692 116.228 110.118L116.223 109.908V109.684C116.223 107.075 118.547 105.102 121.294 105L121.518 104.996L124.395 104.995C124.462 104.983 124.531 104.975 124.601 104.969L124.75 104.964H155.722C156.461 104.964 156.95 104.604 157.011 104.333L157.018 104.276V104.052C157.018 103.796 156.579 103.419 155.877 103.37L155.722 103.365H117.295C114.526 103.365 112.128 101.461 112.004 98.887L111.999 98.6768V98.4529C111.999 95.8434 114.324 93.8713 117.071 93.7693L117.295 93.7652H155.722C156.461 93.7652 156.95 93.4052 157.011 93.1341L157.018 93.0775V92.8535C157.018 92.5973 156.578 92.2203 155.876 92.1711L155.722 92.1658H111.311C108.543 92.1658 106.145 90.2622 106.021 87.6883L106.016 87.4782V87.2542C106.016 84.645 108.341 82.6727 111.088 82.5706L111.311 82.5665H145.643C146.434 82.5665 146.939 82.1533 146.939 81.8788C146.939 81.6227 146.499 81.2457 145.797 81.1965L145.643 81.1912H53.7822C52.9912 81.1912 52.4866 81.6043 52.4866 81.8788C52.4866 82.1351 52.9261 82.512 53.6279 82.5612L53.7822 82.5665H88.1141C90.8827 82.5665 93.2804 84.4701 93.4046 87.0441L93.4097 87.2542V87.4782C93.4097 90.0875 91.0849 92.0597 88.3377 92.1617L88.1141 92.1658H43.7034C42.9651 92.1658 42.4763 92.5257 42.4144 92.7969L42.4078 92.8535V93.0775C42.4078 93.3337 42.8474 93.7107 43.5491 93.7599L43.7034 93.7652H82.1308C84.8994 93.7652 87.2971 95.6687 87.4213 98.2427L87.4264 98.4529V98.6768C87.4264 101.286 85.1017 103.259 82.3544 103.361L82.1308 103.365H43.7034C42.9648 103.365 42.4763 103.725 42.4144 103.995L42.4078 104.052V104.276C42.4078 104.532 42.8474 104.91 43.5491 104.959L43.7034 104.964H74.6757C74.7965 104.964 74.9147 104.975 75.0296 104.995L77.9076 104.996C80.6763 104.996 83.074 106.9 83.1982 109.474L83.2033 109.684V109.908C83.2033 112.518 80.8785 114.489 78.1312 114.591L77.9076 114.595H51.4146C50.6763 114.595 50.1875 114.955 50.1256 115.226L50.119 115.283V115.507C50.119 115.763 50.5586 116.141 51.2603 116.19L51.4146 116.195H72.2441C73.3487 116.195 74.2441 117.09 74.2441 118.195C74.2441 119.249 73.4282 120.113 72.3933 120.19L72.2441 120.195H51.4146C48.6459 120.195 46.2483 118.291 46.124 115.717L46.119 115.507V115.283C46.119 112.674 48.4437 110.701 51.1909 110.599L51.4146 110.595H77.9076C78.6462 110.595 79.1348 110.235 79.1966 109.965L79.2033 109.908V109.684C79.2033 109.428 78.7636 109.05 78.0619 109.001L77.9076 108.996H69.2047C69.0857 108.996 68.9691 108.986 68.8558 108.966L43.7034 108.964C40.9347 108.964 38.5371 107.06 38.4128 104.486L38.4078 104.276V104.052C38.4078 101.442 40.7325 99.4711 43.4797 99.3691L43.7034 99.365H82.1308C82.869 99.365 83.3578 99.005 83.4197 98.7335L83.4264 98.6768V98.4529C83.4264 98.1966 82.9869 97.8197 82.2851 97.7705L82.1308 97.7652H43.7034C40.9348 97.7652 38.5371 95.8616 38.4128 93.2876L38.4078 93.0775V92.8535C38.4078 90.2442 40.7326 88.2719 43.4798 88.1699L43.7034 88.1658H88.1141C88.8524 88.1658 89.3411 87.8059 89.403 87.5348L89.4097 87.4782V87.2542C89.4097 86.998 88.9701 86.621 88.2684 86.5718L88.1141 86.5665H53.7822C50.9387 86.5665 48.4866 84.5587 48.4866 81.8788C48.4866 79.3194 50.7233 77.373 53.4014 77.2032C53.4249 77.2007 53.4489 77.1985 53.4731 77.1967L53.6224 77.1912H145.803C145.876 77.1912 145.948 77.1951 146.019 77.2027C148.699 77.3705 150.939 79.3177 150.939 81.8788C150.939 84.4883 148.614 86.4604 145.867 86.5624L145.643 86.5665H111.311C110.573 86.5665 110.085 86.9265 110.023 87.1976L110.016 87.2542V87.4782C110.016 87.7343 110.456 88.1113 111.157 88.1605L111.311 88.1658H155.722C158.491 88.1658 160.889 90.0693 161.013 92.6433L161.018 92.8535V93.0775C161.018 95.6869 158.693 97.6591 155.946 97.7611L155.722 97.7652H117.295C116.557 97.7652 116.068 98.1251 116.006 98.3963L115.999 98.4529V98.6768C115.999 98.9334 116.439 99.3105 117.141 99.3597L117.295 99.365H155.722C158.491 99.365 160.889 101.268 161.013 103.842L161.018 104.052V104.276C161.018 106.886 158.693 108.858 155.946 108.96L155.722 108.964L130.571 108.965C130.505 108.977 130.438 108.985 130.37 108.991L130.221 108.996H121.518C120.78 108.996 120.292 109.356 120.23 109.627L120.223 109.684V109.908C120.223 110.164 120.662 110.541 121.364 110.59L121.518 110.595H148.011Z" fill="currentColor"></path></svg>