<svg width="200" height="200" viewBox="0 0 200 200" fill="none" xmlns="http://www.w3.org/2000/svg"><path d="M46.77 93.9694C46.77 64.6913 70.5871 40.9688 100.02 40.9688C129.455 40.9688 153.3 64.6927 153.3 93.9694C153.3 105.428 149.656 116.021 143.431 124.675C142.786 125.572 142.99 126.822 143.886 127.467C144.783 128.112 146.033 127.908 146.678 127.011C153.378 117.697 157.3 106.29 157.3 93.9694C157.3 62.4637 131.644 36.9688 100.02 36.9688C68.3951 36.9688 42.77 62.4651 42.77 93.9694C42.77 106.29 46.6916 117.697 53.3923 127.011C54.0374 127.908 55.2872 128.112 56.1839 127.467C57.0805 126.822 57.2844 125.572 56.6394 124.675C50.4137 116.021 46.77 105.428 46.77 93.9694Z" fill="currentColor"></path><path d="M100.02 46.6934C73.8158 46.6934 52.5393 67.8608 52.5393 93.9689C52.5393 106.945 57.7998 118.681 66.2827 127.25C67.0599 128.035 68.3262 128.041 69.1111 127.264C69.8961 126.487 69.9024 125.22 69.1253 124.435C61.3459 116.578 56.5393 105.839 56.5393 93.9689C56.5393 70.087 76.0079 50.6934 100.02 50.6934C124.032 50.6934 143.501 70.087 143.501 93.9689C143.501 105.839 138.694 116.578 130.915 124.435C130.138 125.22 130.144 126.487 130.929 127.264C131.714 128.041 132.98 128.035 133.758 127.25C142.24 118.681 147.501 106.945 147.501 93.9689C147.501 67.8608 126.224 46.6934 100.02 46.6934Z" fill="currentColor"></path><path fill-rule="evenodd" clip-rule="evenodd" d="M75.7295 77.9788C75.7295 81.2204 77.9017 83.9461 80.8645 84.8071V125.842C80.8645 126.947 81.7599 127.842 82.8645 127.842C83.9691 127.842 84.8645 126.947 84.8645 125.842V84.807C87.8271 83.9459 89.9992 81.2203 89.9992 77.9788C89.9992 74.7374 87.8271 72.0118 84.8645 71.1507V61.6387C84.8645 60.5341 83.9691 59.6387 82.8645 59.6387C81.7599 59.6387 80.8645 60.5341 80.8645 61.6387V71.1506C77.9018 72.0116 75.7295 74.7373 75.7295 77.9788ZM82.8643 74.8672C81.1245 74.8672 79.7295 76.2688 79.7295 77.9788C79.7295 79.6888 81.1245 81.0905 82.8643 81.0905C84.6042 81.0905 85.9992 79.6888 85.9992 77.9788C85.9992 76.2688 84.6042 74.8672 82.8643 74.8672Z" fill="currentColor"></path><path fill-rule="evenodd" clip-rule="evenodd" d="M100.035 59.6387C101.14 59.6387 102.035 60.5341 102.035 61.6387V104.707C104.975 105.582 107.125 108.297 107.125 111.522C107.125 114.747 104.975 117.461 102.035 118.337V125.843C102.035 126.948 101.14 127.843 100.035 127.843C98.9306 127.843 98.0352 126.948 98.0352 125.843V118.363C95.0496 117.516 92.8555 114.78 92.8555 111.522C92.8555 108.264 95.0496 105.527 98.0352 104.681V61.6387C98.0352 60.5341 98.9306 59.6387 100.035 59.6387ZM103.125 111.522C103.125 113.133 101.887 114.47 100.289 114.62C100.206 114.609 100.121 114.604 100.035 114.604C99.9371 114.604 99.8407 114.611 99.7464 114.624C98.1219 114.5 96.8555 113.151 96.8555 111.522C96.8555 109.812 98.2504 108.41 99.9903 108.41C101.73 108.41 103.125 109.812 103.125 111.522Z" fill="currentColor"></path><path fill-rule="evenodd" clip-rule="evenodd" d="M115.116 98.932V125.842C115.116 126.947 116.012 127.842 117.116 127.842C118.221 127.842 119.116 126.947 119.116 125.842V98.9322C122.079 98.0712 124.251 95.3455 124.251 92.1038C124.251 88.8622 122.079 86.1365 119.116 85.2755V61.6387C119.116 60.5341 118.221 59.6387 117.116 59.6387C116.012 59.6387 115.116 60.5341 115.116 61.6387V85.2757C112.154 86.1369 109.982 88.8624 109.982 92.1038C109.982 95.3453 112.154 98.0708 115.116 98.932ZM116.823 89.0056C115.222 89.1529 113.982 90.4913 113.982 92.1038C113.982 93.8138 115.377 95.2155 117.117 95.2155C118.856 95.2155 120.251 93.8138 120.251 92.1038C120.251 90.4912 119.011 89.1527 117.41 89.0056C117.314 89.0197 117.216 89.027 117.116 89.027C117.016 89.027 116.918 89.0197 116.823 89.0056Z" fill="currentColor"></path><path d="M58.9014 136.279C58.9014 135.175 58.0059 134.279 56.9014 134.279C55.7968 134.279 54.9014 135.175 54.9014 136.279V161.028C54.9014 162.133 55.7968 163.028 56.9014 163.028H75.6149C76.7195 163.028 77.6149 162.133 77.6149 161.028C77.6149 159.924 76.7195 159.028 75.6149 159.028H58.9014V136.279Z" fill="currentColor"></path><path d="M85.0981 134.279C86.2027 134.279 87.0981 135.175 87.0981 136.279V161.028C87.0981 162.133 86.2027 163.028 85.0981 163.028C83.9936 163.028 83.0981 162.133 83.0981 161.028V136.279C83.0981 135.175 83.9936 134.279 85.0981 134.279Z" fill="currentColor"></path><path d="M95.926 135.465C95.4765 134.456 94.2942 134.002 93.2852 134.452C92.2762 134.901 91.8227 136.084 92.2722 137.093L103.298 161.842C103.617 162.557 104.323 163.02 105.106 163.028C105.889 163.035 106.604 162.585 106.936 161.877L118.54 137.128C119.009 136.128 118.578 134.937 117.578 134.468C116.578 133.999 115.387 134.43 114.919 135.43L105.172 156.217L95.926 135.465Z" fill="currentColor"></path><path d="M124.052 136.279C124.052 135.175 124.947 134.279 126.052 134.279H143.824C144.929 134.279 145.824 135.175 145.824 136.279C145.824 137.384 144.929 138.279 143.824 138.279H128.052V146.656H143.824C144.929 146.656 145.824 147.552 145.824 148.656C145.824 149.761 144.929 150.656 143.824 150.656H128.052V159.028H143.824C144.929 159.028 145.824 159.924 145.824 161.028C145.824 162.133 144.929 163.028 143.824 163.028H126.052C124.947 163.028 124.052 162.133 124.052 161.028V136.279Z" fill="currentColor"></path></svg>