<svg width="200" height="200" viewBox="0 0 200 200" fill="none" xmlns="http://www.w3.org/2000/svg"><path fill-rule="evenodd" clip-rule="evenodd" d="M43.2688 78.4475V81.7609C36.7913 82.7293 31.8101 88.3278 31.8101 95.0715V120.296C31.8101 127.719 37.8456 133.755 45.2688 133.755H47.8572V143.815C47.8572 144.92 48.7526 145.815 49.8572 145.815C50.9617 145.815 51.8572 144.92 51.8572 143.815V133.755H148.153V143.815C148.153 144.92 149.048 145.815 150.153 145.815C151.257 145.815 152.153 144.92 152.153 143.815V133.755H154.741C162.164 133.755 168.2 127.719 168.2 120.296V95.0715C168.2 88.3365 163.232 82.7437 156.766 81.7646V78.4475C156.766 64.6806 145.616 53.53 131.849 53.53H68.1863C54.4194 53.53 43.2688 64.6806 43.2688 78.4475ZM68.1863 57.53C56.6286 57.53 47.2688 66.8898 47.2688 78.4475V81.7609C53.7464 82.7293 58.7276 88.3278 58.7276 95.0715V106.837H98.0049V57.53H68.1863ZM102.005 57.53V106.837H141.283V95.0715C141.283 88.3191 146.277 82.7149 152.766 81.7572V78.4475C152.766 66.8898 143.407 57.53 131.849 57.53H102.005ZM99.9993 110.837L100.005 110.837L100.01 110.837H143.283C144.387 110.837 145.283 109.942 145.283 108.837V95.0715C145.283 89.8574 149.527 85.6127 154.741 85.6127C159.955 85.6127 164.2 89.8574 164.2 95.0715V120.296C164.2 125.51 159.955 129.755 154.741 129.755H45.2688C40.0548 129.755 35.8101 125.51 35.8101 120.296V95.0715C35.8101 89.8574 40.0548 85.6127 45.2688 85.6127C50.4829 85.6127 54.7276 89.8574 54.7276 95.0715V108.837C54.7276 109.942 55.623 110.837 56.7276 110.837H99.9993Z" fill="currentColor"></path></svg>