<svg width="200" height="200" viewBox="0 0 200 200" fill="none" xmlns="http://www.w3.org/2000/svg"><path fill-rule="evenodd" clip-rule="evenodd" d="M64.9767 60.5987C63.8241 60.5072 62.6679 60.6454 61.6419 61.1929C60.5832 61.7578 59.8557 62.656 59.4192 63.726L59.4139 63.739C59.0123 64.7438 58.7735 66.1882 58.621 67.8956C58.4636 69.6581 58.3842 71.8907 58.3842 74.5851V125.017C58.3842 128.047 58.4561 130.5 58.5973 132.367C58.7308 134.131 58.9405 135.647 59.3468 136.595C59.352 136.608 59.3574 136.62 59.3628 136.632C59.8308 137.667 60.6131 138.462 61.6605 138.925C62.6585 139.366 63.7688 139.451 64.8681 139.344C65.9933 139.235 67.0786 138.92 68.0099 138.272C68.9604 137.611 69.6174 136.694 70.0136 135.612C70.3854 134.61 70.6 133.214 70.7345 131.582C70.8731 129.899 70.9379 127.792 70.9379 125.275V75.4088C70.9568 75.2982 70.9665 75.1854 70.9665 75.0717C70.9665 72.3596 70.909 70.1112 70.7864 68.3498C70.6686 66.6557 70.4805 65.2183 70.1387 64.2491C69.7647 63.1747 69.1038 62.2676 68.1477 61.6219C67.2144 60.9917 66.1185 60.6894 64.9767 60.5987ZM62.6051 68.2515C62.7522 66.6042 62.9556 65.6599 63.1255 65.2305C63.2604 64.9029 63.4043 64.7862 63.525 64.7219C63.679 64.6397 64.0104 64.5346 64.6601 64.5862C65.3206 64.6386 65.6979 64.7943 65.909 64.9368C66.0952 65.0626 66.2489 65.2408 66.3617 65.5661L66.3659 65.5782C66.5092 65.9829 66.6782 66.9331 66.7961 68.6274C66.9051 70.1947 66.962 72.2378 66.9662 74.7647C66.9475 74.8748 66.9379 74.9871 66.9379 75.1003V125.275C66.9379 127.738 66.874 129.724 66.7479 131.254C66.618 132.831 66.4328 133.765 66.2626 134.223L66.2582 134.234C66.1107 134.639 65.9243 134.85 65.7249 134.989C65.5048 135.142 65.1311 135.3 64.4826 135.363C63.8082 135.428 63.4452 135.341 63.2774 135.267C63.1638 135.216 63.0893 135.156 63.0166 135.003C62.9069 134.729 62.7212 133.853 62.5859 132.065C62.4554 130.34 62.3842 127.998 62.3842 125.017V74.5851C62.3842 71.9558 62.4622 69.8521 62.6051 68.2515Z" fill="currentColor"></path><path fill-rule="evenodd" clip-rule="evenodd" d="M46.2587 47.3155C51.5153 44.7331 57.6436 43.9419 64.4596 44.7791C69.9027 45.4376 74.7297 47.0032 78.9255 49.5457C82.9784 51.9794 86.0551 54.7757 88.1438 57.942L88.1516 57.9537C90.1561 61.0391 91.4805 64.3728 92.1857 68.0234C92.8725 71.5786 93.1857 76.9334 93.1945 84.0929C93.2135 84.2039 93.2232 84.317 93.2232 84.4311V116.545C93.2232 123.862 92.8827 129.362 92.1221 132.985C91.3456 136.682 89.7658 140.198 87.388 143.523C84.9549 146.943 81.9389 149.598 78.3418 151.415C74.752 153.256 70.7423 154.4 66.2583 154.938L66.2571 154.938C60.3603 155.643 55.1821 155.514 50.8973 154.466L50.8939 154.465C46.4665 153.373 42.8293 151.223 40.0447 147.989L40.0384 147.982C37.3907 144.876 35.4495 141.466 34.2753 137.757C33.0878 134.005 32.5801 128.154 32.5801 120.438V82.2845C32.5801 72.1851 33.435 64.4612 35.2699 59.2904L35.2712 59.2868C37.1767 53.9488 40.9082 49.9304 46.2587 47.3155ZM48.0209 50.9064C52.4328 48.7385 57.7462 47.9843 63.9737 48.7495L63.9775 48.7499C68.9454 49.3507 73.2138 50.7611 76.8554 52.9684L76.8627 52.9728C80.5289 55.1737 83.114 57.5837 84.8009 60.1385C86.5133 62.7759 87.648 65.6228 88.2583 68.7821C88.8776 71.9878 89.1946 77.1202 89.1946 84.4025C89.1946 84.5162 89.2043 84.6289 89.2232 84.7396V116.545C89.2232 123.826 88.8772 128.973 88.2074 132.163C87.5538 135.276 86.2163 138.285 84.1324 141.199L84.1295 141.203C82.0442 144.134 79.5127 146.343 76.5334 147.847L76.5214 147.853C73.4186 149.445 69.8782 150.475 65.7827 150.967C60.1794 151.636 55.5166 151.478 51.8485 150.581C48.1546 149.669 45.2714 147.928 43.0792 145.383C40.7508 142.651 39.0884 139.708 38.0889 136.55C37.1022 133.432 36.5801 128.12 36.5801 120.438V82.2845C36.5801 72.2923 37.4414 65.1332 39.039 60.6297C40.5664 56.3523 43.5281 53.1017 48.0169 50.9084L48.0209 50.9064Z" fill="currentColor"></path><path fill-rule="evenodd" clip-rule="evenodd" d="M118.795 65.3787C117.801 65.2958 116.771 65.4466 115.862 66.0213C114.946 66.6004 114.377 67.4684 114.052 68.4021C113.744 69.284 113.568 70.5562 113.456 72.0407C113.34 73.58 113.282 75.5309 113.282 77.8761V121.811C113.282 124.448 113.332 126.587 113.44 128.219C113.541 129.739 113.703 131.093 114.052 131.965C114.41 132.876 115.039 133.646 115.959 134.121C116.841 134.576 117.814 134.672 118.738 134.595L118.742 134.594C119.717 134.511 120.672 134.205 121.481 133.567C122.292 132.927 122.814 132.066 123.112 131.112C123.385 130.249 123.554 129.034 123.663 127.605C123.775 126.132 123.833 124.288 123.833 122.097V78.2196C123.833 78.0566 123.813 77.8963 123.775 77.7417C123.77 75.6013 123.726 73.809 123.64 72.3818C123.551 70.9018 123.408 69.6394 123.143 68.7843C122.857 67.8604 122.343 67.0153 121.534 66.3866C120.731 65.763 119.779 65.4608 118.795 65.3787ZM119.776 78.2482C119.776 78.4103 119.796 78.5696 119.833 78.7233L118.402 130.609C118.023 130.64 117.854 130.59 117.808 130.573C117.801 130.56 117.789 130.538 117.776 130.503L117.765 130.477C117.765 130.477 117.763 130.472 117.76 130.463L117.755 130.448C117.753 130.441 117.75 130.433 117.747 130.423C117.736 130.387 117.723 130.338 117.708 130.274C117.677 130.144 117.643 129.97 117.61 129.747C117.542 129.299 117.481 128.706 117.431 127.954C117.332 126.451 117.282 124.412 117.282 121.811V77.8761C117.282 75.5846 117.339 73.743 117.444 72.3414C117.554 70.8849 117.707 70.0678 117.829 69.7189C117.882 69.5666 117.932 69.4835 117.961 69.4439C117.975 69.4244 117.985 69.4141 117.99 69.4094C117.993 69.4074 117.994 69.4059 117.996 69.4047C117.997 69.4035 117.999 69.4027 117.999 69.4021C118.001 69.401 118.006 69.3979 118.018 69.3935C118.029 69.3889 118.05 69.3819 118.084 69.3752C118.152 69.3615 118.273 69.349 118.463 69.3649C118.852 69.3973 119.016 69.4958 119.079 69.5448C119.135 69.5887 119.236 69.6882 119.322 69.9664C119.429 70.3134 119.558 71.1405 119.647 72.6228C119.733 74.0468 119.776 75.9196 119.776 78.2482ZM119.833 78.7233L118.406 130.609C118.772 130.577 118.933 130.483 119.003 130.427C119.07 130.374 119.191 130.25 119.294 129.918L119.298 129.906C119.424 129.51 119.569 128.681 119.675 127.301C119.777 125.963 119.833 124.228 119.833 122.097V78.7233Z" fill="currentColor"></path><path fill-rule="evenodd" clip-rule="evenodd" d="M118.47 51.5905C113.179 50.9479 108.373 51.7293 104.291 54.1092L104.288 54.1107C100.133 56.541 97.2964 60.126 95.8628 64.7794L95.8617 64.7831C94.4846 69.284 93.8289 75.996 93.8289 84.7168V117.718C93.8289 124.408 94.2247 129.471 95.0991 132.721C95.9658 135.942 97.4206 138.943 99.4531 141.687C101.575 144.591 104.403 146.559 107.867 147.597C111.226 148.62 115.245 148.774 119.778 148.241L119.789 148.239C123.271 147.812 126.449 146.826 129.257 145.217C132.133 143.599 134.475 141.23 136.364 138.258C138.246 135.323 139.459 132.218 140.05 128.982C140.628 125.814 140.883 120.965 140.883 114.541V86.291C140.883 79.8734 140.657 75.0574 140.11 71.8966C139.559 68.7121 138.542 65.7675 136.984 63.0554C135.376 60.2547 132.968 57.7792 129.784 55.6639C126.486 53.4346 122.689 52.1105 118.473 51.5909L118.47 51.5905ZM106.306 57.5642C109.49 55.7089 113.38 55.002 117.986 55.5611C121.662 56.0145 124.842 57.1502 127.55 58.982L127.564 58.9917C130.327 60.8252 132.265 62.8704 133.516 65.0478C134.819 67.316 135.69 69.8096 136.169 72.5785C136.652 75.3711 136.883 79.8859 136.883 86.291V114.541C136.883 120.94 136.624 125.478 136.115 128.264C135.619 130.981 134.601 133.598 132.995 136.101L132.99 136.109C131.391 138.627 129.501 140.492 127.29 141.735L127.275 141.743C124.994 143.051 122.34 143.895 119.305 144.269C115.089 144.764 111.674 144.576 109.028 143.769L109.018 143.766C106.364 142.972 104.275 141.507 102.679 139.322L102.671 139.31C100.929 136.961 99.6964 134.411 98.9617 131.681C98.234 128.977 97.8289 124.367 97.8289 117.718V84.7168C97.8289 76.094 98.4889 69.8695 99.6861 65.9553C100.827 62.2525 103.025 59.4841 106.306 57.5642Z" fill="currentColor"></path><path fill-rule="evenodd" clip-rule="evenodd" d="M144.762 59.5243C145.188 59.1448 145.756 58.9653 146.323 59.0309L156.707 60.233C157.716 60.3498 158.477 61.2041 158.477 62.2197V69.5184C158.477 73.4005 158.126 76.6842 157.405 79.3199L157.401 79.3351C156.625 82.0825 155.279 84.4026 153.318 86.2979C151.387 88.165 149.124 89.4392 146.548 90.0416C145.954 90.1806 145.328 90.0405 144.85 89.6611C144.371 89.2817 144.093 88.7047 144.093 88.0941V82.0549C144.093 81.3803 144.433 80.7512 144.997 80.3817C145.429 80.099 145.781 79.7736 146.055 79.3923L145.942 79.3838C144.899 79.3052 144.093 78.4358 144.093 77.3895V61.0176C144.093 60.4471 144.336 59.9038 144.762 59.5243ZM148.093 75.5344L148.903 75.5955C149.442 75.636 149.941 75.8925 150.287 76.3067C150.634 76.7208 150.798 77.2574 150.743 77.7945C150.523 79.925 149.634 81.714 148.093 83.0472V85.2235C148.961 84.7589 149.775 84.1595 150.539 83.4218C151.952 82.0557 152.951 80.3711 153.549 78.2563C154.142 76.0843 154.477 73.1881 154.477 69.5184V64.0016L148.093 63.2625V75.5344Z" fill="currentColor"></path><path fill-rule="evenodd" clip-rule="evenodd" d="M164.768 111.245L158.596 111.405C158.901 111.609 159.229 111.824 159.58 112.05C162.572 113.919 164.772 115.887 165.901 117.964C167.028 120.036 167.46 122.873 167.46 126.19C167.46 129.852 167.114 132.861 166.348 135.062L166.342 135.078C165.526 137.358 164.173 139.207 162.236 140.626C160.316 142.032 158.005 142.88 155.375 143.201L155.37 143.202C152.443 143.552 149.798 143.215 147.484 142.144L147.472 142.138C145.098 141.021 143.405 139.281 142.462 136.921C141.571 134.693 141.203 131.486 141.203 127.506V125.245C141.203 124.194 142.016 123.323 143.064 123.25L149.325 122.813C149.092 122.654 148.851 122.489 148.601 122.319L148.592 122.313C145.407 120.12 143.015 117.793 142.101 115.294C141.278 113.115 140.917 110.573 140.917 107.785C140.917 103.988 141.282 100.869 142.222 98.6995C143.162 96.4652 144.791 94.7927 146.926 93.6554L146.937 93.6498C149.015 92.5594 151.382 92.0434 153.956 92.0756C156.494 92.1074 158.603 92.5877 160.462 93.5176L160.475 93.5243C162.261 94.4347 163.688 95.659 164.705 97.2206C165.603 98.6012 166.23 100.005 166.46 101.389C166.661 102.593 166.745 104.364 166.745 106.612V109.188C166.745 109.498 166.673 109.804 166.534 110.082L166.505 110.139C166.175 110.8 165.507 111.225 164.768 111.245ZM145.906 100.258C146.454 98.9511 147.396 97.9382 148.801 97.1888C150.213 96.4492 151.906 96.0503 153.906 96.0753C155.942 96.1008 157.436 96.4778 158.665 97.0916C159.908 97.7261 160.768 98.5042 161.352 99.4025C162.056 100.483 162.402 101.369 162.515 102.046C162.657 102.903 162.745 104.395 162.745 106.612V107.296L157.905 107.422V107.013C157.905 105.946 157.883 105.04 157.837 104.315C157.794 103.653 157.722 102.97 157.559 102.446C157.344 101.739 156.901 101.108 156.213 100.692C155.57 100.304 154.878 100.204 154.303 100.204C153.707 100.204 153.091 100.342 152.523 100.683C151.958 101.022 151.55 101.497 151.267 102.006C150.735 102.965 150.587 104.145 150.587 105.295C150.587 106.746 150.673 107.944 150.861 108.811C151.117 109.99 151.832 110.999 152.689 111.89C153.589 112.827 155.27 114.03 157.424 115.42L157.45 115.436C160.23 117.171 161.744 118.692 162.387 119.875C163.034 121.065 163.46 123.095 163.46 126.19C163.46 129.677 163.12 132.161 162.573 133.738C162.016 135.29 161.138 136.472 159.873 137.399C158.589 138.339 156.953 138.979 154.893 139.231C152.56 139.509 150.688 139.218 149.17 138.517C147.657 137.803 146.72 136.796 146.176 135.436C145.579 133.943 145.203 131.369 145.203 127.506V127.11L150.644 126.731V127.478C150.644 128.733 150.673 129.795 150.735 130.652C150.794 131.467 150.891 132.24 151.082 132.838C151.286 133.475 151.664 134.158 152.351 134.641C153.051 135.133 153.833 135.252 154.522 135.195C155.787 135.094 156.961 134.481 157.625 133.286C157.947 132.706 158.096 132.031 158.18 131.425C158.268 130.783 158.306 130.033 158.306 129.195C158.306 128.068 158.262 127.095 158.156 126.3C158.06 125.582 157.88 124.713 157.413 124.03C157.39 123.997 157.366 123.964 157.341 123.932C157.098 123.619 156.753 123.312 156.451 123.059C156.112 122.774 155.68 122.436 155.164 122.05C154.13 121.278 152.695 120.266 150.855 119.015C147.812 116.919 146.318 115.187 145.855 113.914L145.846 113.889C145.242 112.292 144.917 110.259 144.917 107.785C144.917 104.091 145.295 101.662 145.895 100.283L145.906 100.258Z" fill="currentColor"></path></svg>