<svg width="200" height="200" viewBox="0 0 200 200" fill="none" xmlns="http://www.w3.org/2000/svg"><path d="M126.382 140.852C127.487 140.852 128.382 141.747 128.382 142.852C128.382 143.906 127.566 144.77 126.531 144.846L126.382 144.852H65.2794C64.1748 144.852 63.2794 143.956 63.2794 142.852C63.2794 141.797 64.0953 140.933 65.1301 140.857L65.2794 140.852H126.382ZM130.23 149.924H61.4052C58.8317 149.924 56.7415 152.003 56.7415 154.574V168.221C56.7415 170.791 58.832 172.87 61.4052 172.87H130.23C132.803 172.87 134.893 170.791 134.893 168.221V154.574C134.893 152.003 132.804 149.924 130.23 149.924ZM61.4052 153.924H130.23C130.599 153.924 130.893 154.216 130.893 154.574V168.221C130.893 168.577 130.599 168.87 130.23 168.87H61.4052C61.0362 168.87 60.7415 168.576 60.7415 168.221V154.574C60.7415 154.217 61.0362 153.924 61.4052 153.924ZM80.1583 131.713L78.2261 131.706C63.4726 131.61 55.0872 130.36 50.6634 126.637C44.3738 121.344 47.763 112.742 60.8887 100.207L63.6808 97.5707C74.3371 87.4723 78.757 82.3766 82.1653 75.5998C85.7141 68.5433 87.0542 60.6378 86.0841 50.5795C85.5238 47.9042 85.1618 45.3895 85.0067 43.0704C84.9879 42.962 84.9673 42.8517 84.9464 42.7412C84.8977 42.4831 84.9009 42.2273 84.9487 41.9845C84.6951 35.5907 86.1152 30.8145 89.4408 28.4894L89.7482 28.2861C89.7936 28.2505 89.8344 28.2212 89.8768 28.193L90.0089 28.1114C100.147 22.3186 120.191 40.1794 135.968 67.377C151.747 94.5494 157.281 120.799 147.152 126.606C143.384 128.765 138.237 127.64 132.446 123.971C132.249 123.892 132.062 123.781 131.892 123.635L131.77 123.533C129.594 122.093 127.333 120.305 125.025 118.205C115.69 111.428 107.325 107.991 98.9143 107.302C86.4031 106.306 71.0401 111.08 64.208 117.331C61.4114 119.889 60.9119 121.818 62.3065 123.282C64.4721 125.554 70.4718 127.216 80.2028 127.712L89.312 127.712C90.182 124.953 92.7765 122.951 95.8171 122.951C99.5546 122.951 102.606 126.009 102.606 129.741C102.606 133.47 99.5559 136.504 95.8171 136.504C92.7389 136.504 90.1406 134.495 89.2929 131.712L80.1583 131.713ZM95.8171 126.951C94.3574 126.951 93.1436 128.072 93.0127 129.487C93.0238 129.561 93.0281 129.636 93.0281 129.713C93.0281 129.798 93.0227 129.882 93.0123 129.965C93.1241 131.392 94.3241 132.504 95.8171 132.504C97.3516 132.504 98.6062 131.256 98.6062 129.741C98.6062 128.216 97.3434 126.951 95.8171 126.951ZM89.9367 63.6887L89.9087 63.9081C89.2315 68.7905 87.8388 73.2214 85.7388 77.397L85.4069 78.0464C81.837 84.9217 77.2585 90.1846 66.9623 99.9711L63.6971 103.055C52.0901 114.114 49.5589 120.479 53.239 123.576C54.5118 124.647 56.4122 125.481 59.0062 126.11L59.6182 126.251L59.4107 126.041C56.1392 122.608 57.2645 118.261 61.5081 114.379C69.1922 107.349 85.654 102.234 99.2361 103.315C104.529 103.748 109.764 105.16 115.14 107.647C110.372 101.817 105.628 94.9432 101.218 87.3413C96.4881 79.1966 92.6793 71.1382 89.9367 63.6887ZM132.508 69.385C117.836 44.0927 99.1866 27.4741 91.9933 31.5844L92.1662 31.4921L91.8156 31.7105C89.5387 33.2021 88.5935 36.8706 88.8812 42.0235L88.877 41.9993C89.4022 44.7816 89.79 47.4301 90.0413 49.9608C91.375 56.0527 93.7981 63.2164 97.2224 70.8428C100.368 64.1243 102.428 53.6707 101.599 42.4918C101.517 41.3902 102.344 40.431 103.445 40.3493C104.547 40.2676 105.506 41.0943 105.588 42.1958C106.586 55.6554 103.637 68.2005 99.3481 75.369C100.602 77.9302 101.963 80.5292 103.428 83.1437L124.156 70.9388C125.108 70.3783 126.334 70.6956 126.895 71.6475C127.428 72.554 127.166 73.7091 126.318 74.3012L126.186 74.3857L105.425 86.6095C107.313 89.7963 109.261 92.839 111.237 95.7126C118.01 95.1659 131.075 97.8341 141.019 102.222C142.029 102.668 142.487 103.848 142.041 104.859C141.595 105.869 140.414 106.327 139.404 105.881C131.147 102.238 120.508 99.8414 114.036 99.6446C118.614 105.859 123.262 111.12 127.594 115.128C129.842 116.767 132.135 118.587 134.487 120.592L134.571 120.67C139.014 123.546 142.743 124.522 145.163 123.135C152.316 119.035 147.172 94.6351 132.508 69.385Z" fill="currentColor"></path></svg>