<svg width="200" height="200" viewBox="0 0 200 200" fill="none" xmlns="http://www.w3.org/2000/svg"><path d="M102.005 44.19C102.005 43.0854 101.109 42.19 100.005 42.19C98.9003 42.19 98.0048 43.0854 98.0048 44.19V59.3196C98.0048 60.4242 98.9003 61.3196 100.005 61.3196C101.109 61.3196 102.005 60.4242 102.005 59.3196V44.19Z" fill="currentColor"></path><path fill-rule="evenodd" clip-rule="evenodd" d="M31.6699 110.525H53.3774C54.4248 85.6759 74.8978 65.8555 100.005 65.8555C125.112 65.8555 145.585 85.6759 146.632 110.525H168.34C169.445 110.525 170.34 111.42 170.34 112.525C170.34 113.63 169.445 114.525 168.34 114.525H31.6699C30.5654 114.525 29.6699 113.63 29.6699 112.525C29.6699 111.42 30.5654 110.525 31.6699 110.525ZM100.005 69.8555C77.1073 69.8555 58.4257 87.8858 57.3814 110.525H142.628C141.584 87.8858 122.902 69.8555 100.005 69.8555Z" fill="currentColor"></path><path d="M160.913 77.3581C161.465 78.3148 161.137 79.5379 160.18 80.0899L147.088 87.6427C146.132 88.1947 144.909 87.8665 144.357 86.9098C143.805 85.953 144.133 84.7299 145.09 84.178L158.181 76.6251C159.138 76.0732 160.361 76.4013 160.913 77.3581Z" fill="currentColor"></path><path d="M41.8285 76.6251C40.8717 76.0732 39.6486 76.4013 39.0966 77.3581C38.5447 78.3148 38.8728 79.5379 39.8296 80.0899L52.9211 87.6427C53.8779 88.1947 55.101 87.8665 55.6529 86.9098C56.2049 85.953 55.8768 84.7299 54.92 84.178L41.8285 76.6251Z" fill="currentColor"></path><path d="M135.172 51.6169C136.129 52.1689 136.457 53.392 135.905 54.3488L128.352 67.4403C127.8 68.3971 126.577 68.7252 125.62 68.1732C124.663 67.6212 124.335 66.3982 124.887 65.4414L132.44 52.3499C132.992 51.3931 134.215 51.065 135.172 51.6169Z" fill="currentColor"></path><path d="M67.5696 52.3499C67.0177 51.3931 65.7946 51.065 64.8378 51.6169C63.8811 52.1689 63.5529 53.392 64.1049 54.3488L71.6577 67.4403C72.2097 68.3971 73.4328 68.7252 74.3895 68.1732C75.3463 67.6212 75.6744 66.3982 75.1225 65.4414L67.5696 52.3499Z" fill="currentColor"></path><path d="M54.9179 126.648C54.9179 125.543 55.8133 124.648 56.9179 124.648H142.397C143.501 124.648 144.397 125.543 144.397 126.648C144.397 127.752 143.501 128.648 142.397 128.648H56.9179C55.8133 128.648 54.9179 127.752 54.9179 126.648Z" fill="currentColor"></path><path d="M63.1998 135.965C62.0952 135.965 61.1998 136.86 61.1998 137.965C61.1998 139.069 62.0952 139.965 63.1998 139.965H136.138C137.243 139.965 138.138 139.069 138.138 137.965C138.138 136.86 137.243 135.965 136.138 135.965H63.1998Z" fill="currentColor"></path><path d="M69.9516 147.508C69.9516 146.403 70.847 145.508 71.9516 145.508H127.387C128.491 145.508 129.387 146.403 129.387 147.508C129.387 148.612 128.491 149.508 127.387 149.508H71.9516C70.847 149.508 69.9516 148.612 69.9516 147.508Z" fill="currentColor"></path><path d="M87.5846 153.444C86.48 153.444 85.5846 154.34 85.5846 155.444C85.5846 156.549 86.48 157.444 87.5846 157.444H111.754C112.858 157.444 113.754 156.549 113.754 155.444C113.754 154.34 112.858 153.444 111.754 153.444H87.5846Z" fill="currentColor"></path><path d="M81.7926 44.5838C82.8596 44.2982 83.9561 44.9317 84.2417 45.9987L88.15 60.6008C88.4355 61.6678 87.8021 62.7643 86.7351 63.0499C85.6681 63.3355 84.5716 62.702 84.286 61.635L80.3777 47.0329C80.0921 45.9659 80.7256 44.8694 81.7926 44.5838Z" fill="currentColor"></path><path d="M119.632 47.0329C119.918 45.9659 119.284 44.8694 118.217 44.5838C117.15 44.2982 116.054 44.9317 115.768 45.9987L111.86 60.6008C111.574 61.6678 112.208 62.7643 113.275 63.0499C114.342 63.3355 115.438 62.702 115.724 61.635L119.632 47.0329Z" fill="currentColor"></path><path d="M50.2781 62.7952C51.06 62.015 52.3263 62.0164 53.1065 62.7984L63.7764 73.4922C64.5565 74.2741 64.5551 75.5404 63.7732 76.3206C62.9912 77.1008 61.7249 77.0994 60.9447 76.3174L50.2749 65.6236C49.4947 64.8417 49.4962 63.5754 50.2781 62.7952Z" fill="currentColor"></path><path d="M149.735 65.6236C150.515 64.8417 150.513 63.5754 149.732 62.7952C148.95 62.015 147.683 62.0164 146.903 62.7984L136.233 73.4922C135.453 74.2741 135.455 75.5404 136.236 76.3206C137.018 77.1008 138.285 77.0994 139.065 76.3174L149.735 65.6236Z" fill="currentColor"></path><path d="M32.0636 94.3367C32.3491 93.2697 33.4456 92.6363 34.5126 92.9218L49.1148 96.8301C50.1818 97.1157 50.8152 98.2122 50.5297 99.2792C50.2441 100.346 49.1476 100.98 48.0806 100.694L33.4784 96.7858C32.4114 96.5002 31.778 95.4037 32.0636 94.3367Z" fill="currentColor"></path><path d="M166.531 96.7858C167.598 96.5002 168.232 95.4037 167.946 94.3367C167.66 93.2697 166.564 92.6363 165.497 92.9218L150.895 96.8301C149.828 97.1157 149.194 98.2122 149.48 99.2792C149.765 100.346 150.862 100.98 151.929 100.694L166.531 96.7858Z" fill="currentColor"></path></svg>