<svg width="200" height="200" viewBox="0 0 200 200" fill="none" xmlns="http://www.w3.org/2000/svg"><path fill-rule="evenodd" clip-rule="evenodd" d="M134.976 64.8979C127.76 64.8979 121.833 70.4299 121.206 77.4991C121.201 77.5579 121.198 77.6169 121.198 77.6758V121.251C121.198 128.893 127.388 135.053 135 135.053C142.615 135.053 148.802 128.866 148.802 121.251V77.6758C148.802 77.6166 148.799 77.5574 148.794 77.4984C148.166 70.447 142.184 64.8979 134.976 64.8979ZM125.198 121.25V77.7685C125.683 72.7833 129.881 68.8979 134.976 68.8979C140.077 68.8979 144.317 72.8143 144.802 77.7689V121.251C144.802 126.657 140.406 131.053 135 131.053C129.591 131.053 125.198 126.678 125.198 121.25Z" fill="currentColor"></path><path fill-rule="evenodd" clip-rule="evenodd" d="M111.758 77.2501C112.532 65.1093 122.596 55.4612 134.951 55.4612C147.224 55.4612 157.268 64.9848 158.13 77.024C158.201 77.2283 158.239 77.4476 158.239 77.6758V121.251C158.239 134.109 147.833 144.514 134.976 144.514C122.118 144.514 111.712 134.109 111.712 121.251V77.6758C111.712 77.5297 111.728 77.3873 111.758 77.2501ZM154.239 78.2132C154.199 78.0717 154.175 77.9238 154.168 77.7712C153.682 67.5897 145.265 59.4612 134.951 59.4612C124.642 59.4612 116.243 67.5868 115.734 77.7755C115.731 77.8475 115.723 77.9184 115.712 77.9882V121.251C115.712 131.899 124.327 140.514 134.976 140.514C145.624 140.514 154.239 131.899 154.239 121.251V78.2132Z" fill="currentColor"></path><path fill-rule="evenodd" clip-rule="evenodd" d="M134.976 46C117.394 46 103.073 59.8818 102.338 77.2884C102.313 77.4137 102.3 77.5433 102.3 77.6758V121.251C102.3 139.328 116.949 153.951 135 153.951C153.052 153.951 167.7 139.302 167.7 121.251V77.6758C167.7 77.4598 167.666 77.2517 167.602 77.0569C166.727 59.7623 152.483 46 134.976 46ZM163.628 77.7438C163.633 77.9061 163.658 78.0633 163.7 78.2133V121.251C163.7 137.093 150.843 149.951 135 149.951C119.156 149.951 106.3 137.117 106.3 121.251V77.9884C106.313 77.9074 106.321 77.8248 106.323 77.7409C106.825 62.3304 119.454 50 134.976 50C150.494 50 163.103 62.3284 163.628 77.7438Z" fill="currentColor"></path><path fill-rule="evenodd" clip-rule="evenodd" d="M32 78.7487C32 86.8538 34.9483 94.2732 39.8337 99.9885C34.9367 105.701 32 113.136 32 121.226C32 139.278 46.6482 153.926 64.6999 153.926C82.7517 153.926 97.3999 139.278 97.3999 121.226C97.3999 113.121 94.4516 105.702 89.5662 99.9866C94.4632 94.2737 97.3999 86.8392 97.3999 78.7487C97.3999 60.6969 82.7517 46.0487 64.6999 46.0487C46.6482 46.0487 32 60.6969 32 78.7487ZM64.6999 50.0487C48.8574 50.0487 36 62.9061 36 78.7487C36 94.5923 48.834 107.449 64.6999 107.449C72.3226 107.449 78.502 113.628 78.502 121.251C78.502 128.873 72.3227 135.053 64.7 135.053C57.0773 135.053 50.8979 128.873 50.8979 121.251C50.8979 116.816 52.9895 112.87 56.24 110.345C54.2469 109.813 52.3291 109.097 50.5056 108.218C47.3525 111.648 45.4368 116.228 45.4368 121.251C45.4368 131.899 54.0513 140.514 64.7 140.514C75.3487 140.514 83.9631 131.899 83.9631 121.251C83.9631 110.602 75.3487 101.988 64.7 101.988C51.8421 101.988 41.4368 91.5822 41.4368 78.7244C41.4368 65.8665 51.8421 55.4612 64.7 55.4612C77.5578 55.4612 87.9631 65.8665 87.9631 78.7244C87.9631 84.4488 85.8971 89.7051 82.4592 93.7618C83.9899 94.7536 85.4323 95.8698 86.7722 97.0961C90.9207 92.1256 93.3999 85.7198 93.3999 78.7487C93.3999 62.9061 80.5425 50.0487 64.6999 50.0487ZM83.9631 78.7244C83.9631 83.7469 82.0475 88.327 78.8943 91.7574C77.0709 90.8777 75.1531 90.1623 73.16 89.6304C76.4105 87.1053 78.502 83.1591 78.502 78.7243C78.502 71.1017 72.3227 64.9223 64.7 64.9223C57.0773 64.9223 50.8979 71.1017 50.8979 78.7243C50.8979 86.347 57.0773 92.5264 64.6999 92.5264C80.5659 92.5264 93.3999 105.383 93.3999 121.226C93.3999 137.069 80.5425 149.926 64.6999 149.926C48.8574 149.926 36 137.069 36 121.226C36 114.255 38.4792 107.849 42.6277 102.879C43.9676 104.105 45.41 105.221 46.9408 106.213C43.5028 110.27 41.4368 115.526 41.4368 121.251C41.4368 134.109 51.8421 144.514 64.7 144.514C77.5578 144.514 87.9631 134.109 87.9631 121.251C87.9631 108.393 77.5578 97.9875 64.7 97.9875C54.0513 97.9876 45.4368 89.3731 45.4368 78.7244C45.4368 68.0757 54.0513 59.4612 64.7 59.4612C75.3487 59.4612 83.9631 68.0757 83.9631 78.7244ZM64.7 111.449C59.2865 111.449 54.8979 115.837 54.8979 121.251C54.8979 126.664 59.2865 131.053 64.7 131.053C70.1135 131.053 74.502 126.664 74.502 121.251C74.502 115.837 70.1135 111.449 64.7 111.449ZM54.8979 78.7243C54.8979 73.3108 59.2865 68.9223 64.7 68.9223C70.1135 68.9223 74.502 73.3108 74.502 78.7243C74.502 84.1379 70.1135 88.5264 64.7 88.5264C59.2865 88.5264 54.8979 84.1379 54.8979 78.7243Z" fill="currentColor"></path></svg>