<svg width="200" height="200" viewBox="0 0 200 200" fill="none" xmlns="http://www.w3.org/2000/svg"><path d="M84.7563 37C85.8609 37 86.7563 37.8954 86.7563 39V161C86.7563 162.104 85.8609 163 84.7563 163C83.6518 163 82.7563 162.104 82.7563 161V39C82.7563 37.8954 83.6518 37 84.7563 37Z" fill="currentColor"></path><path d="M115.244 94.1826C116.348 94.1826 117.244 95.078 117.244 96.1826V103.817C117.244 104.922 116.348 105.817 115.244 105.817C114.139 105.817 113.244 104.922 113.244 103.817V96.1826C113.244 95.078 114.139 94.1826 115.244 94.1826Z" fill="currentColor"></path><path d="M132.487 80.9385C132.487 79.8339 131.592 78.9385 130.487 78.9385C129.382 78.9385 128.487 79.8339 128.487 80.9385V119.06C128.487 120.165 129.382 121.06 130.487 121.06C131.592 121.06 132.487 120.165 132.487 119.06V80.9385Z" fill="currentColor"></path><path d="M39 91.2158C40.1046 91.2158 41 92.1113 41 93.2158V106.783C41 107.887 40.1046 108.783 39 108.783C37.8954 108.783 37 107.887 37 106.783V93.2158C37 92.1113 37.8954 91.2158 39 91.2158Z" fill="currentColor"></path><path d="M102 65.6953C102 64.5907 101.105 63.6953 100 63.6953C98.8954 63.6953 98 64.5907 98 65.6953V134.304C98 135.409 98.8954 136.304 100 136.304C101.105 136.304 102 135.409 102 134.304V65.6953Z" fill="currentColor"></path><path d="M54.2437 71.3047C55.3482 71.3047 56.2437 72.2001 56.2437 73.3047V126.696C56.2437 127.8 55.3482 128.696 54.2437 128.696C53.1391 128.696 52.2437 127.8 52.2437 126.696V73.3047C52.2437 72.2001 53.1391 71.3047 54.2437 71.3047Z" fill="currentColor"></path><path d="M71.4871 84.7559C71.4871 83.6513 70.5916 82.7559 69.4871 82.7559C68.3825 82.7559 67.4871 83.6513 67.4871 84.7559V115.243C67.4871 116.347 68.3825 117.243 69.4871 117.243C70.5916 117.243 71.4871 116.347 71.4871 115.243V84.7559Z" fill="currentColor"></path><path d="M145.756 49.458C146.861 49.458 147.756 50.3534 147.756 51.458V148.542C147.756 149.647 146.861 150.542 145.756 150.542C144.652 150.542 143.756 149.647 143.756 148.542V51.458C143.756 50.3534 144.652 49.458 145.756 49.458Z" fill="currentColor"></path><path d="M163 89.8633C163 88.7587 162.105 87.8633 161 87.8633C159.895 87.8633 159 88.7587 159 89.8633V110.136C159 111.241 159.895 112.136 161 112.136C162.105 112.136 163 111.241 163 110.136V89.8633Z" fill="currentColor"></path></svg>