<svg width="200" height="200" viewBox="0 0 200 200" fill="none" xmlns="http://www.w3.org/2000/svg"><path d="M100 38C107.173 38 114.061 39.2179 120.469 41.4583C120.615 41.4921 120.757 41.5428 120.892 41.6088C144.855 50.1828 162 73.0892 162 100C162 134.242 134.242 162 100 162C98.5994 162 97.2097 161.954 95.8323 161.862C95.6022 161.885 95.3707 161.868 95.1483 161.813C71.2654 159.964 51.1767 144.584 42.5387 123.329C42.496 123.242 42.4599 123.152 42.4304 123.06C39.5724 115.932 38 108.15 38 100C38 72.1571 56.3533 48.6008 81.6218 40.7692C81.8082 40.6798 82.0075 40.6188 82.2123 40.5895C87.8469 38.9048 93.8178 38 100 38ZM106.791 149.493L106.208 149.902C102.747 152.381 100.15 152.732 96.8964 151.989L96.4347 151.878L95.9818 151.762C95.5791 151.663 95.7125 151.753 95.5174 152.172C95.4382 152.342 95.3355 152.5 95.2123 152.642C94.9863 152.901 94.964 153.651 95.3451 154.849C95.6448 155.791 96.1513 156.856 96.7698 157.91C97.8401 157.97 98.9166 158 100 158C107.267 158 114.223 156.663 120.633 154.222L119.817 152.737C119.557 152.269 119.327 151.869 119.1 151.497L118.93 151.222C115.947 146.473 112.774 145.4 106.791 149.493ZM90.4577 42.7827L89.6759 42.9161C87.6977 43.2715 85.7544 43.7272 83.8513 44.2778L83.62 44.7042C82.375 46.9534 80.9287 49.1466 78.5831 52.471L76.9158 54.8267L75.9677 56.1823C72.9579 60.5196 71.4139 63.12 70.1068 66.2319L69.9876 66.5187C67.4664 72.6704 67.8207 74.6922 70.4076 76.8151L70.767 77.1003L71.3274 77.5309C74.3584 79.8716 75.3751 82.0758 74.0897 86.089C72.4497 91.2358 66.6067 94.4087 57.8625 96.2747C52.7574 97.3642 46.9738 97.9139 42.0316 98.027C42.011 98.6816 42 99.3395 42 100C42 106.091 42.939 111.963 44.6802 117.479C45.1047 116.863 45.5394 116.349 45.9929 115.922C47.9591 114.074 49.2356 113.907 52.7693 114.59L53.7512 114.788C58.0986 115.695 61.263 115.398 66.2526 112.628L66.6612 112.397C72.25 109.197 77.9381 115.07 80.7028 124.698C83.3529 133.926 82.9351 144.754 78.9623 154.066C83.1001 155.678 87.4712 156.829 92.0099 157.454C90.7913 154.7 90.5504 152.247 91.9143 150.368L92.002 150.252L92.1001 150.059C93.2913 147.773 94.6621 147.447 97.2934 147.983L97.7868 148.09C99.9181 148.576 101.327 148.414 103.61 146.839L103.877 146.651C112.273 140.625 118.097 142.376 122.317 149.094C122.579 149.512 122.832 149.939 123.106 150.423L124.115 152.257C124.197 152.404 124.273 152.539 124.344 152.66C144.215 143.458 158 123.339 158 100C158 98.4969 157.943 97.0071 157.831 95.5328C156.775 97.4789 155.497 99.2193 154.085 100.543C149.961 104.412 145.04 104.491 141.022 99.904C140.151 98.9092 139.714 97.9302 139.079 95.8794L138.654 94.4823L138.491 93.9732C137.667 91.4767 137.098 91.0225 135.565 91.3291C133.954 91.6528 133.481 92.1003 133.385 93.1407L133.366 93.4294L133.353 93.7744L133.356 94.043C133.378 94.6125 133.507 95.2922 133.908 96.9646L134.695 100.157C135.43 103.111 135.846 105.287 136.04 107.641C136.569 114.081 135.996 121.46 134.234 126.746C131.801 134.046 127.069 137.501 120.492 134.909C116.778 133.433 115.073 129.742 114.229 123.957L114.121 123.176L114.021 122.353C114.004 122.211 113.988 122.066 113.972 121.919L113.638 118.58L113.554 117.81C113.455 116.953 113.363 116.385 113.253 115.937L113.138 115.495L113.011 115.056C112.31 112.761 111.459 112.344 108.607 112.092L107.641 112.008C105.344 111.792 104.118 111.516 102.533 110.713C91.4015 105.075 84.6449 92.0429 87.2828 79.4798C87.6991 77.508 88.8746 74.3173 90.1925 71.8671C92.2142 68.1083 94.468 65.9196 97.3094 66.3891C99.5102 66.7559 100.737 68.3599 101.136 70.6625C101.347 71.8771 101.357 73.0304 101.223 75.109L101.091 76.9854L101.054 77.599C100.9 80.3477 101.037 81.5062 101.327 81.6847C102.123 82.168 102.942 81.8427 104.269 80.2112C105.57 78.6105 106.877 76.2223 108.557 72.556L111.193 66.6928L111.709 65.5778L111.819 65.3475C113.026 62.8614 113.951 61.4007 115.055 60.6015C116.821 59.3356 118.04 58.891 120.351 58.4573L121.467 58.2564L121.711 58.2058C122.934 57.9282 123.007 57.4827 123.087 54.6866C123.114 53.7191 122.662 52.3066 121.748 50.4904C121.475 49.9457 121.167 49.3773 120.802 48.7351L120.312 47.89L118.992 45.6634L118.752 45.2513C118.715 45.1864 118.678 45.1232 118.643 45.0615C116.687 44.3977 114.683 43.8352 112.637 43.3807L112.675 43.1248C112.561 43.9809 112.339 44.8333 111.978 45.6491C111.27 47.2496 110.103 48.528 108.429 49.2772C103.494 51.4868 92.5327 51.8003 90.5478 48.2717C89.9661 47.2376 89.7944 46.0705 89.9431 44.8386C90.0258 44.154 90.2036 43.4678 90.4577 42.7827ZM68.6465 115.87C62.6394 119.299 58.4908 119.8 53.3061 118.779L51.8755 118.489C49.8117 118.089 49.4314 118.18 48.7329 118.837C48.065 119.465 47.3324 120.626 46.5107 122.462C52.0647 135.673 62.3696 146.394 75.2866 152.486C78.8798 144.056 79.2624 134.174 76.8582 125.802C74.71 118.321 71.0198 114.511 68.6465 115.87ZM124.698 47.5064L124.762 47.6253C124.962 47.993 125.147 48.3455 125.322 48.6935C126.508 51.0527 127.136 53.011 127.085 54.7999C126.943 59.8055 125.546 61.5511 121.974 62.2293L121.142 62.3786C119.445 62.6943 118.659 62.9696 117.577 63.7176L117.259 63.939L117.158 64.0056L117.068 64.07L116.961 64.1677L116.867 64.2776C116.626 64.59 116.284 65.2597 115.436 67.0973L112.403 73.7626C110.488 77.9832 109.008 80.7232 107.372 82.7347C104.936 85.7311 102.123 86.8481 99.2417 85.0979C97.8326 84.2317 97.2084 82.7512 97.0322 80.7723L97.0052 80.4271L96.9854 80.0618C96.9498 79.2041 96.9884 78.2797 97.0988 76.7152L97.1603 75.8715C97.4646 71.7575 97.2347 70.4318 96.6546 70.3351C96.1769 70.2562 94.9709 71.4274 93.7152 73.7619C92.5765 75.8789 91.5335 78.7102 91.197 80.3039C88.9424 91.0417 94.7808 102.303 104.341 107.145C105.425 107.694 106.323 107.879 108.376 108.058L108.693 108.085C113.614 108.49 115.853 109.863 117.135 114.972C117.345 115.827 117.478 116.782 117.645 118.444L117.902 121.05L117.994 121.886L118.088 122.656C118.12 122.903 118.153 123.144 118.187 123.38C118.84 127.857 120.024 130.419 121.964 131.19C126.011 132.784 128.646 130.86 130.439 125.481C132.009 120.771 132.541 113.912 132.054 107.969C131.892 106.014 131.55 104.151 130.946 101.665L130.101 98.2415L129.789 96.9323C129.456 95.4934 129.351 94.8216 129.341 94.1602L129.341 93.8873C129.346 93.6323 129.362 93.3639 129.381 93.0409C129.562 90.0278 131.369 88.0921 134.779 87.4071C137.233 86.9163 139.21 87.585 140.58 89.2671C141.399 90.2718 141.846 91.2799 142.442 93.1909L142.877 94.6213L143.037 95.1255C143.42 96.3031 143.689 96.878 144.031 97.2689C146.475 100.059 148.795 100.021 151.349 97.626C153.815 95.3126 155.898 91.1097 156.583 87.2056C152.62 69.5993 140.65 55.0246 124.698 47.5064ZM93.3792 119.522C93.6171 116.002 96.9705 113.557 100.411 114.192L100.626 114.235L100.926 114.302C105.339 115.303 108.227 116.987 108.355 120.171L108.36 120.396L108.36 120.6L108.383 122.694L108.38 123.342C108.352 125.403 108.151 126.486 107.497 127.585C106.121 129.9 103.557 130.001 100.349 128.298L99.691 127.945C94.6851 125.219 93.1139 123.387 93.3792 119.522ZM99.6138 118.114C98.4953 117.949 97.4413 118.738 97.3699 119.794L97.3565 120.086C97.3248 121.647 98.0201 122.454 101.096 124.156L101.382 124.313L102.223 124.764C102.959 125.155 103.521 125.365 103.893 125.436L104 125.452L104.1 125.461L104.123 125.413C104.302 124.988 104.381 124.158 104.382 122.621L104.378 122.049L104.36 120.396C104.36 119.758 102.783 118.836 100.066 118.209L99.7704 118.143L99.6138 118.114ZM77.9365 46.3457L77.4238 46.5579C58.3547 54.6235 44.4968 72.5972 42.304 94.0252C55.6765 93.7327 68.4114 90.7342 70.2794 84.8718L70.406 84.4563C70.9159 82.6758 70.6098 82.0566 69.0599 80.835L68.2583 80.2168C63.9562 76.8797 62.9994 73.0221 66.2874 64.9994L66.5503 64.3731C68.0543 60.863 69.8283 57.9656 73.3149 52.9938L75.5993 49.761L76.463 48.523C77.0082 47.7349 77.4946 47.0171 77.9365 46.3457ZM100 42C98.3926 42 96.8004 42.0654 95.2261 42.1937L95.1839 42.2602C94.995 42.5535 94.8048 42.8799 94.6286 43.2256C94.2434 43.9814 93.9879 44.7088 93.9143 45.3182C93.8606 45.7627 93.9083 46.087 94.0342 46.3107C94.6086 47.3319 103.557 47.0759 106.795 45.6263C107.504 45.3088 107.991 44.7762 108.32 44.0309C108.522 43.5739 108.645 43.0914 108.709 42.6497C105.868 42.2217 102.96 42 100 42Z" fill="currentColor"></path></svg>