<svg width="200" height="200" viewBox="0 0 200 200" fill="none" xmlns="http://www.w3.org/2000/svg"><path d="M118.665 102.784C120.423 105.445 121.845 108.086 122.909 110.665L122.721 110.874C123.399 110.105 124.123 109.334 124.846 108.595L125.545 107.89C125.674 107.763 125.767 107.672 125.875 107.569C128.892 104.865 131.966 103.457 134.876 103.708C134.995 103.701 135.117 103.705 135.24 103.721C135.368 103.737 135.491 103.766 135.609 103.805C143.604 105.255 149.84 120 150.112 135.154C150.425 152.663 142.707 164.268 127.663 162.317C117.097 160.947 111.509 153.929 111.111 143.545C111.06 142.023 111.124 140.468 111.272 138.935C98.2985 143.479 88.2519 134.858 83.6561 118.987C79.4188 104.354 81.2139 88.2211 88.6698 84.4708L88.8677 84.3746L88.8975 84.3605L88.912 84.3542L88.9229 84.3492L89.1255 84.2597C96.8129 80.9958 110.263 90.0731 118.665 102.784ZM136.643 108.458L130.168 158.512C140.892 158.838 146.372 149.751 146.112 135.226C145.897 123.215 141.455 111.521 136.643 108.458ZM132.677 107.946C131.433 108.347 130.046 109.202 128.601 110.496L128.361 110.731C128.164 110.927 127.943 111.149 127.705 111.392C127.027 112.086 126.348 112.809 125.719 113.522C125.411 113.87 125.123 114.207 124.857 114.531C124.695 114.729 124.542 114.92 124.399 115.104C126.739 124.228 124.126 132.205 115.548 137.005C115.501 137.292 115.456 137.602 115.412 137.929C115.172 139.747 115.049 141.624 115.108 143.402C115.409 151.241 119.011 156.367 126.2 158.001L132.677 107.946ZM71.8315 120.666C80.5977 133.306 84.2493 149.04 78.3596 154.517C72.6363 159.825 57.9526 155.47 46.1587 146.374L45.7911 146.088L45.0692 145.513C32.0074 134.948 27.6847 122.334 36.9519 112.453C37.0239 112.346 37.1084 112.246 37.2042 112.152C37.2681 112.09 37.3351 112.033 37.4047 111.981C37.6497 111.736 37.9029 111.491 38.165 111.248C48.9853 101.203 61.8643 106.294 71.8315 120.666ZM38.7158 116.577C33.0385 124.191 36.782 133.665 47.5848 142.403C56.8137 149.869 68.367 154.044 73.7262 152.582L38.7158 116.577ZM41.4637 113.664L76.7119 149.913C78.6874 144.764 75.3757 132.795 68.5446 122.945C59.968 110.579 49.9204 106.406 41.4637 113.664ZM88.9506 89.2449C85.1063 93.5763 84.1592 105.96 87.3779 117.452L87.4983 117.875C91.5467 131.855 99.6314 138.822 110.134 135.09L88.9506 89.2449ZM92.5795 87.5616L113.767 133.411C120.459 129.54 122.483 123.22 120.422 115.662C120.296 115.423 120.221 115.162 120.199 114.895C119.244 111.767 117.606 108.437 115.328 104.99L114.826 104.246C108.157 94.5373 98.2925 87.4285 92.5795 87.5616ZM168.019 74.7721C167.435 89.6788 154.712 95.2266 137.506 92.0394C122.381 89.2375 108.695 80.5642 109.011 72.461C109.328 64.3579 123.65 56.7816 138.95 55.1713C156.353 53.3396 168.603 59.8656 168.019 74.7721ZM88.6558 40.5138C100.834 48.5465 98.8661 62.2169 87.2874 75.3222C77.0994 86.8535 62.7666 94.1888 56.1252 89.809L56.1431 89.8213C56.1369 89.8173 56.1307 89.8132 56.1245 89.8091L56.102 89.7922L55.9263 89.6722C49.5723 85.1358 50.6338 69.5363 56.9873 55.8787L57.1855 55.4569C64.681 39.6641 76.4778 32.4815 88.6558 40.5138ZM113.446 74.6365C115.719 79.7437 126.478 85.9284 138.235 88.1063C152.493 90.7475 162.355 86.9628 163.843 76.6108L113.446 74.6365ZM88.0633 45.0432L60.301 87.1117C65.7374 87.657 76.4163 81.5854 84.2898 72.6738C93.8714 61.8288 95.8393 51.5056 88.0633 45.0432ZM61.3963 55.9514L61.1985 56.3476L60.7992 57.172C55.7011 67.9135 54.3196 80.1182 56.9628 84.9074L84.7247 42.8412C76.0066 38.3822 67.5546 43.7421 61.3963 55.9514ZM139.369 59.1493C127.476 60.401 116.266 65.7256 113.602 70.6391L164 72.6132C163.327 62.1761 153.79 57.6314 139.369 59.1493Z" fill="currentColor"></path></svg>