<svg width="200" height="200" viewBox="0 0 200 200" fill="none" xmlns="http://www.w3.org/2000/svg"><path d="M58.5934 69.4717C58.0515 68.8306 57.1669 68.5961 56.3785 68.8846C55.5902 69.1732 55.0659 69.9233 55.0659 70.7628V128.692C55.0659 129.797 55.9613 130.692 57.0659 130.692C58.1705 130.692 59.0659 129.797 59.0659 128.692V76.2273L68.2855 87.1353C68.335 87.1963 68.3885 87.2548 68.4461 87.3106C68.5983 87.4589 68.7694 87.5785 68.9521 87.6689C69.2324 87.808 69.5367 87.8764 69.8399 87.8762C70.1431 87.8764 70.4474 87.808 70.7277 87.6689C70.9105 87.5785 71.0817 87.4588 71.234 87.3104C71.2914 87.2547 71.3449 87.1962 71.3943 87.1354L80.6139 76.2273V128.692C80.6139 129.797 81.5094 130.692 82.6139 130.692C83.7185 130.692 84.6139 129.797 84.6139 128.692V70.7628C84.6139 69.9233 84.0897 69.1732 83.3013 68.8846C82.513 68.5961 81.6284 68.8306 81.0865 69.4717L69.8399 82.7779L58.5934 69.4717Z" fill="currentColor"></path><path fill-rule="evenodd" clip-rule="evenodd" d="M95.1423 70.7627C95.1423 69.6581 96.0378 68.7627 97.1423 68.7627H142.913C144.018 68.7627 144.913 69.6581 144.913 70.7627V87.1689C144.913 88.2735 144.018 89.1689 142.913 89.1689H122.043V128.693C122.043 129.797 121.148 130.693 120.043 130.693C118.939 130.693 118.043 129.797 118.043 128.693V89.1689H97.1423C96.0378 89.1689 95.1423 88.2735 95.1423 87.1689V70.7627ZM122.043 85.1689H140.913V72.7627H122.043V85.1689ZM118.043 72.7627V85.1689H99.1423V72.7627H118.043Z" fill="currentColor"></path><path fill-rule="evenodd" clip-rule="evenodd" d="M34.9043 54.6348H165.106V144.821H34.9043V54.6348ZM38.9043 58.6348V140.821H161.106V58.6348H38.9043Z" fill="currentColor"></path><path fill-rule="evenodd" clip-rule="evenodd" d="M174.34 45.4004H25.6699V154.055H174.34V45.4004ZM29.6699 150.055V49.4004H170.34V150.055H29.6699Z" fill="currentColor"></path></svg>