<svg width="200" height="200" viewBox="0 0 200 200" fill="none" xmlns="http://www.w3.org/2000/svg"><path d="M148.423 48.1331L148.807 48.5543L148.85 48.6055L149.202 48.92C153.848 53.2391 156.975 61.0123 156.589 69.4397C159.636 74.1156 162.085 79.0374 163.74 83.9883C163.779 84.1056 163.807 84.2239 163.824 84.3421C163.897 84.4621 163.959 84.5927 164.007 84.732C166.589 92.2197 164.81 98.1392 159.926 100.764C160.262 100.986 160.595 101.218 160.922 101.461C164.635 104.211 166.908 107.653 166.839 111.803L166.829 112.116L166.839 112.249C166.841 112.298 166.841 112.347 166.839 112.396L166.828 112.545C163.12 146.392 134.44 172.271 100.111 172.271C96.1794 172.271 92.6553 172.008 89.3587 171.424C85.6142 170.767 82.3269 169.121 79.5854 166.538C77.2089 167.752 74.4228 167.444 71.433 165.814C71.3036 165.782 71.175 165.736 71.0495 165.676C47.9831 154.614 33 131.283 33 105.25V105.248L33.0041 104.692C33.167 92.7439 38.5601 83.8943 47.4483 79.7381C47.373 79.6791 47.2974 79.6175 47.2217 79.555C43.2615 76.2826 41.6784 72.1847 44.4563 67.8161C44.5108 67.7307 44.5682 67.646 44.6285 67.562C44.6549 67.5184 44.682 67.4754 44.711 67.4331C51.19 57.9815 59.9992 50.3165 70.2542 45.2178C70.0727 43.5736 70.3382 41.862 71.09 40.1429C73.8677 33.7912 82.6569 29.1319 95.0022 27.8745C113.688 25.9493 135.632 34.2868 148.423 48.1331ZM87.666 88.6625L87.5899 88.7849C81.8664 98.0211 77.1124 111.358 75.3395 124.115C72.7754 142.646 75.2352 155.422 80.9398 162.155C81.1069 162.25 81.2609 162.373 81.3975 162.522C81.5415 162.679 81.6557 162.853 81.7405 163.037C84.068 165.439 86.8742 166.927 90.0534 167.484C93.1032 168.025 96.3988 168.271 100.111 168.271C129.489 168.271 154.468 148.117 161.353 120.508L161.465 120.044L161.226 120.177C156.055 122.99 148.004 123.576 140.083 121.298L139.693 121.183C134.643 119.67 129.059 116.296 116.083 107.275L107.763 101.452C97.8582 94.5396 92.4804 91.043 88.0477 88.8494L87.666 88.6625ZM60.2353 65.782L59.4094 65.8843C53.2861 66.6938 48.7965 68.4492 47.8304 69.9645C46.3749 72.2535 47.1766 74.3288 49.7697 76.4715C50.424 77.0123 51.1342 77.4977 51.8442 77.9155L52.1204 78.0727C55.8508 77.1149 60.0284 76.8478 64.563 77.3542C65.9192 77.5056 66.7288 78.9408 66.1569 80.1799C60.3268 92.8129 57.3465 116.271 59.7026 133.395C61.6882 147.964 66.9633 158.038 72.0407 161.492C73.9694 162.82 75.5012 163.377 76.7418 163.248C71.0756 155.245 68.8587 141.768 71.3774 123.565C73.3339 109.488 78.7544 94.7751 85.261 85.0101C85.7991 84.2026 86.839 83.8978 87.7278 84.2871L88.3895 84.5829C93.3344 86.8368 98.7711 90.3057 109.638 97.8835L117.356 103.286C130.56 112.488 136.245 115.975 140.841 117.352C151.738 120.618 162.401 117.578 162.819 112.174C163.037 109.337 161.46 106.837 158.541 104.675C157.529 103.925 156.435 103.279 155.34 102.742C155.053 102.601 154.783 102.476 154.533 102.367L154.186 102.221C153.193 102.263 152.143 102.223 151.039 102.094C146.277 101.533 141.006 99.4132 134.663 95.7617L133.695 95.2008C133.381 95.0176 133.075 94.8373 132.772 94.6573L131.591 93.9457C129.581 92.7172 127.5 91.355 124.169 89.0959L114.142 82.2412C112.148 80.8867 110.518 79.7996 108.908 78.7552L108.264 78.3391C99.9335 72.9738 93.4182 69.6693 87.4775 68.1036C77.8016 65.5495 68.2824 64.8532 60.2353 65.782ZM52.7073 82.051L52.6059 82.081C52.4992 82.1218 52.389 82.1535 52.2766 82.1757C42.8434 84.9636 37.1567 93.0503 37.0035 104.764L37 105.25C37 125.531 46.6695 144.067 62.3213 155.744C59.351 150.232 56.9494 142.814 55.7396 133.937C53.4757 117.484 55.9134 95.6135 61.1354 81.8319L61.408 81.1255L61.2124 81.1186C58.13 81.0199 55.2832 81.3417 52.7073 82.051ZM129.484 48.7865L129.405 48.8043C127.855 49.1693 126.275 49.6623 124.683 50.2772L124.081 50.5175L119.912 52.2316L117.508 53.2017C116.96 53.4198 116.473 53.6103 116.098 53.7525C103.597 58.4835 92.655 59.8689 81.6395 56.2301C76.7959 54.63 73.3246 52.0716 71.5494 49.0444C64.6949 52.5257 58.5391 57.2341 53.3872 62.9002C62.0991 60.7052 75.5055 60.8064 88.4976 64.2359C94.9332 65.932 101.776 69.4024 110.43 74.9762L111.739 75.8254C113.493 76.9719 115.318 78.1981 117.634 79.7801L126.252 85.6753C129.317 87.7549 131.311 89.0683 133.147 90.2057L134.195 90.8469L134.93 91.2863L135.302 91.5062C135.739 91.7634 136.187 92.0237 136.658 92.295C142.574 95.7 147.388 97.6361 151.505 98.1211C159.601 99.0659 163.096 94.3577 160.225 86.0362C160.183 85.914 160.154 85.7906 160.136 85.6672C160.06 85.5409 159.996 85.4034 159.946 85.2563C155.151 70.9113 143.106 56.6658 129.484 48.7865ZM135.788 48.0417L136.05 48.2229C142.021 52.3608 147.56 57.5843 152.215 63.3996C151.357 58.5501 149.21 54.3888 146.485 51.8559C143.705 49.2955 139.987 48.0768 135.788 48.0417ZM95.4099 31.8537C73.2362 34.1121 67.4551 47.3318 82.8941 52.4319C92.6883 55.6673 102.598 54.4926 114.055 50.2461L115.042 49.8736C115.365 49.7485 115.743 49.5991 116.156 49.4344L118.035 48.6768L122.77 46.7312C127.904 44.6799 133.03 43.727 137.687 44.1074L137.903 44.1265L137.445 43.7934C125.467 35.1857 109.387 30.4136 95.4099 31.8537Z" fill="currentColor"></path></svg>