<svg width="200" height="200" viewBox="0 0 200 200" fill="none" xmlns="http://www.w3.org/2000/svg"><path fill-rule="evenodd" clip-rule="evenodd" d="M99.745 53.4864C83.612 38.7741 58.63 39.225 43.0394 54.8391C26.9869 70.916 26.9869 96.9626 43.0394 113.039L98.3297 168.413C98.7049 168.789 99.2141 169 99.745 169C100.276 169 100.785 168.789 101.16 168.413L156.451 113.039C172.503 96.9626 172.503 70.916 156.451 54.8391C140.86 39.225 115.878 38.7741 99.745 53.4864ZM98.3297 57.6654C83.8381 43.1519 60.3616 43.1519 45.87 57.6654C31.3767 72.1807 31.3767 95.6979 45.87 110.213L99.745 164.17L153.62 110.213C168.113 95.6979 168.113 72.1807 153.62 57.6654C139.128 43.1519 115.652 43.1519 101.16 57.6654C100.785 58.0412 100.276 58.2523 99.745 58.2523C99.2141 58.2523 98.7049 58.0412 98.3297 57.6654Z" fill="currentColor"></path></svg>