<svg width="200" height="200" viewBox="0 0 200 200" fill="none" xmlns="http://www.w3.org/2000/svg"><path d="M99.975 37.2998C134.589 37.2998 162.65 65.3604 162.65 99.9748C162.65 134.589 134.589 162.65 99.975 162.65C65.3606 162.65 37.3 134.589 37.3 99.9748C37.3 65.3604 65.3606 37.2998 99.975 37.2998ZM99.975 41.2998C67.5698 41.2998 41.3 67.5695 41.3 99.9748C41.3 132.38 67.5697 158.65 99.975 158.65C132.38 158.65 158.65 132.38 158.65 99.9748C158.65 67.5695 132.38 41.2998 99.975 41.2998ZM111.815 60.7549C125.658 60.7549 136.917 72.0143 136.917 85.857C136.917 99.5719 125.903 110.734 112.23 110.956L111.815 110.96L100.21 110.959V114.82L107.751 114.821V136.34L100.21 136.339L100.21 143.302H78.0816L78.081 136.339L71.1189 136.34V114.821L78.081 114.82L78.0816 63.14C78.0816 63.0898 78.0834 63.04 78.087 62.9907L78.0998 62.8685L78.1109 62.7964L78.1298 62.7015L78.1594 62.5857L78.2037 62.4501L78.2674 62.2969L78.3198 62.1926L78.4038 62.051L78.4841 61.9364L78.5563 61.8463L78.6673 61.7258L78.7694 61.6306L78.8779 61.5426L78.9925 61.4622L79.0916 61.4017L79.2384 61.3259L79.3689 61.2707L79.5039 61.2247L79.6431 61.1882L79.786 61.1617L79.9323 61.1455L80.0573 61.1402L111.815 60.7549ZM111.839 64.7548L82.081 65.1158L82.0816 118.821L75.118 118.82V132.339L82.0816 132.34L82.081 139.301H96.21L96.2102 132.34L103.75 132.339V118.82L96.2102 118.821V106.96H111.815C123.469 106.96 132.917 97.5022 132.917 85.857C132.917 74.3398 123.637 64.9445 112.187 64.7576L111.839 64.7548Z" fill="currentColor"></path></svg>