<svg width="200" height="200" viewBox="0 0 200 200" fill="none" xmlns="http://www.w3.org/2000/svg"><path d="M100 35.1499C100.798 35.1499 101.519 35.6241 101.836 36.3565L120.181 78.8064L166.188 83.1384C166.982 83.2132 167.656 83.7527 167.902 84.5114C168.149 85.27 167.921 86.1026 167.322 86.63L132.641 117.197L142.733 162.309C142.907 163.088 142.602 163.895 141.957 164.364C141.311 164.833 140.449 164.873 139.762 164.467L100 140.919L60.2377 164.467C59.5513 164.873 58.6889 164.833 58.0434 164.364C57.3978 163.895 57.0927 163.088 57.2668 162.309L67.359 117.197L32.6777 86.63C32.0793 86.1026 31.8515 85.2702 32.0979 84.5116C32.3444 83.7531 33.0179 83.2135 33.812 83.1385L69.2817 79.7876C70.3814 79.6837 71.3571 80.4909 71.4609 81.5906C71.5648 82.6903 70.7576 83.666 69.6579 83.7698L38.7907 86.6859L70.8915 114.979C71.439 115.461 71.6802 116.203 71.5208 116.916L62.1804 158.668L98.981 136.874C99.6094 136.502 100.391 136.502 101.019 136.874L137.82 158.668L128.479 116.916C128.32 116.203 128.561 115.461 129.109 114.979L161.208 86.6872L118.627 82.6778C117.9 82.6093 117.268 82.1502 116.979 81.48L100 42.1914L92.9003 58.6195C92.4621 59.6335 91.2849 60.1002 90.271 59.662C89.257 59.2238 88.7903 58.0466 89.2285 57.0327L98.1642 36.3565C98.4807 35.6241 99.2022 35.1499 100 35.1499Z" fill="currentColor"></path><path fill-rule="evenodd" clip-rule="evenodd" d="M83.891 47.9575C84.9956 47.9575 85.891 48.853 85.891 49.9575C85.891 56.6362 86.0294 62.3514 87.6155 66.4125C88.3811 68.3724 89.4452 69.8304 90.9139 70.8192C92.3882 71.8118 94.4555 72.4562 97.4435 72.4562V76.4562C94.4546 76.4562 92.387 77.0994 90.9127 78.0905C89.4444 79.0775 88.3806 80.5331 87.6154 82.4911C86.0294 86.5487 85.891 92.2633 85.891 98.9549C85.891 100.059 84.9956 100.955 83.891 100.955C82.7864 100.955 81.891 100.059 81.891 98.9549C81.891 92.278 81.7465 86.5626 80.1549 82.5022C79.3867 80.5421 78.3197 79.0833 76.8481 78.0938C75.371 77.1006 73.3016 76.4562 70.3137 76.4562C69.2092 76.4562 68.3137 75.5608 68.3137 74.4562C68.3137 73.3516 69.2092 72.4562 70.3137 72.4562C73.3094 72.4562 75.3823 71.8127 76.8602 70.821C78.332 69.8335 79.3975 68.3776 80.164 66.4202C81.7525 62.3632 81.891 56.6493 81.891 49.9575C81.891 48.853 82.7864 47.9575 83.891 47.9575ZM83.8913 67.8719L83.8886 67.8786C82.902 70.3983 81.3939 72.5959 79.089 74.1425C78.925 74.2525 78.7579 74.3586 78.5878 74.4608C78.7549 74.5616 78.919 74.6661 79.0801 74.7745C81.383 76.323 82.8912 78.5222 83.8791 81.0424L83.883 81.0525L83.8898 81.0349C84.8745 78.5157 86.3798 76.3179 88.6812 74.7708C88.8437 74.6616 89.0093 74.5562 89.1779 74.4547C89.0089 74.3528 88.8429 74.247 88.68 74.1373C86.3802 72.5889 84.8757 70.3904 83.8913 67.8719Z" fill="currentColor"></path><path d="M101.836 59.7388C101.398 58.7247 100.221 58.2577 99.207 58.6957C98.193 59.1336 97.726 60.3107 98.1639 61.3248L110.599 90.1175C111.037 91.1316 112.214 91.5986 113.229 91.1606C114.243 90.7227 114.71 89.5456 114.272 88.5315L101.836 59.7388Z" fill="currentColor"></path><path d="M144.959 93.7784C145.787 93.0479 145.867 91.7841 145.136 90.9556C144.406 90.1271 143.142 90.0476 142.313 90.7781L118.807 111.504C118.26 111.987 118.019 112.729 118.178 113.441L124.018 139.531L101.044 125.928C100.416 125.556 99.6348 125.556 99.0066 125.927L72.0258 141.887C71.0751 142.45 70.7603 143.676 71.3226 144.627C71.885 145.578 73.1116 145.893 74.0623 145.33L100.024 129.973L125.962 145.33C126.648 145.736 127.511 145.696 128.156 145.227C128.802 144.758 129.107 143.951 128.933 143.172L122.34 113.722L144.959 93.7784Z" fill="currentColor"></path></svg>