<svg width="200" height="200" viewBox="0 0 200 200" fill="none" xmlns="http://www.w3.org/2000/svg"><path d="M127.456 131.222C128.532 131.47 129.203 132.544 128.955 133.62C126.973 142.204 124.55 150.364 121.45 158.007C121.336 158.288 121.16 158.539 120.935 158.742L116.679 162.591L116.393 162.852L116.33 162.962C112.313 169.797 106.581 173.581 100.388 173.748C100.265 173.771 100.142 173.782 100.017 173.781C93.7038 173.75 87.8251 169.942 83.7248 162.991L83.655 162.872L83.2334 162.481C82.3726 161.686 81.4765 160.871 80.5483 160.04L79.1321 158.781C78.9002 158.577 78.7189 158.321 78.6026 158.034C75.5029 150.389 73.0785 142.227 71.0986 133.647C70.8502 132.571 71.5214 131.497 72.5977 131.249C73.674 131 74.7478 131.671 74.9962 132.748C76.8247 140.671 79.0378 148.221 81.8137 155.289L82.137 156.1L82.5048 156.425C83.7033 157.491 84.8533 158.532 85.9487 159.544L86.5993 160.147C86.7468 160.285 86.8727 160.444 86.9727 160.619C90.3385 166.515 94.9313 169.625 99.7299 169.776C99.8236 169.761 99.9196 169.754 100.017 169.753C104.941 169.729 109.649 166.626 113.078 160.595C113.182 160.413 113.313 160.249 113.467 160.108L116.21 157.615L117.912 156.081L118.239 155.262C120.852 148.611 122.965 141.534 124.73 134.116L125.057 132.72C125.306 131.644 126.38 130.973 127.456 131.222ZM100.027 37.6192C113.257 37.6192 123.925 42.252 130.486 49.8651C134.744 54.8082 137.63 61.8098 138.083 68.3451C138.652 76.526 137.911 83.6011 135.57 89.7944C132.665 97.5135 122.581 106.024 115.174 108.116L114.559 108.284C113.94 108.448 113.144 108.649 112.302 108.859L111.652 109.019L118.991 111.618L119.351 111.434C122.749 109.657 125.592 107.385 127.978 104.697L128.351 104.269C130.905 101.285 132.309 98.807 134.244 94.6008C135.235 92.4451 138.489 93.5036 138.022 95.83C136.578 103.024 136.319 109.394 137.034 114.686C137.1 115.176 136.983 115.672 136.705 116.08L136.164 116.86L135.247 118.151L133.409 120.501C129.702 124.999 124.837 129.053 119.499 132.329L119.476 132.445L114.271 155.388C114.027 156.465 112.956 157.14 111.879 156.896C110.85 156.662 110.188 155.676 110.343 154.65L110.371 154.503L114.808 134.947C114.637 135.033 114.466 135.118 114.295 135.203C113.305 135.692 112.106 135.285 111.617 134.295C111.128 133.304 111.534 132.105 112.525 131.616C119.169 128.336 125.423 123.713 129.865 118.503L130.289 117.997L132.038 115.765L132.972 114.444L132.924 114.018C132.642 111.377 132.574 108.525 132.739 105.485L132.756 105.189L132.668 105.305C132.37 105.689 132.057 106.077 131.727 106.472L131.39 106.87C128.329 110.446 124.573 113.405 119.978 115.591C119.553 115.794 119.072 115.839 118.619 115.722L118.451 115.671L104.059 110.573C102.238 109.927 102.299 107.331 104.149 106.773C104.472 106.675 104.815 106.578 105.187 106.477L105.986 106.269C106.189 106.223 108.144 105.76 110.147 105.27L110.693 105.136C112.055 104.801 113.367 104.47 114.088 104.267C120.326 102.504 129.393 94.8523 131.827 88.3828C133.942 82.7879 134.625 76.2716 134.093 68.622C133.7 62.9487 131.151 56.7656 127.456 52.476C121.725 45.8271 112.288 41.6922 100.345 41.6202C100.241 41.6379 100.134 41.6465 100.026 41.6465C87.9115 41.6465 78.3619 45.7871 72.5937 52.5072C68.9018 56.769 66.3537 62.9504 65.9607 68.6501C65.4323 76.2409 66.1243 82.7894 68.2294 88.4187C70.6363 94.8738 79.7139 102.528 85.9636 104.293L86.6127 104.47C86.9402 104.557 87.3155 104.654 87.7215 104.757L94.8511 106.508L95.5575 106.7C95.6696 106.732 95.7789 106.763 95.8858 106.794C97.6935 107.321 97.8182 109.795 96.1552 110.535L95.9941 110.599L81.6016 115.698C81.1002 115.876 80.5487 115.847 80.0691 115.617C75.517 113.434 71.7879 110.493 68.7374 106.942C68.3125 106.447 67.9178 105.969 67.5467 105.497L67.304 105.185L67.3073 105.237C67.4971 108.421 67.4311 111.389 67.1267 114.109L67.082 114.482L67.4379 114.997C67.519 115.112 67.5937 115.217 67.6658 115.317L67.9576 115.715L69.7279 117.981C74.2652 123.459 80.7405 128.307 87.525 131.641C88.5164 132.129 88.925 133.327 88.4378 134.318C87.9506 135.31 86.7521 135.718 85.7608 135.231L85.252 134.978L89.6822 154.503C89.9266 155.58 89.2515 156.651 88.1743 156.896C87.146 157.129 86.1231 156.524 85.8197 155.532L85.7814 155.388L80.5767 132.445L80.56 132.361C75.4655 129.23 70.7591 125.348 67.0679 121.03L66.6119 120.488L64.7822 118.147L64.4075 117.637C64.2833 117.465 64.155 117.283 64.0086 117.072L63.3472 116.106L63.2501 115.948C63.0416 115.57 62.9601 115.133 63.0206 114.703C63.7528 109.492 63.4859 103.108 62.0311 95.8574C61.5662 93.5405 64.7974 92.4747 65.8022 94.6135L66.2645 95.5879C68.0705 99.3522 69.3999 101.574 71.7716 104.335C74.2269 107.194 77.1703 109.599 80.7163 111.466L81.064 111.645L88.392 109.049L86.9788 108.695C86.5443 108.585 86.1365 108.48 85.7733 108.385L84.8776 108.143C77.4565 106.046 67.3586 97.5323 64.4821 89.8179C62.1559 83.5974 61.4051 76.4924 61.9702 68.3736C62.4228 61.8102 65.31 54.806 69.5644 49.8951C76.0528 42.3358 86.595 37.7248 99.6911 37.6475C99.8003 37.6288 99.9125 37.6192 100.027 37.6192ZM100.053 26.5996C108.962 26.5996 118.619 27.6767 126.045 29.4711C140.743 33.0463 149.955 40.0456 156.452 53.0394C160.828 62.1424 163.368 72.8186 163.458 82.9638L163.459 83.6676L163.472 83.9215C163.485 84.1929 163.493 84.467 163.497 84.7436L163.5 85.1605C163.5 85.3111 163.483 85.4579 163.452 85.599L163.419 85.7206L163.413 85.916L163.38 86.648L163.337 87.3771C162.986 93.2794 161.186 100.088 158.595 105.587C156.929 108.974 148.759 113.685 143.195 115.526C141.991 115.925 140.725 115.116 140.58 113.856L140.544 113.496C140.518 113.204 140.488 112.807 140.458 112.308C140.113 106.485 140.432 98.5381 141.906 88.7133L142.025 87.9338C143.125 80.8515 143.068 74.4875 142.316 69.1792C142.218 68.4904 142.115 67.8739 142.012 67.3333L141.893 66.7438L141.798 66.3273C141.451 64.9794 142.553 63.6981 143.938 63.8392C149.313 64.3869 154.164 66.4724 157.69 69.9991L158.082 70.4036L157.979 69.908C156.905 64.8788 155.271 59.9577 153.164 55.4426L152.86 54.8004C146.919 42.9186 138.685 36.6625 125.102 33.3585C118.242 31.7009 109.296 30.6723 100.945 30.6033L100.34 30.6017C100.286 30.6101 100.231 30.6165 100.176 30.6205L100.027 30.626H99.9469C91.3454 30.626 82.0027 31.668 74.9008 33.3841C61.3149 36.6888 53.0809 42.9448 47.1535 54.799C44.9011 59.484 43.1641 64.6336 42.0377 69.9062L41.931 70.4156L41.9833 70.3603C45.4581 66.7099 50.3072 64.5248 55.7091 63.9039L56.0622 63.8656C57.3974 63.7296 58.4696 64.9161 58.2335 66.2096L58.1068 66.7701C58.0895 66.8513 58.0704 66.9428 58.0499 67.0443C57.9261 67.6563 57.8013 68.3787 57.6841 69.2052C56.9587 74.3239 56.8801 80.4244 57.8619 87.2026L57.9754 87.9585C59.5223 97.8589 59.8904 105.901 59.5736 111.839L59.5465 112.316C59.5003 113.076 59.4532 113.602 59.4196 113.887C59.2712 115.146 58.0036 115.952 56.8008 115.551C51.2562 113.702 43.0986 109 41.3872 105.576C38.8383 100.105 37.04 93.3033 36.6632 87.4089C36.6329 86.9222 36.6086 86.4335 36.5902 85.9431L36.585 85.7636L36.5482 85.6254C36.5272 85.5313 36.5128 85.4347 36.5055 85.3362L36.5 85.1869C36.5 84.6285 36.5165 84.0804 36.5489 83.5427L36.5506 82.9827C36.6542 72.8116 39.1892 62.1333 43.5621 53.038C50.0452 40.0718 59.2575 33.0726 73.9583 29.4968C81.1252 27.765 90.375 26.7011 99.0228 26.6298L99.6414 26.627C99.7014 26.617 99.7624 26.6097 99.8241 26.6051L99.9734 26.5996H100.053ZM53.775 68.2826L53.5149 68.3431C46.5284 70.0183 41.2961 75.0488 40.5831 83.2374L40.547 83.7036L40.5513 84.334C40.5599 85.0449 40.5814 85.7524 40.6161 86.4555L40.6552 87.1571C40.9993 92.5394 42.6696 98.8572 44.9889 103.837C45.8289 105.516 50.7785 108.608 55.0654 110.555L55.617 110.801L55.6228 110.682C55.827 105.433 55.4885 98.5293 54.2602 90.1408L54.0231 88.5743C52.9002 81.3474 52.916 74.8074 53.6403 69.2566L53.775 68.2826ZM146.224 68.2566L146.276 68.6179C147.053 74.095 147.136 80.5723 146.098 87.7465L145.978 88.5465C144.609 97.3929 144.198 104.669 144.367 110.184L144.387 110.778L144.581 110.694L145.226 110.402C149.342 108.503 153.959 105.615 154.924 103.976L154.991 103.852C157.356 98.8338 159.024 92.5212 159.345 87.1296C159.405 86.1988 159.441 85.2595 159.454 84.3138L159.458 83.7836L159.448 83.6162C158.875 75.1883 153.586 70.0194 146.485 68.3167L146.224 68.2566Z" fill="currentColor"></path></svg>