<svg width="200" height="200" viewBox="0 0 200 200" fill="none" xmlns="http://www.w3.org/2000/svg"><path d="M80.0899 64.0946L80.2288 64.0979C80.6338 64.1214 81.037 64.2682 81.3783 64.5514L81.5206 64.6812L143.29 126.465C144.285 127.46 143.963 129.125 142.712 129.696L142.57 129.755L142.546 129.763L142.543 129.764L124.053 136.602L93.6603 147.844L90.3551 149.088L68.0542 157.302C68.0495 157.303 68.0449 157.305 68.0402 157.307L44.691 165.906C43.1371 166.478 41.6249 165.028 42.0768 163.479L42.1233 163.337L52.6014 134.906L60.1763 114.371L70.7256 85.7258L78.23 65.4025C78.5368 64.5715 79.3038 64.1033 80.0899 64.0946ZM54.7751 140.57L47.3749 160.655L64.0386 154.517C60.4957 150.057 57.4029 145.403 54.7751 140.57ZM70.5392 97.8439L63.9293 115.79L56.6499 135.491L56.7134 135.621C59.4685 141.199 62.8595 146.548 66.8652 151.642L67.5785 152.539L68.0009 153.058L86.5634 146.222C76.9226 131.724 71.4603 115.009 70.5392 97.8439ZM80.8999 69.7525L74.5766 86.878L74.5504 87.3202C73.4094 107.369 78.752 127.298 89.9611 144.108L90.4126 144.778L90.4199 144.789L92.2618 144.096L101.815 140.562L109.816 137.603C101.746 122.26 97.9978 105.035 98.8405 87.6975L80.8999 69.7525ZM102.729 91.5875L102.725 92.1535C102.674 106.931 106.095 121.504 112.804 134.676L113.203 135.449L113.601 136.203L130.453 129.97L138.227 127.096L102.729 91.5875ZM150.938 109.007C153.05 109.007 154.761 110.719 154.761 112.831C154.761 114.943 153.05 116.655 150.938 116.655C148.827 116.655 147.115 114.943 147.115 112.831C147.115 110.719 148.827 109.007 150.938 109.007ZM169.826 88.2721L170.39 88.3697C171.378 88.5484 172.111 88.7228 172.558 88.8524C173.618 89.1604 174.229 90.27 173.921 91.3308C173.627 92.3433 172.602 92.9453 171.587 92.7301L171.145 92.616C171.072 92.5982 170.989 92.5782 170.894 92.5562C170.402 92.442 169.826 92.3266 169.172 92.2182C161.165 90.8904 152.154 91.859 143.658 96.8385C140.853 98.4821 138.199 100.532 135.717 103.02C134.937 103.802 133.67 103.803 132.888 103.023C132.106 102.243 132.105 100.976 132.885 100.194C135.61 97.4633 138.536 95.2036 141.635 93.3875C151.047 87.8713 160.975 86.8042 169.826 88.2721ZM154.054 47.6799L154.413 47.7424C155.179 47.8891 155.895 48.1166 157.063 48.5592L158.221 49.0068C160.692 49.9595 161.638 50.1155 162.016 49.8097L162.054 49.7751C162.835 48.9939 164.102 48.9936 164.883 49.7745C165.664 50.5554 165.664 51.8217 164.883 52.6029C163.696 53.7912 162.154 54.1267 160.389 53.8484L160.03 53.786C159.264 53.6393 158.548 53.4118 157.38 52.9692L156.222 52.5215C153.662 51.5348 152.739 51.4028 152.388 51.7535C152.061 52.0803 152.153 52.9038 152.964 55.0826L153.603 56.7474C154.114 58.0956 154.338 58.8419 154.482 59.7571C154.761 61.5224 154.425 63.0639 153.237 64.2516C152.05 65.4399 150.508 65.7754 148.743 65.4971L148.384 65.4347C147.618 65.288 146.902 65.0605 145.734 64.6179L144.576 64.1702C142.016 63.1835 141.093 63.0515 140.742 63.4022C140.415 63.729 140.507 64.5525 141.318 66.7313L141.957 68.3961C142.468 69.7443 142.692 70.4906 142.836 71.4058C143.115 73.1711 142.779 74.7126 141.591 75.9003C140.404 77.0886 138.862 77.4241 137.097 77.1458C136.182 77.0016 135.436 76.7773 134.088 76.2666L132.93 75.8189C130.37 74.8322 129.447 74.7002 129.096 75.0509C128.769 75.3777 128.861 76.2012 129.672 78.38L130.311 80.0448C130.822 81.393 131.046 82.1393 131.19 83.0545C131.469 84.8198 131.133 86.3613 129.945 87.549C128.758 88.7373 127.216 89.0728 125.451 88.7945L125.092 88.7321C124.326 88.5854 123.61 88.3579 122.442 87.9153L121.284 87.4676C118.813 86.5149 117.866 86.359 117.489 86.6648L117.45 86.6993C116.67 87.4806 115.403 87.4809 114.622 86.7C113.841 85.9191 113.841 84.6528 114.621 83.8716C115.809 82.6833 117.351 82.3477 119.116 82.626L119.475 82.6885C120.358 82.8577 121.176 83.1346 122.698 83.7253L123.283 83.9529C125.843 84.9396 126.766 85.0717 127.117 84.721C127.443 84.3942 127.351 83.5707 126.541 81.3919L125.901 79.727C125.391 78.3789 125.167 77.6325 125.022 76.7174C124.744 74.9521 125.08 73.4105 126.267 72.2229C127.455 71.0346 128.997 70.699 130.762 70.9773C131.677 71.1216 132.423 71.3459 133.771 71.8566L134.929 72.3042C137.489 73.2909 138.412 73.423 138.763 73.0723C139.089 72.7455 138.997 71.922 138.187 69.7432L137.547 68.0783C137.037 66.7302 136.813 65.9838 136.668 65.0687C136.39 63.3034 136.726 61.7618 137.913 60.5742C139.101 59.3859 140.643 59.0503 142.408 59.3286L142.767 59.3911C143.533 59.5378 144.249 59.7653 145.417 60.2079L147.081 60.8476C149.259 61.6581 150.082 61.7501 150.409 61.4236C150.735 61.0968 150.643 60.2733 149.833 58.0945L149.193 56.4296C148.683 55.0815 148.459 54.3351 148.314 53.42C148.036 51.6547 148.372 50.1131 149.559 48.9255C150.747 47.7372 152.289 47.4016 154.054 47.6799ZM161.628 68.5024C163.74 68.5024 165.451 70.2144 165.451 72.3263C165.451 74.4382 163.74 76.1502 161.628 76.1502C159.517 76.1502 157.805 74.4382 157.805 72.3263C157.805 70.2144 159.517 68.5024 161.628 68.5024ZM119.16 35.442L119.235 35.7138C119.379 36.2636 119.561 37.0946 119.74 38.1736C121.207 47.0278 120.14 56.9579 114.624 66.3726C112.809 69.4713 110.55 72.3979 107.82 75.1229C107.038 75.9032 105.772 75.902 104.991 75.1202C104.211 74.3385 104.212 73.0721 104.994 72.2918C107.481 69.8095 109.53 67.1549 111.173 64.3505C116.152 55.8515 117.121 46.8373 115.794 38.8276C115.707 38.3048 115.616 37.8312 115.524 37.4107L115.396 36.8548L115.318 36.557C115.01 35.4962 115.621 34.3867 116.681 34.0788C117.742 33.7709 118.852 34.3813 119.16 35.442ZM95.1505 53.2075C97.2619 53.2075 98.9736 54.9195 98.9736 57.0314C98.9736 59.1433 97.2619 60.8553 95.1505 60.8553C93.0392 60.8553 91.3275 59.1433 91.3275 57.0314C91.3275 54.9195 93.0392 53.2075 95.1505 53.2075ZM135.681 42.5503C137.793 42.5503 139.504 44.2623 139.504 46.3742C139.504 48.486 137.793 50.1981 135.681 50.1981C133.57 50.1981 131.858 48.486 131.858 46.3742C131.858 44.2623 133.57 42.5503 135.681 42.5503Z" fill="currentColor"></path></svg>