<svg width="200" height="200" viewBox="0 0 200 200" fill="none" xmlns="http://www.w3.org/2000/svg"><path fill-rule="evenodd" clip-rule="evenodd" d="M32 99.9975C32 62.325 62.4509 31.75 100 31.75C137.549 31.75 168 62.325 168 99.9975C168 137.67 137.549 168.245 100 168.245C62.4509 168.245 32 137.67 32 99.9975ZM100 35.75C64.6741 35.75 36 64.52 36 99.9975C36 135.475 64.6741 164.245 100 164.245C135.326 164.245 164 135.475 164 99.9975C164 64.52 135.326 35.75 100 35.75ZM105.363 47.1798C105.795 46.8001 106.37 46.625 106.94 46.6992C130.886 49.8138 149.849 68.7534 153.077 92.718C153.154 93.2899 152.98 93.8671 152.601 94.3015C152.221 94.7358 151.672 94.985 151.095 94.985H106.683C105.578 94.985 104.683 94.0896 104.683 92.985V48.6825C104.683 48.1071 104.93 47.5596 105.363 47.1798ZM108.683 51.0127V90.985H148.754C145.051 70.6339 129.005 54.6188 108.683 51.0127ZM93.7171 47.3062C94.1571 47.6861 94.41 48.2387 94.41 48.82V92.985C94.41 94.0896 93.5146 94.985 92.41 94.985H48.9325C48.3553 94.985 47.8063 94.7357 47.4265 94.301C47.0467 93.8664 46.8732 93.2889 46.9506 92.7169C50.1493 69.0692 68.6539 50.2996 92.1184 46.8414C92.6935 46.7566 93.277 46.9263 93.7171 47.3062ZM51.2746 90.985H90.41V51.1921C70.5557 55.0878 54.9339 70.935 51.2746 90.985ZM47.4503 106.028C47.8302 105.591 48.3809 105.34 48.96 105.34H92.41C93.5146 105.34 94.41 106.235 94.41 107.34V151.23C94.41 151.812 94.1569 152.364 93.7167 152.744C93.2764 153.124 92.6926 153.294 92.1173 153.208C68.7403 149.751 50.2926 131.125 46.9796 107.619C46.8987 107.046 47.0705 106.465 47.4503 106.028ZM51.3157 109.34C55.0708 129.252 70.6386 144.968 90.41 148.857V109.34H51.3157ZM104.683 107.34C104.683 106.235 105.578 105.34 106.683 105.34H151.067C151.646 105.34 152.197 105.591 152.577 106.028C152.957 106.465 153.129 107.045 153.048 107.618C149.706 131.441 130.771 150.236 106.942 153.351C106.371 153.425 105.796 153.25 105.363 152.871C104.931 152.491 104.683 151.943 104.683 151.368V107.34ZM108.683 109.34V149.036C128.9 145.435 144.912 129.551 148.713 109.34H108.683Z" fill="currentColor"></path></svg>