<svg width="200" height="200" viewBox="0 0 200 200" fill="none" xmlns="http://www.w3.org/2000/svg"><path fill-rule="evenodd" clip-rule="evenodd" d="M145.064 34.3981C145.949 35.0594 146.13 36.3127 145.469 37.1975L128.563 59.8154H147.35C148.107 59.8154 148.799 60.2427 149.138 60.9193C149.477 61.5959 149.405 62.406 148.952 63.0123L130.323 87.9515C130.292 87.9972 130.259 88.0416 130.224 88.0845L102.324 125.435V161.999H128.671C129.776 161.999 130.671 162.894 130.671 163.999C130.671 165.104 129.776 165.999 128.671 165.999H100.391C100.369 166 100.346 166 100.324 166C100.301 166 100.279 166 100.256 165.999H72.0061C70.9015 165.999 70.0061 165.104 70.0061 163.999C70.0061 162.894 70.9015 161.999 72.0061 161.999H98.3237V125.434L63.9659 79.4385C60.8488 81.3434 57.1877 82.3995 53.3281 82.3995C41.9009 82.3995 32.6499 73.1753 32.6499 61.815C32.6499 50.4526 41.933 41.2305 53.3281 41.2305C64.0467 41.2305 72.8967 49.3901 73.9097 59.8154H123.569L142.265 34.8028C142.926 33.918 144.179 33.7369 145.064 34.3981ZM69.8857 59.8154C68.8898 51.6179 61.8513 45.2305 53.3281 45.2305C44.1231 45.2305 36.6499 52.6806 36.6499 61.815C36.6499 70.9514 44.0952 78.3995 53.3281 78.3995C56.3193 78.3995 59.1405 77.6173 61.559 76.2164L51.6958 63.0123C51.2429 62.406 51.171 61.5959 51.5101 60.9193C51.8492 60.2427 52.5413 59.8154 53.2981 59.8154H69.8857ZM66.1992 75.7443C66.1501 75.6537 66.0934 75.5657 66.0289 75.4812C65.973 75.408 65.9131 75.3398 65.8497 75.2765L57.2885 63.8154H120.58L104.878 84.8232H72.981L66.1992 75.7443ZM125.573 63.8154L109.872 84.8232H127.667L143.359 63.8154H125.573ZM105.924 88.8232C105.893 88.8239 105.863 88.8239 105.832 88.8232H75.9689L100.324 121.428L124.679 88.8232H105.924Z" fill="currentColor"></path></svg>