<svg width="200" height="200" viewBox="0 0 200 200" fill="none" xmlns="http://www.w3.org/2000/svg"><path fill-rule="evenodd" clip-rule="evenodd" d="M64.4698 80H50.0615L32.5027 125.057H48.2112L51.0684 117.914H63.0439L65.7296 125.057H81.4329L64.4698 80ZM38.3545 121.057L52.7957 84H61.7016L75.6529 121.057H68.499L65.8133 113.914H48.3602L45.5031 121.057H38.3545Z" fill="currentColor"></path><path fill-rule="evenodd" clip-rule="evenodd" d="M92.6139 80.0293H76.7683L95.5825 125.058H106.517L125.895 80.0293H109.789L101.177 101.548L92.6139 80.0293ZM98.2463 121.058L82.7747 84.0293H89.9006L101.166 112.339L112.497 84.0293H119.819L103.883 121.058H98.2463Z" fill="currentColor"></path><path fill-rule="evenodd" clip-rule="evenodd" d="M131.886 80H149.114C153.434 80 157.043 80.9417 159.585 83.1664C162.157 85.4173 163.296 88.6776 163.314 92.5629C163.494 94.6143 163.07 96.6744 162.095 98.4897C161.779 99.0772 161.41 99.6307 160.994 100.144C161.072 100.182 161.149 100.221 161.226 100.261C162.56 100.955 163.734 101.919 164.674 103.091L164.715 103.142L164.751 103.194C166.455 105.623 167.307 108.546 167.174 111.507C167.275 113.494 166.864 115.475 165.978 117.258C165.076 119.075 163.712 120.624 162.024 121.75L162.005 121.762L161.986 121.774C158.495 123.99 154.43 125.131 150.296 125.057H131.886V80ZM135.886 84V121.057H150.333L150.352 121.057C153.7 121.12 156.993 120.2 159.823 118.409C160.921 117.673 161.808 116.663 162.396 115.479C162.987 114.288 163.256 112.963 163.175 111.636L163.168 111.522L163.174 111.408C163.285 109.323 162.701 107.261 161.514 105.545C160.928 104.828 160.202 104.237 159.38 103.81C158.539 103.372 157.616 103.114 156.67 103.053L149.632 102.596L155.863 99.2904C157.013 98.6804 157.955 97.7426 158.571 96.5961C159.188 95.4496 159.449 94.1459 159.324 92.8504L159.314 92.754V92.6571C159.314 89.4982 158.422 87.4645 156.951 86.1764C155.428 84.844 152.937 84 149.114 84H135.886Z" fill="currentColor"></path><path fill-rule="evenodd" clip-rule="evenodd" d="M178.8 67.6855H21.1714V135.743H178.8V67.6855ZM25.1714 131.743V71.6855H174.8V131.743H25.1714Z" fill="currentColor"></path></svg>