<svg width="200" height="200" viewBox="0 0 200 200" fill="none" xmlns="http://www.w3.org/2000/svg"><path d="M126.13 32.404C126.13 43.6423 121.539 56.4381 113.781 69.7423C110.965 74.5711 107.897 79.173 104.77 83.4141L104.492 83.7897C103.51 85.1138 102.585 86.3167 101.771 87.3451L101.293 87.944L100.507 86.9401C99.6362 85.8174 98.6302 84.4914 97.5993 83.0934C94.3179 78.6434 91.0259 73.8238 87.9477 68.8432C79.4833 55.1477 73.9854 42.4851 72.9113 32.1963C72.7442 30.5953 70.8505 29.8376 69.6251 30.8815L47.0577 50.107C46.0783 50.9415 46.1302 52.4703 47.1639 53.2364L47.6707 53.6265L48.4483 54.248C48.9797 54.6794 49.5706 55.1721 50.2172 55.7261C52.6929 57.8478 55.4569 60.4137 58.4375 63.4287L59.2134 64.2186C65.1617 70.3141 71.105 77.3115 76.8493 85.2237L77.446 86.051L52.3567 61.2922C51.6942 60.6384 50.6682 60.5281 49.8819 61.0261L32.93 71.7615C32.0137 72.3418 31.7269 73.5467 32.2835 74.4776L32.7002 75.204L33.1561 76.0302C33.4085 76.495 33.6758 76.9989 33.9555 77.5398L34.1677 77.9525C35.6014 80.7577 37.0366 83.892 38.3759 87.2737C42.3693 97.3568 44.678 107.447 44.4564 116.788C44.2107 127.15 40.84 135.912 33.7727 142.701C32.7987 143.637 33.013 145.249 34.1976 145.898L60.9766 160.563C62.0961 161.176 63.4956 160.597 63.8559 159.373L64.006 158.839L64.2836 157.789C64.3655 157.47 64.451 157.129 64.5395 156.766C65.0431 154.704 65.5459 152.364 66.0148 149.791C68.4118 136.634 69.0322 122.94 66.7725 110.084L66.6208 109.246C65.8421 105.07 64.7634 101.09 63.3653 97.3305L63.118 96.68L92.539 124.008L92.3329 125.285C89.7873 140.735 86.2077 155.092 81.3241 166.847C80.6974 168.356 82.0405 169.914 83.5947 169.569L84.0526 169.444C84.3275 169.369 84.6518 169.285 85.0225 169.193C86.091 168.93 87.3106 168.667 88.658 168.42C95.8858 167.097 103.436 166.806 110.436 168.18C112.173 168.521 113.845 168.962 115.447 169.507C116.958 170.023 118.434 168.646 118.025 167.103L117.504 165.08L117.071 163.366C116.773 162.173 116.455 160.882 116.121 159.503L115.73 157.88C114.43 152.441 113.136 146.689 111.922 140.82L111.482 138.67L138.967 166.083C139.756 166.871 141.036 166.861 141.813 166.061L163.328 143.923C164.013 143.218 164.08 142.128 163.508 141.349L163.121 140.874L163.033 140.765C162.715 140.362 162.357 139.884 161.97 139.333C160.853 137.745 159.732 135.906 158.685 133.841C155.405 127.372 153.581 120.226 153.957 112.655L153.987 112.127C154.587 102.626 158.658 93.1295 166.947 83.8022L167.137 83.591L167.209 83.5409C168.075 82.8798 168.329 81.5401 167.487 80.604L150.64 61.8697C149.801 60.9369 148.321 60.9977 147.561 61.9961L147.294 62.36C147.182 62.5165 147.048 62.7082 146.893 62.9344C146.385 63.6732 145.823 64.5414 145.22 65.5348C143.506 68.3564 141.796 71.6258 140.202 75.3085L139.937 75.9267C133.111 92.006 130.695 110.103 135.046 129.444L135.264 130.389L109.889 110.425L110.057 110.135C110.625 109.151 111.126 108.257 111.638 107.313C114.009 103.026 116.498 98.8713 119.084 94.8626C127.057 82.5021 135.595 72.0315 144.127 63.4127C147.107 60.4027 149.87 57.841 152.345 55.7229L153.272 54.939C153.665 54.6111 154.033 54.3104 154.374 54.0368L155.199 53.3867C155.284 53.3218 155.35 53.272 155.397 53.2371C156.478 52.4366 156.477 50.8181 155.394 50.0197L129.317 30.7942C127.996 29.8207 126.13 30.7634 126.13 32.404ZM129.972 36.246L150.921 51.691L150.713 51.8644C150.404 52.1221 150.081 52.3953 149.744 52.6839C147.187 54.8724 144.343 57.5089 141.284 60.5986C132.564 69.4077 123.851 80.0922 115.722 92.6944C113.088 96.7783 110.553 101.01 108.13 105.391L107.702 106.172C107.06 107.335 106.401 108.478 105.56 109.903C105.052 110.766 105.259 111.872 106.046 112.491L137.528 137.26C139.066 138.47 141.248 136.979 140.679 135.107C134.241 113.928 136.387 94.1886 143.872 76.8977C145.391 73.3891 147.017 70.2814 148.639 67.6113L148.878 67.2208L149.112 66.8454L149.369 66.439L163.285 81.913L163.032 82.206C154.616 92.0486 150.47 102.223 149.962 112.457C149.548 120.785 151.543 128.601 155.118 135.65C156.141 137.669 157.232 139.493 158.331 141.105L158.867 141.873L159.241 142.389L140.356 161.82L109.677 131.22C108.286 129.832 105.936 131.074 106.299 133.006C106.833 135.842 107.403 138.721 108.005 141.631C109.228 147.542 110.53 153.334 111.84 158.81L112.564 161.804L113.285 164.715L112.827 164.603C112.292 164.478 111.752 164.362 111.206 164.255C103.643 162.77 95.6173 163.079 87.9377 164.485L87.0373 164.656L86.447 164.774L86.4837 164.68C90.9964 152.728 94.2971 138.617 96.6586 123.58C96.7618 122.922 96.5314 122.257 96.0439 121.804L57.8583 86.3348C56.1468 84.745 53.5635 86.8782 54.8008 88.8595C58.7597 95.199 61.3903 102.57 62.8329 110.777C64.9988 123.099 64.3988 136.344 62.0795 149.074L61.9423 149.815C61.5281 152.017 61.0905 154.028 60.651 155.824L38.423 143.651L38.5235 143.543C45.0594 136.286 48.2096 127.244 48.4553 116.883C48.6914 106.928 46.2691 96.3404 42.0949 85.8008C40.7062 82.2946 39.2186 79.0457 37.7295 76.1321L37.5077 75.7008C37.2883 75.2765 37.0759 74.8734 36.8714 74.4922L36.673 74.125L50.678 65.255L87.9432 102.029C89.6122 103.676 92.2645 101.602 91.0681 99.5849C89.6929 97.2669 88.287 94.9943 86.8523 92.7669C78.7209 80.1427 70.0049 69.4401 61.2821 60.6165C58.2225 57.5216 55.3778 54.8808 52.82 52.6889L51.8501 51.868L51.499 51.577L69.466 36.271L69.5603 36.7677C71.5316 46.8816 76.8657 58.5208 84.5451 70.9461C87.6843 76.0255 91.0371 80.934 94.3799 85.4673L95.3396 86.7583C97.2332 89.2849 98.9338 91.4354 99.7643 92.4016C100.562 93.3301 102 93.3301 102.798 92.4017L103.325 91.7783C104.515 90.3536 106.169 88.2565 107.989 85.7879C111.197 81.4375 114.343 76.718 117.236 71.7573C124.324 59.6038 128.895 47.7971 129.914 36.9272L129.972 36.246Z" fill="currentColor"></path></svg>