<svg width="200" height="200" viewBox="0 0 200 200" fill="none" xmlns="http://www.w3.org/2000/svg"><path d="M108.845 49.2C109.322 49.2 109.781 49.3702 110.141 49.6768L110.272 49.7981L134.901 74.859L135.121 74.8351C143.401 73.9142 150.229 72.6893 154.983 71.2739C157.375 70.5617 159.188 69.8159 160.347 69.0834C160.846 68.7678 161.19 68.475 161.38 68.2317L161.485 68.0886C161.486 63.6069 154.505 60.8783 131.391 59.9264C130.287 59.8809 129.429 58.9494 129.475 57.8458C129.52 56.7421 130.452 55.8843 131.556 55.9297L133.048 55.9949C157.094 57.1056 165.484 60.5348 165.486 68.0883L165.486 94.102C173.458 98.9917 174.615 113.762 168.535 128.302C162.211 143.43 150.206 153.158 140.961 149.824C140.852 149.811 140.742 149.788 140.633 149.755L140.485 149.703L123.31 143.01L123.281 142.999C123.277 142.997 123.273 142.995 123.269 142.994C120.031 141.647 117.714 138.878 116.34 135.191C105.695 137.393 94.714 137.395 84.068 135.198C82.7292 138.798 80.4916 141.53 77.3736 142.927L77.0948 143.048L59.9478 149.693C50.7294 153.547 38.5482 143.975 32.0544 128.831L31.8593 128.37C25.7766 113.823 26.9379 99.0441 34.9214 94.1625L34.9218 68.088L34.9251 67.8613C35.0988 60.3134 43.9085 56.9571 68.8528 55.9297C69.9565 55.8843 70.888 56.7421 70.9334 57.8458C70.9789 58.9494 70.1211 59.8809 69.0174 59.9264L67.6498 59.9856C45.8511 60.9779 39.0608 63.6414 38.9245 67.9573L38.9224 68.0914C38.9224 68.0772 38.9364 68.1131 39.0287 68.2317C39.2183 68.475 39.5627 68.7678 40.0618 69.0834C41.2203 69.8159 43.0335 70.5617 45.4255 71.2739C50.2213 72.7017 57.1273 73.9357 65.5063 74.8593L90.1372 49.7981C90.4715 49.458 90.9147 49.2499 91.3858 49.2079L91.5636 49.2H108.845ZM60.8063 116.267C55.1025 102.626 44.6306 94.3005 37.9531 97.0924C31.2756 99.8843 29.846 113.186 35.5498 126.827C41.2534 140.47 51.7254 148.796 58.4028 146.004C65.0805 143.211 66.51 129.91 60.8063 116.267ZM139.588 116.199C133.885 129.841 135.314 143.143 141.992 145.935C148.599 148.697 158.924 140.573 164.665 127.184L164.845 126.759L165.019 126.338C170.518 112.844 169.05 99.7871 162.442 97.024C155.764 94.2321 145.292 102.558 139.588 116.199ZM55.1519 90.4053C55.0158 90.4622 54.8769 90.5029 54.7375 90.5282L46.2243 93.7042C53.1718 96.5392 60.1656 104.366 64.4968 114.724C68.9088 125.277 69.5096 135.951 66.46 142.881L75.6039 139.336C82.289 136.556 83.7167 123.254 77.9975 109.588C72.285 95.9378 61.8163 87.621 55.1519 90.4053ZM122.411 109.552C116.693 123.216 118.119 136.514 124.8 139.298L133.959 142.868C130.882 135.939 131.474 125.237 135.898 114.656C140.212 104.337 147.169 96.5311 154.09 93.6687L144.895 90.2386C144.741 90.2083 144.59 90.1597 144.446 90.093C137.779 88.2607 127.903 96.4621 122.411 109.552ZM108.007 53.2H92.401L60.1115 86.0555C68.061 87.4287 76.6596 96.0296 81.6874 108.044C85.169 116.363 86.2855 124.751 85.1078 131.327C95.07 133.352 105.337 133.349 115.3 131.321C114.12 124.742 115.234 116.34 118.722 108.006C123.75 96.022 132.334 87.4238 140.271 86.0291L108.007 53.2ZM115.33 107.536C115.568 108.614 114.886 109.681 113.808 109.919C104.848 111.894 95.5598 111.894 86.6002 109.919C85.5215 109.681 84.8398 108.614 85.0775 107.536C85.3152 106.457 86.3824 105.775 87.4611 106.013C95.8535 107.862 104.554 107.862 112.947 106.013C114.025 105.775 115.093 106.457 115.33 107.536ZM118.802 94.8952C119.038 95.9741 118.356 97.0406 117.277 97.2773C106.016 99.7473 94.3568 99.7473 83.0967 97.2773C82.0178 97.0406 81.335 95.9741 81.5717 94.8952C81.8084 93.8163 82.8749 93.1335 83.9538 93.3702C94.6492 95.7164 105.724 95.7164 116.42 93.3702C117.499 93.1335 118.565 93.8163 118.802 94.8952ZM38.9215 73.0121L38.922 92.159L54.0538 86.512L61.9551 78.4733C51.1874 77.1486 43.3094 75.3796 38.9215 73.0121ZM161.487 73.0123C157.099 75.3796 149.221 77.1486 138.454 78.4732L146.344 86.5007C146.493 86.5552 146.641 86.6132 146.788 86.6745L161.486 92.159L161.487 73.0123ZM123.653 81.6142C123.89 82.693 123.208 83.7599 122.129 83.9972C107.681 87.1758 92.7274 87.1758 78.2793 83.9972C77.2005 83.7599 76.5184 82.693 76.7557 81.6142C76.9931 80.5355 78.06 79.8533 79.1388 80.0907C93.0207 83.1447 107.388 83.1447 121.27 80.0907C122.348 79.8533 123.415 80.5355 123.653 81.6142Z" fill="currentColor"></path></svg>