<svg width="200" height="200" viewBox="0 0 200 200" fill="none" xmlns="http://www.w3.org/2000/svg"><path fill-rule="evenodd" clip-rule="evenodd" d="M85.2964 48.1911L85.5321 48.1162C93.7669 45.5003 104.954 45.3624 113.157 47.4103C116.085 48.1419 118.126 50.6877 118.294 53.764C118.406 55.8309 118.469 57.3335 118.49 58.7562L118.497 59.7344L118.511 80.8957C118.511 83.5632 118.509 86.1797 118.506 88.7577L118.494 96.389C118.487 99.0412 118.412 100.801 118.173 102.607C117.629 106.722 115.634 110.262 112.366 113.173C108.516 116.602 103.864 118.115 98.6329 117.718C94.4873 117.403 90.805 115.757 87.7182 112.877C84.6789 110.039 82.8148 106.53 82.2289 102.486C82.0849 101.495 82.0364 100.686 82.0118 99.203L81.9922 97.7337L81.9688 96.822C81.9675 96.7446 81.9681 96.6705 81.9706 96.5858L81.9918 96.0957L82.0293 68.0358L81.9953 55.4094L81.9867 54.2538C81.9899 53.7624 82.0113 53.3907 82.0653 52.9795C82.3241 51.0014 83.3836 49.3736 85.086 48.3212L85.2964 48.1911ZM114.3 53.9817C114.226 52.6352 113.39 51.5915 112.188 51.2912C104.68 49.4168 94.2448 49.5455 86.7432 51.9285L87.0021 51.8487L86.8732 51.9476C86.4375 52.3031 86.1732 52.7479 86.0626 53.3083L86.0314 53.4995C85.9908 53.8085 85.9812 54.1368 85.9886 54.7424L85.9923 55.0294L86.0232 64.4759L86.0283 71.1084L85.9934 95.7931L85.9882 96.2721L85.9689 96.7136L85.9822 97.2062L86.0106 99.0938C86.0292 100.241 86.0619 100.914 86.1428 101.578L86.1875 101.912C86.6417 105.047 88.067 107.73 90.4475 109.953C92.8767 112.22 95.7064 113.484 98.936 113.729C103.1 114.046 106.679 112.882 109.705 110.186C112.282 107.89 113.794 105.208 114.207 102.082C114.418 100.487 114.488 98.8723 114.494 96.3799L114.506 88.7524L114.511 75.4889L114.497 59.7394C114.496 58.2947 114.449 56.8669 114.347 54.8727L114.3 53.9817Z" fill="currentColor"></path><path fill-rule="evenodd" clip-rule="evenodd" d="M62.2753 60.6714C62.5919 60.376 62.7695 60.2251 63.0508 60.046C65.2066 58.6647 67.5352 59.8481 67.606 62.4316C67.619 62.9041 67.6244 63.3906 67.6252 63.9929L67.6261 78.2935L67.6123 88.1698C67.6053 90.7179 67.5955 93.1289 67.5823 95.471L67.5598 98.941C67.5287 103.168 68.1881 107.128 69.5797 110.865C71.6869 116.524 75.1401 121.228 79.9486 125.008C84.3499 128.468 89.3336 130.649 94.8918 131.554C101.69 132.662 108.191 131.716 114.318 128.714C123.755 124.093 129.646 116.697 132.055 106.467C132.559 104.327 132.782 102.028 132.784 99.3689L132.786 85.3674C132.784 81.0824 132.779 77.1249 132.77 73.3308L132.736 63.001C132.734 62.5927 132.792 62.1947 132.897 61.7748C133.456 59.5524 136.024 58.8526 137.669 60.408C142.352 64.8355 146.105 69.6624 148.923 75.005C151.594 80.0707 153.421 85.4058 154.399 91.0155C154.996 94.4269 155.265 97.818 155.197 101.192C155.04 109.082 153.341 116.491 150.039 123.405C147.085 129.589 143.164 135.012 138.262 139.652C130.55 146.95 121.529 151.654 111.226 153.693C106.749 154.58 102.467 154.966 98.2878 154.808C90.45 154.51 83.1059 152.757 76.2989 149.488C64.9709 144.05 56.4142 135.697 50.7178 124.521C48.1877 119.557 46.5109 114.19 45.6368 108.422C45.0351 104.445 44.8527 100.607 45.12 96.8521C45.8734 86.2553 49.3484 76.6959 55.5745 68.2407C57.6769 65.3857 59.096 63.6673 60.8438 62.0256L62.2753 60.6714ZM63.6241 64.9005L63.3551 65.1572C62.0755 66.3892 60.9327 67.7506 59.3667 69.8428L58.7955 70.6126C53.0215 78.4537 49.8101 87.288 49.1099 97.136C48.8644 100.585 49.0328 104.129 49.5917 107.823C50.403 113.177 51.9514 118.133 54.2816 122.704C59.5796 133.099 67.4923 140.824 78.0301 145.882C84.3325 148.908 91.1388 150.533 98.4396 150.811C102.291 150.957 106.264 150.598 110.449 149.77C120.006 147.877 128.345 143.53 135.512 136.747C140.055 132.447 143.686 127.426 146.429 121.681C149.482 115.291 151.052 108.442 151.198 101.112C151.26 97.999 151.012 94.8652 150.459 91.7035C149.552 86.5056 147.862 81.5681 145.385 76.8709C143.233 72.7901 140.481 69.023 137.123 65.5045L136.745 65.1135L136.757 68.529C136.769 72.288 136.777 76.1439 136.782 80.2706L136.784 99.3718C136.782 102.318 136.53 104.916 135.949 107.384C133.266 118.78 126.591 127.158 116.078 132.307C109.202 135.674 101.862 136.743 94.2485 135.501C88.0249 134.488 82.4112 132.033 77.4764 128.153C72.0928 123.92 68.1962 118.613 65.8312 112.261C64.2651 108.056 63.5254 103.613 63.5599 98.9117C63.5955 94.0537 63.6145 89.037 63.6222 83.2091L63.6241 64.9005Z" fill="currentColor"></path></svg>