<svg width="200" height="200" viewBox="0 0 200 200" fill="none" xmlns="http://www.w3.org/2000/svg"><path fill-rule="evenodd" clip-rule="evenodd" d="M114.737 24.709C114.738 24.708 114.738 24.7069 114.738 24.7058C114.83 23.9647 114.501 23.234 113.885 22.8112C113.268 22.3878 112.467 22.3439 111.808 22.6974C84.7755 37.1953 75.2161 60.6435 72.4244 80.3136C71.0304 90.1356 71.3153 99.044 71.9461 105.493C72.1372 107.447 72.3604 109.179 72.5791 110.645C66.3567 104.629 63.4159 96.3908 62.0901 88.9936C61.3025 84.5988 61.1015 80.5846 61.0985 77.668C61.0971 76.2119 61.1449 75.0352 61.1926 74.2286C61.2164 73.8254 61.2401 73.5152 61.2575 73.3091C61.2662 73.2061 61.2733 73.1292 61.2781 73.0798L61.2833 73.0266L61.2844 73.0158C61.2845 73.0155 61.2845 73.0151 61.2845 73.0148C61.2845 73.0149 61.2845 73.0147 61.2845 73.0148C61.3744 72.1728 60.9243 71.3651 60.1607 70.999C59.3967 70.6326 58.4848 70.7874 57.8845 71.3853C45.1414 84.0776 37.8819 102.174 39.821 121.921L39.8211 121.922C42.4659 148.665 62.5372 170.707 88.4229 176.47C89.0152 176.602 89.6353 176.458 90.1087 176.078C90.5821 175.699 90.8575 175.125 90.8575 174.518V173.002C90.8575 172.262 90.4488 171.582 89.795 171.236C82.9447 167.601 78.0531 160.692 77.2485 152.743C76.6952 147.185 78.0763 141.974 80.7884 137.684C80.8554 138.272 80.9431 138.888 81.0568 139.521C81.7908 143.613 83.6752 148.799 88.459 151.994C89.1449 152.452 90.0416 152.442 90.7171 151.969C91.3923 151.496 91.7082 150.658 91.5129 149.857L91.5126 149.855L91.5112 149.85L91.5011 149.806C91.4916 149.765 91.4768 149.699 91.4578 149.61C91.4197 149.431 91.3647 149.16 91.3012 148.806C91.1742 148.097 91.014 147.059 90.888 145.771C90.6354 143.19 90.5237 139.639 91.0765 135.745C92.0698 128.747 95.1811 120.734 103.451 115.113C103.551 116.128 103.736 117.307 104.058 118.595C105.088 122.712 107.527 127.92 113.094 132.352L113.098 132.355C114.276 133.288 115.311 134.257 116.302 135.274C128.204 147.671 122.77 167.158 108.764 172.555C107.992 172.852 107.483 173.594 107.483 174.421V175.55C107.483 176.124 107.729 176.67 108.159 177.05C108.59 177.429 109.162 177.606 109.731 177.534C156.639 171.657 177.966 112.089 143.437 75.7539C143.377 75.6681 143.31 75.5863 143.236 75.5093C140.784 72.9679 138.065 70.4583 135.048 68.0471L135.045 68.0454C123.305 58.6903 118.248 47.8134 116.109 39.2917C115.038 35.0222 114.698 31.3401 114.626 28.7378C114.589 27.4375 114.62 26.4098 114.658 25.7168C114.677 25.3704 114.698 25.108 114.714 24.9373C114.722 24.852 114.728 24.7897 114.733 24.7513L114.737 24.709ZM140.132 78.0545C137.852 75.7093 135.335 73.3966 132.552 71.1729C120.009 61.1784 114.543 49.4809 112.23 40.2655C111.075 35.6663 110.706 31.6891 110.627 28.8493C110.619 28.5412 110.613 28.2463 110.611 27.9653C87.3775 41.7642 78.9465 62.8256 76.3847 80.8757C75.0467 90.3028 75.3183 98.8798 75.9271 105.104C76.2311 108.213 76.6185 110.727 76.9281 112.456C77.0829 113.32 77.2181 113.988 77.3136 114.435C77.3613 114.658 77.3991 114.827 77.4244 114.937C77.437 114.992 77.4466 115.033 77.4527 115.058L77.4592 115.086L77.4603 115.09L77.4605 115.091C77.6557 115.891 77.3408 116.729 76.667 117.202C75.9928 117.676 75.0974 117.687 74.4112 117.232C64.0376 110.343 59.8216 99.0104 58.1529 89.6993C57.3562 85.2541 57.1248 81.1923 57.1007 78.1521C47.4379 89.6972 42.177 104.984 43.8018 121.53C46.0113 143.866 61.2565 162.741 81.7798 170.348C77.0983 165.904 73.9475 159.856 73.2687 153.144L73.2684 153.141C72.3964 144.386 75.6448 136.354 81.2575 130.729C81.8567 130.129 82.7697 129.971 83.5352 130.337C84.2999 130.702 84.7513 131.51 84.6621 132.352C84.6621 132.353 84.662 132.353 84.662 132.353C84.662 132.354 84.662 132.353 84.662 132.353L84.6618 132.355L84.6604 132.37C84.6588 132.386 84.6562 132.414 84.6529 132.454C84.6463 132.532 84.6369 132.654 84.6275 132.815C84.6085 133.137 84.589 133.613 84.5897 134.206C84.5912 135.396 84.6737 137.03 84.9939 138.815C85.3162 140.611 85.8629 142.478 86.7552 144.185C86.6127 141.648 86.6397 138.54 87.1162 135.182C88.3376 126.578 92.5466 116.223 104.458 109.836C105.118 109.482 105.92 109.527 106.536 109.951C107.151 110.374 107.479 111.103 107.388 111.843C107.388 111.844 107.388 111.847 107.387 111.85C107.386 111.86 107.384 111.88 107.381 111.91C107.376 111.969 107.368 112.066 107.36 112.199C107.345 112.465 107.332 112.869 107.346 113.387C107.374 114.425 107.508 115.904 107.938 117.624C108.794 121.045 110.823 125.43 115.584 129.222C116.929 130.287 118.093 131.379 119.172 132.488L119.182 132.498C130.792 144.584 128.357 162.495 117.598 171.833C155.267 160.794 170.839 110.078 140.321 78.283C140.252 78.2108 140.189 78.1345 140.132 78.0545Z" fill="currentColor"></path></svg>