<svg width="200" height="200" viewBox="0 0 200 200" fill="none" xmlns="http://www.w3.org/2000/svg"><path fill-rule="evenodd" clip-rule="evenodd" d="M99.9998 33C100.53 33 101.039 33.2107 101.414 33.5858L115.473 47.645C124.717 56.8889 124.717 71.8595 115.473 81.1034L102.826 93.7504L106.249 97.1733L118.897 84.5257C128.141 75.2818 143.111 75.2818 152.355 84.5257L166.414 98.5849C166.789 98.96 167 99.4687 167 99.9991C167 100.53 166.789 101.038 166.414 101.413L152.355 115.473C143.111 124.716 128.141 124.716 118.897 115.473L106.25 102.826L102.827 106.249L115.473 118.896C124.717 128.14 124.717 143.11 115.473 152.354L101.414 166.414C101.039 166.789 100.53 166.999 99.9998 166.999C99.4694 166.999 98.9607 166.789 98.5856 166.414L84.5264 152.354C75.2825 143.11 75.2825 128.14 84.5264 118.896L97.1663 106.256L93.743 102.833L81.1034 115.473C71.8595 124.716 56.8889 124.716 47.645 115.473L33.5858 101.413C33.2107 101.038 33 100.53 33 99.9991C33 99.4687 33.2107 98.96 33.5858 98.5849L47.645 84.5257C56.8889 75.2818 71.8595 75.2818 81.1034 84.5257L93.7439 97.1662L97.1666 93.7436L84.5264 81.1034C75.2825 71.8595 75.2825 56.8889 84.5264 47.645L98.5856 33.5858C98.9607 33.2107 99.4694 33 99.9998 33ZM99.9998 37.8284L87.3548 50.4734C79.6731 58.1552 79.6731 70.5932 87.3548 78.275L99.9998 90.92L112.645 78.275C120.327 70.5932 120.327 58.1552 112.645 50.4734L99.9998 37.8284ZM149.527 87.3541C141.845 79.6723 129.407 79.6723 121.725 87.3541L109.08 99.9991L121.725 112.644C129.407 120.326 141.845 120.326 149.527 112.644L162.172 99.9991L149.527 87.3541ZM87.3548 121.724L99.9998 109.079L112.645 121.724C120.327 129.406 120.327 141.844 112.645 149.526L99.9998 162.171L87.3548 149.526C79.6731 141.844 79.6731 129.406 87.3548 121.724ZM78.275 87.3541C70.5932 79.6723 58.1552 79.6723 50.4734 87.3541L37.8284 99.9991L50.4734 112.644C58.1552 120.326 70.5932 120.326 78.275 112.644L90.92 99.9991L78.275 87.3541ZM99.993 103.426L96.567 100L99.993 96.5741L103.419 100L99.993 103.426Z" fill="currentColor"></path></svg>