<svg width="200" height="200" viewBox="0 0 200 200" fill="none" xmlns="http://www.w3.org/2000/svg"><path d="M32.2341 46.1397L32.2712 46.1071C32.2754 46.1032 32.2798 46.0994 32.2841 46.0956C32.5419 45.8662 32.8627 45.7019 33.227 45.6342C33.2356 45.6339 33.2435 45.6324 33.2515 45.631C33.2899 45.6231 33.3293 45.6175 33.3692 45.613C33.3841 45.6117 33.3991 45.6101 33.4141 45.6087C33.4762 45.6028 33.539 45.5999 33.6029 45.5999L33.4911 45.6028C33.5227 45.601 33.5544 45.5999 33.5862 45.5996L33.6029 45.5999L166.335 45.5996C166.355 45.5998 166.375 45.6002 166.395 45.6009C166.423 45.6021 166.451 45.6036 166.478 45.6056C166.486 45.6064 166.495 45.6071 166.503 45.6079C166.955 45.6467 167.35 45.8314 167.655 46.1061C167.664 46.1155 167.674 46.1242 167.683 46.133C167.788 46.2296 167.881 46.3374 167.962 46.4536C167.97 46.4656 167.979 46.4779 167.987 46.4903C168.009 46.5226 168.029 46.5554 168.049 46.5887C168.051 46.593 168.053 46.5971 168.056 46.6012L168.063 46.6137C168.082 46.6481 168.101 46.683 168.118 46.7185L168.056 46.6012C168.086 46.6531 168.113 46.7057 168.138 46.7589C168.367 47.2518 168.401 47.8391 168.161 48.3892C168.153 48.4069 168.145 48.4247 168.137 48.4423C168.113 48.4948 168.086 48.5469 168.056 48.5984L168.11 48.4978C168.095 48.5278 168.079 48.5575 168.063 48.5869L168.056 48.5984L134.861 106.208L101.696 163.818C101.688 163.832 101.68 163.846 101.671 163.86C101.657 163.883 101.643 163.906 101.628 163.928C101.612 163.953 101.595 163.977 101.578 164C101.567 164.014 101.556 164.029 101.545 164.043C101.526 164.07 101.505 164.096 101.483 164.121C101.475 164.129 101.468 164.137 101.461 164.145C101.148 164.504 100.734 164.719 100.298 164.792C100.284 164.794 100.27 164.796 100.255 164.799C100.108 164.82 99.9594 164.825 99.8115 164.814L99.9628 164.82C99.8902 164.82 99.8186 164.816 99.748 164.808C99.7215 164.806 99.6946 164.802 99.6677 164.798C99.6467 164.795 99.6259 164.792 99.6052 164.788C99.5735 164.783 99.5418 164.776 99.5102 164.769C99.5004 164.766 99.4907 164.764 99.481 164.761C99.4417 164.752 99.4024 164.742 99.3634 164.729C99.358 164.727 99.3523 164.725 99.3466 164.723C98.989 164.61 98.6589 164.394 98.4051 164.076C98.3421 163.996 98.2846 163.913 98.2335 163.825L98.2296 163.818L65.0645 106.208L31.87 48.5984C31.8378 48.5425 31.8117 48.4918 31.7878 48.4402C31.4979 47.821 31.5596 47.1486 31.863 46.6137C31.8652 46.6097 31.8677 46.6055 31.8701 46.6012L31.8774 46.5887C31.9014 46.5477 31.9268 46.5076 31.9536 46.4685L31.8701 46.6012C31.8999 46.5495 31.9316 46.4997 31.9652 46.4517C32.0224 46.3697 32.0857 46.292 32.1545 46.2193L32.1549 46.2197L32.2341 46.1397ZM72.0989 110.412L97.9619 155.339V125.383L72.0989 110.412ZM127.825 110.412L101.962 125.383V155.335L127.825 110.412ZM99.9609 88.3556L70.9719 105.137L99.9619 121.918L128.951 105.137L99.9609 88.3556ZM97.9619 51.0666L68.8549 67.9169L68.8539 101.741L97.9619 84.8909L97.9619 51.0666ZM101.962 51.0676V84.8916L131.069 101.741L131.07 67.9169L101.962 51.0676ZM39.0479 53.0466L64.8549 97.8336V67.9196L39.0479 53.0466ZM160.875 53.0476L135.07 67.9196V97.8326L160.875 53.0476ZM158.849 49.5986H107.408L133.072 64.4546L158.849 49.5986ZM92.5169 49.5986H41.0759L66.8529 64.4546L92.5169 49.5986Z" fill="currentColor"></path></svg>