<svg width="200" height="200" viewBox="0 0 200 200" fill="none" xmlns="http://www.w3.org/2000/svg"><path d="M140.523 148.57C141.628 148.57 142.523 149.465 142.523 150.57C142.523 151.624 141.707 152.488 140.672 152.564L140.523 152.57H59.4873C58.3827 152.57 57.4873 151.674 57.4873 150.57C57.4873 149.515 58.3032 148.652 59.338 148.575L59.4873 148.57H140.523ZM100.005 47.5996C107.754 47.5996 114.029 53.9053 114.029 61.6813C114.029 68.116 109.732 73.5439 103.859 75.225C106.851 87.2583 112.804 96.1748 122.591 99.7439C132.978 103.532 141.91 98.0345 149.204 86.9538C146.605 84.8795 144.942 81.6771 144.942 78.0797C144.942 71.817 149.983 66.7517 156.226 66.7517C162.469 66.7517 167.51 71.817 167.51 78.0797C167.51 84.3424 162.469 89.4077 156.226 89.4077C155.939 89.4077 155.654 89.397 155.372 89.3759L142.459 139.335C142.231 140.218 141.435 140.835 140.523 140.835H59.4872C58.5754 140.835 57.779 140.218 57.5508 139.335L44.6374 89.3759C44.3556 89.397 44.071 89.4077 43.7838 89.4077C37.5414 89.4077 32.5 84.3423 32.5 78.0797C32.5 71.8171 37.5414 66.7517 43.7838 66.7517C50.0262 66.7517 55.0676 71.8171 55.0676 78.0797C55.0676 81.6757 53.4054 84.877 50.8081 86.9512C58.1381 98.0441 67.0525 103.531 77.419 99.7439C87.2144 96.1715 93.1968 87.2188 96.1564 75.2252C90.2799 73.5463 85.9805 68.1174 85.9805 61.6813C85.9805 53.9054 92.2564 47.5996 100.005 47.5996ZM100.007 76.3136L99.9158 76.6799C96.6266 89.5975 89.9493 99.4318 78.7905 103.501C71.5513 106.146 64.743 105.025 58.5719 100.876C55.3303 98.6965 52.3898 95.7796 49.7366 92.3291L49.427 91.9216L61.036 136.835H138.973L150.577 91.9406L150.288 92.3231C147.774 95.6014 144.994 98.4016 141.941 100.543L141.456 100.876C135.286 105.024 128.471 106.146 121.221 103.502C110.07 99.4354 103.425 89.643 100.103 76.6922L100.007 76.3136ZM156.226 70.7517C152.197 70.7517 148.942 74.0219 148.942 78.0797C148.942 80.7724 150.375 83.1183 152.517 84.3919C152.649 84.4264 152.779 84.4773 152.904 84.5427C153.416 84.8097 153.886 84.993 154.392 85.1203L154.536 85.1622C154.623 85.1909 154.706 85.225 154.786 85.2642C155.251 85.3587 155.733 85.4077 156.226 85.4077C160.255 85.4077 163.51 82.1375 163.51 78.0797C163.51 74.0219 160.255 70.7517 156.226 70.7517ZM43.7838 70.7517C39.7548 70.7517 36.5 74.022 36.5 78.0797C36.5 82.1374 39.7548 85.4077 43.7838 85.4077C44.2769 85.4077 44.7583 85.3587 45.2237 85.2653C45.3414 85.2064 45.4677 85.1592 45.6007 85.1245C46.1204 84.9892 46.6207 84.7959 47.1045 84.5431C47.2307 84.4772 47.3609 84.426 47.4931 84.389C49.6348 83.1176 51.0676 80.772 51.0676 78.0797C51.0676 74.022 47.8128 70.7517 43.7838 70.7517ZM100.005 51.5996C94.4698 51.5996 89.9805 56.1103 89.9805 61.6813C89.9805 66.7212 93.6545 70.8932 98.4532 71.643C98.5617 71.6356 98.6719 71.6379 98.7832 71.6497C98.8633 71.6582 98.9311 71.6661 99.0122 71.6765L99.5653 71.7517C99.5671 71.7519 99.5689 71.7522 99.5707 71.7524C99.7142 71.7599 99.8592 71.763 100.005 71.763C100.147 71.763 100.289 71.76 100.43 71.7541L100.832 71.6988L101.228 71.6496L101.386 71.6385C101.443 71.637 101.5 71.638 101.556 71.6414C106.355 70.8931 110.029 66.7212 110.029 61.6813C110.029 56.1101 105.54 51.5996 100.005 51.5996Z" fill="currentColor"></path></svg>