<svg width="200" height="200" viewBox="0 0 200 200" fill="none" xmlns="http://www.w3.org/2000/svg"><path fill-rule="evenodd" clip-rule="evenodd" d="M50.2116 64C46.3124 64 43.1028 65.3447 40.9487 68.2381C38.8765 71.0214 38 74.9529 38 79.7026V131.04C38 132.485 38.3609 133.938 39.4337 135.015C40.508 136.094 41.9587 136.459 43.4039 136.459H50.2116C51.6568 136.459 53.1075 136.094 54.1818 135.015C55.2546 133.938 55.6155 132.485 55.6155 131.04V69.4189C55.6155 67.9732 55.2546 66.5211 54.1818 65.4436C53.1075 64.3645 51.6568 64 50.2116 64ZM42 79.7026C42 75.3353 42.8254 72.4155 44.1571 70.6268C45.4069 68.9481 47.3031 68 50.2116 68C51.0357 68 51.2869 68.2053 51.3472 68.2658C51.4091 68.328 51.6155 68.5853 51.6155 69.4189V131.04C51.6155 131.873 51.4091 132.131 51.3472 132.193C51.2869 132.253 51.0357 132.459 50.2116 132.459H43.4039C42.5798 132.459 42.3286 132.253 42.2683 132.193C42.2064 132.131 42 131.873 42 131.04V79.7026Z" fill="currentColor"></path><path fill-rule="evenodd" clip-rule="evenodd" d="M74.2817 77.7026C73.1771 77.7026 72.2817 78.598 72.2817 79.7026V120.783C72.2817 121.888 73.1771 122.783 74.2817 122.783H101.54C102.644 122.783 103.54 121.888 103.54 120.783V79.7026C103.54 78.598 102.644 77.7026 101.54 77.7026H74.2817ZM76.2817 118.783V81.7026H99.5397V118.783H76.2817Z" fill="currentColor"></path><path fill-rule="evenodd" clip-rule="evenodd" d="M74.2817 64C69.4176 64 65.4072 65.2268 62.628 68.0224C59.851 70.8158 58.6392 74.838 58.6392 79.7026V120.783C58.6392 125.675 59.8577 129.71 62.6371 132.51C65.4192 135.312 69.4296 136.54 74.2817 136.54H101.54C106.404 136.54 110.416 135.313 113.195 132.509C115.972 129.708 117.182 125.672 117.182 120.783V79.7026C117.182 74.823 115.963 70.7999 113.181 68.0101C110.398 65.2192 106.389 64 101.54 64H74.2817ZM62.6392 79.7026C62.6392 75.4502 63.6966 72.6211 65.4648 70.8425C67.2308 69.066 70.0417 68 74.2817 68H101.54C105.768 68 108.579 69.06 110.349 70.8344C112.119 72.6098 113.182 75.4381 113.182 79.7026V120.783C113.182 125.066 112.123 127.908 110.354 129.693C108.589 131.474 105.78 132.54 101.54 132.54H74.2817C70.0567 132.54 67.2459 131.475 65.4759 129.692C63.7033 127.906 62.6392 125.063 62.6392 120.783V79.7026Z" fill="currentColor"></path><path fill-rule="evenodd" clip-rule="evenodd" d="M122.715 97.0232C124.826 94.9164 127.828 94.0375 131.337 94.0375H150.437C153.827 94.0375 156.738 94.6845 158.834 96.3082C161.027 98.007 162 100.512 162 103.445C162 104.541 161.688 105.71 160.743 106.571C159.832 107.401 158.661 107.643 157.596 107.643H133.688C133.499 107.643 133.384 107.661 133.32 107.678C133.303 107.743 133.283 107.862 133.283 108.058C133.283 108.232 133.3 108.345 133.315 108.412C133.382 108.428 133.5 108.446 133.688 108.446H150.437C153.924 108.446 156.908 109.327 159.004 111.437C161.099 113.545 161.973 116.543 161.973 120.051V124.854C161.973 128.361 161.099 131.359 159.004 133.467C156.908 135.578 153.924 136.459 150.437 136.459H131.283C127.893 136.459 124.982 135.812 122.886 134.188C120.693 132.489 119.72 129.985 119.72 127.051C119.72 125.975 120.014 124.805 120.951 123.936C121.859 123.095 123.032 122.854 124.097 122.854H148.005C148.189 122.854 148.307 122.836 148.375 122.82C148.392 122.752 148.41 122.632 148.41 122.439C148.41 122.265 148.393 122.151 148.378 122.084C148.311 122.068 148.193 122.051 148.005 122.051H131.283C127.785 122.051 124.794 121.171 122.693 119.061C120.594 116.952 119.72 113.953 119.72 110.446V105.643C119.72 102.131 120.603 99.1308 122.715 97.0232ZM125.541 99.8544C124.444 100.949 123.72 102.751 123.72 105.643V110.446C123.72 113.341 124.44 115.145 125.528 116.238C126.615 117.33 128.406 118.051 131.283 118.051H148.005C149.104 118.051 150.301 118.323 151.211 119.221C152.125 120.125 152.41 121.324 152.41 122.439C152.41 123.537 152.141 124.738 151.239 125.652C150.332 126.57 149.126 126.854 148.005 126.854H124.097C123.927 126.854 123.807 126.867 123.728 126.882C123.723 126.925 123.72 126.981 123.72 127.051C123.72 129.056 124.341 130.256 125.336 131.026C126.427 131.871 128.298 132.459 131.283 132.459H150.437C153.298 132.459 155.083 131.739 156.167 130.648C157.253 129.554 157.973 127.749 157.973 124.854V120.051C157.973 117.155 157.253 115.35 156.167 114.256C155.083 113.165 153.298 112.446 150.437 112.446H133.688C132.589 112.446 131.392 112.174 130.482 111.275C129.568 110.372 129.283 109.173 129.283 108.058C129.283 106.943 129.567 105.746 130.47 104.839C131.375 103.93 132.572 103.643 133.688 103.643H157.596C157.782 103.643 157.91 103.627 157.992 103.61C157.996 103.568 158 103.514 158 103.445C158 101.44 157.379 100.241 156.385 99.4705C155.293 98.625 153.422 98.0375 150.437 98.0375H131.337C128.444 98.0375 126.638 98.7595 125.541 99.8544ZM133.344 107.611C133.344 107.611 133.343 107.614 133.339 107.62C133.342 107.614 133.344 107.611 133.344 107.611ZM133.263 107.696C133.257 107.7 133.253 107.702 133.253 107.702C133.253 107.702 133.256 107.7 133.263 107.696Z" fill="currentColor"></path><path fill-rule="evenodd" clip-rule="evenodd" d="M135.552 66.3358C131.309 63.702 125.782 64.9187 123.025 69.0726C122.973 69.151 122.927 69.2326 122.887 69.3167C120.596 73.0199 121.213 77.804 124.243 80.7934L121.881 88.8252C121.703 89.4299 121.821 90.083 122.199 90.5877C122.576 91.0923 123.17 91.3894 123.8 91.3894H128.69C129.336 91.3894 129.942 91.0771 130.318 90.551L138.584 78.9649C138.623 78.9111 138.658 78.8555 138.691 78.7982C141.17 74.4754 139.794 68.9683 135.552 66.3358ZM126.364 71.3022C126.401 71.2452 126.436 71.1865 126.467 71.1264C128.064 68.8966 131.096 68.2777 133.443 69.7344C135.821 71.2102 136.615 74.2807 135.266 76.7287L127.66 87.3894H126.473L128.447 80.6738C128.688 79.8559 128.383 78.9755 127.689 78.4808C125.411 76.8579 124.813 73.6681 126.364 71.3022Z" fill="currentColor"></path></svg>