<svg width="200" height="200" viewBox="0 0 200 200" fill="none" xmlns="http://www.w3.org/2000/svg"><path d="M41.9993 39.1618C56.5486 24.6494 80.2696 25.8725 93.2531 41.6248C94.3835 43.0105 95.3948 44.495 96.3113 46.099C96.3677 46.1977 96.4156 46.301 96.4544 46.4077C96.6469 46.9371 96.9533 47.509 97.4074 48.2075L97.4847 48.337C98.1984 49.6403 99.0913 50.9353 100.181 52.2639C109.712 63.8432 126.105 66.774 138.891 59.4015L138.77 59.4692C139.668 58.7097 140.667 58.0548 141.735 57.5148L141.932 57.4182L142.008 57.365L142.076 57.3219L142.218 57.244L142.698 57.0084C149.982 53.5581 158.766 55.4863 163.952 61.8253C168.045 66.8057 169.095 73.5676 166.828 79.4391C165.953 81.6879 164.733 83.6607 163.138 85.2942C163.066 85.3673 162.989 85.4349 162.907 85.4963C162.901 85.5009 162.889 85.5116 162.871 85.5298L162.136 86.3104C152.054 97.0548 151.077 113.643 159.981 125.526L159.925 125.451L159.898 125.414L159.934 125.451C160.011 125.528 160.082 125.611 160.145 125.7L160.324 125.973C160.377 126.047 160.444 126.135 160.539 126.255L160.799 126.583L160.909 126.737C160.977 126.839 161.033 126.941 161.08 127.044L161.093 127.077L161.231 127.23L161.405 127.412L161.496 127.509C161.555 127.576 161.609 127.647 161.658 127.722C163.852 131.032 164.562 135.081 163.694 138.928C162.991 142.069 161.292 144.858 158.771 146.937C154.619 150.339 149.037 151.135 144.152 149.172C143.98 149.103 143.818 149.01 143.671 148.895C142.642 148.096 141.524 147.385 139.989 146.52C129.169 140.673 115.727 141.857 106.072 149.805C103.725 151.74 101.666 154.048 99.9127 156.661L100.082 156.412L100.054 156.484C100.017 156.569 99.9738 156.653 99.9257 156.733L99.8495 156.852L99.815 156.897L99.7656 157.013C99.3815 157.864 98.955 158.653 98.475 159.396L98.26 159.716L98.2416 159.759L98.1451 159.925C96.9015 161.847 95.2768 163.645 93.3594 165.249C83.0105 173.766 67.7083 172.302 59.2054 161.969C52.9364 154.394 51.9549 143.888 56.4542 135.32L56.347 135.528L56.4508 135.267L56.5163 135.145L56.576 135.048L56.7036 134.802C56.9403 134.363 57.1914 133.946 57.4706 133.531L57.677 133.234L57.8579 132.909C63.6757 122.173 62.6026 108.874 54.8717 99.1856L54.5786 98.824C52.6548 96.4834 50.4051 94.4644 47.9505 92.8254L47.635 92.6269L47.4548 92.5276L47.3528 92.4646C45.467 91.2199 43.7205 89.8003 42.1415 88.2213C28.6899 74.8443 28.597 52.527 41.9993 39.1618ZM90.16 44.161C78.6798 30.2326 57.6997 29.1509 44.8241 41.9938L44.4728 42.3501C32.9976 54.1851 33.196 73.6842 44.966 85.389C46.3565 86.7795 47.8933 88.0286 49.5562 89.1262L49.476 89.0722L49.6133 89.1489L49.7439 89.2279L50.0892 89.4465C52.9472 91.3518 55.4914 93.635 57.668 96.2832C66.8189 107.403 68.0657 122.903 61.1245 135.268C61.0872 135.335 61.0461 135.399 61.0015 135.461L60.7884 135.766C60.5144 136.172 60.2779 136.582 60.0485 137.04L60.097 136.945L60.0773 137.004L59.9956 137.18C56.2386 144.334 57.0575 153.1 62.2906 159.423C69.3916 168.053 82.1725 169.275 90.8049 162.171C92.4128 160.826 93.7689 159.325 94.7868 157.752L94.602 158.028L94.6177 157.986C94.7131 157.747 94.839 157.544 94.987 157.375L95.078 157.279L95.1178 157.221C95.4875 156.648 95.8196 156.033 96.1235 155.359L96.3025 154.947C96.3441 154.848 96.393 154.754 96.4486 154.665L96.483 154.612L96.5911 154.432C98.4238 151.7 100.566 149.255 103.002 147.161L103.529 146.718C114.451 137.725 129.651 136.387 141.922 143.018C143.358 143.827 144.479 144.523 145.513 145.276L145.884 145.552L145.958 145.581C149.321 146.811 153.079 146.272 155.963 144.06L156.231 143.848C158.057 142.341 159.28 140.332 159.791 138.051C160.423 135.253 159.908 132.322 158.324 129.931L158.414 130.073L158.301 129.953L158.158 129.796L157.727 129.303L157.296 128.772C157.098 128.522 156.95 128.319 156.798 128.079C156.721 127.958 156.658 127.836 156.609 127.715L156.591 127.669L156.478 127.516C146.731 114.105 147.928 95.6061 159.242 83.5501L159.591 83.1831C159.614 83.1604 159.737 83.0254 159.811 82.9448L160.023 82.7212C160.074 82.6691 160.126 82.6193 160.178 82.5712L160.35 82.4202L160.549 82.2105C161.53 81.1342 162.322 79.8553 162.935 78.3957L163.098 77.9932C164.847 73.4642 164.033 68.2244 160.859 64.3615C156.777 59.3717 149.829 57.9103 144.146 60.7517L144.225 60.7132L144.117 60.7894L144.043 60.8347L143.887 60.9155C142.96 61.3481 142.102 61.8896 141.357 62.5204L141.405 62.4812L141.34 62.5478C141.173 62.7146 140.98 62.849 140.77 62.9467L140.69 62.9792L140.454 63.1136C126.189 71.0649 108.13 67.834 97.4166 55.1934L97.0909 54.8035C95.8486 53.2893 94.816 51.7916 93.9763 50.2582L94.012 50.322L93.8342 50.0431C93.4812 49.4765 93.1908 48.9456 92.9541 48.4145L92.8185 48.0955L92.767 47.9622L92.4865 47.4832C91.8922 46.4943 91.257 45.5627 90.5749 44.6828L90.16 44.161ZM57.4085 54.675C68.4753 43.6458 86.5227 44.5938 96.3654 56.573C97.2007 57.5898 97.9614 58.7073 98.6858 59.9551C98.7238 60.0205 98.7581 60.0881 98.7884 60.1574C99.0243 60.6963 99.2495 61.1263 99.4958 61.4958L99.5613 61.601C100.188 62.6812 100.828 63.6171 101.548 64.4863C108.479 72.9119 120.435 75.0528 129.753 69.6961L129.687 69.733L129.549 69.8102L129.806 69.5976C130.386 69.1325 131.001 68.7352 131.789 68.2918L132.138 68.0986C132.314 68.0024 132.503 67.9336 132.699 67.894L132.764 67.8832L132.916 67.816C138.387 65.423 144.852 66.8465 148.816 71.4414L149.033 71.6999C152.186 75.5307 152.982 80.7809 151.258 85.3191C150.627 87.0451 149.662 88.6077 148.401 89.9106L148.245 90.0555C148.133 90.1489 148.05 90.2312 147.996 90.299L147.876 90.4349C140.321 98.2489 139.525 110.5 146.078 119.259L145.996 119.148C146.122 119.274 146.23 119.416 146.318 119.57C146.328 119.587 146.35 119.619 146.386 119.665L146.644 119.982L146.757 120.128L146.834 120.243L146.89 120.339L147.209 120.682C147.268 120.749 147.322 120.82 147.371 120.895C149.086 123.488 149.641 126.669 148.947 129.665C148.379 132.11 147.064 134.29 145.116 135.905C141.884 138.558 137.52 139.182 133.715 137.651C133.543 137.581 133.382 137.488 133.235 137.375C132.406 136.73 131.521 136.153 130.559 135.623C122.736 131.335 112.926 132.202 105.856 138.009C104.129 139.422 102.606 141.116 101.352 142.998L101.305 143.062L101.274 143.141C100.979 143.827 100.64 144.457 100.246 145.041L100.007 145.378L99.9727 145.434C99.0015 146.854 97.9158 148.103 96.7074 149.151L96.3 149.492C88.3711 156.008 76.6403 154.867 70.1276 146.942C65.3319 141.11 64.5889 133.048 68.0474 126.493L67.906 126.767L67.9518 126.633L68.0269 126.463C68.3044 125.907 68.6249 125.376 69.0128 124.816L68.948 124.91L69.1171 124.603C73.286 116.81 72.5194 107.219 66.9759 100.188L66.7039 99.8503C65.2501 98.1056 63.6094 96.6265 61.815 95.4409L61.7057 95.3634C61.6346 95.3092 61.5672 95.2504 61.504 95.1872L61.6414 95.3173L61.5233 95.254L61.4126 95.1843C59.9569 94.2008 58.648 93.1367 57.4787 91.9674C47.2626 81.7892 47.2153 64.8303 57.4085 54.675ZM93.2747 59.1122C84.9273 48.9529 69.6232 48.149 60.2319 57.5084C51.6111 66.0972 51.6513 80.5153 60.3045 89.1364C61.2888 90.1206 62.4004 91.0243 63.6521 91.87L63.561 91.8062L63.7314 91.8981C63.8663 91.9742 63.9798 92.049 64.0942 92.1419L64.158 92.1972L64.5068 92.4335C66.2791 93.665 67.9121 95.1371 69.3881 96.8334L69.7868 97.3016C76.7308 105.768 77.6667 117.525 72.4021 126.932L72.3009 127.094C72.1298 127.341 71.981 127.573 71.8489 127.8L71.725 128.019L71.6675 128.183L71.5852 128.359C68.8718 133.502 69.4545 139.826 73.2175 144.401C78.3275 150.62 87.5376 151.516 93.7703 146.394C94.8352 145.53 95.7999 144.45 96.6713 143.176L96.518 143.393L96.5419 143.332C96.6495 143.117 96.7804 142.936 96.928 142.786L96.964 142.752L97.1283 142.491C97.2927 142.215 97.4438 141.918 97.5839 141.596L97.7204 141.265C97.8209 141.008 97.9735 140.775 98.1685 140.58L98.137 140.613L98.3684 140.275C99.6544 138.435 101.165 136.757 102.855 135.306L103.321 134.916C111.655 128.069 123.233 127.046 132.485 132.118C133.63 132.748 134.69 133.439 135.689 134.216L135.441 134.028L135.742 134.131C137.981 134.839 140.44 134.44 142.345 132.998L142.57 132.82C143.826 131.779 144.677 130.366 145.051 128.761C145.498 126.828 145.14 124.772 144.035 123.102L144.118 123.234L143.66 122.739C143.328 122.352 143.152 122.134 142.968 121.855L142.889 121.732L142.816 121.608L142.762 121.502L142.624 121.313C135.249 111.12 136.159 97.0922 144.709 87.9604L144.957 87.7002L145.059 87.5805C145.183 87.4425 145.317 87.3083 145.461 87.1773L145.567 87.0842L145.781 86.8545C146.441 86.11 146.974 85.2477 147.369 84.2872L147.51 83.9224C148.739 80.6853 148.173 76.9494 145.943 74.2401C143.045 70.7103 138.122 69.6797 134.09 71.6807C133.988 71.7316 133.882 71.773 133.775 71.8051L133.643 71.8382L133.522 71.9081C133.031 72.1933 132.651 72.4447 132.315 72.7129L132.207 72.8012L132.164 72.8442C132.081 72.9272 131.991 73.0026 131.895 73.0697L131.747 73.1639C120.74 79.4914 106.634 76.9655 98.4624 67.0322C97.5973 65.9872 96.8346 64.8711 96.1021 63.6094L96.131 63.6582L95.9767 63.4171C95.7284 63.015 95.5037 62.5895 95.2861 62.1209L95.179 61.8852L94.959 61.5125C94.5107 60.7738 94.0504 60.0992 93.5674 59.4783L93.2747 59.1122ZM72.8569 70.079C80.4752 62.5388 92.8091 63.2109 99.5765 71.4518C100.174 72.208 100.682 72.9559 101.144 73.765C101.2 73.8637 101.248 73.9669 101.287 74.0737C101.346 74.2344 101.433 74.3981 101.683 74.8141L101.85 75.0891C102.233 75.7097 102.569 76.1884 102.953 76.6436C107.281 81.9408 114.798 83.3001 120.653 79.9546L120.47 80.0552L120.621 79.9323C120.952 79.6702 121.29 79.447 121.705 79.2081L121.91 79.0922L121.932 79.0714C122.019 78.9942 122.114 78.9245 122.214 78.8632L122.369 78.7778C126.424 76.772 131.349 77.8059 134.218 81.3284C136.456 84.039 137.031 87.7597 135.812 90.9668C135.349 92.2134 134.659 93.3216 133.741 94.241C133.674 94.3078 133.602 94.3699 133.527 94.4266L133.548 94.408L133.599 94.3672L133.174 94.8205C128.646 99.7338 128.211 107.265 132.248 112.678L132.22 112.639L132.181 112.585L132.24 112.65C132.275 112.692 132.309 112.734 132.34 112.779L132.399 112.869L132.526 113.035C132.596 113.134 132.656 113.235 132.705 113.336L132.715 113.36C132.726 113.375 132.729 113.38 132.724 113.378L132.728 113.388L132.783 113.434C132.869 113.51 132.948 113.594 133.019 113.684L133.12 113.824C134.341 115.677 134.719 117.932 134.234 120.161C133.81 121.902 132.864 123.451 131.446 124.64C129.101 126.534 126.001 126.978 123.253 125.888C123.06 125.811 122.88 125.705 122.72 125.573C122.436 125.339 122.155 125.148 121.662 124.852L121.091 124.516L120.796 124.359C115.939 121.858 109.927 122.441 105.591 125.985C104.506 126.89 103.539 127.967 102.746 129.141L102.767 129.11L102.777 129.096L102.735 129.163L102.704 129.204C102.415 129.807 102.168 130.252 101.857 130.701L101.917 130.61L101.938 130.579L101.922 130.611L101.832 130.756C101.133 131.785 100.272 132.729 99.2758 133.56C93.7389 138.105 85.5773 137.298 81.0517 131.776C77.7263 127.721 77.2241 122.138 79.639 117.563L79.534 117.766L79.57 117.672L79.6596 117.489C79.8538 117.14 80.0519 116.82 80.3042 116.441L80.255 116.516L80.4018 116.252C82.9943 111.444 82.5274 105.461 79.1126 101.074L78.8906 100.796C77.9607 99.6802 76.9453 98.7564 75.8056 97.9864L75.7019 97.9114L75.641 97.8612L75.602 97.8386C74.7656 97.3033 73.9714 96.6768 73.2236 95.9708L72.8536 95.6112C65.8567 88.6539 65.8444 77.0127 72.8569 70.079ZM96.4612 73.9605C91.2093 67.5655 81.6111 67.0425 75.67 72.9227C70.2403 78.2913 70.2499 87.3813 75.678 92.7788C76.3382 93.4389 77.0332 94.0055 77.7582 94.4695L77.666 94.4082L77.7023 94.4258C77.763 94.4587 77.8216 94.494 77.8785 94.5313L78.0435 94.6496C78.0836 94.6808 78.1177 94.7085 78.1494 94.7357L78.194 94.7752L78.4767 94.9728C79.6155 95.7909 80.6548 96.7365 81.6166 97.8305L81.9737 98.2478C86.7328 104.052 87.362 112.153 83.7038 118.545L83.6319 118.661C83.4359 118.955 83.2934 119.185 83.1558 119.433L83.1765 119.43C81.5051 122.597 81.851 126.443 84.1451 129.24C87.27 133.053 92.9096 133.611 96.7258 130.478C97.4275 129.893 98.0362 129.226 98.5238 128.508L98.392 128.692L98.4076 128.661C98.4796 128.521 98.5672 128.391 98.6682 128.273L98.7153 128.197C98.8127 128.037 98.9115 127.853 99.0241 127.625L99.205 127.247C99.2772 127.092 99.3683 126.948 99.4757 126.818L99.538 126.747L99.7386 126.461C100.574 125.296 101.546 124.215 102.632 123.255L103.044 122.901C108.757 118.23 116.697 117.548 123.067 121.038L123.583 121.34C124.031 121.605 124.365 121.816 124.669 122.031L124.981 122.26L125.181 122.322C126.398 122.656 127.684 122.436 128.714 121.697L128.904 121.552C129.631 120.942 130.123 120.137 130.337 119.263C130.587 118.11 130.394 116.956 129.78 116.024L129.862 116.184C129.789 116.107 129.721 116.026 129.65 115.935L129.538 115.789L129.349 115.549L129.189 115.332C129.121 115.236 129.059 115.141 129 115.043L128.964 114.981L128.93 114.919L128.813 114.756C123.854 107.801 124.497 98.2919 130.3 92.0385L130.816 91.4934C130.911 91.4002 131.01 91.3144 131.125 91.2277L131.093 91.2208C131.445 90.8247 131.733 90.3621 131.96 89.8313L132.067 89.5602C132.787 87.6685 132.446 85.4644 131.125 83.8648C129.539 81.9182 126.893 81.2616 124.597 82.1622L124.522 82.1932L124.391 82.2979C124.266 82.3879 124.131 82.4635 123.988 82.5228L123.946 82.5372L123.756 82.6438C123.48 82.8003 123.281 82.9295 123.108 83.0651L123.063 83.1012C122.975 83.1891 122.884 83.2652 122.787 83.3328L122.637 83.4276C115.092 87.7389 105.424 85.9908 99.875 79.1982L99.6622 78.9395C99.1738 78.3308 98.7389 77.6821 98.2529 76.8718C97.9567 76.3781 97.7887 76.0779 97.6463 75.7424L97.6 75.6302L97.4499 75.3756C97.2241 75.0069 96.9843 74.6532 96.7259 74.3059L96.4612 73.9605ZM88.3013 85.4505C92.4069 81.3885 99.1079 81.7942 102.738 86.2759C102.918 86.5077 103.056 86.7058 103.233 86.9884L103.539 87.4903C103.594 87.5818 103.642 87.6774 103.681 87.7765C103.684 87.7841 103.7 87.8131 103.74 87.8814L103.944 88.216C104.075 88.418 104.219 88.6216 104.357 88.799C106.029 90.8583 108.823 91.4918 111.147 90.4353L111.345 90.3392L111.371 90.3184L111.486 90.238L111.597 90.1702L111.694 90.1028C111.819 90.0178 111.956 89.9339 112.13 89.8323L112.317 89.7243C112.513 89.6123 112.721 89.5366 112.934 89.496L112.946 89.4932C115.158 88.668 117.679 89.2672 119.287 91.0594L119.455 91.256C120.756 92.8705 121.082 95.0499 120.36 96.9406C120.078 97.6744 119.679 98.3205 119.137 98.863L119.029 98.9642L118.798 99.2124C117.057 101.14 116.844 104.039 118.315 106.248L118.42 106.399L118.509 106.511L118.624 106.644C118.68 106.715 118.73 106.787 118.775 106.859L118.79 106.886L118.847 106.964C119.566 108.015 119.805 109.311 119.58 110.579L119.529 110.832C119.281 111.879 118.678 112.853 117.816 113.544C116.397 114.679 114.528 114.919 112.859 114.264C112.681 114.194 112.513 114.099 112.362 113.981C112.126 113.798 111.895 113.643 111.678 113.522C109.67 112.413 107.159 112.619 105.293 114.121C104.865 114.454 104.479 114.878 104.154 115.366L104.275 115.193L104.207 115.342C104.165 115.429 104.12 115.516 104.073 115.601L103.926 115.855L103.768 116.103C103.378 116.688 102.897 117.217 102.303 117.711C99.1594 120.226 94.575 119.763 92.0804 116.643C90.1949 114.335 89.9226 111.19 91.3082 108.617L91.256 108.717L91.2838 108.654C91.3799 108.443 91.4812 108.279 91.6285 108.074L91.658 108.033L91.7328 107.897C92.7278 105.966 92.5581 103.623 91.2599 101.862L91.1051 101.662C90.7206 101.195 90.3026 100.81 89.8586 100.514L89.933 100.566L89.8627 100.531L89.7185 100.444C89.1893 100.091 88.7019 99.692 88.2498 99.2399C84.4935 95.4395 84.5072 89.2005 88.3013 85.4505ZM99.605 88.7622C97.4825 86.1423 93.5311 85.9031 91.1138 88.2947L90.9388 88.4758C88.8961 90.6871 88.9463 94.2544 91.0864 96.4198C91.3431 96.6764 91.6261 96.908 91.9371 97.1153L91.816 97.0302L92.0772 97.1854C92.8595 97.7068 93.5664 98.3584 94.2044 99.1332C96.7523 102.286 97.065 106.639 95.0856 110.103C95.0445 110.175 94.9989 110.244 94.9492 110.31L94.9091 110.361C94.9013 110.368 94.9095 110.349 94.9261 110.308L94.925 110.31L94.83 110.513C94.24 111.609 94.315 112.915 95.054 113.949L95.1913 114.129C96.3075 115.525 98.3717 115.733 99.7744 114.611C100.048 114.384 100.268 114.142 100.44 113.884L100.523 113.752L100.591 113.628L100.6 113.6C100.637 113.495 100.683 113.392 100.737 113.294L100.824 113.15C101.381 112.314 102.057 111.57 102.811 110.984C105.921 108.48 110.189 108.13 113.621 110.025C113.824 110.139 114.025 110.262 114.225 110.395L114.517 110.597L114.593 110.613C114.816 110.645 115.028 110.604 115.21 110.495L115.316 110.422C115.47 110.299 115.591 110.102 115.633 109.928C115.679 109.725 115.671 109.535 115.623 109.384L115.599 109.324L115.478 109.193C115.351 109.048 115.238 108.888 115.144 108.728L115.07 108.589L114.89 108.32C112.487 104.571 112.909 99.6748 115.92 96.4326L116.001 96.3462L116.073 96.2599L116.192 96.135L116.32 96.0184L116.379 95.9561C116.448 95.8712 116.511 95.7675 116.569 95.642L116.625 95.5091C116.842 94.9403 116.741 94.2623 116.352 93.7799C115.83 93.1442 114.94 92.9506 114.206 93.3005L114.129 93.3352L114.052 93.3665L113.972 93.3922L113.919 93.4292L113.831 93.5071L113.7 93.6047L113.559 93.6919C109.458 96.0098 104.262 95.0282 101.225 91.2873C100.92 90.8953 100.633 90.4804 100.389 90.0727C100.246 89.8347 100.156 89.678 100.079 89.5169L100.042 89.4362L99.8818 89.1737C99.8197 89.0736 99.7693 88.9951 99.7251 88.9294L99.643 88.8126L99.605 88.7622Z" fill="currentColor"></path></svg>