<svg width="200" height="200" viewBox="0 0 200 200" fill="none" xmlns="http://www.w3.org/2000/svg"><path fill-rule="evenodd" clip-rule="evenodd" d="M99.9402 27.8008C100.049 27.8008 100.157 27.8096 100.262 27.8269C100.27 27.828 100.277 27.8293 100.284 27.8306C100.286 27.8309 100.288 27.8312 100.29 27.8316L100.452 27.8674C100.454 27.8679 100.456 27.8683 100.458 27.8688C100.469 27.872 100.481 27.8752 100.492 27.8785C100.537 27.8913 100.582 27.906 100.627 27.9223C100.7 27.949 100.772 27.9801 100.841 28.0153C100.874 28.0318 100.906 28.0492 100.938 28.0676L161.878 63.1585L161.905 63.1737C161.93 63.1885 161.954 63.2037 161.978 63.2196L161.878 63.1585C161.931 63.1889 161.982 63.2216 162.032 63.2563C162.153 63.3411 162.266 63.4403 162.367 63.553C162.372 63.5597 162.378 63.5658 162.383 63.5719C162.409 63.6009 162.434 63.6314 162.459 63.6629C162.469 63.6761 162.478 63.6889 162.488 63.7018C162.507 63.7272 162.525 63.7534 162.543 63.7801C162.556 63.7992 162.568 63.8181 162.58 63.8372C162.585 63.8445 162.589 63.8524 162.594 63.8604L162.63 63.9229C162.64 63.9402 162.649 63.9577 162.658 63.9753L162.594 63.8604C162.636 63.9291 162.672 63.9994 162.704 64.0707C162.712 64.0881 162.719 64.1052 162.726 64.1223C162.784 64.2589 162.825 64.4 162.85 64.5424C162.852 64.5538 162.854 64.5655 162.855 64.5772C162.862 64.6159 162.867 64.6545 162.871 64.6931C162.872 64.7048 162.873 64.7162 162.873 64.7277L162.877 64.763C162.878 64.7925 162.88 64.8219 162.88 64.8513C162.88 64.8649 162.88 64.8783 162.88 64.8917V135.14L162.873 135.304C162.86 135.457 162.832 135.603 162.787 135.744C162.782 135.758 162.778 135.772 162.773 135.785C162.743 135.874 162.706 135.962 162.663 136.047C162.656 136.06 162.649 136.074 162.642 136.087C162.634 136.102 162.626 136.116 162.618 136.131L162.585 136.185C162.576 136.2 162.566 136.215 162.557 136.23L162.618 136.131C162.58 136.197 162.539 136.26 162.495 136.321C162.483 136.336 162.471 136.352 162.459 136.367C162.438 136.395 162.416 136.422 162.393 136.448C162.379 136.464 162.365 136.48 162.35 136.496C162.328 136.521 162.304 136.545 162.28 136.569C162.268 136.58 162.256 136.592 162.243 136.603C162.177 136.666 162.105 136.724 162.03 136.777C162.009 136.79 161.989 136.804 161.968 136.818C161.946 136.833 161.922 136.848 161.898 136.862L161.878 136.873L101.012 171.922C100.702 172.119 100.334 172.233 99.9402 172.233C99.5461 172.233 99.1786 172.119 98.8689 171.922L38.017 136.882C37.9729 136.857 37.9297 136.831 37.8877 136.802L38.0022 136.873C37.952 136.844 37.9033 136.813 37.8562 136.78C37.8234 136.758 37.7914 136.734 37.7602 136.71C37.7495 136.7 37.7383 136.691 37.7273 136.682C37.6991 136.66 37.6723 136.637 37.6462 136.613C37.6305 136.597 37.6146 136.582 37.5989 136.566C37.5755 136.545 37.5526 136.521 37.5303 136.497C37.5158 136.48 37.5014 136.464 37.4873 136.448C37.4643 136.422 37.4422 136.395 37.4208 136.367C37.4097 136.352 37.3986 136.337 37.3877 136.323C37.3631 136.29 37.3398 136.256 37.3175 136.221C37.3121 136.212 37.3065 136.203 37.3009 136.194C37.2875 136.174 37.2749 136.152 37.2626 136.131L37.2389 136.087C37.2311 136.072 37.2235 136.058 37.216 136.043L37.2626 136.131C37.2276 136.069 37.1961 136.006 37.168 135.942C37.1581 135.919 37.148 135.894 37.1384 135.87C37.1284 135.845 37.1195 135.821 37.1111 135.797C37.1026 135.772 37.0941 135.746 37.0862 135.72C37.0619 135.64 37.0429 135.56 37.029 135.478C37.0235 135.445 37.0186 135.412 37.0146 135.379C37.0049 135.299 37.0002 135.218 37.0002 135.138L37.0003 64.8917L37.0004 64.8513C37.0021 64.7607 37.01 64.6698 37.0243 64.5794C37.0279 64.5601 37.0312 64.541 37.0347 64.5219C37.04 64.491 37.0467 64.4596 37.0541 64.4284C37.0594 64.4085 37.0643 64.3891 37.0695 64.3698C37.078 64.3366 37.088 64.3031 37.0989 64.2699C37.1051 64.2525 37.111 64.2351 37.1172 64.2178C37.1281 64.1865 37.1401 64.1555 37.1529 64.1247C37.1618 64.104 37.1709 64.083 37.1805 64.0621C37.1936 64.033 37.2075 64.0044 37.2221 63.9761C37.2313 63.9584 37.2408 63.9406 37.2506 63.9229C37.2622 63.9019 37.2742 63.8811 37.2867 63.8604L37.3027 63.8342C37.312 63.8193 37.3215 63.8044 37.3312 63.7897L37.2867 63.8604C37.3197 63.8056 37.3548 63.753 37.392 63.7026C37.4061 63.6837 37.4206 63.6648 37.4354 63.6462C37.4528 63.624 37.4706 63.6025 37.4888 63.5815C37.5044 63.5639 37.5201 63.5464 37.5361 63.5292C37.5573 63.5058 37.5793 63.4832 37.6018 63.4612C37.616 63.448 37.6293 63.4353 37.6428 63.4228C37.6688 63.3982 37.696 63.3744 37.7237 63.3514C37.7331 63.3442 37.742 63.337 37.751 63.3298C37.7847 63.3022 37.8196 63.2762 37.8553 63.2513C37.8644 63.2455 37.8736 63.2392 37.8829 63.2329C37.9163 63.2099 37.9501 63.1887 37.9844 63.1685C37.9899 63.1656 37.996 63.162 38.0022 63.1585L98.9422 28.0676C99.087 27.9842 99.2397 27.9203 99.3965 27.876C99.4048 27.8737 99.4136 27.8713 99.4224 27.869C99.4559 27.8599 99.4891 27.8519 99.5226 27.8448C99.5459 27.8399 99.5701 27.8352 99.5944 27.8309C99.6088 27.8283 99.6227 27.826 99.6366 27.8239C99.7361 27.8086 99.8377 27.8008 99.9402 27.8008ZM50.228 139.296L97.94 166.77V148.308L50.228 139.296ZM149.652 139.296L101.94 148.308V166.77L149.652 139.296ZM60.313 82.2887L41.6829 133.612L95.925 143.857L78.2207 114.433C78.2093 114.414 78.1981 114.394 78.1872 114.375L60.313 82.2887ZM139.567 82.2887L121.693 114.375L121.659 114.433L103.955 143.857L158.197 133.612L139.567 82.2887ZM136.548 79.4883H63.3322L81.6654 112.399L99.9402 142.772L118.215 112.399L136.548 79.4883ZM41 68.4287V123.769L57.487 78.3517L41 68.4287ZM158.88 68.4287L142.392 78.3527L158.88 123.769V68.4287ZM99.9402 32.9123L64.217 75.4877H135.663L99.9402 32.9123ZM108.737 37.1737L140.385 74.8925L156.938 64.9297L108.737 37.1737ZM91.143 37.1737L42.942 64.9297L59.4955 74.8925L91.143 37.1737Z" fill="currentColor"></path></svg>