<svg width="200" height="200" viewBox="0 0 200 200" fill="none" xmlns="http://www.w3.org/2000/svg"><path d="M87.9497 114.759C87.9497 113.654 88.8451 112.759 89.9497 112.759H110.058C111.163 112.759 112.058 113.654 112.058 114.759C112.058 115.863 111.163 116.759 110.058 116.759H89.9497C88.8451 116.759 87.9497 115.863 87.9497 114.759Z" fill="currentColor"></path><path fill-rule="evenodd" clip-rule="evenodd" d="M144.425 108.53C139.116 108.53 134.827 112.819 134.827 118.127C134.827 123.436 139.116 127.725 144.425 127.725C149.733 127.725 154.022 123.436 154.022 118.127C154.022 112.819 149.733 108.53 144.425 108.53ZM138.827 118.127C138.827 115.028 141.325 112.53 144.425 112.53C147.524 112.53 150.022 115.028 150.022 118.127C150.022 121.227 147.524 123.725 144.425 123.725C141.325 123.725 138.827 121.227 138.827 118.127Z" fill="currentColor"></path><path fill-rule="evenodd" clip-rule="evenodd" d="M55.583 108.53C50.2744 108.53 45.9854 112.819 45.9854 118.127C45.9854 123.436 50.2744 127.725 55.583 127.725C60.8916 127.725 65.1806 123.436 65.1806 118.127C65.1806 112.819 60.8916 108.53 55.583 108.53ZM49.9854 118.127C49.9854 115.028 52.4835 112.53 55.583 112.53C58.6825 112.53 61.1806 115.028 61.1806 118.127C61.1806 121.227 58.6825 123.725 55.583 123.725C52.4835 123.725 49.9854 121.227 49.9854 118.127Z" fill="currentColor"></path><path fill-rule="evenodd" clip-rule="evenodd" d="M146.679 143.958C146.995 143.958 147.294 143.885 147.56 143.754C160.345 142.204 170.25 131.315 170.25 118.112C170.25 108.553 165.058 100.207 157.34 95.7398V89.6866C157.34 83.7955 152.57 79.0253 146.679 79.0253H146.425V63.7533C146.425 59.0779 142.617 55.27 137.941 55.27H62.0663C57.3909 55.27 53.583 59.0779 53.583 63.7533V79.0253H53.3544C47.4633 79.0253 42.6931 83.7955 42.6931 89.6866V95.7254C34.957 100.188 29.75 108.544 29.75 118.117C29.75 131.328 39.6672 142.222 52.4631 143.762C52.725 143.888 53.0187 143.958 53.3289 143.958H146.679ZM62.0663 59.27C59.6 59.27 57.583 61.287 57.583 63.7533V79.0253H142.425V63.7533C142.425 61.287 140.408 59.27 137.941 59.27H62.0663ZM55.583 83.0506C55.4744 83.0506 55.3678 83.042 55.2639 83.0253H53.3544C49.6725 83.0253 46.6931 86.0047 46.6931 89.6866V93.8554C49.4644 92.8398 52.4581 92.2856 55.5813 92.2856C69.8475 92.2856 81.4126 103.851 81.4126 118.117C81.4126 127.309 76.6109 135.38 69.3788 139.958H130.629C123.393 135.381 118.587 127.308 118.587 118.112C118.587 103.846 130.152 92.2807 144.419 92.2807C147.554 92.2807 150.56 92.8394 153.34 93.8627V89.6866C153.34 86.0047 150.361 83.0253 146.679 83.0253H144.744C144.64 83.042 144.533 83.0506 144.425 83.0506C144.316 83.0506 144.21 83.042 144.106 83.0253H127.298L113.72 96.0194C113.348 96.3756 112.853 96.5744 112.337 96.5744H87.6704C87.1552 96.5744 86.6599 96.3756 86.2876 96.0194L72.7096 83.0253H55.9021C55.7982 83.042 55.6916 83.0506 55.583 83.0506ZM154.536 98.7613C154.459 98.7278 154.386 98.6896 154.315 98.6472C151.344 97.1339 147.981 96.2807 144.419 96.2807C132.362 96.2807 122.587 106.055 122.587 118.112C122.587 130.169 132.362 139.943 144.419 139.943C156.476 139.943 166.25 130.169 166.25 118.112C166.25 109.706 161.499 102.409 154.536 98.7613ZM78.4949 83.0253L88.4732 92.5744H111.535L121.513 83.0253H78.4949ZM45.8101 98.589C45.6808 98.6762 45.5408 98.7487 45.3925 98.804C38.4684 102.465 33.75 109.74 33.75 118.117C33.75 130.174 43.5242 139.948 55.5813 139.948C67.6384 139.948 77.4126 130.174 77.4126 118.117C77.4126 106.06 67.6384 96.2856 55.5813 96.2856C52.0687 96.2856 48.7499 97.1151 45.8101 98.589Z" fill="currentColor"></path></svg>