<svg xmlns="http://www.w3.org/2000/svg" width="24" height="24" viewBox="0 0 24 24" data-src="data:image/svg+xml,%3Csvg width='24' height='24' viewBox='0 0 24 24' xmlns='http://www.w3.org/2000/svg'%3E %3Cpath d='M12 21.35L10.55 20.05C8.86667 18.5333 7.475 17.225 6.375 16.125C5.275 15.025 4.4 14.0373 3.75 13.162C3.1 12.2873 2.646 11.4833 2.388 10.75C2.12933 10.0167 2 9.26667 2 8.5C2 6.93333 2.525 5.625 3.575 4.575C4.625 3.525 5.93333 3 7.5 3C8.36667 3 9.19167 3.18333 9.975 3.55C10.7583 3.91667 11.4333 4.43333 12 5.1C12.5667 4.43333 13.2417 3.91667 14.025 3.55C14.8083 3.18333 15.6333 3 16.5 3C18.0667 3 19.375 3.525 20.425 4.575C21.475 5.625 22 6.93333 22 8.5C22 9.26667 21.871 10.0167 21.613 10.75C21.3543 11.4833 20.9 12.2873 20.25 13.162C19.6 14.0373 18.725 15.025 17.625 16.125C16.525 17.225 15.1333 18.5333 13.45 20.05L12 21.35ZM12 18.65C13.6 17.2167 14.9167 15.9873 15.95 14.962C16.9833 13.9373 17.8 13.046 18.4 12.288C19 11.5293 19.4167 10.854 19.65 10.262C19.8833 9.67067 20 9.08333 20 8.5C20 7.5 19.6667 6.66667 19 6C18.3333 5.33333 17.5 5 16.5 5C15.7167 5 14.9917 5.22067 14.325 5.662C13.6583 6.104 13.2 6.66667 12.95 7.35H11.05C10.8 6.66667 10.3417 6.104 9.675 5.662C9.00833 5.22067 8.28333 5 7.5 5C6.5 5 5.66667 5.33333 5 6C4.33333 6.66667 4 7.5 4 8.5C4 9.08333 4.11667 9.67067 4.35 10.262C4.58333 10.854 5 11.5293 5.6 12.288C6.2 13.046 7.01667 13.9373 8.05 14.962C9.08333 15.9873 10.4 17.2167 12 18.65Z'/%3E %3C/svg%3E" xmlns:xlink="http://www.w3.org/1999/xlink"><path d="M12 21.35L10.55 20.05C8.86667 18.5333 7.475 17.225 6.375 16.125C5.275 15.025 4.4 14.0373 3.75 13.162C3.1 12.2873 2.646 11.4833 2.388 10.75C2.12933 10.0167 2 9.26667 2 8.5C2 6.93333 2.525 5.625 3.575 4.575C4.625 3.525 5.93333 3 7.5 3C8.36667 3 9.19167 3.18333 9.975 3.55C10.7583 3.91667 11.4333 4.43333 12 5.1C12.5667 4.43333 13.2417 3.91667 14.025 3.55C14.8083 3.18333 15.6333 3 16.5 3C18.0667 3 19.375 3.525 20.425 4.575C21.475 5.625 22 6.93333 22 8.5C22 9.26667 21.871 10.0167 21.613 10.75C21.3543 11.4833 20.9 12.2873 20.25 13.162C19.6 14.0373 18.725 15.025 17.625 16.125C16.525 17.225 15.1333 18.5333 13.45 20.05L12 21.35ZM12 18.65C13.6 17.2167 14.9167 15.9873 15.95 14.962C16.9833 13.9373 17.8 13.046 18.4 12.288C19 11.5293 19.4167 10.854 19.65 10.262C19.8833 9.67067 20 9.08333 20 8.5C20 7.5 19.6667 6.66667 19 6C18.3333 5.33333 17.5 5 16.5 5C15.7167 5 14.9917 5.22067 14.325 5.662C13.6583 6.104 13.2 6.66667 12.95 7.35H11.05C10.8 6.66667 10.3417 6.104 9.675 5.662C9.00833 5.22067 8.28333 5 7.5 5C6.5 5 5.66667 5.33333 5 6C4.33333 6.66667 4 7.5 4 8.5C4 9.08333 4.11667 9.67067 4.35 10.262C4.58333 10.854 5 11.5293 5.6 12.288C6.2 13.046 7.01667 13.9373 8.05 14.962C9.08333 15.9873 10.4 17.2167 12 18.65Z"></path></svg>