<svg width="200" height="200" viewBox="0 0 200 200" fill="none" xmlns="http://www.w3.org/2000/svg"><path fill-rule="evenodd" clip-rule="evenodd" d="M100.272 55.6636C104.149 55.6636 107.885 56.162 111.475 57.0864C112.545 57.3618 113.189 58.4523 112.913 59.5219C112.638 60.5916 111.547 61.2355 110.478 60.9601C107.23 60.1239 103.86 59.6712 100.36 59.6637C100.244 59.6867 100.123 59.6978 100 59.6978C81.6711 59.6978 66.2527 71.9128 61.3265 88.6602L61.18 89.1697C60.2056 92.6457 59.657 96.2711 59.657 100.017C59.657 103.513 60.1349 106.904 60.9908 110.167L61.1792 110.861C63.0063 117.335 66.3394 123.15 70.8341 127.859C71.0452 128.08 71.2591 128.299 71.4754 128.515C71.5576 128.597 71.6312 128.685 71.6961 128.777L71.7866 128.917C72.2368 129.684 72.133 130.686 71.4754 131.344L54.7634 148.06C66.5748 159.184 82.4792 166 100 166C132.684 166 159.798 142.248 165.042 111.039L165.066 110.922L165.185 110.172C165.697 106.844 166 103.452 166 100.017C166 96.8342 165.764 93.6985 165.311 90.6299H138.979C137.874 90.6299 136.979 89.7345 136.979 88.6299C136.979 87.5253 137.874 86.6299 138.979 86.6299L167.02 86.629L167.154 86.634L167.195 86.6379C167.24 86.6419 167.284 86.6474 167.329 86.6544C167.338 86.656 167.348 86.6577 167.358 86.6594L167.34 86.656L167.403 86.6676C167.428 86.6724 167.452 86.6777 167.477 86.6835C167.489 86.6866 167.501 86.6896 167.513 86.6927C167.549 86.7017 167.585 86.7121 167.621 86.7233C167.636 86.7286 167.652 86.7338 167.668 86.7392C167.701 86.7503 167.733 86.7624 167.765 86.7754C167.778 86.7809 167.791 86.7865 167.805 86.7922C167.837 86.806 167.869 86.8207 167.9 86.8361C167.913 86.8428 167.927 86.8496 167.94 86.8565C167.971 86.8724 168.001 86.8891 168.03 86.9065C168.046 86.9158 168.061 86.9253 168.077 86.9351C168.1 86.9496 168.123 86.9645 168.145 86.9799L168.196 87.0159C168.225 87.0374 168.254 87.0598 168.282 87.0829C168.291 87.0902 168.3 87.0977 168.309 87.1052C168.334 87.1266 168.359 87.1485 168.383 87.1709C168.393 87.1809 168.404 87.1912 168.415 87.2016L168.429 87.2157C168.53 87.3166 168.62 87.4282 168.698 87.5486C168.707 87.5629 168.716 87.5774 168.725 87.592C168.743 87.6214 168.76 87.6514 168.776 87.6819L168.791 87.7099C168.834 87.7919 168.871 87.8774 168.902 87.9657C168.905 87.9749 168.908 87.9835 168.91 87.9922C168.924 88.029 168.935 88.0667 168.945 88.1049L168.957 88.1541C168.966 88.185 168.972 88.2164 168.979 88.248C168.98 88.2608 168.983 88.2736 168.985 88.2865C169.65 92.103 170 96.0249 170 100.017C170 104.02 169.614 107.938 168.988 111.73C168.979 111.787 168.967 111.843 168.953 111.899L168.987 111.702C163.425 144.805 134.671 170 100 170C80.6555 170 63.1612 162.16 50.4997 149.495C49.7189 148.714 49.7189 147.448 50.4997 146.667L52.101 145.065L67.2654 129.897L67.2212 129.849C62.6339 124.81 59.2025 118.698 57.3272 111.939C56.2638 108.146 55.657 104.157 55.657 100.017C55.657 95.9343 56.2471 91.9987 57.2845 88.2478C57.296 88.1843 57.3107 88.1199 57.3287 88.0557C62.5583 69.4095 79.6359 55.6636 100 55.6636L100.137 55.6681C100.181 55.6651 100.226 55.6636 100.272 55.6636ZM100 30C119.311 30 136.805 37.8407 149.467 50.505C150.247 51.286 150.247 52.552 149.467 53.333L131.32 71.4845L131.309 71.494L112.81 90.0334C112.806 90.0373 112.802 90.0411 112.798 90.045L93.4143 109.404L140.688 109.404C140.75 109.402 140.813 109.404 140.876 109.408L140.856 109.407L140.952 109.414C140.971 109.416 140.99 109.419 141.009 109.421C141.046 109.426 141.082 109.432 141.118 109.439C141.129 109.441 141.14 109.443 141.151 109.445C141.181 109.451 141.212 109.458 141.242 109.466C141.256 109.47 141.27 109.474 141.285 109.478L141.304 109.483C141.337 109.492 141.37 109.503 141.402 109.514L141.388 109.51L141.434 109.526C141.47 109.539 141.505 109.553 141.539 109.568L141.57 109.581C141.605 109.597 141.639 109.614 141.673 109.632C141.682 109.636 141.69 109.64 141.698 109.645C141.721 109.658 141.744 109.671 141.767 109.684C141.79 109.697 141.812 109.711 141.834 109.725C141.891 109.763 141.947 109.804 142 109.847C142.089 109.918 142.172 109.997 142.246 110.082L142.255 110.092C142.455 110.321 142.603 110.596 142.682 110.899L142.696 110.958C142.713 111.033 142.726 111.109 142.734 111.187L142.739 111.233C142.74 111.252 142.742 111.27 142.743 111.288C142.746 111.345 142.747 111.402 142.745 111.46C142.745 111.47 142.745 111.481 142.745 111.492C142.744 111.505 142.743 111.519 142.742 111.533C142.736 111.682 142.712 111.831 142.671 111.978C137.442 130.624 120.364 144.37 99.9998 144.37L99.968 144.369L99.2097 144.363C94.744 144.289 90.4935 143.587 86.4925 142.342C85.4378 142.014 84.8487 140.893 85.1767 139.839C85.5047 138.784 86.6257 138.195 87.6804 138.523C91.4301 139.689 95.4298 140.335 99.6546 140.369C99.7671 140.346 99.8824 140.336 100 140.336C117.567 140.336 132.461 129.115 138.006 113.438L88.5815 113.438C87.477 113.438 86.5815 112.543 86.5815 111.438L86.5816 111.417L86.5819 111.367C86.5824 111.338 86.5837 111.308 86.5855 111.278L86.5816 111.417C86.5811 111.347 86.5844 111.277 86.5914 111.207C86.5943 111.176 86.598 111.146 86.6023 111.116C86.6064 111.089 86.611 111.062 86.6161 111.034C86.6219 111.002 86.6286 110.971 86.6361 110.939C86.6412 110.919 86.6463 110.899 86.6517 110.879C86.661 110.844 86.6717 110.808 86.6833 110.773C86.6902 110.754 86.6969 110.735 86.7039 110.715C86.7171 110.678 86.732 110.641 86.748 110.604C86.7549 110.589 86.7615 110.575 86.7683 110.56C86.7855 110.522 86.8046 110.484 86.825 110.447C86.8329 110.433 86.8403 110.42 86.8478 110.407C86.9333 110.258 87.0403 110.117 87.1682 109.989L87.552 109.605L109.971 87.2148L128.49 68.6576L128.493 68.654L145.203 51.9403C133.391 40.8159 117.488 34 100 34C67.3163 34 40.2022 57.752 34.958 88.9612L34.954 88.979L34.8145 89.8616C34.3038 93.1898 34 96.5822 34 100.017C34 103.775 34.3296 107.467 34.9558 111.061L34.976 111.209L34.9572 111.102C36.1118 117.866 38.2889 124.3 41.3233 130.205C41.8281 131.188 41.4409 132.393 40.4585 132.898C39.476 133.403 38.2703 133.016 37.7655 132.033C34.547 125.77 32.2384 118.947 31.0142 111.775C31.0052 111.722 30.9984 111.67 30.9936 111.618L31.0152 111.747C30.3501 107.931 30 104.009 30 100.017C30 96.0137 30.3861 92.0962 31.0122 88.3039L31.015 88.286L31.1871 87.3077C37.1514 54.6943 65.6765 30 100 30Z" fill="currentColor"></path></svg>