<svg width="200" height="200" viewBox="0 0 200 200" fill="none" xmlns="http://www.w3.org/2000/svg"><path d="M60.357 37.1279C62.7407 38.9163 64.5403 40.8807 67.1511 44.3247L68.9986 46.8078C74.2722 53.9293 77.3141 56.3375 82.7977 56.3375C89.1354 56.3375 93.0144 52.7405 93.3073 47.963C93.5874 43.3952 90.4542 39.8333 85.2261 39.8333C82.0475 39.8333 79.3412 42.0253 79.3412 44.6394C79.3412 45.744 78.4458 46.6394 77.3412 46.6394C76.2366 46.6394 75.3412 45.744 75.3412 44.6394C75.3412 39.6086 80.0021 35.8333 85.2261 35.8333C92.8228 35.8333 97.7173 41.3976 97.2998 48.2078C96.8768 55.1079 91.2371 60.3375 82.7977 60.3375C78.8384 60.3375 75.5146 59.1037 72.5302 56.7409C71.0783 55.5915 69.8609 54.3617 68.4118 52.5957C67.9228 58.4558 63.4733 62.4847 56.8516 62.4537C44.9543 62.4183 43.0823 46.1851 54.6871 45.1916C55.7877 45.0974 56.7562 45.9131 56.8504 47.0137C56.9446 48.1142 56.1289 49.0828 55.0283 49.177C48.7984 49.7103 49.8042 58.4327 56.8669 58.4536C66.7968 58.5002 67.3652 46.169 56.3991 39.3299C56.2343 39.2271 56.0896 39.1043 55.9662 38.9665C53.6412 37.6716 51.1309 37.1494 47.9497 37.2021C41.0883 37.3185 36.8061 41.5917 36.1065 48.163C35.3802 55.1658 38.4201 60.6409 44.5912 64.6156C44.7419 64.6723 44.8881 64.7482 45.0264 64.844L45.5169 65.1867C46.6605 65.8629 47.9009 66.4922 49.2344 67.075C56.8769 70.4148 67.1589 71.8546 75.5756 71.1838C75.6817 71.1547 75.7928 71.1368 75.9066 71.1284L76.0558 71.1229C77.1102 71.1229 77.974 71.9388 78.0503 72.9736L78.0558 73.1229L78.055 134.253L85.397 130.286L85.3973 69.119C85.3973 68.2754 85.9256 67.5287 86.7072 67.2418L86.8678 67.1903L87.2597 67.0728C88.4373 66.702 90.1793 66.0071 92.2668 64.9248C96.0774 62.9491 99.7246 60.3141 102.913 56.9364C103.186 56.6469 103.454 56.35 103.714 56.0489L104.099 55.5947L104.302 55.3452C104.385 55.2431 104.475 55.1522 104.568 55.0722C104.617 54.9753 104.675 54.8803 104.742 54.7886L104.789 54.7283L105.205 54.173C105.628 53.5954 106.034 52.9984 106.424 52.3831L106.808 51.7617L107.183 51.1286C108.872 48.2004 110.158 45.0473 111.087 41.8928C111.366 40.9469 111.594 40.0604 111.777 39.2511L111.864 38.8529C111.936 38.517 111.99 38.245 112.027 38.0437L112.075 37.7593C112.293 36.3418 113.887 35.607 115.106 36.3627C118.409 38.4109 121.78 39.8692 125.22 40.7864L125.865 40.952L151.518 47.1855C159.229 49.0491 163.869 54.3178 164.015 62.1002L164.018 62.4787L164.075 82.0963C164.077 82.7764 163.734 83.4066 163.171 83.7751L163.026 83.8616L147.9 92.0352L148.711 92.4624C151.167 93.7803 153.61 95.2962 155.914 97.0061C163.239 102.444 167.781 108.753 167.988 115.96C168.298 126.738 163.035 133.963 153.018 140.358C152.149 140.913 151.555 141.283 150.677 141.801L150.333 142.003L147.063 143.884C146.998 143.931 146.928 143.975 146.855 144.016C144.446 145.365 143.028 146.162 141.924 146.79L141.769 146.878L140.027 147.882L138.367 148.859C130.359 153.634 125.792 157.378 123.29 161.642C122.959 162.207 122.374 162.571 121.728 162.624L121.565 162.63H56.8292C55.7749 162.63 54.9111 161.814 54.8347 160.779L54.8292 160.63L54.8363 160.433C54.8879 159.82 55.2192 159.265 55.7336 158.928L55.8783 158.842L90.5889 140.083C90.8264 139.954 91.0867 139.876 91.354 139.851L91.5556 139.842L144.923 140.263C150.817 132.619 150.659 125.186 145.224 119.199C139.615 113.019 129.014 109.152 116.823 109.152C115.769 109.152 114.905 108.336 114.829 107.301L114.823 107.152V106.523C114.823 105.845 115.166 105.217 115.728 104.85L115.872 104.764L141.448 90.9452L141.45 73.6704L141.498 71.6391L141.502 71.2206L141.5 70.9567C141.465 68.0902 140.819 66.8188 138.599 66.1957L138.386 66.1391L107.851 58.4093L107.852 121.475C107.863 122.148 107.532 122.805 106.937 123.188L106.803 123.268L77.287 139.214C77.2429 139.249 77.1972 139.281 77.1501 139.312L77.0051 139.399L58.5499 149.351C57.2618 150.045 55.7081 149.167 55.6059 147.74L55.6006 147.59V87.4786C55.6006 79.021 53.721 75.7995 43.3392 68.543C35.3842 63.7803 31.1914 56.7789 32.1285 47.745C33.0349 39.2304 38.923 33.3547 47.8827 33.2027C52.7787 33.1216 56.8193 34.4736 60.357 37.1279ZM92.0381 143.845L64.6841 158.629H120.455L120.633 158.362C123.643 153.921 128.472 150.104 136.277 145.448L136.827 145.122L137.386 144.793L138.381 144.211L92.0381 143.845ZM55.1395 73.2925L55.2952 73.475C58.573 77.3945 59.5611 81.2911 59.5994 87.1182L59.6 144.224L74.055 136.414L74.0555 75.2855C68.0058 75.5596 61.2798 74.8799 55.1395 73.2925ZM143.542 94.3613L122.998 105.459L123.5 105.512C144.479 107.826 157.492 120.976 152.087 135.653L151.917 136.098L151.804 136.374L152.133 136.154C159.961 130.861 163.963 125.145 164.001 116.947L163.999 116.513L163.99 116.075C163.825 110.355 159.969 104.998 153.53 100.218C151.157 98.4566 148.604 96.905 146.051 95.582C145.307 95.1964 144.608 94.8541 143.967 94.5562L143.59 94.3828L143.542 94.3613ZM103.852 61.6343L103.76 61.7219C100.771 64.4856 97.498 66.7182 94.1079 68.4759C92.802 69.1529 91.5508 69.7205 90.3796 70.1873L89.7445 70.4336L89.3971 70.5623V128.08L103.852 120.285V61.6343ZM115.43 41.1663L115.34 41.5235C115.214 42.0066 115.076 42.5072 114.924 43.0232C113.911 46.4621 112.509 49.9023 110.647 53.1279C110.464 53.4447 110.278 53.7581 110.087 54.0677L109.799 54.5295L109.661 54.7423L139.365 62.2607C143.644 63.3372 145.299 66.0821 145.483 70.321L145.494 70.6123L145.502 71.2114C145.502 71.4114 145.5 71.6132 145.495 71.8504L145.449 73.8108L145.448 88.8133L160.072 80.9113L160.018 62.4845C160.018 56.6389 156.928 52.8389 151.243 51.2469L150.912 51.1575L150.576 51.073L124.915 44.8374C121.987 44.1161 119.113 43.0499 116.294 41.6189L115.591 41.2535L115.43 41.1663Z" fill="currentColor"></path></svg>