<svg width="200" height="200" viewBox="0 0 200 200" fill="none" xmlns="http://www.w3.org/2000/svg"><path fill-rule="evenodd" clip-rule="evenodd" d="M98.604 31.036C99.385 30.2549 100.651 30.2549 101.432 31.036C104.48 34.0838 113.519 44.9511 118.831 57.5383C119.366 58.805 119.866 60.0954 120.319 61.4027C121.613 60.9477 122.922 60.5388 124.234 60.1714C137.384 56.4903 151.506 56.8 155.786 57.2923C156.881 57.4182 157.667 58.4062 157.545 59.5015C157.066 63.7822 154.2 77.6168 147.667 89.6089C147.017 90.8027 146.327 91.9841 145.596 93.1405C146.756 93.8669 147.889 94.6338 148.991 95.4289C160.068 103.416 168.632 114.653 170.916 118.304C171.5 119.238 171.218 120.47 170.285 121.057C166.635 123.354 154.037 129.743 140.593 132.113C139.257 132.349 137.906 132.546 136.549 132.695C136.704 134.06 136.812 135.429 136.878 136.793C137.54 150.437 134.101 164.139 132.679 168.197C132.314 169.24 131.173 169.789 130.131 169.424C126.071 168.002 113.223 162.134 102.985 153.097C101.959 152.191 100.954 151.249 99.983 150.271C99.0141 151.245 98.0113 152.183 96.9875 153.085C86.7403 162.115 73.8855 167.977 69.8269 169.398C68.7844 169.763 67.6433 169.214 67.2783 168.171C65.8562 164.11 62.4372 150.401 63.1192 136.757C63.1876 135.39 63.2974 134.016 63.456 132.647C62.0979 132.496 60.7459 132.298 59.4089 132.061C45.9648 129.677 33.3735 123.274 29.7249 120.979C28.79 120.39 28.509 119.156 29.0973 118.221C31.3924 114.573 39.9696 103.343 51.053 95.3659C52.1541 94.5734 53.2852 93.8091 54.4426 93.0851C53.7113 91.926 53.0214 90.7419 52.3711 89.5453C45.8485 77.5431 42.9959 63.7021 42.5174 59.4233C42.3947 58.3256 43.1851 57.3362 44.2828 57.2135C48.5596 56.7352 62.6805 56.4451 75.8296 60.1395C77.1388 60.5073 78.4448 60.9163 79.7355 61.3712C80.1864 60.0714 80.6832 58.7883 81.2146 57.5288C86.5237 44.9447 95.556 34.0839 98.604 31.036ZM142.128 91.1398C142.838 90.025 143.513 88.8733 144.155 87.6954C149.549 77.7929 152.335 66.4853 153.267 61.1026C147.812 60.8049 136.17 60.9838 125.313 64.0233C124.017 64.3859 122.74 64.7874 121.491 65.2309C122.553 69.2442 123.094 73.351 122.802 77.3659C122.541 80.9626 121.612 84.4615 119.827 87.7193C123.393 86.7123 127.002 86.5885 130.557 87.1348C134.549 87.7482 138.444 89.1995 142.128 91.1398ZM116.593 62.8678C116.159 61.6038 115.674 60.3437 115.146 59.0937C110.76 48.7017 103.65 39.4733 100.018 35.3814C96.3878 39.472 89.283 48.6948 84.9 59.0836C84.3754 60.3272 83.8926 61.5809 83.4607 62.8383C87.2747 64.5128 90.8374 66.6553 93.8063 69.3952C96.4458 71.831 98.5976 74.7243 100.035 78.1316C101.473 74.7317 103.622 71.8447 106.256 69.4142C109.223 66.6776 112.782 64.5386 116.593 62.8678ZM102.018 95.9217L102.044 88.3357C102.068 81.3608 104.778 76.2203 108.968 72.3543C111.436 70.0781 114.438 68.2271 117.748 66.7319C118.635 70.2444 119.055 73.7371 118.813 77.0762C118.4 82.7627 116.067 88.0806 110.628 92.4368L102.018 99.34V95.9217ZM104.513 102.478L113.147 95.6434C118.611 91.3108 124.316 90.2227 129.95 91.0884C133.271 91.5986 136.593 92.794 139.829 94.4525C137.629 97.3478 135.151 99.8632 132.378 101.76C127.675 104.979 122.065 106.466 115.273 104.926L104.513 102.478ZM124.74 109.174C128.379 108.536 131.676 107.088 134.637 105.061C137.97 102.781 140.852 99.7878 143.335 96.4443C144.457 97.1425 145.564 97.8889 146.652 98.6734C155.797 105.268 163.197 114.26 166.366 118.711C161.574 121.341 150.999 126.216 139.898 128.174C138.58 128.406 137.261 128.596 135.95 128.737C135.17 124.65 133.878 120.703 131.874 117.202C130.087 114.082 127.745 111.336 124.74 109.174ZM98.0181 95.9185L98.0064 99.3304L89.4101 92.4383C83.9768 88.0758 81.6465 82.754 81.2348 77.0656C80.9926 73.7198 81.4142 70.2205 82.3045 66.7023C85.6179 68.201 88.6236 70.0554 91.0936 72.3347C95.2843 76.202 97.9929 81.3399 98.0181 88.3056V95.9185ZM109.169 136.95C110.492 133.605 111.174 130.059 110.985 126.359C113.758 128.819 116.954 130.503 120.394 131.559C124.256 132.744 128.394 133.132 132.556 132.988C132.71 134.305 132.817 135.642 132.883 136.987C133.429 148.249 131.019 159.638 129.521 164.895C124.48 162.785 114.082 157.557 105.632 150.098C104.619 149.203 103.639 148.281 102.703 147.333C105.409 144.173 107.686 140.702 109.169 136.95ZM121.568 127.735C124.78 128.721 128.291 129.09 131.926 129.004C131.206 125.443 130.071 122.103 128.402 119.189C125.569 114.24 121.165 110.454 114.378 108.877L103.631 106.39L108.428 116.326C111.461 122.602 116.122 126.063 121.568 127.735ZM100.005 108.171L104.745 118.085C107.754 124.373 107.546 130.177 105.45 135.479C104.216 138.598 102.317 141.568 99.9865 144.351C97.6634 141.569 95.7706 138.602 94.542 135.485C92.4513 130.181 92.2495 124.375 95.2644 118.086L100.005 108.171ZM89.0164 126.348C88.8223 130.052 89.5003 133.602 90.8206 136.952C92.2985 140.701 94.568 144.171 97.2667 147.33C96.3326 148.274 95.3544 149.192 94.3429 150.084C85.8852 157.537 75.4808 162.76 70.4379 164.869C68.9448 159.612 66.5513 148.219 67.1142 136.957C67.1817 135.607 67.2914 134.266 67.4487 132.943C71.6111 133.091 75.7503 132.707 79.6138 131.525C83.049 130.474 86.2429 128.798 89.0164 126.348ZM65.3903 105.015C68.3577 107.05 71.6641 108.504 75.3142 109.143C72.2981 111.303 69.946 114.049 68.1517 117.173C66.1441 120.668 64.8475 124.608 64.0613 128.689C62.7481 128.548 61.4274 128.356 60.1073 128.122C49.0088 126.154 38.4414 121.269 33.6474 118.635C36.8293 114.184 44.2396 105.198 53.3897 98.6124C54.476 97.8306 55.581 97.0868 56.7008 96.3909C59.1803 99.7362 62.0601 102.732 65.3903 105.015ZM71.6202 119.165C69.9503 122.072 68.8111 125.406 68.0854 128.96C71.7195 129.049 75.2308 128.683 78.4439 127.7C83.895 126.033 88.5641 122.574 91.6093 116.297L96.4203 106.391L85.6551 108.878C78.8687 110.442 74.4605 114.221 71.6202 119.165ZM95.5083 102.475L84.7657 104.9C77.9664 106.434 72.3543 104.94 67.6523 101.716C64.8814 99.8164 62.4058 97.2988 60.2086 94.4016C63.4475 92.7442 66.7724 91.5507 70.0951 91.0434C75.7273 90.1835 81.4296 91.2777 86.8872 95.6158L95.5083 102.475ZM80.1981 87.6788C76.6407 86.6734 73.0396 86.5475 69.4914 87.0892C65.4973 87.699 61.5999 89.1481 57.9118 91.0869C57.2023 89.9698 56.5272 88.8157 55.8857 87.6353C50.5012 77.7276 47.7263 66.4174 46.7955 61.0301C52.2553 60.7448 63.8936 60.9408 74.7477 63.9904C76.0406 64.3536 77.3154 64.7554 78.5619 65.199C77.4972 69.2183 76.954 73.3322 77.2452 77.3544C77.5047 80.9396 78.4271 84.4283 80.1981 87.6788Z" fill="currentColor"></path></svg>