<svg width="200" height="200" viewBox="0 0 200 200" fill="none" xmlns="http://www.w3.org/2000/svg"><path fill-rule="evenodd" clip-rule="evenodd" d="M54.7853 150.426H100.727C128.601 150.426 151.215 127.813 151.215 99.9384C151.215 72.0637 128.601 49.4504 100.727 49.4504L40 49.45V165.877H100.061C136.475 165.877 166 136.352 166 99.9386C166 63.5254 136.475 34 100.061 34H38C36.8954 34 36 33.1046 36 32C36 30.8954 36.8954 30 38 30H100.061C138.684 30 170 61.3162 170 99.9386C170 138.561 138.684 169.877 100.061 169.877H38C36.8954 169.877 36 168.982 36 167.877V47.4507C36 47.2499 36.0296 47.0559 36.0847 46.8731C36.3325 46.0499 37.0962 45.4504 38 45.4504H100.727C130.811 45.4504 155.215 69.8545 155.215 99.9384C155.215 130.022 130.811 154.426 100.727 154.426H52.7853C51.6808 154.426 50.7853 153.531 50.7853 152.426V62.9011C50.7853 62.7003 50.8149 62.5063 50.87 62.3235L50.9159 62.1885C51.203 61.4358 51.9316 60.9011 52.7852 60.9011H101.392C122.937 60.9011 140.429 78.3931 140.429 99.9384C140.429 121.484 122.937 138.976 101.392 138.976H67.5705C66.4659 138.976 65.5705 138.08 65.5705 136.976V78.3888C65.5705 77.2842 66.4659 76.3888 67.5705 76.3888C68.6751 76.3888 69.5705 77.2842 69.5705 78.3888V134.976H101.392C120.728 134.976 136.429 119.275 136.429 99.9384C136.429 80.6022 120.728 64.9011 101.392 64.9011L54.785 64.901L54.7853 150.426Z" fill="currentColor"></path></svg>