<svg width="200" height="200" viewBox="0 0 200 200" fill="none" xmlns="http://www.w3.org/2000/svg"><path fill-rule="evenodd" clip-rule="evenodd" d="M120.102 77.3113C120.746 70.1253 126.74 64.438 134.132 64.438C141.484 64.438 147.675 70.0298 148.314 77.27C148.319 77.3284 148.322 77.3871 148.322 77.4458V122.265C148.322 130.102 141.998 136.425 134.162 136.425C126.322 136.425 120.002 130.068 120.002 122.265V78.356C120.002 78.2848 120.006 78.2132 120.013 78.1424L120.102 77.3113ZM134.132 68.438C128.854 68.438 124.542 72.5049 124.085 77.6822L124.083 77.6996L124.081 77.7195L124.002 78.4623V122.265C124.002 127.865 128.538 132.425 134.162 132.425C139.789 132.425 144.322 127.893 144.322 122.265V77.5379C143.829 72.4454 139.426 68.438 134.132 68.438Z" fill="currentColor"></path><path fill-rule="evenodd" clip-rule="evenodd" d="M134.162 54.704C121.504 54.704 111.157 64.5766 110.381 77.0501C110.346 77.1967 110.328 77.3495 110.328 77.5066V122.296C110.328 135.47 121.019 146.16 134.192 146.16C147.366 146.16 158.056 135.47 158.056 122.296V77.4763C158.056 77.2211 158.008 76.9772 157.921 76.7528C156.974 64.426 146.725 54.704 134.162 54.704ZM153.968 77.6059C153.976 77.7773 154.007 77.9441 154.056 78.1032V122.296C154.056 133.26 145.157 142.16 134.192 142.16C123.228 142.16 114.328 133.26 114.328 122.296V77.8546C114.343 77.7717 114.352 77.6869 114.356 77.6007C114.852 67.0769 123.531 58.704 134.162 58.704C144.788 58.704 153.444 67.0734 153.968 77.6059Z" fill="currentColor"></path><path fill-rule="evenodd" clip-rule="evenodd" d="M134.132 45C116.063 45 101.404 59.2265 100.609 77.0801C100.579 77.2175 100.564 77.3601 100.564 77.5064V122.296C100.564 140.836 115.589 155.894 134.162 155.894C152.733 155.894 167.76 140.867 167.76 122.296V77.4761C167.76 77.2356 167.718 77.0051 167.64 76.7915C166.701 59.0735 152.102 45 134.132 45ZM163.67 77.5744C163.676 77.7567 163.707 77.9342 163.76 78.1031V122.296C163.76 138.658 150.524 151.894 134.162 151.894C117.801 151.894 104.564 138.629 104.564 122.296V77.8547C104.58 77.7633 104.59 77.6697 104.593 77.5744C105.133 61.6928 118.114 49 134.132 49C150.149 49 163.13 61.6928 163.67 77.5744Z" fill="currentColor"></path><path d="M34 48.3661C32.8954 48.3661 32 49.2615 32 50.3661V59.6757C32 60.7803 32.8954 61.6757 34 61.6757H81.2166V82.2878L54.2513 151.894H46.9267L73.4673 83.3841C73.5566 83.1537 73.6024 82.9088 73.6024 82.6617V68.955C73.6024 67.8504 72.7069 66.955 71.6024 66.955H34C32.8954 66.955 32 67.8504 32 68.955C32 70.0596 32.8954 70.955 34 70.955H69.6024V82.2878L42.1421 153.171C41.9038 153.787 41.9842 154.48 42.3571 155.024C42.73 155.568 43.3473 155.894 44.0071 155.894H55.6214C56.4471 155.894 57.188 155.386 57.4863 154.616L85.0816 83.3841C85.1709 83.1537 85.2166 82.9088 85.2166 82.6617V59.6757C85.2166 58.5711 84.3212 57.6757 83.2166 57.6757H36V52.3661H92.8612V82.2878L65.401 153.171C65.002 154.201 65.5135 155.36 66.5435 155.759C67.5735 156.158 68.7319 155.646 69.1309 154.616L96.7262 83.3841C96.8155 83.1537 96.8612 82.9088 96.8612 82.6617V50.3661C96.8612 49.2615 95.9658 48.3661 94.8612 48.3661H34Z" fill="currentColor"></path></svg>