<svg width="200" height="200" viewBox="0 0 200 200" fill="none" xmlns="http://www.w3.org/2000/svg"><path fill-rule="evenodd" clip-rule="evenodd" d="M112.409 30.6897C113.241 31.1031 113.678 32.0344 113.466 32.9383L101.135 85.3864H155.8C156.582 85.3864 157.292 85.842 157.618 86.5528C157.944 87.2635 157.826 88.099 157.315 88.6915L88.3072 168.826C87.712 169.517 86.7246 169.718 85.9067 169.314C85.0887 168.91 84.6475 168.005 84.834 167.112L95.5659 115.727H44.21C43.435 115.727 42.7298 115.279 42.4 114.578C42.0703 113.877 42.1754 113.048 42.6699 112.451L109.979 31.2047C110.571 30.4896 111.578 30.2763 112.409 30.6897ZM48.4641 111.727H98.0268C98.629 111.727 99.1991 111.998 99.5789 112.466C99.9586 112.933 100.108 113.546 99.9846 114.136L90.3341 160.342L151.438 89.3864H98.6101C97.9992 89.3864 97.4217 89.1072 97.0424 88.6283C96.663 88.1494 96.5234 87.5234 96.6632 86.9287L107.621 40.3204L48.4641 111.727Z" fill="currentColor"></path></svg>