<svg width="200" height="200" viewBox="0 0 200 200" fill="none" xmlns="http://www.w3.org/2000/svg"><path d="M89.8672 23.8448C90.6509 23.6987 91.413 24.0311 91.8525 24.6357C92.0283 24.8294 92.1687 25.0611 92.2598 25.3239L100.013 47.6849L107.739 25.4C107.977 24.3562 109 23.6794 110.061 23.8799C127.182 27.1172 138.062 37.6512 140.225 39.8329C140.249 39.8559 140.273 39.8796 140.297 39.9041C147.985 47.9031 152.171 58.4613 152.845 69.3845L152.845 69.3863C153.395 78.4422 153.734 94.1207 153.086 120.876C153.079 121.168 153.008 121.456 152.878 121.717L126.37 175.07C125.985 175.845 125.145 176.284 124.289 176.159C123.433 176.033 122.754 175.372 122.608 174.519L118.183 148.785L103.327 133.786C102.982 133.437 102.777 132.973 102.751 132.483L102.724 131.944C102.706 131.601 102.682 131.11 102.653 130.516C102.596 129.329 102.523 127.73 102.456 126.087C102.39 124.446 102.331 122.75 102.303 121.372C102.29 120.684 102.283 120.063 102.289 119.561C102.294 119.119 102.307 118.611 102.368 118.253C102.484 117.581 102.935 117.013 103.563 116.749C104.192 116.484 104.913 116.558 105.475 116.945C114.27 123.01 123.285 122.21 130.298 117.621C137.252 113.071 142.264 104.759 142.92 95.5402L140.358 91.2142C136.265 93.8479 128.714 98.1958 121.849 102.075C117.788 104.369 113.925 106.522 111.077 108.102C109.652 108.893 108.482 109.539 107.667 109.989C107.26 110.213 106.941 110.389 106.725 110.508L106.394 110.69L106.393 110.69L105.43 108.938C106.393 110.691 106.393 110.69 106.393 110.69C105.65 111.099 104.729 110.994 104.097 110.429C103.465 109.864 103.258 108.961 103.58 108.177L114.415 81.8227C114.835 80.801 116.004 80.3134 117.025 80.7334C118.047 81.1534 118.535 82.322 118.115 83.3436L109.444 104.434C112.253 102.875 115.977 100.798 119.881 98.5921C128.036 93.9847 136.813 88.9063 139.84 86.7474C140.296 86.4223 140.867 86.3031 141.415 86.4189C141.963 86.5347 142.437 86.8748 142.722 87.3565L146.675 94.0298C146.875 94.368 146.971 94.7577 146.951 95.1503C146.409 105.852 140.684 115.606 132.488 120.968C125.042 125.841 115.579 127.056 106.322 122.138C106.353 123.299 106.4 124.623 106.453 125.925C106.519 127.555 106.592 129.143 106.649 130.324C106.671 130.793 106.691 131.197 106.707 131.514L121.468 146.418C121.757 146.71 121.949 147.083 122.018 147.487L125.512 167.806L149.098 120.335C149.73 93.9077 149.389 78.477 148.852 69.6288C148.232 59.5737 144.393 49.9645 137.461 42.7262C137.452 42.7169 137.442 42.7074 137.433 42.6979C135.649 40.8932 126.094 31.549 111.015 28.1614L101.902 54.4452C101.795 54.7563 101.618 55.0238 101.395 55.2364C101.219 55.4042 101.011 55.5423 100.775 55.6393C100.585 55.7176 100.382 55.767 100.175 55.784C100.062 55.7932 99.9501 55.7927 99.8394 55.7831C99.3861 55.7434 98.9587 55.5493 98.6307 55.2364C98.4078 55.0238 98.2309 54.7563 98.123 54.4452L88.9902 28.1041C74.1759 31.3637 64.9008 40.3397 62.5991 42.6907C62.5899 42.7001 62.5807 42.7093 62.5714 42.7184C55.6645 49.9615 51.7928 59.5762 51.1728 69.6296C50.6354 78.4796 50.2609 93.911 50.9262 120.334L74.5129 167.806L78.0069 147.487C78.0764 147.083 78.2684 146.71 78.5569 146.418L93.3178 131.514C93.3337 131.197 93.3536 130.793 93.3762 130.324C93.433 129.143 93.5062 127.555 93.5719 125.925C93.6245 124.623 93.672 123.299 93.7027 122.138C84.4457 127.056 74.9834 125.841 67.5368 120.968C59.3409 115.606 53.6163 105.852 53.0736 95.1503C53.0537 94.7577 53.1499 94.368 53.3502 94.0298L57.3026 87.3565C57.5879 86.8748 58.0621 86.5347 58.6099 86.4189C59.1577 86.3031 59.7289 86.4223 60.1848 86.7474C63.2117 88.9063 71.989 93.9847 80.144 98.5921C84.0484 100.798 87.7716 102.875 90.581 104.434L81.9102 83.3436C81.4902 82.322 81.9779 81.1534 82.9995 80.7334C84.0211 80.3134 85.1897 80.801 85.6097 81.8227L96.4448 108.177C96.7672 108.961 96.56 109.864 95.9278 110.429C95.2955 110.994 94.3756 111.099 93.6323 110.691L93.3002 110.508C93.0835 110.389 92.7651 110.213 92.3577 109.989C91.543 109.539 90.3725 108.893 88.9483 108.102C86.1004 106.522 82.2369 104.369 78.1764 102.075C71.3108 98.1958 63.7599 93.8479 59.6667 91.2142L57.1046 95.5402C57.7613 104.759 62.773 113.071 69.7269 117.621C76.7398 122.21 85.7546 123.01 94.55 116.945C95.1118 116.558 95.8325 116.484 96.4614 116.749C97.0904 117.013 97.5409 117.581 97.6565 118.253C97.7179 118.611 97.7313 119.119 97.7361 119.561C97.7415 120.063 97.7354 120.684 97.7216 121.372C97.6941 122.75 97.6349 124.446 97.5687 126.087C97.5024 127.73 97.4287 129.329 97.3716 130.516C97.343 131.11 97.3186 131.601 97.3013 131.944L97.2738 132.482L95.2764 132.379C97.2737 132.483 97.2738 132.482 97.2738 132.482C97.2482 132.973 97.043 133.437 96.6975 133.786L81.8423 148.785L77.4174 174.519C77.2708 175.372 76.5923 176.033 75.7361 176.159C74.88 176.284 74.0402 175.845 73.6552 175.07L47.1469 121.717C47.0172 121.456 46.9461 121.17 46.9387 120.879C46.2564 94.1187 46.6303 78.4407 47.1802 69.3863L47.1803 69.3845C47.854 58.4572 52.0764 47.9024 59.7248 39.9075C59.7456 39.8858 59.7667 39.8647 59.7881 39.8442C62.4581 37.1241 73.0112 26.9869 89.8672 23.8448Z" fill="currentColor"></path></svg>