<svg width="200" height="200" viewBox="0 0 200 200" fill="none" xmlns="http://www.w3.org/2000/svg"><path fill-rule="evenodd" clip-rule="evenodd" d="M54.5438 121.341L34.6217 101.419C33.8407 100.638 33.8407 99.372 34.6217 98.5909L54.5232 78.6895L34.5858 58.7521C33.8047 57.971 33.8047 56.7047 34.5858 55.9237L55.9132 34.5963C56.6942 33.8152 57.9605 33.8152 58.7416 34.5963L78.6584 54.5131L98.5804 34.591C99.3615 33.81 100.628 33.81 101.409 34.591L121.326 54.508L141.248 34.5858C142.029 33.8047 143.295 33.8047 144.076 34.5858L165.404 55.9132C166.185 56.6942 166.185 57.9605 165.404 58.7416L145.487 78.6584L165.409 98.5804C166.19 99.3615 166.19 100.628 165.409 101.409L145.492 121.326L165.414 141.248C166.195 142.029 166.195 143.295 165.414 144.076L144.087 165.403C143.306 166.185 142.039 166.184 141.258 165.403L121.341 145.487L101.419 165.409C100.638 166.19 99.3719 166.19 98.5909 165.409L78.6895 145.507L58.7828 165.414C58.0017 166.195 56.7354 166.195 55.9544 165.414L34.627 144.087C33.8459 143.306 33.8459 142.039 34.627 141.258L54.5438 121.341ZM97.1751 78.6689L78.696 60.1898L60.2017 78.6841L78.6808 97.1632L97.1751 78.6689ZM60.205 121.319L78.6842 102.84L97.1633 121.319L78.6841 139.798L60.205 121.319ZM102.835 121.32L121.334 102.821L139.829 121.316L121.33 139.815L102.835 121.32ZM118.49 99.9997L100.015 81.5252L81.5405 100L100.015 118.475L118.49 99.9997ZM121.331 97.1752L139.826 78.6806L121.346 60.2014L102.852 78.696L121.331 97.1752ZM142.667 118.494L124.188 100.014L142.687 81.5154L161.166 99.9946L142.667 118.494ZM75.8424 99.9853L57.3435 118.484L38.8644 100.005L57.3633 81.5062L75.8424 99.9853ZM118.494 57.3326L99.9993 75.8269L81.5003 57.328L99.9946 38.8337L118.494 57.3326ZM142.662 75.8263L124.163 57.3274L142.662 38.8284L161.161 57.3274L142.662 75.8263ZM38.8284 57.3379L57.3274 75.8368L75.8263 57.3379L57.3274 38.8389L38.8284 57.3379ZM124.174 142.662L142.673 161.161L161.172 142.662L142.673 124.163L124.174 142.662ZM81.5062 142.667L100.005 161.166L118.504 142.667L100.005 124.168L81.5062 142.667ZM57.3686 161.171L38.8696 142.672L57.3686 124.173L75.8675 142.672L57.3686 161.171Z" fill="currentColor"></path></svg>