<svg width="200" height="200" viewBox="0 0 200 200" fill="none" xmlns="http://www.w3.org/2000/svg"><path fill-rule="evenodd" clip-rule="evenodd" d="M34.2681 43.57C34.6254 42.9514 35.2856 42.5703 36 42.5703H131.737C132.452 42.5703 133.112 42.952 133.469 43.5713C133.826 44.1907 133.826 44.9536 133.468 45.5724L125.734 58.9298L111.306 83.9451H123.625L139.235 56.9272L146.94 43.5709C147.297 42.9518 147.957 42.5703 148.672 42.5703H164C164.714 42.5703 165.375 42.9514 165.732 43.57C166.089 44.1886 166.089 44.9509 165.732 45.5697L158.027 58.927L141.868 86.9443L101.732 156.42C101.375 157.039 100.715 157.42 100.001 157.42C99.2865 157.421 98.6263 157.04 98.2687 156.422L90.591 143.147C90.2328 142.528 90.2326 141.765 90.5904 141.146L113.609 101.303H101.293L85.6 128.459C85.2428 129.077 84.5831 129.458 83.8692 129.458C83.1552 129.459 82.4952 129.078 82.1375 128.46L74.4043 115.103C74.0455 114.483 74.0454 113.719 74.4041 113.099L82.9675 98.3031L105.127 59.9277H93.0885L69.774 100.302C69.4168 100.921 68.7564 101.303 68.0416 101.303H67.5981C66.8834 101.303 66.223 100.921 65.8658 100.302L58.382 87.3326C58.0266 86.7166 58.025 85.9581 58.3779 85.3406L58.5997 84.9527L58.6036 84.9458L73.0331 59.9277H43.7055C42.9907 59.9277 42.3303 59.5463 41.9731 58.9271L34.2676 45.5697C33.9106 44.9509 33.9108 44.1886 34.2681 43.57ZM39.4627 46.5703L44.8607 55.9277H76.4954C77.2098 55.9277 77.87 56.3088 78.2273 56.9274C78.5846 57.5459 78.5849 58.3082 78.2279 58.927L62.4223 86.3311L67.8196 95.6847L74.0147 84.9457L74.0153 84.9446L90.2024 56.9272C90.5598 56.3087 91.2199 55.9277 91.9342 55.9277H108.592C109.307 55.9277 109.967 56.309 110.325 56.928C110.682 57.5469 110.682 58.3095 110.324 58.9283L94.1378 86.9445L94.1371 86.9456L86.4309 100.304L78.446 114.101L83.8667 123.464L98.4069 98.3018C98.7643 97.6834 99.4243 97.3025 100.139 97.3025H117.074C117.789 97.3025 118.449 97.6838 118.806 98.3027C119.163 98.9217 119.163 99.6842 118.806 100.303L94.6323 142.145L99.9985 151.423L138.404 84.943L154.562 56.9285L160.537 46.5703H149.827L142.699 58.9271L142.698 58.9283L126.511 86.9456C126.154 87.5641 125.494 87.9451 124.78 87.9451H107.844C107.13 87.9451 106.47 87.564 106.112 86.9455C105.755 86.3269 105.755 85.5647 106.112 84.9458L122.273 56.9257L128.268 46.5703H39.4627Z" fill="currentColor"></path></svg>