<svg width="200" height="200" viewBox="0 0 200 200" fill="none" xmlns="http://www.w3.org/2000/svg"><path fill-rule="evenodd" clip-rule="evenodd" d="M80.5356 104.249C75.3742 104.249 71.1848 108.427 71.1848 113.588C71.1848 118.749 75.3742 122.928 80.5356 122.928C85.6969 122.928 89.8863 118.749 89.8863 113.588C89.8863 108.427 85.6969 104.249 80.5356 104.249ZM75.1848 113.588C75.1848 110.642 77.5775 108.249 80.5356 108.249C83.4936 108.249 85.8863 110.642 85.8863 113.588C85.8863 116.534 83.4936 118.928 80.5356 118.928C77.5775 118.928 75.1848 116.534 75.1848 113.588Z" fill="currentColor"></path><path fill-rule="evenodd" clip-rule="evenodd" d="M111.49 113.588C111.49 108.427 115.679 104.249 120.841 104.249C126.002 104.249 130.191 108.427 130.191 113.588C130.191 118.749 126.002 122.928 120.841 122.928C115.679 122.928 111.49 118.749 111.49 113.588ZM120.841 108.249C117.883 108.249 115.49 110.642 115.49 113.588C115.49 116.534 117.883 118.928 120.841 118.928C123.799 118.928 126.191 116.534 126.191 113.588C126.191 110.642 123.799 108.249 120.841 108.249Z" fill="currentColor"></path><path fill-rule="evenodd" clip-rule="evenodd" d="M79.7372 57.8496C74.5759 57.8496 70.3865 62.028 70.3865 67.1889C70.3865 72.3497 74.5759 76.5281 79.7372 76.5281C84.8985 76.5281 89.088 72.3497 89.088 67.1889C89.088 62.028 84.8985 57.8496 79.7372 57.8496ZM74.3865 67.1889C74.3865 64.243 76.7791 61.8496 79.7372 61.8496C82.6953 61.8496 85.088 64.243 85.088 67.1889C85.088 70.1347 82.6953 72.5281 79.7372 72.5281C76.7791 72.5281 74.3865 70.1347 74.3865 67.1889Z" fill="currentColor"></path><path fill-rule="evenodd" clip-rule="evenodd" d="M110.692 67.1889C110.692 62.028 114.881 57.8496 120.042 57.8496C125.204 57.8496 129.393 62.028 129.393 67.1889C129.393 72.3497 125.204 76.5281 120.042 76.5281C114.881 76.5281 110.692 72.3497 110.692 67.1889ZM120.042 61.8496C117.084 61.8496 114.692 64.243 114.692 67.1889C114.692 70.1347 117.084 72.5281 120.042 72.5281C123 72.5281 125.393 70.1347 125.393 67.1889C125.393 64.243 123 61.8496 120.042 61.8496Z" fill="currentColor"></path><path fill-rule="evenodd" clip-rule="evenodd" d="M91.2549 34.762V25.1321C91.2549 20.281 95.2145 16.3701 100.027 16.3701C104.879 16.3701 108.8 20.319 108.8 25.1321V34.7486C117.738 36.1496 125.973 39.6675 132.974 44.7723L139.663 38.0941C143.081 34.681 148.671 34.6691 152.074 38.0978C155.49 41.5128 155.501 47.0964 152.066 50.4939L152.062 50.4979L145.356 57.1933C150.425 64.1909 153.906 72.4098 155.274 81.3242H164.587C169.438 81.3242 173.36 85.2731 173.36 90.0862C173.36 94.9374 169.4 98.8482 164.587 98.8482H155.195C153.755 107.7 150.228 115.852 145.135 122.786L151.842 129.483L151.846 129.487C155.281 132.884 155.27 138.468 151.853 141.883C148.451 145.312 142.861 145.3 139.443 141.887L132.669 135.123C125.742 140.104 117.626 143.538 108.828 144.922V147.124C108.828 148.229 107.932 149.124 106.828 149.124C105.723 149.124 104.828 148.229 104.828 147.124V145.404C103.259 145.536 101.673 145.604 100.07 145.604C98.4479 145.604 96.842 145.535 95.2551 145.399V149.845C95.2551 152.471 97.4074 154.607 100.028 154.607C101.132 154.607 102.028 155.503 102.028 156.607C102.028 157.712 101.132 158.607 100.028 158.607C95.2147 158.607 91.2551 154.697 91.2551 149.845V144.913C82.4447 143.518 74.3198 140.066 67.3898 135.065L60.5576 141.887C57.1392 145.3 51.5493 145.312 48.1469 141.883C44.7306 138.468 44.7198 132.884 48.1541 129.487L54.9462 122.705C49.89 115.797 46.3866 107.683 44.9492 98.8756H35.4125C30.5614 98.8756 26.6399 94.9267 26.6399 90.1136C26.6399 85.2624 30.5995 81.3516 35.4125 81.3516H44.8619C46.2213 72.4611 49.6831 64.2616 54.7246 57.2745L47.9374 50.4979L47.9334 50.494C44.4991 47.0964 44.5099 41.5128 47.9262 38.0978C51.3286 34.6691 56.9185 34.681 60.3369 38.0941L67.0848 44.8314C74.0809 39.7108 82.315 36.1774 91.2549 34.762ZM95.2549 25.1321C95.2549 22.5066 97.4071 20.3701 100.027 20.3701C102.665 20.3701 104.8 22.5235 104.8 25.1321V34.2685C103.241 34.1379 101.663 34.0713 100.07 34.0713C98.4478 34.0713 96.8419 34.1403 95.2549 34.2757V25.1321ZM63.9218 47.3258L57.5107 40.9247C55.6444 39.0614 52.5925 39.072 50.7636 40.9173L50.7562 40.9247C48.8916 42.7864 48.9023 45.8281 50.7487 47.6525L50.7562 47.6598L57.1993 54.0929C59.2436 51.6511 61.4933 49.3865 63.9218 47.3258ZM135.856 132.653C138.302 130.613 140.571 128.367 142.636 125.943L149.024 132.321L149.031 132.328C150.877 134.153 150.888 137.194 149.024 139.056L149.016 139.063C147.187 140.909 144.135 140.919 142.269 139.056L135.856 132.653ZM142.877 54.0168L149.251 47.6524C151.097 45.8281 151.108 42.7864 149.244 40.9247L149.236 40.9173C147.407 39.072 144.355 39.0614 142.489 40.9247L136.142 47.2616C138.574 49.3181 140.828 51.5787 142.877 54.0168ZM57.4401 125.868C59.5005 128.296 61.7651 130.545 64.2076 132.59L57.7314 139.056C55.8651 140.919 52.8132 140.909 50.9843 139.063L50.9769 139.056C49.1123 137.194 49.1231 134.153 50.9695 132.328L57.4401 125.868ZM151.54 96.1355C151.456 96.3569 151.41 96.5971 151.41 96.8482C151.41 96.9182 151.413 96.9873 151.42 97.0553C147.903 122.226 126.255 141.604 100.07 141.604C72.1022 141.604 49.3108 119.498 48.2575 91.8389H151.882C151.827 93.2871 151.712 94.7201 151.54 96.1355ZM100.07 38.0713C72.1012 38.0713 49.3092 60.1781 48.2574 87.8389H151.882C151.836 86.6192 151.747 85.4103 151.618 84.2137C151.485 83.9457 151.41 83.6437 151.41 83.3242C151.41 83.1747 151.426 83.029 151.457 82.8889C148.057 57.5871 126.348 38.0713 100.07 38.0713ZM155.698 94.8482H164.587C167.208 94.8482 169.36 92.7118 169.36 90.0862C169.36 87.4776 167.224 85.3242 164.587 85.3242H155.74C155.859 86.8129 155.92 88.3181 155.92 89.8375C155.92 91.5263 155.845 93.1976 155.698 94.8482ZM44.2195 89.8375C44.2195 91.5357 44.2955 93.2161 44.4443 94.8756H35.4125C32.7752 94.8756 30.6399 92.7222 30.6399 90.1136C30.6399 87.488 32.7921 85.3516 35.4125 85.3516H44.3975C44.2796 86.8313 44.2195 88.3274 44.2195 89.8375Z" fill="currentColor"></path><path d="M95.2273 160.263C95.2273 159.158 94.3319 158.263 93.2273 158.263C92.1227 158.263 91.2273 159.158 91.2273 160.263V162.324C91.2273 167.17 95.1541 171.086 99.9999 171.086C101.104 171.086 102 170.191 102 169.086C102 167.982 101.104 167.086 99.9999 167.086C97.3573 167.086 95.2273 164.955 95.2273 162.324V160.263Z" fill="currentColor"></path><path d="M98 150.752C98 149.647 98.8954 148.752 100 148.752C104.846 148.752 108.773 152.668 108.773 157.514V159.576C108.773 160.68 107.877 161.576 106.773 161.576C105.668 161.576 104.773 160.68 104.773 159.576V157.514C104.773 154.883 102.643 152.752 100 152.752C98.8954 152.752 98 151.857 98 150.752Z" fill="currentColor"></path><path d="M99.9999 161.341C98.8953 161.341 97.9999 162.236 97.9999 163.341C97.9999 164.445 98.8953 165.341 99.9999 165.341C102.642 165.341 104.772 167.472 104.772 170.103V174.858C104.772 177.489 102.642 179.62 99.9999 179.62C97.3573 179.62 95.2273 177.489 95.2273 174.858V172.797C95.2273 171.692 94.3319 170.797 93.2273 170.797C92.1227 170.797 91.2273 171.692 91.2273 172.797V174.858C91.2273 179.704 95.1541 183.62 99.9999 183.62C104.846 183.62 108.772 179.704 108.772 174.858V170.103C108.772 165.257 104.846 161.341 99.9999 161.341Z" fill="currentColor"></path></svg>