<svg width="200" height="200" viewBox="0 0 200 200" fill="none" xmlns="http://www.w3.org/2000/svg"><path fill-rule="evenodd" clip-rule="evenodd" d="M167.977 72.9174L167.975 72.9337C167.971 72.9556 167.967 72.9773 167.963 72.999C167.958 73.0222 167.953 73.0457 167.948 73.0692C167.928 73.1558 167.902 73.24 167.871 73.3221C167.867 73.3327 167.863 73.3437 167.858 73.3546C167.846 73.3861 167.833 73.4168 167.819 73.4472C167.809 73.4697 167.798 73.4928 167.786 73.5156C167.778 73.5317 167.77 73.5473 167.762 73.5628C167.745 73.5929 167.728 73.6227 167.711 73.652C167.7 73.6698 167.689 73.6875 167.678 73.7049C167.66 73.7322 167.641 73.759 167.622 73.7853C167.613 73.7982 167.604 73.8111 167.594 73.8239C167.575 73.8489 167.556 73.8733 167.535 73.8973C167.519 73.9177 167.501 73.9376 167.484 73.9571C167.47 73.9717 167.456 73.9865 167.442 74.0012C167.422 74.023 167.4 74.0441 167.379 74.0647C167.367 74.0754 167.355 74.0869 167.342 74.0983C167.315 74.1231 167.287 74.1471 167.259 74.1703C167.252 74.1746 167.246 74.1795 167.24 74.1844C167.165 74.2443 167.085 74.2985 167.001 74.3472L166.974 74.361L122.827 99.853L122.558 100.008L122.558 151.297C122.558 151.46 122.539 151.618 122.502 151.77C122.497 151.792 122.491 151.815 122.485 151.837C122.477 151.864 122.469 151.891 122.46 151.917C122.452 151.944 122.442 151.971 122.432 151.998C122.424 152.019 122.416 152.039 122.408 152.059C122.399 152.081 122.389 152.103 122.379 152.125C122.366 152.155 122.352 152.184 122.337 152.213C122.33 152.227 122.322 152.242 122.314 152.256C122.299 152.282 122.284 152.308 122.269 152.334C122.253 152.362 122.235 152.389 122.217 152.416C122.208 152.428 122.199 152.441 122.191 152.453C122.174 152.478 122.156 152.502 122.137 152.526C122.123 152.543 122.109 152.56 122.095 152.577C121.947 152.756 121.767 152.91 121.559 153.03L101.001 164.913C100.382 165.271 99.6185 165.271 98.9992 164.913L78.4407 153.03L78.3742 152.989C78.3646 152.982 78.355 152.976 78.3455 152.97L78.4407 153.03C78.3757 152.992 78.3132 152.951 78.2536 152.907C78.2435 152.898 78.2325 152.89 78.2215 152.882C78.0549 152.755 77.9118 152.603 77.795 152.433C77.7827 152.415 77.7703 152.396 77.7582 152.377C77.7436 152.355 77.7296 152.332 77.716 152.309C77.704 152.288 77.6922 152.267 77.6807 152.246C77.6718 152.23 77.6633 152.213 77.6551 152.197C77.6406 152.168 77.6268 152.139 77.6137 152.11C77.604 152.088 77.5946 152.066 77.5856 152.043C77.5769 152.022 77.5687 152 77.5609 151.979C77.5515 151.953 77.5425 151.926 77.534 151.899C77.5266 151.876 77.5198 151.853 77.5134 151.83C77.507 151.806 77.5007 151.782 77.4949 151.757C77.4874 151.725 77.4807 151.694 77.4749 151.662C77.4715 151.643 77.4684 151.625 77.4655 151.606C77.4612 151.579 77.4574 151.551 77.4542 151.523C77.4459 151.449 77.4417 151.375 77.4416 151.3L77.441 100.008L33.0327 74.3667C33.0251 74.3625 33.0176 74.3582 33.0101 74.354L32.9989 74.3472L32.9607 74.3248C32.9353 74.3094 32.9104 74.2934 32.8858 74.2769L32.905 74.288L32.8368 74.2427C32.8064 74.2211 32.7767 74.1985 32.7476 74.1751C32.7372 74.1667 32.7269 74.1583 32.7167 74.1497C32.692 74.129 32.6678 74.1078 32.6442 74.086L32.5969 74.0409L32.5506 73.9931C32.5376 73.9795 32.5249 73.9657 32.5123 73.9517L32.5969 74.0409C32.4937 73.9392 32.4016 73.8266 32.3224 73.7049L32.309 73.6834L32.2783 73.6332C32.2643 73.6102 32.251 73.5867 32.2382 73.5629C32.2301 73.547 32.2218 73.531 32.2137 73.515C32.1982 73.4852 32.184 73.4551 32.1705 73.4246C32.1644 73.4097 32.1578 73.3943 32.1515 73.3789L32.1442 73.3597C32.1291 73.3218 32.115 73.2835 32.1022 73.2447L32.1515 73.3789C32.1209 73.3055 32.0947 73.2299 32.0731 73.1524C32.0629 73.1125 32.0532 73.073 32.0447 73.0333C32.0398 73.0141 32.0358 72.9937 32.0321 72.9733C32.0255 72.9335 32.0195 72.8943 32.0147 72.8548C32.0129 72.8423 32.0115 72.8295 32.0102 72.8166C32.0037 72.7505 32.0002 72.6834 32.0002 72.6159V48.8497C32.0002 48.1346 32.382 47.474 33.0015 47.1169L44.539 40.467L53.5172 35.2925C53.6179 35.2311 53.7235 35.1791 53.8327 35.1366L53.8697 35.1233L53.8976 35.1133C53.9217 35.1042 53.9462 35.0962 53.9709 35.0886L53.9857 35.0841L54.0332 35.0706C54.0375 35.07 54.0418 35.0688 54.0462 35.0677L54.0561 35.0645L54.1121 35.0508L54.2024 35.0329C54.2068 35.0321 54.2111 35.0313 54.2155 35.0306C54.329 35.0104 54.4383 35.0007 54.5481 35L54.5871 35.0001C54.688 35.0015 54.7892 35.0105 54.8899 35.0273L54.9178 35.0334L54.9178 35.0322L54.9896 35.0467C55.014 35.0521 55.0383 35.058 55.0626 35.0643C55.0655 35.0662 55.0688 35.067 55.0721 35.0679L55.0875 35.071L55.1352 35.0847C55.1605 35.0924 55.1858 35.1005 55.2109 35.1092C55.2136 35.1111 55.2166 35.1122 55.2195 35.1132L55.229 35.1166L55.248 35.1225L55.279 35.1342C55.3112 35.1467 55.3431 35.16 55.3749 35.1742C55.3853 35.1797 55.3956 35.1844 55.4058 35.1892L55.412 35.1914C55.4657 35.217 55.5126 35.2416 55.5587 35.2683L100 60.93L144.441 35.2683C144.492 35.239 144.543 35.2122 144.595 35.1879L144.556 35.208L144.625 35.1751C144.657 35.16 144.689 35.1467 144.721 35.1342L144.753 35.1233C144.764 35.119 144.776 35.1149 144.788 35.1109C144.832 35.0945 144.877 35.0807 144.922 35.0685C144.926 35.0684 144.931 35.0671 144.936 35.0658C144.985 35.0519 145.034 35.0411 145.082 35.0322L145.111 35.0285C145.175 35.0165 145.24 35.0089 145.305 35.0045L145.434 35.0009L145.452 35C145.55 35.0006 145.648 35.0085 145.745 35.0233L145.777 35.0292C145.78 35.0296 145.782 35.0301 145.785 35.0306L145.795 35.0317C145.845 35.0407 145.894 35.0516 145.944 35.0643C145.947 35.0658 145.951 35.0667 145.954 35.0677L145.967 35.0704L146.015 35.0841C146.044 35.0929 146.073 35.1023 146.102 35.1124C146.111 35.1163 146.121 35.1198 146.131 35.1233C146.246 35.1647 146.356 35.2172 146.462 35.2797L166.999 47.1169C167.618 47.474 168 48.1346 168 48.8497L168 72.6251C168 72.7233 167.992 72.8209 167.977 72.9174ZM100 141.693L83.4338 151.296L100 160.872L116.566 151.296L100 141.693ZM98 90.373L82.18 99.543L81.441 99.971V147.826L98 138.228V90.373ZM102 90.466V138.228L118.558 147.826V100.009L102 90.466ZM54.592 63.074L38.006 72.618L79.41 96.526L96.001 86.909L54.592 63.074ZM145.409 63.075L121.593 76.8207C121.487 76.882 121.377 76.9325 121.266 76.9725L103.999 86.909L120.59 96.525L131.245 90.373L161.994 72.618L145.409 63.075ZM56.563 40.467L56.575 48.366L56.591 59.609L98 83.444V64.394L56.563 40.467ZM143.437 40.467L102 64.394V83.443L143.409 59.609L143.437 40.467ZM52.5637 40.4592L36.0002 50.0054V69.1577L52.5913 59.6114L52.5637 40.4592ZM147.437 40.4592L147.409 59.6114L164 69.1577V50.0054L147.437 40.4592Z" fill="currentColor"></path></svg>