<svg width="200" height="200" viewBox="0 0 200 200" fill="none" xmlns="http://www.w3.org/2000/svg"><path fill-rule="evenodd" clip-rule="evenodd" d="M149.011 63.1145C143.696 55.0945 136.492 48.4982 128.028 43.9084C119.375 39.2158 109.682 36.7706 99.8388 36.7971C89.9952 36.8236 80.3158 39.3209 71.6881 44.06C63.3119 48.661 56.1873 55.2321 50.9267 63.2002H18.1053L17.8505 64.9046C17.5083 67.1943 17.9051 69.533 18.9824 71.5812C19.9985 73.7222 21.5093 75.591 23.3904 77.0332C25.2721 78.4758 27.4699 79.4498 29.802 79.875C34.0614 80.8352 38.3587 81.7989 42.6641 82.69C39.8557 95.3506 41.2982 108.607 46.8014 120.392C52.1765 131.903 61.1141 141.344 72.252 147.344L73.1241 148.546C80.2479 158.364 89.7828 163.998 102.346 163.081C107.323 162.717 112.144 161.185 116.419 158.611C120.694 156.036 124.302 152.491 126.952 148.262L127.463 147.446C136.511 142.661 144.166 135.587 149.652 126.909C155.613 117.481 158.766 106.55 158.743 95.3957C158.736 91.0995 158.264 86.8187 157.334 82.6283C162.03 81.6639 166.739 80.6347 171.393 79.4281C173.987 78.8204 176.357 77.492 178.23 75.5959C180.109 73.6935 181.41 71.2974 181.982 68.6855L181.988 68.6581L181.993 68.6306C182.214 67.4675 182.322 66.2857 182.314 65.1018L182.302 63.1145H149.011ZM126.121 47.4246C118.057 43.0512 109.023 40.7724 99.8495 40.7971C90.6756 40.8218 81.6547 43.1492 73.6139 47.5659C66.5938 51.422 60.517 56.7629 55.7986 63.2002H61.8403C66.4953 57.687 72.2898 53.2452 78.8269 50.1818C85.5025 47.0535 92.7872 45.4401 100.159 45.4572C107.532 45.4742 114.809 47.1213 121.47 50.2805C127.889 53.325 133.583 57.7011 138.175 63.1145H144.132C139.364 56.6347 133.217 51.2729 126.121 47.4246ZM153.404 83.3793C151.851 83.6691 150.306 83.9961 148.77 84.3598C149.601 88.0272 150.024 91.7772 150.029 95.5412V95.5449C150.023 105.673 146.945 115.562 141.201 123.904C136.115 131.291 129.15 137.158 121.054 140.917C122.266 142.099 123.535 143.226 124.855 144.294C133.608 139.833 141.01 133.093 146.271 124.772C151.826 115.986 154.764 105.799 154.743 95.4041V95.4028C154.737 91.3563 154.287 87.3244 153.404 83.3793ZM118.133 137.841C126.11 134.419 132.969 128.805 137.906 121.636C143.191 113.961 146.023 104.863 146.029 95.5451C146.024 92.1175 145.644 88.7024 144.896 85.361C140.156 86.6888 135.518 88.3709 131.021 90.3954L131.018 90.3968C124.565 93.2885 118.779 97.4829 114.023 102.717L114.008 102.733L113.993 102.748C112.121 104.721 110.659 107.047 109.694 109.59C108.733 112.123 108.282 114.821 108.369 117.529C108.679 122.09 110.134 126.5 112.599 130.35L112.608 130.365L112.617 130.38C114.245 133.023 116.091 135.518 118.133 137.841ZM75.1322 144.34C75.2266 144.256 75.3206 144.172 75.4141 144.089C76.6465 142.994 77.7983 141.971 78.9191 140.899C70.8452 137.132 63.9022 131.267 58.8319 123.89C53.0999 115.549 50.0306 105.668 50.0285 95.5476C50.0125 91.8067 50.4117 88.0778 51.2172 84.4291C49.6843 84.0665 48.1427 83.7387 46.5937 83.446C43.9431 95.2806 45.28 107.68 50.4258 118.7C55.5932 129.766 64.2931 138.78 75.1322 144.34ZM55.0938 85.4254C54.3713 88.744 54.0137 92.1338 54.0285 95.5344L54.0286 95.5429C54.0296 104.856 56.8538 113.949 62.1284 121.624C67.0642 128.806 73.9286 134.43 81.9136 137.858C84.9783 134.451 87.5176 130.597 89.4405 126.421L89.4542 126.391L89.4688 126.362C91.4645 122.377 92.1311 117.857 91.371 113.466C90.6109 109.074 88.4641 105.042 85.2453 101.959L85.2201 101.935L85.1958 101.91C79.9616 96.5357 73.6858 92.286 66.7524 89.4209C62.9458 87.8583 59.0526 86.5245 55.0938 85.4254ZM132.754 63.1145C128.998 59.3161 124.602 56.1929 119.756 53.8946C113.628 50.9882 106.933 49.4729 100.15 49.4572C93.3677 49.4415 86.6658 50.9258 80.5242 53.8038C75.5667 56.127 71.0734 59.3119 67.2489 63.2002H72.9273C76.659 63.1437 80.3418 64.055 83.6166 65.8454L83.6242 65.8495L90.6453 69.7677L99.8826 55.7578L105.491 63.9452L105.503 63.9635C105.981 64.696 106.475 65.4413 106.974 66.1942L106.975 66.1956C107.74 67.3493 108.516 68.5208 109.267 69.6914L116.608 65.619L116.615 65.6153C119.715 63.9264 123.199 63.0652 126.729 63.1145H132.754ZM109.794 70.5135C109.794 70.5141 109.788 70.5075 109.778 70.4919C109.789 70.505 109.794 70.5128 109.794 70.5135ZM92.0677 74.8771L99.946 62.9284L102.166 66.1697C102.672 66.9442 103.177 67.7057 103.678 68.4621C104.589 69.8358 105.488 71.1927 106.365 72.5802C106.662 73.0542 107.246 73.8252 108.292 74.0411C109.276 74.2441 110.083 73.825 110.478 73.5941L118.528 69.128L118.534 69.1246C121.033 67.7649 123.84 67.0725 126.685 67.1143L126.7 67.1145H178.188C178.155 67.3626 178.115 67.6099 178.069 67.8561C177.655 69.7188 176.725 71.4273 175.384 72.7852C174.036 74.1495 172.33 75.104 170.462 75.5378L170.437 75.5436L170.412 75.55C165.191 76.9048 159.873 78.0372 154.522 79.119C145.849 80.5738 137.4 83.1375 129.381 86.7472C122.431 89.8614 116.2 94.3769 111.077 100.011C108.847 102.365 107.105 105.138 105.954 108.171C104.801 111.209 104.263 114.447 104.373 117.696L104.374 117.729L104.376 117.762C104.725 123.002 106.392 128.068 109.22 132.492C112.745 138.211 117.221 143.286 122.455 147.497L122.461 147.501L122.581 147.6C120.386 150.655 117.589 153.237 114.356 155.184C110.619 157.435 106.405 158.773 102.054 159.091C91.7333 159.845 83.7593 155.63 77.4482 147.633C77.6297 147.472 77.8109 147.311 77.9916 147.15C79.3635 145.931 80.7096 144.735 81.9808 143.504C86.6274 139.136 90.389 133.914 93.0602 128.123C95.4271 123.381 96.2164 118.006 95.3124 112.784C94.4086 107.561 91.8593 102.765 88.0373 99.0944C82.4277 93.3414 75.7045 88.7918 68.278 85.7232L68.2738 85.7215C60.9302 82.7068 53.2763 80.5119 45.4511 79.1765C40.5151 78.1832 35.5745 77.0759 30.6398 75.9635L30.5964 75.9537L30.5527 75.9459C28.8325 75.6377 27.2111 74.9221 25.8242 73.8588C24.4373 72.7955 23.3252 71.4155 22.581 69.8343L22.5602 69.79L22.5372 69.7468C22.1142 68.9514 21.854 68.0859 21.7653 67.2002H72.9588L72.9747 67.2C76.0171 67.1516 79.02 67.8927 81.6904 69.3511L81.6977 69.3551L89.3795 73.642L92.0677 74.8771Z" fill="currentColor"></path></svg>