<svg width="200" height="200" viewBox="0 0 200 200" fill="none" xmlns="http://www.w3.org/2000/svg"><path fill-rule="evenodd" clip-rule="evenodd" d="M31.733 65.5H70.0667L70.4667 65.8H70.5056L71.4742 66.4458L71.5662 66.5377C71.5939 66.557 71.6361 66.5848 71.7065 66.6301C71.724 66.6414 71.7433 66.6537 71.7642 66.6671C71.9085 66.7593 72.1287 66.9 72.3524 67.0646C72.9577 67.4702 73.7052 68.0125 74.5164 68.6011C74.9466 68.9132 75.3947 69.2383 75.8491 69.563C77.8143 70.9186 80.1969 72.6437 82.7224 74.4723C83.9472 75.3591 85.2057 76.2702 86.4664 77.1754L86.4765 77.1826L86.4864 77.1899C87.8346 78.1833 89.2055 79.184 90.5436 80.1607C92.9438 81.9128 95.2387 83.5879 97.1088 85.0066L97.1223 85.0169L97.1357 85.0274C97.9966 85.7038 98.7455 86.2766 99.4158 86.7893C99.6633 86.9786 99.9 87.1597 100.128 87.3348C100.661 86.8969 101.296 86.404 101.973 85.8779C102.328 85.6025 102.695 85.3179 103.064 85.0274C105.878 82.8163 109.589 80.0081 113.28 77.2153L113.293 77.2052C115.515 75.5235 117.765 73.8572 119.805 72.3464C121.151 71.3498 122.405 70.421 123.5 69.6L123.519 69.586L123.538 69.5725C124.917 68.5873 126.101 67.6996 126.9 67.1C127.01 67.0175 127.112 66.9427 127.2 66.8785L127.215 66.8671C127.299 66.8058 127.365 66.7575 127.425 66.7125C127.54 66.6261 127.579 66.5913 127.586 66.5859C127.586 66.5851 127.587 66.585 127.586 66.5859L128.372 65.8H128.733L129.133 65.5H168.567L160.422 71.7836L160.417 71.7868L123.904 99.8L160.422 127.816L168.567 134.1H130.233L129.833 133.8H129.794L128.826 133.154L128.734 133.062C128.706 133.043 128.664 133.015 128.593 132.97C128.576 132.959 128.557 132.946 128.536 132.933C128.392 132.841 128.171 132.7 127.948 132.535C127.342 132.13 126.595 131.587 125.784 130.999C125.353 130.687 124.905 130.362 124.451 130.037C122.486 128.681 120.103 126.956 117.577 125.128C116.353 124.241 115.094 123.33 113.834 122.425L113.824 122.417L113.814 122.41C112.465 121.417 111.095 120.416 109.756 119.439C107.356 117.687 105.061 116.012 103.191 114.593L103.178 114.583L103.164 114.573C102.303 113.896 101.555 113.323 100.884 112.811C100.617 112.606 100.362 112.411 100.117 112.223C99.7614 112.508 99.3696 112.804 98.975 113.1C98.8738 113.176 98.7715 113.252 98.6683 113.33C98.1472 113.72 97.6009 114.128 97.0357 114.573L97.0223 114.583L97.0088 114.593C94.0922 116.806 90.2778 119.617 86.3664 122.425C84.816 123.538 83.2862 124.632 81.8238 125.677C79.5948 127.271 77.5225 128.753 75.773 130.02L75.7416 130.043L75.7094 130.064C74.2591 131.031 73.0971 131.902 72.3 132.5C72.0603 132.68 71.8186 132.834 71.6641 132.933C71.6432 132.946 71.624 132.959 71.6065 132.97C71.5361 133.015 71.4939 133.043 71.4662 133.062L71.3742 133.154L70.4056 133.8H70.3667L69.9667 134.1H31.8331L76.4128 99.79L39.8784 71.7836L31.733 65.5ZM79.9674 97.4748C80.0343 97.5201 80.1016 97.5666 80.1614 97.6079L80.1791 97.6202C80.2655 97.6799 80.3436 97.7337 80.4219 97.7859C80.5832 97.8934 80.7036 97.9657 80.7944 98.0111L84.3721 99.8L80.7944 101.589C80.5823 101.695 80.4349 101.769 80.3173 101.836C80.2902 101.852 80.2699 101.864 80.2551 101.873L80.2224 101.906L43.5702 130.1H68.7445L68.8709 130.016C68.9634 129.937 69.0495 129.873 69.1185 129.823C69.2354 129.74 69.354 129.663 69.4435 129.605C69.4677 129.59 69.4909 129.575 69.513 129.56C69.6766 129.456 69.7873 129.385 69.9 129.3L69.9055 129.296C70.703 128.698 71.9272 127.78 73.4581 126.758C75.2082 125.49 77.2882 124.003 79.514 122.412C80.9751 121.367 82.499 120.277 84.0336 119.175C87.9163 116.388 91.6963 113.603 94.5781 111.417C95.1789 110.945 95.7636 110.507 96.2809 110.12C96.3816 110.045 96.4798 109.971 96.575 109.9C97.1838 109.443 97.6488 109.087 97.983 108.795L98.0816 108.709L98.1906 108.636C98.2401 108.603 98.3028 108.552 98.471 108.415C98.5386 108.359 98.6369 108.279 98.7394 108.203C98.8328 108.133 98.9992 108.014 99.2056 107.911L100.495 107.266L101.514 108.286C101.508 108.28 101.539 108.31 101.639 108.383C101.737 108.454 101.852 108.531 102.009 108.636L102.07 108.676L102.128 108.721C102.446 108.969 102.828 109.261 103.255 109.588C103.952 110.121 104.768 110.746 105.622 111.417C107.463 112.813 109.697 114.444 112.067 116.174C113.409 117.153 114.794 118.164 116.177 119.183C117.471 120.112 118.745 121.035 119.976 121.926C122.482 123.74 124.805 125.422 126.735 126.754L126.749 126.763L126.762 126.773C127.297 127.154 127.786 127.509 128.232 127.833C129.009 128.397 129.659 128.869 130.209 129.236L130.256 129.267L130.3 129.3C130.413 129.385 130.523 129.456 130.687 129.56C130.709 129.575 130.732 129.59 130.757 129.605C130.846 129.663 130.965 129.74 131.081 129.823C131.15 129.873 131.237 129.937 131.329 130.016L131.456 130.1H156.827L120.244 102.034C120.069 101.924 119.805 101.789 119.406 101.589L115.828 99.8L119.406 98.0111C119.805 97.8115 120.069 97.6765 120.244 97.5659L156.827 69.5H130.325C130.063 69.7432 129.719 69.9934 129.474 70.1721C129.408 70.2205 129.348 70.2637 129.3 70.3L129.297 70.3019C128.5 70.8997 127.292 71.8057 125.881 72.814C124.745 73.6663 123.483 74.6007 122.141 75.5945C120.126 77.0866 117.93 78.7125 115.707 80.3948C112.002 83.1987 108.318 85.9864 105.536 88.1726C105.097 88.5173 104.69 88.8331 104.316 89.1239C103.44 89.8037 102.74 90.3474 102.217 90.8052L102.118 90.8914L102.009 90.9641C101.89 91.0437 101.812 91.1164 101.614 91.3142L100.2 92.7284L98.7858 91.3142C98.7926 91.321 98.7629 91.2915 98.6612 91.2175C98.5626 91.1458 98.4477 91.0689 98.2906 90.9641L98.2298 90.9236L98.1721 90.8787C97.854 90.6313 97.472 90.3389 97.0451 90.0122C96.3482 89.4788 95.5316 88.8538 94.6779 88.1832C92.8368 86.7869 90.603 85.1564 88.2331 83.4266C86.8913 82.4472 85.506 81.436 84.1235 80.4174C82.8295 79.4883 81.5548 78.5654 80.3242 77.6744C77.8178 75.8596 75.4947 74.1775 73.5645 72.8464L73.551 72.8371L73.5375 72.8275C73.0028 72.4455 72.5144 72.091 72.0676 71.7666C71.2914 71.2032 70.6407 70.7308 70.0906 70.3641L70.0444 70.3333L70 70.3C69.8873 70.2155 69.7766 70.1445 69.6131 70.0395C69.5909 70.0253 69.5677 70.0104 69.5435 69.9949C69.4541 69.9374 69.3354 69.8605 69.2186 69.7766C69.1495 69.7271 69.0634 69.6628 68.9709 69.5843L68.8445 69.5H43.4742L79.9674 97.4748ZM130.9 130.225V130.1H131.1M130.9 130.225L130.5 129.925V129.8H130.4V129.85L129.8 129.4L128.902 130.598L128.9 130.6L128.899 130.601L128.899 130.602L128.898 130.603C128.903 130.78 128.92 130.947 128.947 131.104M80.2265 101.892C80.2264 101.892 80.2266 101.892 80.2265 101.892V101.892ZM131.267 130.5L131.4 130.3L131.267 130.5Z" fill="currentColor"></path></svg>