<svg width="200" height="200" viewBox="0 0 200 200" fill="none" xmlns="http://www.w3.org/2000/svg"><path fill-rule="evenodd" clip-rule="evenodd" d="M66.2 41C59.9746 41 55 45.9343 55 52V149C55 155.066 59.9746 160 66.2 160H133.9C140.125 160 145.1 155.066 145.1 149V52C145.1 45.9343 140.125 41 133.9 41H66.2ZM51 52C51 43.6657 57.8254 37 66.2 37H133.9C142.275 37 149.1 43.6657 149.1 52V149C149.1 157.334 142.275 164 133.9 164H66.2C57.8254 164 51 157.334 51 149V52ZM81 70.7C81 60.472 89.419 52.2 99.7 52.2C109.981 52.2 118.4 60.472 118.4 70.7C118.4 80.928 109.981 89.2 99.7 89.2C89.419 89.2 81 80.928 81 70.7ZM99.7 56.2C91.581 56.2 85 62.728 85 70.7C85 78.672 91.581 85.2 99.7 85.2C107.819 85.2 114.4 78.672 114.4 70.7C114.4 62.728 107.819 56.2 99.7 56.2ZM100 67.8C98.1792 67.8 96.8 69.2298 96.8 70.9C96.8 72.5702 98.1792 74 100 74C101.821 74 103.2 72.5702 103.2 70.9C103.2 69.2298 101.821 67.8 100 67.8ZM92.8 70.9C92.8 66.9702 96.0208 63.8 100 63.8C103.979 63.8 107.2 66.9702 107.2 70.9C107.2 74.8298 103.979 78 100 78C96.0208 78 92.8 74.8298 92.8 70.9ZM73 122.6C73 107.78 85.1112 95.8 100 95.8C114.889 95.8 127 107.78 127 122.6C127 137.42 114.889 149.4 100 149.4C85.1112 149.4 73 137.42 73 122.6ZM100 99.8C87.2888 99.8 77 110.02 77 122.6C77 135.18 87.2888 145.4 100 145.4C112.711 145.4 123 135.18 123 122.6C123 110.02 112.711 99.8 100 99.8ZM100 115.2C95.7907 115.2 92.5 118.518 92.5 122.6C92.5 126.668 95.8769 130 100 130C104.209 130 107.5 126.682 107.5 122.6C107.5 118.532 104.123 115.2 100 115.2ZM88.5 122.6C88.5 116.282 93.6093 111.2 100 111.2C106.277 111.2 111.5 116.268 111.5 122.6C111.5 128.918 106.391 134 100 134C93.7231 134 88.5 128.932 88.5 122.6Z" fill="currentColor"></path></svg>