<svg width="200" height="200" viewBox="0 0 200 200" fill="none" xmlns="http://www.w3.org/2000/svg"><path fill-rule="evenodd" clip-rule="evenodd" d="M111.564 45.4278C111.565 45.4272 111.565 45.4266 112.8 47C114.035 48.5735 114.035 48.573 114.036 48.5724L114.037 48.5715L114.039 48.5699C114.035 48.5732 114.026 48.5806 114.011 48.5929C113.982 48.6175 113.933 48.6596 113.867 48.7183C113.736 48.836 113.545 49.0173 113.324 49.254C112.876 49.7351 112.347 50.4042 111.951 51.1945C111.559 51.9797 111.326 52.8285 111.379 53.7141C111.431 54.5761 111.763 55.627 112.749 56.835L112.759 56.8475C115.467 60.2183 116.382 63.4282 115.787 66.4381C115.213 69.3422 113.308 71.6292 111.331 73.3926L108.669 70.4075C110.392 68.8708 111.537 67.3078 111.863 65.662C112.167 64.123 111.834 62.0847 109.645 59.3583C108.186 57.5684 107.494 55.7342 107.386 53.9548C107.28 52.1966 107.754 50.6454 108.374 49.4056C108.991 48.1709 109.78 47.19 110.398 46.5273C110.71 46.1921 110.988 45.9282 111.193 45.7435C111.296 45.651 111.382 45.5777 111.445 45.5247C111.477 45.4981 111.503 45.4766 111.523 45.4602L111.549 45.4395L111.558 45.4321L111.562 45.4291L111.564 45.4278ZM114.042 48.568L114.039 48.5699C114.041 48.5682 114.042 48.5673 114.042 48.568ZM87.2672 46.9252C87.268 46.9246 87.2687 46.924 88.5 48.5C89.7313 50.0761 89.732 50.0755 89.7327 50.075L89.7339 50.074L89.736 50.0724L89.737 50.0716C89.7348 50.0734 89.7307 50.0767 89.7248 50.0815C89.7207 50.085 89.7156 50.0892 89.7097 50.0941C89.6811 50.1179 89.633 50.1588 89.5692 50.216C89.4412 50.3307 89.2534 50.508 89.0371 50.7397C88.5976 51.2106 88.0776 51.8669 87.6889 52.6445C87.3028 53.4166 87.0714 54.2555 87.1217 55.1359C87.1708 55.9942 87.4949 57.0421 88.4617 58.2507C91.1257 61.5806 92.0064 64.766 91.4112 67.7423C90.8368 70.6143 88.964 72.8746 87.0287 74.5949L84.3713 71.6052C86.036 70.1255 87.1632 68.5858 87.4888 66.9578C87.7936 65.4341 87.4743 63.4195 85.3383 60.7494C83.9051 58.9579 83.2292 57.1309 83.1283 55.3641C83.0286 53.6196 83.4972 52.0834 84.1111 50.8556C84.7224 49.6332 85.5024 48.6645 86.1129 48.0104C86.4216 47.6796 86.6963 47.4194 86.8996 47.2372C87.0014 47.1459 87.0861 47.0736 87.1489 47.0212C87.1804 46.995 87.2065 46.9737 87.2266 46.9575L87.2523 46.9369L87.2617 46.9295L87.2655 46.9265L87.2672 46.9252ZM89.7385 50.0704L89.737 50.0716C89.7389 50.0701 89.7394 50.0697 89.7385 50.0704ZM100.571 53.5226C100.571 53.5219 100.572 53.5213 101.8 55.1C103.028 56.6787 103.029 56.6782 103.029 56.6777L103.026 56.68C103.023 56.6827 103.018 56.6864 103.013 56.6911C103.004 56.6983 102.992 56.7078 102.978 56.7196C102.931 56.7585 102.856 56.8221 102.759 56.9089C102.564 57.0829 102.283 57.3477 101.961 57.6923C101.31 58.3889 100.529 59.372 99.9404 60.5538C99.3551 61.7297 98.9851 63.0515 99.0713 64.4709C99.1563 65.8694 99.6924 67.514 101.162 69.3507C103.015 71.6674 104.222 73.8976 104.859 76.0407C107.99 76.074 112.332 76.2604 117.023 76.9062C125.723 78.1041 136.227 80.9493 142.483 87.8576C142.755 88.158 142.929 88.534 142.982 88.9357L141 89.2C142.982 88.9357 142.982 88.9356 142.982 88.9357L142.983 88.9369L142.989 88.9829L143.005 89.1103C143.019 89.2202 143.039 89.3784 143.063 89.5741C143.111 89.9651 143.175 90.508 143.239 91.1157C143.285 91.5523 143.332 92.0352 143.374 92.5267C143.387 92.524 143.4 92.5212 143.413 92.5185C144.232 92.3456 145.113 92.1619 146.009 92.0019C147.78 91.6855 149.733 91.4369 151.561 91.5682C153.389 91.6995 155.328 92.2284 156.801 93.6933C158.299 95.1826 159 97.3222 159 100C159 106.418 155.226 110.674 150.65 113.507C146.401 116.137 141.215 117.707 137.047 118.825C136.403 119.876 135.719 120.911 134.984 121.917C142.222 123.286 148.387 125.108 152.955 127.267C155.58 128.508 157.779 129.907 159.349 131.476C160.922 133.05 162 134.942 162 137.1C162 140.398 159.538 143.045 156.354 145.073C153.073 147.163 148.458 148.975 142.935 150.468C131.859 153.463 116.675 155.3 100 155.3C83.3248 155.3 68.1413 153.463 57.0654 150.468C51.5419 148.975 46.927 147.163 43.6458 145.073C40.4621 143.045 38 140.398 38 137.1C38 134.942 39.0775 133.05 40.6514 131.476C42.2213 129.907 44.42 128.508 47.0454 127.267C51.6185 125.105 57.7925 123.282 65.0411 121.912C58.1327 112.47 55.3207 100.463 56.9701 88.9172C57.0017 88.6961 57.0701 88.4818 57.1725 88.2833C59.129 84.4897 62.9396 81.9661 67.1655 80.2542C71.4278 78.5275 76.4029 77.5082 81.1143 76.9038C89.5977 75.8154 97.5885 76.0354 99.5705 76.09C99.7895 76.096 99.9352 76.1 100 76.1C100.067 76.1 100.21 76.0957 100.42 76.0892C100.486 76.0872 100.557 76.0849 100.635 76.0826C100.105 74.7949 99.2695 73.3885 98.0383 71.8494C96.1076 69.4361 95.2187 67.0182 95.0787 64.7135C94.9399 62.4298 95.5449 60.4079 96.3596 58.7713C97.1713 57.1406 98.215 55.8424 99.0389 54.9609C99.4543 54.5164 99.8232 54.168 100.094 53.926C100.23 53.8048 100.341 53.7096 100.423 53.6419C100.464 53.608 100.497 53.5809 100.522 53.5608L100.554 53.5358L100.565 53.5272L100.571 53.5226ZM101.399 80.0642C101.062 80.0722 100.777 80.0804 100.55 80.087C100.286 80.0946 100.1 80.1 100 80.1C99.9054 80.1 99.7167 80.0951 99.4433 80.088C97.263 80.0314 89.7017 79.8349 81.6232 80.8713C77.0784 81.4544 72.4816 82.4163 68.6673 83.9615C65.0859 85.4124 62.4387 87.2776 61.0252 89.5882C61.207 90.0949 61.7704 90.8603 63.261 91.8008C65.106 92.9649 67.9067 94.0857 71.5405 95.0551C78.779 96.9862 88.8726 98.2 100.05 98.2C111.228 98.2 121.283 96.9862 128.482 95.0558C132.096 94.0867 134.877 92.9666 136.707 91.8041C137.978 90.9967 138.57 90.3177 138.826 89.8192C133.487 84.5232 124.663 81.9959 116.477 80.8689C112.259 80.2881 108.359 80.0956 105.404 80.0484C105.384 80.728 105.306 81.3978 105.173 82.0578C104.41 85.8436 101.909 88.8772 99.2395 91.2852L96.5605 88.3149C98.9908 86.1228 100.74 83.8065 101.252 81.2673C101.33 80.8825 101.381 80.4818 101.399 80.0642ZM60.5148 94.7776C60.7153 94.9178 60.9197 95.0532 61.1265 95.1837C63.4565 96.6539 66.6933 97.9019 70.5095 98.92C78.171 100.964 88.6274 102.2 100.05 102.2C111.472 102.2 121.892 100.964 129.518 98.9193C133.316 97.9009 136.535 96.6522 138.852 95.1804C139.071 95.0414 139.287 94.897 139.498 94.7472C139.499 94.8171 139.5 94.8848 139.5 94.95C139.5 102.443 137.79 109.676 134.027 116.084C132.774 118.205 131.399 120.19 129.81 121.966C129.797 121.981 129.784 121.995 129.772 122.01C122.535 130.58 111.885 135.9 100 135.9C88.1245 135.9 77.4672 130.487 70.221 122.001L70.2127 121.992C63.7123 114.476 60.3685 104.66 60.5148 94.7776ZM139.628 113.924C142.722 112.963 145.88 111.755 148.545 110.105C152.445 107.691 155 104.53 155 100C155 97.9978 154.486 97.0322 153.981 96.5296C153.451 96.0027 152.599 95.6531 151.275 95.5579C149.951 95.4628 148.39 95.6398 146.713 95.9395C145.884 96.0875 145.057 96.2595 144.239 96.4323C144.156 96.4498 144.072 96.4674 143.989 96.485C143.817 96.5213 143.646 96.5576 143.474 96.5936C143.287 102.574 142.068 108.445 139.628 113.924ZM67.9304 125.456C59.9197 126.828 53.3381 128.717 48.7546 130.883C46.355 132.017 44.6037 133.181 43.4798 134.305C42.36 135.425 42 136.358 42 137.1C42 138.252 42.9004 139.855 45.7948 141.699C48.5918 143.481 52.7706 145.163 58.1096 146.607C68.7587 149.487 83.5752 151.3 100 151.3C116.425 151.3 131.241 149.487 141.89 146.607C147.229 145.163 151.408 143.481 154.205 141.699C157.1 139.855 158 138.252 158 137.1C158 136.358 157.64 135.425 156.52 134.305C155.396 133.181 153.645 132.017 151.245 130.883C146.663 128.718 140.084 126.829 132.076 125.457C124.135 134.379 112.708 139.9 100 139.9C87.2828 139.9 75.8629 134.279 67.9304 125.456Z" fill="currentColor"></path></svg>