<svg width="200" height="200" viewBox="0 0 200 200" fill="none" xmlns="http://www.w3.org/2000/svg"><path d="M106.589 28.2402C106.589 27.1357 105.693 26.2402 104.589 26.2402C103.484 26.2402 102.589 27.1357 102.589 28.2402C102.589 34.8221 100.534 38.0086 98.2912 41.487L98.2841 41.498C95.9062 45.1861 93.3416 49.1706 93.3416 56.9233C93.3416 64.676 95.9062 68.6604 98.2835 72.352L98.2869 72.3573C100.531 75.8412 102.589 79.0369 102.589 85.6413C102.589 87.1943 102.474 88.5582 102.27 89.7816C101.954 88.0959 101.419 86.2566 100.575 84.2136C97.6135 77.0461 93.7209 74.34 90.1137 71.8366L90.1031 71.8292C86.7007 69.4678 83.5834 67.3043 81.0689 61.2183C78.5538 55.1306 79.2286 51.3997 79.9649 47.3291L79.9672 47.316C80.7479 42.9996 81.5868 38.3399 78.6263 31.1743C78.2045 30.1535 77.035 29.6678 76.0142 30.0896C74.9933 30.5114 74.5076 31.6809 74.9294 32.7017C77.4446 38.7894 76.7697 42.5203 76.0335 46.5909L76.0311 46.604C75.2504 50.9204 74.4115 55.58 77.372 62.7457C80.3333 69.9131 84.2259 72.6192 87.8331 75.1227L87.8437 75.13C91.2461 77.4914 94.3634 79.6549 96.8779 85.741C97.4331 87.0848 97.8328 88.3137 98.1108 89.4568C97.1972 88.0848 96.0428 86.6599 94.5599 85.1719C89.0891 79.6822 84.4578 78.6709 80.1643 77.7377L80.1491 77.7344C76.0994 76.8542 72.3843 76.0468 67.7238 71.3863C63.0619 66.7244 62.2552 63.0167 61.3751 58.9716L61.3723 58.9584C60.439 54.6689 59.4279 50.0399 53.9406 44.5526C53.1595 43.7715 51.8932 43.7715 51.1122 44.5526C50.3311 45.3336 50.3311 46.6 51.1122 47.381C55.7741 52.0429 56.5807 55.7506 57.4608 59.7957L57.4637 59.8088C58.397 64.0983 59.4081 68.7274 64.8954 74.2147C70.3833 79.7026 75.0219 80.7134 79.3147 81.6464L79.3242 81.6485C83.3754 82.529 87.0817 83.3346 91.7266 87.9955C92.8297 89.1024 93.7159 90.1555 94.4378 91.1721C93.0231 90.2028 91.3445 89.281 89.3027 88.4352L89.301 88.4345C82.1353 85.474 77.4756 86.3129 73.1554 87.0936L73.1443 87.0955C69.0693 87.8318 65.3285 88.5078 59.2222 85.9919C53.1361 83.4774 50.9727 80.3602 48.6112 76.9577L48.6039 76.9471C46.1004 73.34 43.3943 69.4473 36.2269 66.4861C35.206 66.0643 34.0365 66.5499 33.6147 67.5708C33.1929 68.5917 33.6786 69.7612 34.6995 70.183C40.7855 72.6975 42.949 75.8147 45.3104 79.2172L45.3178 79.2278C47.8212 82.8349 50.5273 86.7276 57.6948 89.6888L57.6965 89.6895C64.8784 92.649 69.5455 91.8106 73.8666 91.0298L73.8819 91.027C77.9562 90.2909 81.6866 89.6168 87.7725 92.131C89.1294 92.6931 90.2907 93.2854 91.3023 93.9042C89.6648 93.5719 87.8136 93.377 85.6759 93.377C77.9232 93.377 73.9387 95.9416 70.2472 98.3189L70.2419 98.3223C66.758 100.566 63.5623 102.624 56.9579 102.624C50.3798 102.624 47.1931 100.572 43.7119 98.3299L43.6949 98.3189C40.0014 95.9404 36.0088 93.377 28.24 93.377C27.1354 93.377 26.24 94.2724 26.24 95.377C26.24 96.4815 27.1354 97.377 28.24 97.377C34.8443 97.377 38.0401 99.435 41.524 101.679L41.5292 101.682C45.2208 104.059 49.2053 106.624 56.9579 106.624C64.7268 106.624 68.7193 104.061 72.4129 101.682L72.4298 101.671C75.9111 99.4291 79.0977 97.377 85.6759 97.377C87.1794 97.377 88.5057 97.4842 89.6989 97.6763C88.0359 97.994 86.2236 98.5255 84.2143 99.3557C77.0469 102.317 74.3407 106.21 71.8373 109.817L71.8299 109.827C69.4685 113.23 67.305 116.347 61.219 118.862C55.1325 121.376 51.4018 120.702 47.3273 119.966L47.312 119.963C42.9908 119.182 38.3237 118.344 31.1419 121.303C30.1206 121.724 29.6339 122.893 30.0547 123.915C30.4755 124.936 31.6446 125.423 32.6658 125.002C38.7731 122.485 42.5143 123.161 46.5897 123.897L46.6007 123.899C50.921 124.68 55.5807 125.519 62.7464 122.558C69.9138 119.597 72.6199 115.704 75.1234 112.097L75.1307 112.087C77.4922 108.684 79.6556 105.567 85.7417 103.053C87.1274 102.48 88.391 102.073 89.5642 101.794C88.1484 102.722 86.6763 103.905 85.1367 105.439C79.647 110.91 78.6357 115.541 77.7025 119.835L77.6993 119.85C76.8191 123.9 76.0116 127.615 71.3511 132.275C66.6892 136.937 62.9815 137.744 58.9364 138.624L58.9233 138.627C54.6338 139.56 50.0047 140.571 44.5174 146.058C43.7364 146.839 43.7364 148.106 44.5174 148.887C45.2985 149.668 46.5648 149.668 47.3459 148.887C52.0077 144.225 55.7154 143.418 59.7605 142.538L59.7737 142.535C64.0632 141.602 68.6922 140.591 74.1795 135.104C79.6674 129.616 80.6783 124.977 81.6113 120.684L81.6133 120.675C82.4939 116.624 83.2994 112.917 87.9603 108.272C89.0675 107.169 90.1209 106.283 91.1378 105.561C90.1679 106.976 89.2456 108.655 88.3994 110.698L88.3986 110.7C85.4381 117.865 86.2771 122.525 87.0577 126.845L87.0597 126.856C87.796 130.932 88.472 134.673 85.9553 140.78C83.4386 146.888 80.3185 149.049 76.9152 151.407L76.9126 151.409C73.3061 153.907 69.4119 156.605 66.4502 163.774C66.0284 164.795 66.514 165.964 67.5349 166.386C68.5558 166.808 69.7253 166.322 70.1471 165.301C72.6587 159.222 75.7711 157.066 79.1704 154.711L79.1905 154.697C82.8 152.196 86.6927 149.49 89.6537 142.304C92.6131 135.122 91.7747 130.455 90.9939 126.134L90.9911 126.119C90.2549 122.044 89.5809 118.314 92.0955 112.227C92.6577 110.87 93.25 109.709 93.8689 108.697C93.5366 110.335 93.3416 112.186 93.3416 114.324C93.3416 122.077 95.9062 126.061 98.2835 129.753L98.2869 129.758C100.53 133.242 102.589 136.438 102.589 143.042C102.589 149.642 100.534 152.828 98.2919 156.306L98.2841 156.317C95.9055 160.007 93.3416 163.991 93.3416 171.76C93.3416 172.865 94.237 173.76 95.3416 173.76C96.4461 173.76 97.3416 172.865 97.3416 171.76C97.3416 165.161 99.3963 161.974 101.638 158.497L101.646 158.485C104.025 154.796 106.589 150.812 106.589 143.042C106.589 135.273 104.025 131.281 101.647 127.587L101.636 127.57C99.3937 124.089 97.3416 120.902 97.3416 114.324C97.3416 112.82 97.4488 111.494 97.6411 110.3C97.9589 111.963 98.4903 113.775 99.3205 115.785C102.282 122.952 106.174 125.658 109.782 128.162L109.792 128.169C113.195 130.531 116.312 132.694 118.826 138.78C121.341 144.867 120.667 148.597 119.931 152.672L119.928 152.687C119.147 157.008 118.309 161.675 121.268 168.857C121.689 169.879 122.858 170.365 123.879 169.944C124.901 169.524 125.387 168.355 124.967 167.333C122.45 161.226 123.126 157.485 123.862 153.409L123.864 153.398C124.645 149.078 125.484 144.418 122.523 137.253C119.562 130.085 115.669 127.379 112.062 124.876L112.052 124.868C108.649 122.507 105.532 120.344 103.017 114.257C102.414 112.796 101.994 111.471 101.714 110.244C102.662 111.709 103.88 113.234 105.477 114.832C110.965 120.319 115.594 121.33 119.883 122.263L119.896 122.266C123.941 123.146 127.648 123.953 132.309 128.612C136.949 133.269 137.751 136.973 138.626 141.015L138.632 141.041C139.561 145.332 140.572 149.961 146.059 155.448C146.84 156.229 148.107 156.229 148.888 155.448C149.669 154.667 149.669 153.401 148.888 152.62C144.221 147.953 143.418 144.243 142.541 140.195L142.54 140.191C141.612 135.905 140.61 131.276 135.142 125.789L135.139 125.786C129.652 120.299 125.023 119.288 120.734 118.355L120.72 118.352C116.675 117.472 112.968 116.665 108.306 112.003C107.251 110.948 106.393 109.942 105.688 108.97C107.085 109.914 108.736 110.812 110.734 111.637C117.9 114.598 122.559 113.759 126.876 112.978L126.889 112.976C130.959 112.24 134.69 111.565 140.777 114.08C146.839 116.591 148.996 119.704 151.351 123.104L151.365 123.123C153.865 126.732 156.571 130.624 163.738 133.586C164.759 134.008 165.929 133.522 166.351 132.501C166.772 131.48 166.287 130.311 165.266 129.889C159.174 127.372 157.013 124.252 154.654 120.847L154.653 120.845L154.652 120.844C152.154 117.239 149.457 113.346 142.307 110.384L142.305 110.383C135.14 107.422 130.48 108.261 126.164 109.042L126.151 109.044C122.08 109.781 118.349 110.456 112.261 107.94C110.821 107.345 109.6 106.716 108.544 106.058C110.228 106.414 112.139 106.624 114.359 106.624C122.128 106.624 126.12 104.061 129.814 101.682L129.831 101.671C133.312 99.4291 136.499 97.377 143.077 97.377C149.659 97.377 152.845 99.4315 156.324 101.674L156.335 101.681C160.023 104.059 164.007 106.624 171.76 106.624C172.865 106.624 173.76 105.729 173.76 104.624C173.76 103.519 172.865 102.624 171.76 102.624C165.178 102.624 161.992 100.569 158.513 98.3266L158.502 98.3195C154.814 95.9416 150.83 93.377 143.077 93.377C135.324 93.377 131.34 95.9416 127.648 98.3189L127.643 98.3223C124.159 100.566 120.963 102.624 114.359 102.624C112.805 102.624 111.441 102.509 110.217 102.305C111.903 101.989 113.743 101.454 115.786 100.61C122.953 97.6487 125.659 93.756 128.163 90.1489L128.17 90.1383C130.531 86.7358 132.695 83.6186 138.781 81.1041C144.869 78.5889 148.6 79.2637 152.67 80L152.683 80.0024C157 80.7831 161.659 81.622 168.825 78.6615C169.846 78.2397 170.331 77.0702 169.91 76.0493C169.488 75.0285 168.318 74.5428 167.297 74.9646C161.21 77.4797 157.479 76.8049 153.408 76.0686L153.395 76.0663C149.079 75.2855 144.419 74.4466 137.254 77.4072C130.086 80.3684 127.38 84.2611 124.877 87.8682L124.869 87.8788C122.508 91.2813 120.344 94.3985 114.258 96.913C112.84 97.4992 111.549 97.912 110.352 98.1913C111.773 97.2577 113.251 96.0672 114.796 94.5216C120.284 89.0343 121.295 84.4053 122.228 80.1158L122.231 80.1026C123.111 76.058 123.918 72.3508 128.578 67.6898C133.234 63.0501 136.938 62.2481 140.98 61.3728L141.006 61.3673C145.297 60.4382 149.926 59.427 155.413 53.9396C156.194 53.1586 156.194 51.8922 155.413 51.1112C154.632 50.3301 153.366 50.3301 152.585 51.1112C147.918 55.7779 144.208 56.5813 140.159 57.4579L140.156 57.4586C135.869 58.3868 131.241 59.389 125.754 64.8571L125.751 64.8595C120.264 70.3468 119.253 74.9758 118.32 79.2654L118.317 79.2785C117.437 83.3236 116.63 87.0313 111.968 91.6932C110.913 92.7478 109.908 93.6052 108.936 94.3106C109.879 92.9143 110.776 91.2636 111.601 89.2666C114.562 82.1009 113.723 77.4325 112.942 73.1122L112.94 73.0979C112.203 69.0221 111.53 65.2927 114.043 59.2244C116.555 53.1616 119.668 51.0051 123.068 48.6492L123.087 48.6359C126.696 46.136 130.589 43.4298 133.55 36.2623C133.972 35.2414 133.486 34.0719 132.465 33.6501C131.444 33.2283 130.275 33.714 129.853 34.7349C127.336 40.8262 124.216 42.988 120.811 45.3467L120.81 45.3478L120.808 45.3487C117.203 47.8463 113.31 50.5437 110.348 57.6936C107.386 64.843 108.226 69.5041 109.006 73.8235L109.008 73.8334C109.745 77.9101 110.42 81.6501 107.905 87.7392C107.309 89.1795 106.681 90.4 106.022 91.4555C106.378 89.772 106.589 87.8611 106.589 85.6413C106.589 77.8724 104.025 73.8799 101.647 70.1863L101.636 70.1694C99.3937 66.6881 97.3416 63.5015 97.3416 56.9233C97.3416 50.3414 99.3961 47.1549 101.639 43.6765L101.646 43.6656C104.024 39.9774 106.589 35.993 106.589 28.2402Z" fill="currentColor"></path></svg>