<svg width="200" height="200" viewBox="0 0 200 200" fill="none" xmlns="http://www.w3.org/2000/svg"><path fill-rule="evenodd" clip-rule="evenodd" d="M32 36.5298C32 35.4252 32.8954 34.5298 34 34.5298H102.576C138.7 34.5298 168 63.8303 168 99.9538C168 136.077 138.7 165.378 102.576 165.378H58.9804C58.8059 165.38 58.6306 165.359 58.459 165.315C58.2126 165.252 57.9846 165.142 57.7845 164.997C57.7793 164.993 57.7741 164.989 57.7689 164.986C57.4751 164.768 57.2579 164.485 57.1226 164.172C57.0498 164.004 56.9994 163.823 56.9752 163.635C56.9224 163.228 56.9942 162.804 57.2002 162.425C57.2419 162.348 57.2885 162.274 57.3395 162.204C57.3395 162.204 57.3395 162.204 57.3395 162.204L90.8395 116.007C90.8915 115.932 90.9489 115.86 91.0118 115.793C91.2119 115.575 91.4521 115.411 91.7126 115.303C92.231 115.088 92.8297 115.095 93.3533 115.35C93.5516 115.446 93.736 115.576 93.8972 115.738C93.9825 115.823 94.0588 115.915 94.1258 116.012L110.671 138.804V110.571C110.671 109.705 111.229 108.937 112.053 108.669L138.883 99.954L112.053 91.2391C111.229 90.9714 110.671 90.2034 110.671 89.3369V61.1042L94.0995 83.9327C93.5905 84.6339 92.6878 84.9275 91.8637 84.6601L64.997 75.9427L81.6017 98.7778C82.1116 99.479 82.1116 100.429 81.6017 101.13L61.38 128.939L61.377 128.943L61.3753 128.946L35.6205 164.55C35.1122 165.253 34.209 165.548 33.3839 165.281C32.5589 165.014 32 164.245 32 163.378V36.5298ZM92.4817 120.556L62.8794 161.378H102.576C136.49 161.378 164 133.868 164 99.9538C164 66.0394 136.49 38.5298 102.576 38.5298H36V157.201L58.139 126.595L77.5112 99.954L58.1419 73.3169C57.6323 72.6161 57.6319 71.6669 58.1409 70.9658C58.6499 70.2646 59.5525 69.9709 60.3767 70.2383L91.716 80.4069L111.052 53.7696C111.561 53.0683 112.464 52.7746 113.288 53.0422C114.113 53.3099 114.671 54.0779 114.671 54.9445V87.8837L145.975 98.0518C146.8 98.3195 147.358 99.0874 147.358 99.954C147.358 100.82 146.8 101.588 145.975 101.856L114.671 112.024V144.963C114.671 145.83 114.113 146.598 113.288 146.866C112.464 147.133 111.561 146.84 111.052 146.138L92.4817 120.556Z" fill="currentColor"></path></svg>