<svg width="200" height="200" viewBox="0 0 200 200" fill="none" xmlns="http://www.w3.org/2000/svg"><path fill-rule="evenodd" clip-rule="evenodd" d="M161.676 27.9681C162.129 28.3481 162.39 28.9089 162.39 29.5V76.3154C162.39 77.138 161.886 77.8767 161.121 78.1772L41.62 125.066V169.17L85.4709 161.447V131.023C85.4709 130.2 85.9747 129.461 86.7406 129.161L159.66 100.557C160.275 100.316 160.97 100.394 161.517 100.767C162.063 101.139 162.39 101.758 162.39 102.419V150.27C162.39 151.241 161.693 152.071 160.737 152.24L112.886 160.667C112.304 160.77 111.706 160.609 111.253 160.229C110.801 159.849 110.539 159.289 110.539 158.697V139.093C110.539 137.988 111.435 137.093 112.539 137.093C113.644 137.093 114.539 137.988 114.539 139.093V156.314L158.39 148.591V105.352L89.4709 132.386V163.125C89.4709 164.096 88.7738 164.927 87.8178 165.095L39.9669 173.523C39.3847 173.625 38.787 173.465 38.3343 173.085C37.8815 172.705 37.62 172.144 37.62 171.553V123.702C37.62 122.879 38.1237 122.141 38.8895 121.84L158.39 74.9517V31.883L114.539 39.606V69.3163C114.539 70.1533 114.018 70.9019 113.233 71.1922L40.3136 98.1529C39.6999 98.3798 39.014 98.2922 38.477 97.9183C37.9401 97.5443 37.62 96.9314 37.62 96.277V50.783C37.62 49.8122 38.3171 48.9817 39.2731 48.8133L87.124 40.3858C87.7062 40.2833 88.3039 40.4435 88.7566 40.8235C89.2094 41.2035 89.4709 41.7644 89.4709 42.3555V59.6032C89.4709 60.7078 88.5755 61.6032 87.4709 61.6032C86.3663 61.6032 85.4709 60.7078 85.4709 59.6032V44.7385L41.62 52.4615V93.4053L110.539 67.9234V37.9275C110.539 36.9568 111.236 36.1262 112.192 35.9578L160.043 27.5303C160.625 27.4278 161.223 27.588 161.676 27.9681Z" fill="currentColor"></path></svg>