<svg width="200" height="200" viewBox="0 0 200 200" fill="none" xmlns="http://www.w3.org/2000/svg"><path d="M149.183 50.451C140.337 41.875 126.207 41.9296 117.473 50.6939C116.693 51.4763 116.695 52.7426 117.478 53.5223C118.26 54.302 119.526 54.2998 120.306 53.5175C127.485 46.3136 139.112 46.2589 146.399 53.3229C147.192 54.0917 148.458 54.0721 149.227 53.2791C149.995 52.486 149.976 51.2198 149.183 50.451Z" fill="currentColor"></path><path fill-rule="evenodd" clip-rule="evenodd" d="M111.323 43.3907C123.746 30.9674 143.809 30.8807 156.348 43.0701C169.009 55.381 169.244 75.985 156.872 88.5614C152.312 93.2076 146.717 96.1428 140.807 97.4175C140.794 97.4213 140.781 97.4249 140.768 97.4284C140.755 97.4319 140.742 97.4353 140.729 97.4386L140.728 97.439L140.723 97.44L140.717 97.4416L140.702 97.4452L140.665 97.4539C140.636 97.4604 140.6 97.4681 140.558 97.4766C140.473 97.4935 140.361 97.5136 140.226 97.5329C140.202 97.5364 140.178 97.5393 140.154 97.5419C138.225 97.9631 131.101 99.6571 124.413 102.946C123.763 103.266 123.12 103.599 122.49 103.946C128.672 111.769 133.286 119.319 135.821 125.713C137.186 129.154 137.99 132.364 138.051 135.159C138.112 137.958 137.423 140.547 135.563 142.408C132.539 145.45 127.626 145.37 122.538 143.899C117.992 142.584 112.694 139.998 107.058 136.416C105.699 143.375 102.33 150.021 96.953 155.399C82.5552 169.797 59.196 169.797 44.7983 155.399C30.4006 141.001 30.4006 117.642 44.7983 103.244L44.8016 103.241C50.1946 97.8729 56.8128 94.5055 63.7611 93.1437C60.162 87.4944 57.5686 82.1769 56.2531 77.6133C54.7853 72.5215 54.7076 67.6053 57.7313 64.5815C59.5896 62.7233 62.1793 62.0438 64.9742 62.1101C67.765 62.1763 70.9718 62.9828 74.4083 64.345C80.7964 66.8772 88.3365 71.4744 96.1281 77.6133C96.7256 76.5269 97.2828 75.4049 97.7999 74.2709C99.4807 70.5849 100.691 66.8803 101.482 64.0854C101.877 62.6914 102.165 61.5318 102.353 60.7246C102.448 60.3211 102.517 60.0062 102.562 59.7946C102.585 59.6888 102.602 59.6088 102.612 59.5566L102.624 59.4993L102.627 59.485L102.631 59.4636C103.856 53.5712 106.746 47.9678 111.323 43.3907ZM118.198 101.825C118.352 101.698 118.52 101.599 118.695 101.526C119.986 100.733 121.318 100.011 122.648 99.3568C129.972 95.7546 137.695 93.9776 139.47 93.5974C139.554 93.5794 139.639 93.5668 139.725 93.5597C139.752 93.5529 139.779 93.5467 139.806 93.5409C145.039 92.4433 149.986 89.8681 154.019 85.758L154.021 85.7562C164.835 74.7632 164.633 56.7045 153.56 45.9381C142.585 35.269 125.024 35.3465 114.151 46.2192C110.145 50.2254 107.622 55.1184 106.549 60.2692L106.546 60.2864L106.531 60.3597C106.518 60.4228 106.499 60.5139 106.474 60.6312C106.424 60.8657 106.349 61.2052 106.249 61.6346C106.048 62.4932 105.745 63.7133 105.331 65.1749C104.505 68.0912 103.231 72.0015 101.439 75.9305C100.581 77.8135 99.5919 79.7262 98.4614 81.5479C98.4138 81.639 98.3587 81.7274 98.2959 81.8123C97.1191 83.6765 95.7919 85.4385 94.3015 86.9673C92.3886 88.9295 90.1574 90.5543 87.5982 91.4841C95.379 97.6549 102.422 104.713 108.601 112.495C109.437 110.193 110.834 108.154 112.535 106.375C114.159 104.676 116.088 103.181 118.14 101.873C118.159 101.857 118.178 101.84 118.198 101.825ZM91.4373 84.1751C92.3507 83.2381 93.2078 82.1796 94.0092 81.0372C86.2811 74.9064 78.945 70.446 72.9344 68.0635C69.7403 66.7974 67.024 66.1598 64.8794 66.109C62.7389 66.0582 61.3811 66.5887 60.5597 67.41C59.2086 68.7611 58.6934 71.6376 60.0966 76.5053C61.444 81.1793 64.3847 87.0059 68.7098 93.3904C68.747 93.4362 68.7824 93.4839 68.8157 93.5335C70.482 96.0068 72.3838 98.5674 74.4502 101.166C74.5113 101.225 74.5693 101.289 74.6238 101.357C77.9947 105.564 81.8283 109.857 86.0706 114.099C90.3129 118.341 94.6059 122.175 98.8127 125.546C98.8891 125.607 98.9598 125.673 99.0248 125.742C101.56 127.756 104.069 129.6 106.505 131.273C106.551 131.299 106.596 131.327 106.641 131.357C113.084 135.724 118.951 138.698 123.649 140.056C128.512 141.463 131.377 140.946 132.728 139.587L132.732 139.582C133.564 138.751 134.098 137.386 134.052 135.246C134.005 133.101 133.37 130.384 132.103 127.188C129.718 121.173 125.242 113.827 119.065 106.065C117.712 107.013 116.479 108.038 115.426 109.139C113.114 111.558 111.757 114.25 111.757 117.29C111.757 118.154 111.203 118.92 110.383 119.19C109.563 119.46 108.662 119.174 108.149 118.48C100.664 108.357 91.728 99.3942 81.6108 91.9408C80.9151 91.4283 80.6272 90.5271 80.8969 89.7062C81.1667 88.8854 81.933 88.3306 82.797 88.3306C86.0424 88.3306 88.8953 86.7826 91.4373 84.1751ZM53.3418 111.787C43.69 121.465 43.679 137.12 53.2991 146.786L53.3409 146.828C58.1658 151.64 64.4759 154.055 70.7889 154.076C77.1504 154.092 83.5207 151.677 88.3828 146.828C93.5312 141.679 95.9289 134.856 95.5971 128.114C91.4943 124.785 87.3281 121.041 83.2146 116.928C79.1102 112.823 75.3732 108.666 72.0506 104.572C65.3096 104.242 58.489 106.64 53.3418 111.787ZM66.1939 96.7869C67.0597 98.038 67.9764 99.3033 68.9352 100.577C62.2146 101.017 55.6287 103.812 50.4887 108.928C50.3904 109.026 50.3033 109.133 50.2282 109.247C39.3032 120.479 39.3837 138.444 50.4604 149.604L50.5109 149.655L50.5127 149.657C56.1094 155.253 63.4432 158.06 70.7853 158.076C78.053 158.098 85.3243 155.387 90.9225 149.941C91.0367 149.866 91.1438 149.779 91.2417 149.681C96.3577 144.541 99.1534 137.954 99.5927 131.233C100.879 132.198 102.153 133.119 103.411 133.996C102.437 140.801 99.3416 147.353 94.1245 152.57C81.2889 165.406 60.4623 165.406 47.6267 152.57C34.7916 139.735 34.7911 118.91 47.6251 106.074C52.8689 100.855 59.3973 97.7619 66.1939 96.7869Z" fill="currentColor"></path></svg>