<svg width="200" height="200" viewBox="0 0 200 200" fill="none" xmlns="http://www.w3.org/2000/svg"><path fill-rule="evenodd" clip-rule="evenodd" d="M162.22 104.548C162.947 102.683 163.225 100.773 162.92 98.8637C162.52 96.3637 161.52 94.0637 160.02 92.0637C157.52 88.7637 154.32 86.3637 150.82 84.3637C144.02 80.4637 136.62 78.1637 129.02 76.6637C124.52 75.7637 119.92 74.9637 115.32 74.6637C112.22 74.3637 109.12 74.1637 105.92 74.0637C101.251 73.8806 96.6657 74.1165 92.0111 74.4646C91.5812 74.4967 91.1508 74.5298 90.7197 74.5637C84.9197 75.0637 79.1197 75.8637 73.3197 77.1637C73.0251 77.2338 72.731 77.305 72.4372 77.3774C66.4499 78.8529 60.6485 80.8039 55.1197 83.6637C54.2729 84.1094 53.441 84.5799 52.6284 85.0785C52.6187 85.0845 52.609 85.0904 52.5994 85.0964C49.7768 86.8319 47.1883 88.9078 45.0197 91.4637C44.7149 91.8239 44.4273 92.1899 44.1581 92.5625C44.1562 92.5652 44.1542 92.5679 44.1523 92.5706C42.4822 94.8848 41.5197 97.4521 41.5197 100.464C41.5197 102.352 41.8983 104.096 42.5927 105.709C43.185 107.085 44.007 108.367 45.0197 109.564C45.254 109.841 45.4929 110.113 45.7353 110.382C46.418 111.139 47.129 111.867 47.8467 112.589C47.8663 112.609 47.8858 112.629 47.9054 112.648C48.1098 112.854 48.3148 113.059 48.5197 113.264C48.4022 113.364 48.2808 113.468 48.156 113.574C47.97 113.732 47.7765 113.896 47.5765 114.064C46.9193 114.618 46.1932 115.222 45.4435 115.844C45.1971 116.049 44.9481 116.255 44.6981 116.463C43.3072 117.616 41.8874 118.794 40.7165 119.794C39.585 120.761 38.686 121.561 38.27 122.014C38.2247 122.064 38.185 122.109 38.1515 122.15C38.0725 122.246 38.0271 122.318 38.0196 122.363C37.9195 122.964 38.2197 122.864 38.5197 122.764C38.6572 122.681 38.7947 122.598 38.932 122.515C39.8153 121.982 40.6956 121.439 41.5765 120.895C41.6572 120.845 41.7379 120.795 41.8186 120.745C44.7049 118.962 47 117.5 50.8066 115.579C51.2227 115.41 51.5929 115.401 51.9539 115.588C52.0348 115.63 52.1152 115.682 52.1956 115.745C52.2036 115.751 52.2117 115.757 52.2197 115.764C52.6515 116.034 53.0867 116.296 53.5254 116.552C57.1503 118.668 61.0054 120.315 65.0197 121.564C66.1809 121.943 67.3462 122.3 68.5156 122.634C68.5221 122.636 68.5285 122.638 68.535 122.64C77.2291 125.128 86.1468 126.411 95.2197 126.764C96.4874 126.825 97.7529 126.87 99.0167 126.898C99.0231 126.898 99.0295 126.898 99.0359 126.898C106.04 127.053 112.994 126.695 120.02 125.764C121.436 125.582 122.849 125.375 124.255 125.142C124.258 125.141 124.261 125.141 124.264 125.14C129.806 124.222 135.258 122.897 140.52 121.064C141.435 120.753 142.34 120.427 143.236 120.083C143.262 120.073 143.287 120.063 143.313 120.054C147.577 118.409 151.601 116.342 155.22 113.464C155.576 113.178 155.927 112.889 156.271 112.593C156.279 112.586 156.287 112.579 156.295 112.572C158.348 110.803 160.139 108.825 161.42 106.264C161.727 105.697 161.995 105.125 162.22 104.548ZM158.381 103.37C158.54 102.576 158.62 101.741 158.62 100.864C158.52 98.0637 157.52 95.6637 155.22 93.8637C153.12 92.2637 150.82 91.1637 148.32 90.3637C143.62 88.8637 138.82 88.3637 133.92 88.1637C124.258 87.7611 114.112 88.7995 104.92 91.8637C91.5197 96.3637 78.2197 101.164 65.7197 107.864C63.9961 108.776 62.2211 109.689 60.4208 110.614C60.1277 110.765 59.8339 110.916 59.5395 111.067C58.2278 111.742 56.905 112.425 55.5811 113.121C55.4273 113.202 55.2735 113.282 55.1197 113.364C56.617 114.112 58.1194 114.834 59.6353 115.519C61.7514 116.474 63.8938 117.357 66.0853 118.139C66.1011 118.144 66.1168 118.15 66.1326 118.155C67.2479 118.552 68.3759 118.923 69.5197 119.264C77.9143 121.712 86.6148 122.861 95.3537 123.311C95.3645 123.312 95.3752 123.312 95.386 123.313C96.63 123.377 97.8749 123.426 99.1197 123.464C105.936 123.63 112.752 123.243 119.569 122.361C119.573 122.361 119.578 122.36 119.582 122.36C120.961 122.181 122.34 121.982 123.72 121.764C129.017 120.909 134.314 119.69 139.424 117.919C139.432 117.916 139.44 117.913 139.449 117.91C140.311 117.611 141.169 117.295 142.02 116.964C145.914 115.333 149.727 113.457 153.16 110.889C153.162 110.887 153.165 110.885 153.167 110.883C153.522 110.618 153.873 110.345 154.22 110.064C156.301 108.341 157.851 106.026 158.381 103.37ZM96.9914 83.3664C97.6184 81.7044 97.5802 79.8969 96.8292 78.1613C107.294 77.6179 117.969 78.5328 128.235 80.586L128.245 80.588C133.457 81.6166 138.475 83.0171 143.204 85.039C109 80 83.5 95.5 72 100C77.0391 96.3047 86 92.5 90.5 89.5C95 86.5 96.1987 85.4678 96.9914 83.3664ZM91.0157 78.3383C80.5 77.1637 65 82.5 54.3197 87.9637C51.4485 89.6468 48.7654 91.7397 46.8197 94.4637C45.4454 96.4003 44.6954 98.3759 44.7162 100.464C44.7287 101.718 45.0193 103.013 45.6197 104.364C46.1175 105.484 46.7702 106.5 47.5349 107.435C48.6308 108.775 49.9378 109.927 51.3197 110.964C55.0094 107.274 59.1508 104.052 63.4197 101.064C71.3901 95.5457 79.7104 90.3712 88.3399 85.9423C90.7161 84.7227 94.5471 82.7565 93.1197 79.6637C92.7108 79.0163 91.9744 78.592 91.0157 78.3383Z" fill="currentColor"></path></svg>