<svg width="200" height="200" viewBox="0 0 200 200" fill="none" xmlns="http://www.w3.org/2000/svg"><path fill-rule="evenodd" clip-rule="evenodd" d="M58.3427 87.9692H63.154C64.2586 87.9692 65.154 88.8647 65.154 89.9692V153.31C65.154 154.414 64.2586 155.31 63.154 155.31H55.7241C48.1339 155.31 41.9954 149.171 41.9954 141.581V135.814C35.0292 134.842 29.6699 128.862 29.6699 121.627C29.6699 114.393 35.0292 108.413 41.9954 107.441V101.698C41.9954 94.5766 47.3992 88.733 54.3356 88.0384C55.3464 63.6773 75.3942 44.2598 100.005 44.2598C124.616 44.2598 144.663 63.7006 145.675 88.0384C152.611 88.7329 158.015 94.5765 158.015 101.698V107.441C164.981 108.413 170.34 114.393 170.34 121.627C170.34 128.862 164.981 134.841 158.015 135.814V141.581C158.015 149.171 151.876 155.31 144.286 155.31H136.856C135.752 155.31 134.856 154.414 134.856 153.31V89.9692C134.856 88.8647 135.752 87.9692 136.856 87.9692H141.668C140.624 65.8723 122.382 48.2598 100.005 48.2598C77.627 48.2598 59.3851 65.8506 58.3427 87.9692ZM56.278 91.9692H55.7241C50.3431 91.9692 45.9954 96.317 45.9954 101.698V141.581C45.9954 146.962 50.3431 151.31 55.7241 151.31H61.154V91.9692H56.3133C56.3074 91.9693 56.3015 91.9693 56.2957 91.9693C56.2898 91.9693 56.2839 91.9693 56.278 91.9692ZM143.697 91.9692H138.856V151.31H144.286C149.667 151.31 154.015 146.962 154.015 141.581V133.993C154.015 133.98 154.015 133.966 154.015 133.953C154.015 133.939 154.015 133.925 154.015 133.912V109.343C154.015 109.329 154.015 109.316 154.015 109.302C154.015 109.289 154.015 109.275 154.015 109.262V101.698C154.015 96.317 149.667 91.9692 144.286 91.9692H143.732C143.727 91.9693 143.721 91.9693 143.715 91.9693C143.709 91.9693 143.703 91.9693 143.697 91.9692ZM158.015 111.496V131.759C162.761 130.828 166.34 126.647 166.34 121.627C166.34 116.608 162.761 112.427 158.015 111.496ZM41.9954 111.496C37.2489 112.426 33.6699 116.607 33.6699 121.627C33.6699 126.647 37.2489 130.828 41.9954 131.759V111.496Z" fill="currentColor"></path></svg>