<svg width="200" height="200" viewBox="0 0 200 200" fill="none" xmlns="http://www.w3.org/2000/svg"><path fill-rule="evenodd" clip-rule="evenodd" d="M71.0152 42.6496C71.3725 42.031 72.0327 41.6499 72.7471 41.6499H127.253C127.622 41.6499 127.977 41.7516 128.283 41.9353C128.458 42.0403 128.618 42.1731 128.757 42.3317C128.842 42.4289 128.919 42.5351 128.985 42.6495L129.002 42.6798L166.292 107.242C166.649 107.861 166.649 108.624 166.291 109.244L152.669 132.808C152.662 132.82 152.656 132.832 152.649 132.844L139.006 156.443C138.81 156.783 138.522 157.052 138.183 157.224C138.036 157.3 137.877 157.357 137.711 157.394C137.569 157.426 137.423 157.442 137.274 157.442C137.262 157.442 137.25 157.442 137.239 157.442H62.7251C62.011 157.442 61.351 157.061 60.9936 156.443L47.3607 132.86C47.3491 132.84 47.3378 132.821 47.3269 132.801L33.7326 109.284C33.4193 108.77 33.3471 108.128 33.5658 107.543C33.6043 107.44 33.6515 107.339 33.7076 107.242C33.714 107.231 33.7205 107.22 33.7271 107.209L71.0152 42.6496ZM38.9051 106.242H61.5697L84.6246 66.2505L84.6424 66.2203L96.5338 45.6499H73.9016L38.9051 106.242ZM61.5696 110.242H38.9062L50.2367 129.842H72.8733L61.5696 110.242ZM76.3915 133.842C76.3729 133.842 76.3542 133.842 76.3354 133.842H52.5488L63.8791 153.442H133.813L122.509 133.842H76.3915ZM137.277 112.242L148.607 131.843L137.277 151.443L125.973 131.842L137.277 112.242ZM110.022 110.242C110.007 110.242 109.992 110.242 109.978 110.242H91.1323L79.802 129.842H122.509L133.812 110.242H110.022ZM111.177 106.242H133.813L112.487 69.25H89.8239L101.731 89.8484C101.737 89.8583 101.743 89.8682 101.748 89.8782L111.177 106.242ZM139.006 107.241L139.001 107.232L115.951 67.2498L127.254 47.6513L162.25 108.242L150.917 127.846L139.028 107.279C139.021 107.266 139.014 107.254 139.006 107.241ZM93.439 106.242H106.561L99.9999 94.8554L93.439 106.242ZM97.6908 90.8509L88.2598 107.218L88.2466 107.241L76.3374 127.842L65.0338 108.242L86.3597 71.2498L97.6908 90.8509ZM123.791 45.6499L112.487 65.2495H89.824L101.154 45.6499H123.791Z" fill="currentColor"></path></svg>