<svg width="200" height="200" viewBox="0 0 200 200" fill="none" xmlns="http://www.w3.org/2000/svg"><path d="M99.9708 42.8004C86.5519 42.8004 74.2473 47.4068 64.4925 55.132C63.6266 55.8177 63.4805 57.0756 64.1662 57.9415C64.852 58.8074 66.1099 58.9535 66.9758 58.2678C76.0496 51.082 87.4856 46.8004 99.9708 46.8004C112.453 46.8004 123.891 51.1094 132.969 58.2701C133.836 58.9542 135.094 58.8058 135.778 57.9385C136.462 57.0713 136.313 55.8137 135.446 55.1296C125.695 47.4379 113.393 42.8004 99.9708 42.8004Z" fill="currentColor"></path><path d="M99.9708 52.9456C88.9506 52.9456 78.8084 56.7327 70.8058 63.086C69.9407 63.7728 69.7962 65.0308 70.4829 65.8959C71.1697 66.761 72.4278 66.9055 73.2929 66.2188C80.6105 60.4094 89.8818 56.9456 99.9708 56.9456C110.056 56.9456 119.33 60.4364 126.652 66.2217C127.519 66.9064 128.777 66.7589 129.462 65.8922C130.146 65.0255 129.999 63.7678 129.132 63.083C121.134 56.7642 110.995 52.9456 99.9708 52.9456Z" fill="currentColor"></path><path fill-rule="evenodd" clip-rule="evenodd" d="M83.3142 94.593C84.8051 92.8419 87.2178 91.8027 90.7028 91.8027C94.1877 91.8027 96.6004 92.8419 98.0913 94.593C99.5296 96.2824 99.8074 98.2872 99.8074 99.6209V100.001C99.8074 101.383 99.5132 103.413 98.0843 105.121C96.5977 106.899 94.1932 107.965 90.732 107.965C87.2705 107.965 84.8588 106.899 83.3596 105.132C81.9151 103.43 81.5981 101.402 81.5981 100.001V99.6209C81.5981 98.2872 81.8759 96.2824 83.3142 94.593ZM86.3599 97.1861C85.7882 97.8575 85.5981 98.7618 85.5981 99.6209V100.001C85.5981 100.881 85.8074 101.835 86.4096 102.544C86.957 103.19 88.1122 103.965 90.732 103.965C93.3521 103.965 94.4853 103.19 95.016 102.555C95.6046 101.852 95.8074 100.899 95.8074 100.001V99.6209C95.8074 98.7618 95.6173 97.8575 95.0456 97.1861C94.5264 96.5762 93.3868 95.8027 90.7028 95.8027C88.0187 95.8027 86.8791 96.5762 86.3599 97.1861Z" fill="currentColor"></path><path fill-rule="evenodd" clip-rule="evenodd" d="M125.153 94.593C126.643 92.8419 129.056 91.8027 132.541 91.8027C136.026 91.8027 138.439 92.8419 139.93 94.593C141.368 96.2824 141.646 98.2872 141.646 99.6209V100.001C141.646 101.383 141.352 103.413 139.923 105.121C138.436 106.899 136.032 107.965 132.57 107.965C129.109 107.965 126.697 106.899 125.198 105.132C123.753 103.43 123.437 101.402 123.437 100.001V99.6209C123.437 98.2872 123.714 96.2824 125.153 94.593ZM128.198 97.1861C127.627 97.8575 127.437 98.7618 127.437 99.6209V100.001C127.437 100.881 127.646 101.835 128.248 102.544C128.795 103.19 129.951 103.965 132.57 103.965C135.19 103.965 136.324 103.19 136.854 102.555C137.443 101.852 137.646 100.899 137.646 100.001V99.6209C137.646 98.7618 137.456 97.8575 136.884 97.1861C136.365 96.5762 135.225 95.8027 132.541 95.8027C129.857 95.8027 128.717 96.5762 128.198 97.1861Z" fill="currentColor"></path><path fill-rule="evenodd" clip-rule="evenodd" d="M89.884 83.6154C81.8117 83.6154 76.657 85.7572 73.5437 89.0229C70.4488 92.2693 69.6985 96.2854 69.6985 99.3568V100.468C69.6985 103.489 70.4597 107.529 73.543 110.819C76.6527 114.137 81.8064 116.355 89.884 116.355H91.609C99.7375 116.355 104.891 114.148 107.984 110.824C110.364 108.267 111.327 105.257 111.639 102.628C111.964 105.259 112.958 108.265 115.352 110.819C118.462 114.137 123.615 116.355 131.693 116.355H133.418C141.547 116.355 146.7 114.148 149.793 110.824C152.86 107.529 153.574 103.483 153.574 100.468V99.3568C153.574 96.2932 152.842 92.2754 149.757 89.0259C146.654 85.7565 141.503 83.6154 133.418 83.6154H131.693C123.621 83.6154 118.466 85.7572 115.353 89.0229C112.949 91.5448 111.959 94.5312 111.637 97.1784C111.32 94.5353 110.344 91.549 107.948 89.0259C104.845 85.7565 99.6943 83.6154 91.609 83.6154H89.884ZM73.6985 99.3568C73.6985 96.8731 74.3077 94.0185 76.4389 91.783C78.5517 89.5667 82.4898 87.6154 89.884 87.6154H91.609C99.0193 87.6154 102.947 89.5674 105.047 91.7799C107.167 94.0124 107.765 96.8653 107.765 99.3568V100.468C107.765 102.92 107.179 105.818 105.056 108.099C102.959 110.353 99.0346 112.355 91.609 112.355H89.884C82.5243 112.355 78.5854 110.349 76.4616 108.083C74.3114 105.789 73.6985 102.885 73.6985 100.468V99.3568ZM115.508 99.3568C115.508 96.8731 116.117 94.0185 118.248 91.783C120.361 89.5667 124.299 87.6154 131.693 87.6154H133.418C140.828 87.6154 144.756 89.5674 146.857 91.7799C148.976 94.0124 149.574 96.8653 149.574 99.3568V100.468C149.574 102.92 148.988 105.818 146.865 108.099C144.768 110.353 140.844 112.355 133.418 112.355H131.693C124.333 112.355 120.394 110.349 118.271 108.083C116.12 105.789 115.508 102.885 115.508 100.468V99.3568Z" fill="currentColor"></path><path fill-rule="evenodd" clip-rule="evenodd" d="M58.0155 84.0831C57.1884 84.0831 56.4466 84.5923 56.1492 85.3642C55.5544 86.9082 54.9494 87.6581 54.0739 88.1345C53.0794 88.6755 51.4463 89.0242 48.4258 89.0242C47.3212 89.0242 46.4258 89.9196 46.4258 91.0242V98.1288C46.4258 99.2334 47.3212 100.129 48.4258 100.129H53.3842V113.888C53.3842 114.992 54.2796 115.888 55.3842 115.888H66.7282C67.8328 115.888 68.7282 114.992 68.7282 113.888V86.0831C68.7282 84.9786 67.8328 84.0831 66.7282 84.0831H58.0155ZM55.9855 91.6481C57.5684 90.7869 58.5805 89.5483 59.3191 88.0831H64.7282V111.888H57.3842V98.1288C57.3842 97.0243 56.4888 96.1288 55.3842 96.1288H50.4258V92.971C52.6667 92.8411 54.4985 92.4571 55.9855 91.6481Z" fill="currentColor"></path><path d="M73.0677 133.496C72.2065 132.804 70.9476 132.942 70.256 133.803C69.5644 134.664 69.7019 135.923 70.5632 136.615C78.6221 143.086 88.8252 146.967 99.9708 146.967C111.116 146.967 121.319 143.086 129.378 136.615C130.24 135.923 130.377 134.664 129.686 133.803C128.994 132.942 127.735 132.804 126.874 133.496C119.496 139.421 110.168 142.967 99.9708 142.967C89.7732 142.967 80.446 139.421 73.0677 133.496Z" fill="currentColor"></path><path d="M135.752 144.568C136.613 143.876 136.751 142.618 136.06 141.756C135.368 140.895 134.11 140.757 133.248 141.448C124.117 148.775 112.568 153.141 99.9708 153.141C87.3719 153.141 75.795 148.774 66.6958 141.45C65.8354 140.757 64.5764 140.893 63.8838 141.754C63.1912 142.614 63.3272 143.873 64.1877 144.566C73.9757 152.445 86.4317 157.141 99.9708 157.141C113.511 157.141 125.937 152.444 135.752 144.568Z" fill="currentColor"></path><path fill-rule="evenodd" clip-rule="evenodd" d="M100 34C63.5478 34 34 63.5478 34 100C34 136.452 63.5478 166 100 166C136.452 166 166 136.452 166 100C166 63.5478 136.452 34 100 34ZM38 100C38 65.7569 65.7569 38 100 38C134.243 38 162 65.7569 162 100C162 134.243 134.243 162 100 162C65.7569 162 38 134.243 38 100Z" fill="currentColor"></path></svg>