<svg width="200" height="200" viewBox="0 0 200 200" fill="none" xmlns="http://www.w3.org/2000/svg"><path fill-rule="evenodd" clip-rule="evenodd" d="M92.2026 49.2865C86.2606 45.7108 79.3797 44.0084 72.4568 44.4001H66.0285V94.6573H72.5231C79.3965 94.9842 86.2151 93.2878 92.1344 89.7775L92.1782 89.7516L92.2206 89.7234C95.4825 87.5573 98.1144 84.568 99.8499 81.058L99.8512 81.0554C101.602 77.5008 102.513 73.5913 102.513 69.6287C102.513 65.6677 101.603 61.7597 99.8533 58.2062C98.131 54.6694 95.5398 51.6271 92.3218 49.3642L92.2636 49.3232L92.2026 49.2865ZM72.6306 48.3967C78.7449 48.0402 84.8243 49.5319 90.0785 52.6768C92.7174 54.547 94.843 57.0521 96.2588 59.9611L96.263 59.9697C97.7432 62.9744 98.513 66.2792 98.513 69.6287C98.513 72.9773 97.7435 76.2813 96.2641 79.2853C94.8484 82.1486 92.7053 84.5893 90.0498 86.3632C84.8014 89.464 78.7586 90.9579 72.6692 90.6597L72.6203 90.6573H70.0285V48.4001H72.5725L72.6306 48.3967Z" fill="currentColor"></path><path fill-rule="evenodd" clip-rule="evenodd" d="M89.0957 34.1511C83.7988 33.1219 78.4101 32.6405 73.0147 32.7144H51.2571V106.343H72.7866C77.3342 106.404 81.8769 106.064 86.3621 105.328C83.3189 108.599 80.9102 112.412 79.2641 116.575C77.451 121.16 76.6021 126.068 76.7701 130.995C76.5783 135.906 77.3955 140.804 79.1717 145.387C80.9572 149.994 83.6734 154.183 87.1506 157.693L87.1654 157.708L87.1805 157.723C90.7327 161.161 94.9461 163.842 99.5651 165.604C104.172 167.36 109.086 168.166 114.012 167.972C126.317 167.962 135.842 163.353 142.274 154.052L142.294 154.023L142.313 153.993C146.84 146.923 149.085 138.632 148.743 130.245V126.572H110.178L102.785 141.745L130.92 141.98C130.637 143.059 130.211 144.099 129.654 145.073C128.741 146.667 127.494 148.044 125.999 149.11C122.52 151.308 118.462 152.414 114.348 152.287L114.252 152.284L114.157 152.29C111.369 152.47 108.578 151.987 106.012 150.881C103.451 149.776 101.187 148.082 99.4064 145.935C96.0712 141.785 94.2812 136.605 94.3428 131.28L94.3432 131.241L94.3421 131.201C94.1846 125.592 96.1903 120.138 99.9438 115.967L99.9489 115.961C101.743 113.952 103.956 112.362 106.432 111.302C108.907 110.243 111.586 109.739 114.277 109.828L114.315 109.829L114.354 109.829C116.552 109.817 118.736 110.168 120.82 110.867C122.545 111.447 124.145 112.349 125.535 113.525C126.588 114.42 127.559 115.407 128.435 116.475C129.07 117.297 129.657 118.151 130.168 118.956L131.164 120.529L146.017 112.546L145.035 110.774C144.155 109.186 143.127 107.685 141.965 106.291L141.955 106.28L141.946 106.268C140.337 104.395 138.577 102.656 136.686 101.068C133.892 98.7188 130.657 96.9496 127.172 95.8638C123.08 94.5634 118.807 93.9245 114.514 93.9712C112.355 93.8876 110.199 93.9927 108.069 94.2827C110.307 92.0314 112.224 89.4627 113.75 86.6471C116.592 81.4068 117.98 75.5023 117.772 69.5454C117.823 63.6806 116.442 57.8917 113.748 52.6815L113.745 52.6762C111.063 47.5269 107.154 43.1177 102.362 39.8383C98.3732 37.0784 93.8711 35.1464 89.1224 34.1565L89.1091 34.1537L89.0957 34.1511ZM73.0563 36.7142C78.1772 36.6431 83.2918 37.0992 88.3193 38.0751C92.5412 38.957 96.5437 40.676 100.09 43.1304L100.099 43.1364C104.349 46.0444 107.817 49.9548 110.196 54.5217C112.597 59.1648 113.824 64.3249 113.771 69.5515L113.771 69.5979L113.773 69.6442C113.964 74.9022 112.742 80.1152 110.234 84.7405C107.726 89.3658 104.024 93.2341 99.5132 95.9426L99.4729 95.9668L99.4339 95.9929C95.8401 98.3872 91.836 100.099 87.6221 101.042C82.7473 101.975 77.7902 102.411 72.8273 102.343L72.8136 102.343H55.2571V36.7144H73.0424L73.0563 36.7142ZM101.344 100.092C105.511 98.5128 109.953 97.7912 114.405 97.97L114.458 97.9721L114.51 97.9715C118.395 97.9242 122.263 98.5003 125.965 99.6777L125.977 99.6813C128.958 100.609 131.724 102.122 134.113 104.131L134.114 104.132C135.836 105.577 137.437 107.159 138.902 108.864C139.466 109.541 139.993 110.247 140.481 110.98L132.511 115.264C132.215 114.845 131.905 114.422 131.581 114.004L131.565 113.983L131.547 113.962C130.513 112.699 129.367 111.532 128.123 110.476L128.121 110.474C126.345 108.97 124.3 107.817 122.094 107.076C119.605 106.24 116.996 105.819 114.37 105.829C111.106 105.727 107.86 106.34 104.857 107.625C101.845 108.915 99.1515 110.85 96.968 113.294C92.538 118.218 90.1669 124.654 90.3426 131.274C90.2796 137.517 92.3845 143.589 96.299 148.454L96.3079 148.465L96.3171 148.476C98.5027 151.114 101.282 153.197 104.428 154.554C107.544 155.898 110.932 156.492 114.319 156.288C119.219 156.42 124.047 155.088 128.186 152.46L128.229 152.433L128.27 152.404C130.257 150.997 131.914 149.174 133.124 147.061C134.335 144.949 135.07 142.597 135.278 140.171L135.463 138.018L109.158 137.798L112.679 130.572H144.753C145.025 138.072 143.006 145.479 138.964 151.806C133.364 159.885 125.139 163.972 113.971 163.972H113.931L113.891 163.973C109.492 164.151 105.103 163.434 100.99 161.866C96.8838 160.3 93.1374 157.918 89.9775 154.863C86.8944 151.747 84.4857 148.029 82.9014 143.942C81.3146 139.847 80.5889 135.47 80.7698 131.083L80.773 131.005L80.7702 130.928C80.6106 126.527 81.3643 122.141 82.9838 118.046C84.6012 113.956 87.0472 110.245 90.168 107.146C93.3814 104.068 97.1823 101.668 101.344 100.092Z" fill="currentColor"></path></svg>