<svg width="200" height="200" viewBox="0 0 200 200" fill="none" xmlns="http://www.w3.org/2000/svg"><path fill-rule="evenodd" clip-rule="evenodd" d="M70.6367 92.0398L72.4184 93.2415C74.8894 94.908 77.3721 96.5699 79.8584 98.2341C85.9732 102.327 92.1095 106.435 98.1469 110.661L98.9999 111.258L99 112.299C99.0007 118.354 99.0253 124.409 99.05 130.469L99.0505 130.591C99.0754 136.691 99.1001 142.795 99.1001 148.9V150.9H85.8001V132.701C83.5372 132.705 81.2693 132.715 78.9985 132.724C73.4991 132.748 67.9825 132.771 62.4766 132.713C60.38 136.515 58.1818 140.283 55.9989 144.025C54.8339 146.022 53.6732 148.012 52.5346 149.995L51.9581 151H36.6443L38.366 148.003C43.5672 138.951 48.7683 129.949 53.968 120.95C59.1682 111.949 64.3674 102.951 69.566 93.9032L70.6367 92.0398ZM71.9641 97.7578C67.1195 106.183 62.2752 114.567 57.4321 122.95C52.8063 130.956 48.1814 138.961 43.5569 147H49.6436C50.6215 145.304 51.6035 143.621 52.5827 141.942C54.9502 137.884 57.302 133.853 59.5443 129.742L60.1211 128.685L61.3254 128.7C67.1978 128.774 73.0567 128.749 78.9352 128.725C81.8839 128.712 84.8375 128.7 87.8001 128.7H89.8001V146.9H95.0992C95.0947 141.471 95.0727 136.041 95.0506 130.608L95.0501 130.483C95.0268 124.772 95.0035 119.058 95.0004 113.342C89.276 109.352 83.4814 105.473 77.6696 101.583C75.769 100.31 73.8665 99.0368 71.9641 97.7578ZM73.6614 105.249L75.4231 106.445C77.0791 107.568 78.7571 108.69 80.4417 109.816C83.4173 111.805 86.4137 113.808 89.347 115.861L90.2001 116.458V123.4H63.1347L64.8684 120.399C65.6391 119.065 66.4031 117.736 67.1647 116.412C68.9625 113.285 70.7474 110.181 72.5783 107.082L73.6614 105.249ZM74.945 110.949C73.5018 113.415 72.0822 115.884 70.6455 118.383C70.4509 118.721 70.2561 119.06 70.0608 119.4H86.2001V118.544C83.5762 116.723 80.9351 114.957 78.2769 113.18C77.1692 112.44 76.0586 111.698 74.945 110.949Z" fill="currentColor"></path><path fill-rule="evenodd" clip-rule="evenodd" d="M99.9941 40.9883L101.732 43.9994C110.332 58.8986 118.831 73.5967 127.429 88.3944L128.356 89.9896L126.841 91.0419C123.005 93.7057 119.195 96.2311 115.406 98.7427C110.629 101.909 105.884 105.054 101.162 108.427L100.023 109.24L98.8688 108.449C90.8015 102.917 80.8776 96.1546 73.2855 91.0599L71.7366 90.0206L72.6656 88.4031C76.6581 81.4514 80.6384 74.5649 84.6274 67.6634C89.1519 59.8354 93.6876 51.9881 98.2648 44.0044L99.9941 40.9883ZM100.005 49.0085C96.0189 55.9477 92.0443 62.8245 88.0813 69.6811C84.3983 76.0533 80.7255 82.408 77.0629 88.779C84.065 93.4895 92.6771 99.3567 99.9797 104.361C104.325 101.292 108.842 98.2957 113.33 95.3187C116.609 93.1437 119.872 90.979 123.041 88.8042C115.336 75.5388 107.705 62.3455 100.005 49.0085ZM99.9888 59.3778L101.732 62.3998C103.981 66.2972 106.204 70.1447 108.428 73.993L108.432 73.9985C110.656 77.8483 112.882 81.6991 115.132 85.5998L116.059 87.2066L114.527 88.2517C110.129 91.2497 105.412 94.4617 101.091 97.2752L99.9686 98.0063L98.8653 97.2462C94.3813 94.1572 89.894 91.1656 85.4993 88.2691L83.9323 87.2364L84.8634 85.6069C86.9937 81.8789 89.1021 78.2517 91.218 74.6115C93.544 70.61 95.879 66.5929 98.2621 62.4093L99.9888 59.3778ZM100.007 67.4131C98.23 70.5064 96.4348 73.5957 94.6509 76.6654C92.8347 79.7908 91.0302 82.8959 89.2685 85.9643C92.8119 88.3068 96.416 90.7163 100.028 93.1916C103.495 90.9154 107.182 88.4158 110.74 85.9916C108.807 82.6421 106.89 79.3245 104.972 76.0063L104.968 75.9999C103.318 73.1448 101.668 70.2892 100.007 67.4131Z" fill="currentColor"></path><path fill-rule="evenodd" clip-rule="evenodd" d="M129.352 92.0302L130.432 93.899C135.004 101.812 139.578 109.709 144.161 117.623C149.999 127.702 155.852 137.807 161.732 148L163.463 151H160C158.153 151 156.308 150.974 154.479 150.949L154.472 150.949C152.637 150.924 150.817 150.9 149 150.9H147.842L147.266 149.895C145.77 147.29 141.407 140.379 137.995 134.974C137.468 134.139 136.964 133.341 136.496 132.6H114.3V150.9H101.1V148.9C101.1 144.798 101.112 140.703 101.123 136.612C101.146 128.441 101.169 120.283 101.1 112.117L101.091 110.985L102.055 110.394C105.03 108.571 107.822 106.651 110.94 104.508C111.015 104.456 111.091 104.404 111.167 104.352L114.3 102.198V119.3H129.927L118.438 99.4974L129.352 92.0302ZM123.762 100.702L136.873 123.3H110.3V109.795C108.567 110.973 106.864 112.107 105.109 113.207C105.167 121.022 105.145 128.844 105.123 136.654C105.114 140.072 105.104 143.488 105.101 146.9H110.3V128.6H138.704L139.293 129.534C139.899 130.498 140.597 131.602 141.344 132.785C144.389 137.609 148.256 143.734 150.147 146.903C151.61 146.91 153.07 146.93 154.52 146.95L154.527 146.95C155.194 146.959 155.859 146.968 156.523 146.976C151.229 137.806 145.961 128.711 140.703 119.634C136.481 112.344 132.265 105.065 128.048 97.7689L123.762 100.702Z" fill="currentColor"></path></svg>