<svg width="200" height="200" viewBox="0 0 200 200" fill="none" xmlns="http://www.w3.org/2000/svg"><path d="M85.7343 50.979C89.3814 47.4558 94.4062 45.2756 99.9998 45.2756C101.104 45.2756 102 44.3802 102 43.2756C102 42.1711 101.104 41.2756 99.9998 41.2756C93.3468 41.2756 87.3317 43.8743 82.9552 48.1021C82.1607 48.8695 82.1389 50.1356 82.9063 50.9301C83.6737 51.7245 84.9399 51.7464 85.7343 50.979Z" fill="currentColor"></path><path d="M79.0629 57.3676C80.1311 57.6488 80.7691 58.7426 80.488 59.8108C80.0786 61.3666 79.8601 63.0022 79.8601 64.6633V75.9692C79.8601 77.0738 78.9647 77.9692 77.8601 77.9692C76.7555 77.9692 75.8601 77.0738 75.8601 75.9692V64.6633C75.8601 62.653 76.1243 60.6753 76.6197 58.7927C76.9009 57.7245 77.9947 57.0865 79.0629 57.3676Z" fill="currentColor"></path><path fill-rule="evenodd" clip-rule="evenodd" d="M68.5601 63.4396V128.245C68.5601 131.22 71.0596 133.537 73.9686 133.537H89.2817V157.499C89.2817 162.825 93.7517 167 99.0971 167C104.443 167 108.912 162.825 108.912 157.499V133.537H126.032C128.941 133.537 131.44 131.22 131.44 128.245V63.4396C131.44 46.5645 117.297 33 100 33C82.7029 33 68.5601 46.5645 68.5601 63.4396ZM100 37C84.7805 37 72.5601 48.9029 72.5601 63.4396V87.0645C73.814 87.5061 74.8033 88.3363 75.5831 89.2633C76.6537 90.5363 77.4778 92.17 78.1732 93.5486L78.2275 93.6562C78.9913 95.1696 79.6227 96.3974 80.3622 97.2765C81.0453 98.0888 81.6361 98.3851 82.324 98.3851C83.0118 98.3851 83.6026 98.0888 84.2858 97.2765C85.0252 96.3974 85.6567 95.1696 86.4204 93.6562L86.4748 93.5485C87.1701 92.17 87.9942 90.5363 89.0649 89.2633C90.2199 87.8902 91.8348 86.7295 94.0879 86.7295C96.3411 86.7295 97.956 87.8902 99.1109 89.2633C100.182 90.5363 101.006 92.17 101.701 93.5485L101.755 93.6562C102.519 95.1696 103.151 96.3974 103.89 97.2765C104.573 98.0888 105.164 98.3851 105.852 98.3851C106.54 98.3851 107.131 98.0888 107.814 97.2761C108.555 96.3965 109.187 95.1686 109.953 93.6544L110.003 93.5553C110.702 92.1741 111.53 90.5359 112.608 89.2599C113.769 87.8858 115.389 86.7295 117.646 86.7295C119.903 86.7295 121.522 87.8866 122.681 89.2618C123.754 90.5354 124.579 92.1699 125.274 93.5483L125.329 93.6562C126.084 95.1536 126.71 96.3703 127.44 97.2467V63.4396C127.44 48.9029 115.22 37 100 37ZM127.44 128.245V102.052C126.182 101.612 125.188 100.782 124.405 99.8528C123.332 98.5792 122.507 96.9447 121.812 95.5662L121.757 95.4583C120.994 93.9448 120.363 92.718 119.622 91.8396C118.939 91.0293 118.345 90.7295 117.646 90.7295C116.946 90.7295 116.349 91.0301 115.664 91.8415C114.921 92.7202 114.287 93.9476 113.522 95.4602L113.463 95.5763C112.768 96.9523 111.944 98.5818 110.875 99.8516C109.72 101.224 108.105 102.385 105.852 102.385C103.599 102.385 101.984 101.224 100.829 99.8512C99.7582 98.5783 98.9341 96.9445 98.2387 95.566L98.1844 95.4583C97.4206 93.9449 96.7892 92.7172 96.0498 91.838C95.3666 91.0258 94.7758 90.7295 94.0879 90.7295C93.4001 90.7295 92.8093 91.0258 92.1261 91.838C91.3867 92.7172 90.7552 93.9449 89.9915 95.4583L89.9372 95.566C89.2418 96.9446 88.4177 98.5783 87.347 99.8512C86.1921 101.224 84.5771 102.385 82.324 102.385C80.0709 102.385 78.4559 101.224 77.301 99.8512C76.2303 98.5783 75.4062 96.9445 74.7108 95.566L74.6565 95.4583C73.9059 93.971 73.2831 92.7596 72.5601 91.8838V128.245C72.5601 128.882 73.1373 129.537 73.9686 129.537H126.032C126.863 129.537 127.44 128.882 127.44 128.245ZM93.2817 157.499V133.781H104.912V157.499C104.912 160.463 102.39 163 99.0971 163C95.8045 163 93.2817 160.463 93.2817 157.499Z" fill="currentColor"></path></svg>