<svg width="200" height="200" viewBox="0 0 200 200" fill="none" xmlns="http://www.w3.org/2000/svg"><path fill-rule="evenodd" clip-rule="evenodd" d="M53.6023 137.878C53.6023 131.951 58.4072 127.146 64.3344 127.146C70.2616 127.146 75.0666 131.951 75.0666 137.878C75.0666 143.806 70.2616 148.611 64.3344 148.611C58.4072 148.611 53.6023 143.806 53.6023 137.878ZM64.3344 131.146C60.6164 131.146 57.6023 134.16 57.6023 137.878C57.6023 141.596 60.6164 144.611 64.3344 144.611C68.0525 144.611 71.0666 141.596 71.0666 137.878C71.0666 134.16 68.0525 131.146 64.3344 131.146Z" fill="currentColor"></path><path fill-rule="evenodd" clip-rule="evenodd" d="M124.943 137.878C124.943 131.951 129.748 127.146 135.675 127.146C141.602 127.146 146.407 131.951 146.407 137.878C146.407 143.806 141.602 148.611 135.675 148.611C129.748 148.611 124.943 143.806 124.943 137.878ZM135.675 131.146C131.957 131.146 128.943 134.16 128.943 137.878C128.943 141.596 131.957 144.611 135.675 144.611C139.393 144.611 142.407 141.596 142.407 137.878C142.407 134.16 139.393 131.146 135.675 131.146Z" fill="currentColor"></path><path fill-rule="evenodd" clip-rule="evenodd" d="M54.1189 38.24C53.0143 38.24 52.1189 39.1354 52.1189 40.24V52.7482C52.1189 60.2363 51.1032 67.728 49.1358 74.9599L49.0861 75.1092C49.075 75.1423 49.0649 75.1757 49.0556 75.2093C48.0292 78.9256 47.5337 82.6786 47.5337 86.463V108.175C47.5337 108.797 47.8171 109.352 48.2617 109.719L54.1224 116.247C46.0229 120.078 40.4199 128.324 40.4199 137.878C40.4199 151.086 51.1269 161.793 64.3346 161.793C77.5422 161.793 88.2492 151.086 88.2492 137.878C88.2492 128.74 83.124 120.799 75.5914 116.773L82.1891 110.175H119.779L125.316 116.318C117.296 120.178 111.761 128.382 111.761 137.878C111.761 151.086 122.468 161.793 135.675 161.793C148.883 161.793 159.59 151.086 159.59 137.878C159.59 128.696 154.415 120.722 146.822 116.714L153.778 109.758C154.19 109.346 154.385 108.799 154.362 108.26C154.363 108.232 154.364 108.204 154.364 108.175V94.15C154.364 85.673 148.267 78.4125 139.926 76.9612C139.799 76.9156 139.665 76.8824 139.527 76.8629L138.981 76.7863C132.818 75.9211 125.501 74.894 118.866 72.8524C109.474 69.9598 102.808 61.588 101.998 51.8077L100.986 40.0682C100.897 39.0341 100.031 38.24 98.9933 38.24H54.1189ZM147.704 110.175H125.164L129.343 114.811C131.36 114.258 133.483 113.963 135.675 113.963C138.167 113.963 140.57 114.344 142.828 115.051L147.704 110.175ZM76.5322 110.175L71.6156 115.092C69.3199 114.359 66.8734 113.963 64.3346 113.963C62.2024 113.963 60.1354 114.242 58.168 114.766L54.0469 110.175H76.5322ZM121.003 106.175H150.364V94.15C150.364 87.5149 145.519 81.8518 138.949 80.8545C138.833 80.837 138.721 80.8098 138.614 80.7739L138.327 80.7337C137.882 80.6712 137.428 80.6075 136.967 80.5425V87.07C136.967 88.1746 136.072 89.07 134.967 89.07C133.863 89.07 132.967 88.1746 132.967 87.07V79.9571C131.547 79.7391 130.086 79.5013 128.606 79.2357V85.5864C128.606 86.6909 127.711 87.5864 126.606 87.5864C125.501 87.5864 124.606 86.6909 124.606 85.5864V78.4519C123.148 78.1394 121.688 77.7939 120.244 77.408V84.0019C120.244 85.1065 119.349 86.0019 118.244 86.0019C117.14 86.0019 116.244 85.1065 116.244 84.0019V76.1868C114.731 75.6287 113.285 74.9465 111.917 74.1537V80.664C111.917 81.7686 111.022 82.664 109.917 82.664C108.812 82.664 107.917 81.7686 107.917 80.664V71.3399C102.3 66.602 98.6415 59.7328 98.0119 52.1415L98.0116 52.1378L97.1583 42.24H56.1189V52.7482C56.1189 53.1493 56.1161 53.5504 56.1106 53.9514H75.2581C76.3627 53.9514 77.2581 54.8468 77.2581 55.9514C77.2581 57.056 76.3627 57.9514 75.2581 57.9514H55.9635C55.5984 64.0717 54.5929 70.153 52.9804 76.0656C52.9706 76.1014 52.9599 76.1368 52.9482 76.1719L52.8975 76.3239C52.5977 77.4154 52.3483 78.5101 52.1485 79.6082H72.7295C83.6623 79.6082 93.5797 86.001 98.0845 95.9552C98.5399 96.9615 98.0933 98.1465 97.087 98.6019C96.0807 99.0573 94.8958 98.6107 94.4403 97.6044C90.5839 89.083 82.093 83.6082 72.7295 83.6082H51.6385C51.5684 84.5571 51.5337 85.5086 51.5337 86.463V106.175H120.272C120.514 106.131 120.762 106.131 121.003 106.175ZM44.4199 137.878C44.4199 129.051 50.1631 121.565 58.1167 118.953C58.1283 118.95 58.14 118.946 58.1516 118.942L58.1757 118.934C60.1151 118.304 62.185 117.963 64.3346 117.963C75.3331 117.963 84.2492 126.879 84.2492 137.878C84.2492 148.877 75.3331 157.793 64.3346 157.793C53.336 157.793 44.4199 148.877 44.4199 137.878ZM115.761 137.878C115.761 126.879 124.677 117.963 135.675 117.963C146.674 117.963 155.59 126.879 155.59 137.878C155.59 148.877 146.674 157.793 135.675 157.793C124.677 157.793 115.761 148.877 115.761 137.878Z" fill="currentColor"></path></svg>