<svg width="200" height="200" viewBox="0 0 200 200" fill="none" xmlns="http://www.w3.org/2000/svg"><path d="M101.354 27.4657C100.573 26.6846 99.3067 26.6846 98.5257 27.4657L27.4559 98.5355C26.6749 99.3165 26.6749 100.583 27.4559 101.364L60.2342 134.142C61.0152 134.923 62.2816 134.923 63.0626 134.142C63.8437 133.361 63.8437 132.095 63.0626 131.314L31.6985 99.9497L99.9399 31.7083L111.3 43.068C112.081 43.849 113.347 43.849 114.128 43.068C114.909 42.2869 114.909 41.0206 114.128 40.2396L101.354 27.4657Z" fill="currentColor"></path><path d="M127.836 53.9774C128.617 54.7584 128.617 56.0248 127.836 56.8058L84.8541 99.7873H118.86C119.668 99.7873 120.398 100.274 120.707 101.022C121.017 101.769 120.846 102.629 120.274 103.201L76.2284 147.277C75.4476 148.058 74.1813 148.059 73.4 147.278C72.6187 146.497 72.6182 145.231 73.399 144.45L114.033 103.787H80.0257C79.2168 103.787 78.4875 103.3 78.178 102.553C77.8684 101.805 78.0395 100.945 78.6115 100.373L125.007 53.9774C125.788 53.1963 127.055 53.1963 127.836 53.9774Z" fill="currentColor"></path><path d="M138.233 67.1729C139.014 66.3919 140.28 66.3919 141.061 67.1729L172.544 98.6558C173.325 99.4368 173.325 100.703 172.544 101.484L101.474 172.554C101.099 172.929 100.591 173.14 100.06 173.14C99.5298 173.14 99.0211 172.929 98.646 172.554L85.8722 159.78C85.0911 158.999 85.0911 157.733 85.8722 156.952C86.6532 156.171 87.9195 156.171 88.7006 156.952L100.06 168.311L168.302 100.07L138.233 70.0014C137.452 69.2203 137.452 67.954 138.233 67.1729Z" fill="currentColor"></path></svg>