<svg width="200" height="200" viewBox="0 0 200 200" fill="none" xmlns="http://www.w3.org/2000/svg"><path fill-rule="evenodd" clip-rule="evenodd" d="M99.9952 34.4404C92.8029 34.4404 85.8796 35.599 79.3808 37.7656C53.2851 46.4262 34.4399 71.0632 34.4399 100.01C34.4399 128.959 53.3163 153.596 79.3816 162.256C85.8801 164.422 92.8032 165.58 99.9952 165.58C101.047 165.58 102.092 165.556 103.132 165.507C109.214 165.222 115.082 164.107 120.64 162.254C120.698 162.234 120.754 162.213 120.808 162.189C146.8 153.47 165.58 128.885 165.58 100.01C165.58 71.0635 146.705 46.3962 120.608 37.7652C114.11 35.5988 107.187 34.4404 99.9952 34.4404ZM122.008 157.508C145.132 148.628 161.58 126.187 161.58 100.01C161.58 73.8314 145.13 51.3648 122.008 42.5098V53.9377C139.181 62.157 151.095 79.7248 151.095 100.01C151.095 100.13 151.085 100.248 151.065 100.362C151.019 107.017 149.692 113.386 147.317 119.221C146.242 121.863 144.952 124.395 143.468 126.795C142.78 127.908 142.05 128.993 141.281 130.047C141.058 130.353 140.755 130.586 140.412 130.724C140.178 130.818 139.925 130.868 139.665 130.868H139.636C139.105 130.868 138.597 130.657 138.222 130.282L122.008 114.065V130.643L129.876 138.513C130.251 138.888 130.462 139.397 130.462 139.927V139.957C130.462 140.6 130.152 141.204 129.63 141.58C127.238 143.301 124.683 144.809 122.008 146.085V157.508ZM82.0417 147.807C87.3524 149.813 93.0619 150.944 99.0353 151.054C99.3642 151.06 99.6939 151.063 100.024 151.063C106.352 151.063 112.418 149.919 118.008 147.8V158.889C113.205 160.367 108.163 161.264 102.949 161.511C101.98 161.556 101.005 161.579 100.025 161.579C93.7679 161.579 87.7367 160.647 82.0417 158.897V147.807ZM81.9566 143.457C81.5902 143.303 81.2263 143.144 80.8648 142.981C80.836 142.968 80.8071 142.956 80.7778 142.944C78.6691 142 76.6387 140.902 74.7095 139.662L81.2471 133.123C81.3202 133.068 81.3901 133.007 81.4561 132.941L100.025 114.368L125.31 139.632C123.357 140.887 121.301 141.997 119.164 142.949C119.062 142.994 118.964 143.048 118.873 143.109C115.274 144.704 111.428 145.85 107.407 146.485C106.415 146.641 105.413 146.767 104.401 146.861C102.959 146.994 101.499 147.061 100.025 147.061C96.8968 147.061 93.8422 146.759 90.8904 146.178C87.7943 145.568 84.8083 144.651 81.9566 143.457ZM78.0417 146.099V157.529C54.9145 148.664 38.4399 126.209 38.4399 100.01C38.4399 73.8099 54.8895 51.3544 78.0417 42.4902V53.9238C60.8523 62.138 48.9542 79.7153 48.9542 100.01C48.9542 111.241 52.5858 121.616 58.7389 130.047C59.0834 130.519 59.6171 130.817 60.1997 130.862C60.2592 130.867 60.3185 130.869 60.3776 130.868C60.9082 130.87 61.4202 130.66 61.7983 130.282L78.0417 114.035V130.642L70.1435 138.542C69.7287 138.957 69.517 139.533 69.5645 140.118C69.6119 140.703 69.9138 141.237 70.3901 141.58C72.7909 143.307 75.3553 144.82 78.0417 146.099ZM93.3995 50.0861C93.4256 50.1084 93.4511 50.1312 93.4758 50.1546C93.8862 50.5269 94.1242 51.0533 94.1318 51.6084L94.132 51.6193L94.132 51.6359V97.1402C94.132 97.6705 93.9214 98.1792 93.5464 98.5542L82.0417 110.062V126.641L98.5808 110.098C98.9844 109.694 99.5176 109.499 100.047 109.513C100.551 109.518 101.053 109.713 101.438 110.098L118.008 126.647V110.064L106.473 98.5269C106.098 98.1518 105.888 97.6432 105.888 97.1128V51.6085C105.888 51.0226 106.145 50.4661 106.591 50.0861C106.918 49.807 107.324 49.6437 107.745 49.6136C107.802 49.6088 107.859 49.6063 107.917 49.6063C108.061 49.6063 108.2 49.6214 108.335 49.65C111.68 50.1951 114.913 51.0767 118.008 52.239V41.15C112.313 39.4002 106.281 38.4678 100.025 38.4678C93.7679 38.4678 87.7367 39.4002 82.0417 41.15V52.2113C85.1598 51.0364 88.4304 50.1736 91.7848 49.6339C92.3633 49.5408 92.9535 49.7061 93.3995 50.0861ZM52.9836 100.01C52.9836 81.0129 64.3004 64.5852 80.5668 57.173C80.6629 57.1468 80.7576 57.1133 80.8502 57.0724C83.8024 55.7677 86.8963 54.7418 90.1025 54.0517V96.2845L60.6519 125.742C55.8023 118.346 52.9836 109.515 52.9836 100.01ZM139.386 125.76L121.474 107.844C121.457 107.825 121.44 107.807 121.422 107.79L109.917 96.2824V54.0422C111.661 54.4119 113.371 54.8775 115.035 55.436C115.655 55.6451 116.269 55.8666 116.878 56.0999C117.658 56.4005 118.426 56.7222 119.182 57.0647C119.253 57.0967 119.324 57.1243 119.397 57.1477C135.696 64.5485 147.066 80.9933 147.066 100.01C147.066 105.647 146.069 111.063 144.241 116.083C142.992 119.511 141.356 122.755 139.386 125.76Z" fill="currentColor"></path></svg>