<svg width="200" height="200" viewBox="0 0 200 200" fill="none" xmlns="http://www.w3.org/2000/svg"><path fill-rule="evenodd" clip-rule="evenodd" d="M71.8944 56.9004H119.8L120.685 58.0806L129.685 69.4806L130.536 70.6158L130.259 72.0048L121.049 115.251L120.462 117.6H98.4384L99.351 113.95L107.247 76.711L107.239 76.7004H77.9139L76.8106 77.6031L68.849 115.151L68.2615 117.5H46.1384L47.0512 113.849L56.2672 70.5742L56.6196 69.5169L57.3957 68.9996L70.9957 57.4995L71.8944 56.9004ZM51.2152 113.5H65.11L73.1893 75.3977L76.486 72.7004H109.161L111.553 75.6898L103.514 113.6H117.311L126.257 71.5932L117.815 60.9004H73.1687L60.0557 71.9887L51.2152 113.5ZM80.4384 79.5004H102.562L101.649 83.1505L93.7527 120.39L93.7612 120.4H123.086L124.189 119.498L132.151 81.8508L132.738 79.5004H137.1V79.7004H154.862L153.949 83.3514L144.733 126.627L144.38 127.684L143.591 128.21L129.791 139.51L128.906 140.1H81L80.1142 138.919L71.2142 127.619L70.3634 126.485L70.6413 125.096L79.8512 81.8494L80.4384 79.5004ZM149.785 83.7004H135.848L127.811 121.703L124.514 124.4H91.8387L89.4472 121.411L97.4859 83.5004H83.5893L74.6432 125.508L82.9857 136.1H127.641L140.946 125.206L149.785 83.7004Z" fill="currentColor"></path></svg>