<svg width="200" height="200" viewBox="0 0 200 200" fill="none" xmlns="http://www.w3.org/2000/svg"><path fill-rule="evenodd" clip-rule="evenodd" d="M52.9121 80.203C51.9999 73.7908 47.4668 70.1708 41.404 68.6777C40.4955 68.454 39.5533 68.8901 39.1358 69.7275C34.4687 79.0907 32 89.3938 32 100.014C32 135.955 59.9891 165.631 95.6898 167.86C96.626 167.919 97.4771 167.319 97.7365 166.417L97.8297 166.084L97.9193 165.745C99.3358 160.215 98.4828 154.976 94.0576 151.141L93.833 150.951L93.7719 150.879L93.717 150.821L93.6595 150.766L93.5412 150.664L87.84 146.185L85.9519 144.676C83.3324 142.56 81.0014 140.589 78.7773 138.585C72.0716 132.544 66.9608 126.745 63.6266 120.965C61.0058 116.421 58.9094 110.869 57.2234 104.378C56.1662 100.308 55.3015 96.008 54.518 91.1809L54.4289 90.6275C54.1633 88.9657 53.9119 87.2766 53.6271 85.2706L52.9121 80.203ZM41.7141 73.6155L41.991 73.013L42.2661 73.1107L42.5767 73.2276C46.0645 74.5839 48.4163 77.0004 48.9528 80.7721L49.9455 87.766C50.0961 88.7934 50.2414 89.7532 50.3897 90.6958L50.5697 91.8218C51.3717 96.7625 52.2599 101.179 53.3519 105.383C55.1212 112.195 57.3396 118.071 60.1618 122.963C63.7401 129.167 69.1093 135.26 76.1 141.557C78.6101 143.818 81.2426 146.031 84.2452 148.437L84.963 149.009L90.762 153.569L90.795 153.609L90.9074 153.721L91.0305 153.827L91.2697 154.021L91.5196 154.237C94.2098 156.635 94.9586 159.834 94.3239 163.46L94.271 163.74L93.9323 163.711L92.9555 163.612C60.7966 160.1 36 132.831 36 100.014C36 90.8077 37.9703 81.858 41.7141 73.6155Z" fill="currentColor"></path><path fill-rule="evenodd" clip-rule="evenodd" d="M160.92 69.757C160.582 69.077 159.888 68.647 159.129 68.647L158.94 68.6535C158.833 68.6621 158.727 68.6793 158.623 68.705C152.538 70.2037 148.026 73.7993 147.114 80.2372L146.193 86.7283C146.026 87.8777 145.865 88.939 145.702 89.9754L145.504 91.2111C144.718 96.0263 143.848 100.325 142.785 104.394C141.089 110.884 138.981 116.44 136.347 120.989C133.004 126.763 127.893 132.558 121.201 138.581C118.746 140.792 116.16 142.962 113.214 145.319C112.472 145.913 111.735 146.496 110.908 147.145L106.412 150.658C101.316 154.654 100.457 160.352 102.181 166.385C102.439 167.288 103.29 167.89 104.227 167.832C139.962 165.631 168 135.949 168 99.9864C168 89.3587 165.554 79.0828 160.92 69.757ZM158.046 73.036L158.056 73.032L158.332 73.632L158.665 74.3803C162.165 82.3833 164 91.0498 164 99.9864L163.992 101L163.969 101.98C162.978 134.25 137.999 160.71 105.99 163.685L105.648 163.713L105.596 163.424L105.542 163.095C104.975 159.379 105.887 156.153 108.882 153.804L112.955 150.623C113.678 150.057 114.327 149.545 114.959 149.043L116.523 147.792C119.195 145.637 121.588 143.616 123.877 141.554C130.853 135.275 136.223 129.188 139.809 122.993C142.644 118.096 144.875 112.216 146.655 105.405C147.753 101.202 148.647 96.7851 149.451 91.8556C149.622 90.8122 149.784 89.7707 149.95 88.6672L150.359 85.8668C150.393 85.6272 150.481 85.0029 150.584 84.2643L150.753 83.0651C150.861 82.3 150.965 81.559 151.032 81.0925L151.124 80.483C151.781 76.668 154.321 74.308 158.046 73.036Z" fill="currentColor"></path><path fill-rule="evenodd" clip-rule="evenodd" d="M97 100.018C97 98.4636 98.2387 97 99.9818 97C101.585 97 103 98.2855 103 100.018C103 101.716 101.62 103 99.9818 103C98.2468 103 97 101.619 97 100.018Z" fill="currentColor"></path><path fill-rule="evenodd" clip-rule="evenodd" d="M116.111 99.9318C116.111 91.0474 108.908 83.8347 100.014 83.8347C91.1107 83.8347 83.9165 91.0288 83.9165 99.9318C83.9165 108.835 91.1108 116.029 100.014 116.029C108.917 116.029 116.111 108.835 116.111 99.9318ZM87.9165 99.9318C87.9165 93.2379 93.3198 87.8347 100.014 87.8347C106.698 87.8347 112.111 93.2554 112.111 99.9318C112.111 106.625 106.707 112.029 100.014 112.029C93.3199 112.029 87.9165 106.626 87.9165 99.9318Z" fill="currentColor"></path><path fill-rule="evenodd" clip-rule="evenodd" d="M133.125 99.9318C133.125 81.6448 118.301 66.8201 100.014 66.8201C81.7266 66.8201 66.9019 81.6447 66.9019 99.9318C66.9019 118.219 81.7268 133.044 100.014 133.044C118.3 133.044 133.125 118.219 133.125 99.9318ZM70.9019 99.9318C70.9019 83.8538 83.9357 70.8201 100.014 70.8201C116.091 70.8201 129.125 83.8539 129.125 99.9318C129.125 116.01 116.091 129.044 100.014 129.044C83.9359 129.044 70.9019 116.01 70.9019 99.9318Z" fill="currentColor"></path><path fill-rule="evenodd" clip-rule="evenodd" d="M156.622 62.3675C144.084 43.5326 123.035 32 99.9864 32C76.955 32 55.9004 43.5433 43.3518 62.3663C42.8294 63.1499 42.9245 64.1918 43.5801 64.868C47.9502 69.3748 53.3062 71.4807 59.3133 69.0671L65.9505 66.3947C67.2639 65.8736 68.4805 65.4005 69.6753 64.9478L70.8655 64.501C78.0664 61.8231 84.437 59.936 90.4585 58.8789C93.8381 58.2856 97.017 57.9773 99.9864 57.9773C102.957 57.9773 106.136 58.2846 109.515 58.876C115.571 59.9361 121.983 61.8352 129.204 64.5249C130.517 65.0143 131.829 65.5186 133.231 66.071L135.411 66.9396C136.01 67.1805 137.379 67.7364 138.583 68.2254C139.267 68.5027 139.897 68.7585 140.303 68.9232L140.993 69.1962C146.886 71.4006 152.096 69.2983 156.393 64.8681C157.048 64.1923 157.143 63.1511 156.622 62.3675ZM48.1246 62.507C60.0711 46.0172 79.1685 36 99.9864 36L100.637 36.0033L101.26 36.0125C121.807 36.4153 140.539 46.5497 152.208 63.0067L152.344 63.199L152.12 63.3908L151.861 63.6023C148.923 65.9544 145.694 66.7728 142.148 65.3544L136.148 62.9254C134.657 62.3295 133.285 61.7925 131.94 61.2809L130.6 60.7765C123.169 58.0086 116.538 56.0446 110.204 54.9359C106.609 54.3066 103.202 53.9773 99.9864 53.9773C96.7707 53.9773 93.3635 54.3077 89.7669 54.9391C83.4693 56.0447 76.8808 57.9963 69.4712 60.7519C67.9027 61.3352 66.343 61.9367 64.6265 62.6167L63.1131 63.2202C62.6919 63.3891 61.7125 63.785 60.6978 64.1952C59.5076 64.6763 58.2689 65.177 57.8258 65.354L57.5394 65.4644L57.2292 65.5734C53.8253 66.709 50.6924 65.7602 47.8513 63.3884L47.63 63.199L47.7648 63.0087L48.1246 62.507Z" fill="currentColor"></path></svg>