<svg width="200" height="200" viewBox="0 0 200 200" fill="none" xmlns="http://www.w3.org/2000/svg"><path fill-rule="evenodd" clip-rule="evenodd" d="M106.643 120.109C106.643 112.673 112.67 106.646 120.106 106.646C127.541 106.646 133.569 112.673 133.569 120.109C133.569 127.544 127.541 133.571 120.106 133.571C112.67 133.571 106.643 127.544 106.643 120.109ZM120.106 110.646C114.88 110.646 110.643 114.882 110.643 120.109C110.643 125.335 114.88 129.571 120.106 129.571C125.332 129.571 129.569 125.335 129.569 120.109C129.569 114.882 125.332 110.646 120.106 110.646Z" fill="currentColor"></path><path d="M115.053 98.8627C115.834 98.0817 115.834 96.8153 115.053 96.0343C114.272 95.2532 113.005 95.2532 112.224 96.0343L96.0315 112.227C95.2504 113.008 95.2504 114.274 96.0315 115.055C96.8125 115.836 98.0788 115.836 98.8599 115.055L115.053 98.8627Z" fill="currentColor"></path><path fill-rule="evenodd" clip-rule="evenodd" d="M37.2553 56.6534C34.0341 53.4322 34.0341 48.207 37.2553 44.9858L44.9853 37.2558C48.2065 34.0345 53.4317 34.0345 56.6529 37.2558L68.8025 49.4054C70.808 51.4109 71.5649 54.1931 71.0732 56.785L97.3895 83.1012L166.257 101.549C166.948 101.734 167.487 102.273 167.672 102.964C167.857 103.654 167.659 104.39 167.154 104.896L104.893 167.157C104.388 167.662 103.651 167.859 102.961 167.674C102.271 167.489 101.732 166.95 101.547 166.26L83.0987 97.3921L56.781 71.0744C54.1901 71.5647 51.4095 70.8076 49.4049 68.803L37.2553 56.6534ZM40.0837 53.825C38.4246 52.1659 38.4246 49.4733 40.0837 47.8142L47.8137 40.0842C49.4728 38.4251 52.1654 38.4251 53.8245 40.0842L65.9741 52.2338C67.6332 53.8929 67.6332 56.5855 65.9741 58.2446L58.2441 65.9746C56.585 67.6337 53.8924 67.6337 52.2333 65.9746L40.0837 53.825ZM60.6021 69.2387L81.0289 89.6654L78.766 81.218C78.5811 80.5278 78.7785 79.7915 79.2837 79.2862C79.7889 78.781 80.5252 78.5837 81.2154 78.7686L89.6628 81.0314L69.2363 60.6049C69.0988 60.7651 68.9543 60.9213 68.8025 61.073L61.0725 68.803C60.9201 68.9555 60.7631 69.1007 60.6021 69.2387ZM104.514 161.879L83.526 83.5285L161.876 104.517L104.514 161.879Z" fill="currentColor"></path><path d="M73.7177 44.8735C73.7177 45.9644 72.8449 46.9099 71.6813 46.9099C70.5177 46.9099 69.7177 46.0372 69.7177 44.8735C69.7177 43.7099 70.5904 42.8372 71.6813 42.8372C72.7722 42.8372 73.7177 43.7099 73.7177 44.8735Z" fill="currentColor"></path><path d="M63.8624 39.0671C65.0261 39.0671 65.8988 38.1217 65.8988 37.0308C65.8988 35.8671 64.9534 34.9944 63.8624 34.9944C62.7715 34.9944 61.8988 35.8671 61.8988 37.0308C61.8988 38.1944 62.6988 39.0671 63.8624 39.0671Z" fill="currentColor"></path><path d="M46.8344 71.7573C46.8344 72.8482 45.9616 73.7937 44.798 73.7937C43.6344 73.7937 42.8344 72.921 42.8344 71.7573C42.8344 70.5937 43.7071 69.721 44.798 69.721C45.8889 69.721 46.8344 70.5937 46.8344 71.7573Z" fill="currentColor"></path><path d="M36.955 65.9499C38.1186 65.9499 38.9913 65.0045 38.9913 63.9136C38.9913 62.7499 38.0459 61.8772 36.955 61.8772C35.8641 61.8772 34.9913 62.7499 34.9913 63.9136C34.9913 65.0772 35.7913 65.9499 36.955 65.9499Z" fill="currentColor"></path></svg>