<svg width="200" height="200" viewBox="0 0 200 200" fill="none" xmlns="http://www.w3.org/2000/svg"><path fill-rule="evenodd" clip-rule="evenodd" d="M60.3248 48.3539C60.6012 47.5442 61.362 47 62.2176 47H130.547C131.191 47 131.796 47.3108 132.172 47.8348C132.548 48.3587 132.648 49.0317 132.441 49.6422L126.753 66.4168C126.478 67.2284 125.716 67.7745 124.859 67.7745H80.7126L78.3754 74.6361H157.878C159.432 74.6361 160.752 75.2982 161.815 76.3698C162.796 77.3587 163.513 78.5463 164.024 79.8794C164.52 81.1735 164.84 82.5539 164.956 84.015C165.072 85.4767 164.963 86.8198 164.603 88.0379C164.599 88.0521 164.595 88.0663 164.59 88.0804C164.586 88.0942 164.581 88.108 164.577 88.1217L158.263 106.511C158.262 106.513 158.262 106.515 158.261 106.517C157.454 108.905 156.562 111.025 155.633 112.845C154.648 114.774 153.386 116.437 151.83 117.77C150.287 119.09 148.471 120.102 146.381 120.787C144.936 121.278 143.312 121.594 141.528 121.77L150.808 134.998C151.236 135.609 151.289 136.407 150.945 137.069C150.6 137.731 149.916 138.146 149.17 138.146H123.525C122.879 138.146 122.273 137.835 121.898 137.309L108.987 119.24C108.612 118.715 108.513 118.042 108.721 117.431L113.453 103.575C113.729 102.766 114.49 102.221 115.346 102.221H132.928C132.98 102.155 133.088 101.988 133.203 101.64L133.209 101.621L135.338 95.3853H111.113L96.9786 136.767C96.9384 136.885 96.8873 136.999 96.826 137.107C96.532 137.626 96.0434 138.067 95.6884 138.369C95.2678 138.726 94.7317 139.131 94.1092 139.576C92.8474 140.477 91.3147 141.471 89.5151 142.534C87.7605 143.586 85.801 144.715 83.6622 145.87C81.5149 147.056 79.4444 148.112 77.4511 149.066C75.458 150.019 73.6162 150.831 71.9348 151.467C70.3005 152.085 68.7993 152.51 67.6285 152.51C66.9831 152.51 66.3774 152.199 66.0019 151.674C65.6264 151.149 65.5273 150.475 65.7357 149.864L84.3625 95.2837H71.3475L66.6011 109.133C66.4824 109.48 66.2707 109.787 65.9892 110.022L64.7091 108.485C65.9892 110.022 65.9893 110.022 65.9892 110.022L65.9723 110.036L65.9296 110.071C65.8929 110.101 65.8401 110.145 65.7733 110.199C65.6398 110.308 65.45 110.461 65.2213 110.643C64.7666 111.003 64.1468 111.482 63.5059 111.94C62.2441 112.841 60.7114 113.835 58.9117 114.898C57.1572 115.95 55.1977 117.079 53.059 118.234C50.9116 119.42 48.8411 120.476 46.8477 121.43C44.8546 122.383 43.0129 123.195 41.3315 123.831C39.7083 124.445 38.2166 124.868 37.0493 124.874C36.8193 124.88 36.5844 124.845 36.3539 124.767C35.3086 124.41 34.7505 123.273 35.1073 122.228L60.3248 48.3539ZM40.0858 120.025C41.5832 119.452 43.2592 118.712 45.1217 117.821C47.052 116.898 49.0558 115.875 51.1336 114.728L51.1498 114.719C53.234 113.593 55.1459 112.492 56.8609 111.464L56.8717 111.458C58.593 110.441 60.0281 109.508 61.181 108.685C61.7481 108.28 62.3112 107.845 62.7373 107.507C62.8339 107.431 62.9228 107.36 63.0025 107.296L68.0268 92.6353C68.3039 91.8268 69.0641 91.2837 69.9188 91.2837H87.1583C87.8037 91.2837 88.4094 91.5952 88.7849 92.1201C89.1604 92.645 89.2596 93.3189 89.0511 93.9297L70.7177 147.65C72.2078 147.078 73.8743 146.343 75.7251 145.457C77.6553 144.534 79.6591 143.511 81.7369 142.364L81.7531 142.355C83.8373 141.229 85.7492 140.128 87.4642 139.1L87.4751 139.094C89.1963 138.077 90.6314 137.144 91.7843 136.321C92.3698 135.902 92.8027 135.572 93.0993 135.32C93.1885 135.244 93.2577 135.182 93.3102 135.132L107.79 92.7388C108.067 91.9293 108.828 91.3853 109.683 91.3853H136.612C137.261 91.3853 137.886 91.6105 138.391 92.0491C138.861 92.4565 139.133 92.9639 139.296 93.4095C139.562 94.1375 139.722 95.0741 139.342 96.0388L137.001 102.895C137 102.899 136.998 102.902 136.997 102.905C136.72 103.741 136.292 104.569 135.603 105.202C134.866 105.88 133.95 106.221 132.963 106.221H116.776L112.839 117.751L124.554 134.146H145.324L136.157 121.079C135.729 120.468 135.676 119.669 136.02 119.007C136.365 118.345 137.049 117.93 137.795 117.93H138.849C141.441 117.856 143.504 117.541 145.103 116.996L145.126 116.989C146.755 116.456 148.106 115.692 149.229 114.731C150.34 113.779 151.293 112.549 152.07 111.027C152.902 109.398 153.721 107.459 154.473 105.231L154.476 105.222L160.778 86.8681C160.965 86.2142 161.052 85.3866 160.968 84.3314C160.883 83.2548 160.649 82.2497 160.289 81.3106C159.944 80.4104 159.504 79.7201 158.975 79.1864C158.527 78.7353 158.187 78.6361 157.878 78.6361H75.5814C74.9362 78.6361 74.3306 78.3248 73.9551 77.8002C73.5795 77.2756 73.4802 76.602 73.6882 75.9913L77.3878 65.1297C77.6638 64.3194 78.4249 63.7745 79.281 63.7745H123.425L127.757 51H63.6482L40.0858 120.025ZM93.4249 135.016C93.4263 135.014 93.4252 135.016 93.421 135.021C93.4229 135.018 93.4242 135.017 93.4249 135.016Z" fill="currentColor"></path></svg>