<svg width="200" height="200" viewBox="0 0 200 200" fill="none" xmlns="http://www.w3.org/2000/svg"><path d="M99.9938 32C80.579 32.0014 65.5953 38.7008 55.5001 50.6093C45.4443 62.4712 40.4399 79.2626 40.4399 99.1105V123.407C40.4399 130.995 45.8727 137.592 53.1065 137.592C54.2111 137.592 55.1065 136.696 55.1065 135.592C55.1065 134.487 54.2111 133.592 53.1065 133.592C48.6891 133.592 44.6697 129.535 44.4494 123.895C44.7406 123.956 45.0576 124.029 45.3964 124.115C47.2281 124.584 49.6572 125.447 52.0734 127.015C56.7998 130.082 61.736 136.001 61.736 147.777C61.736 147.908 61.7487 148.037 61.7729 148.162V157.591C61.7729 165.18 67.2057 171.776 74.4395 171.776H125.55C132.784 171.776 138.217 165.18 138.217 157.591C138.217 156.487 137.321 155.591 136.217 155.591C135.112 155.591 134.217 156.487 134.217 157.591C134.217 163.484 130.094 167.776 125.55 167.776H120.328V155.592C120.328 154.487 119.432 153.592 118.328 153.592C117.223 153.592 116.328 154.487 116.328 155.592V167.776H108.032V155.592C108.032 154.487 107.137 153.592 106.032 153.592C104.927 153.592 104.032 154.487 104.032 155.592V167.776H95.7727V155.592C95.7727 154.487 94.8773 153.592 93.7727 153.592C92.6681 153.592 91.7727 154.487 91.7727 155.592V167.776H83.5137V155.592C83.5137 154.487 82.6182 153.592 81.5137 153.592C80.4091 153.592 79.5137 154.487 79.5137 155.592V167.776H74.4395C69.8957 167.776 65.7729 163.484 65.7729 157.591V147.74C65.7729 147.604 65.7595 147.472 65.7339 147.344C65.6117 134.469 60.0337 127.412 54.2506 123.659C51.3798 121.797 48.5219 120.787 46.3884 120.24C45.6465 120.051 44.9875 119.916 44.4399 119.82V99.1105C44.4399 79.8847 49.2899 64.1208 58.5512 53.1959C67.7716 42.3194 81.565 36.0006 99.9973 36C116.924 36.0006 129.933 41.3289 139.051 50.5883C139.826 51.3754 141.092 51.3851 141.879 50.6101C142.666 49.8351 142.676 48.5688 141.901 47.7817C131.909 37.6355 117.81 32.0013 100.001 32H99.9938Z" fill="currentColor"></path><path d="M150.29 58.9393C149.745 57.9784 148.525 57.641 147.564 58.1858C146.603 58.7305 146.266 59.9511 146.81 60.912C152.562 71.057 155.55 83.9916 155.55 99.0734V119.846C155.033 119.94 154.426 120.067 153.75 120.24C151.616 120.787 148.758 121.797 145.887 123.659C140.04 127.454 134.402 134.627 134.402 147.777C134.402 148.881 135.298 149.777 136.402 149.777C137.507 149.777 138.402 148.881 138.402 147.777C138.402 136.001 143.338 130.082 148.065 127.015C150.481 125.447 152.91 124.584 154.742 124.115C155.023 124.044 155.289 123.981 155.538 123.927C155.287 129.531 151.283 133.555 146.884 133.555C145.779 133.555 144.884 134.45 144.884 135.555C144.884 136.659 145.779 137.555 146.884 137.555C154.117 137.555 159.55 130.958 159.55 123.369V99.0734C159.55 83.4889 156.465 69.8311 150.29 58.9393Z" fill="currentColor"></path><path fill-rule="evenodd" clip-rule="evenodd" d="M99.9951 121.822C99.2434 121.753 98.4843 122.114 98.0803 122.81L91.4137 134.291C91.0545 134.91 91.0531 135.673 91.41 136.293C91.767 136.913 92.4279 137.295 93.1433 137.295H99.8099C99.8723 137.295 99.9341 137.292 99.9951 137.287C100.056 137.292 100.118 137.295 100.18 137.295H106.847C107.562 137.295 108.223 136.913 108.58 136.293C108.937 135.673 108.936 134.91 108.576 134.291L101.91 122.81C101.506 122.114 100.747 121.753 99.9951 121.822ZM99.9951 133.304C100.056 133.298 100.118 133.295 100.18 133.295H103.373L99.9951 127.478L96.6173 133.295H99.8099C99.8723 133.295 99.9341 133.298 99.9951 133.304Z" fill="currentColor"></path><path fill-rule="evenodd" clip-rule="evenodd" d="M57.7361 113.481C57.7361 103.683 65.6788 95.7401 75.4767 95.7401C85.2745 95.7401 93.2173 103.683 93.2173 113.481C93.2173 123.279 85.2745 131.221 75.4767 131.221C65.6788 131.221 57.7361 123.279 57.7361 113.481ZM75.4767 99.7401C67.888 99.7401 61.7361 105.892 61.7361 113.481C61.7361 121.069 67.888 127.221 75.4767 127.221C83.0654 127.221 89.2173 121.069 89.2173 113.481C89.2173 105.892 83.0654 99.7401 75.4767 99.7401Z" fill="currentColor"></path><path fill-rule="evenodd" clip-rule="evenodd" d="M124.513 95.7401C114.715 95.7401 106.773 103.683 106.773 113.481C106.773 123.279 114.715 131.221 124.513 131.221C134.311 131.221 142.254 123.279 142.254 113.481C142.254 103.683 134.311 95.7401 124.513 95.7401ZM110.773 113.481C110.773 105.892 116.925 99.7401 124.513 99.7401C132.102 99.7401 138.254 105.892 138.254 113.481C138.254 121.069 132.102 127.221 124.513 127.221C116.925 127.221 110.773 121.069 110.773 113.481Z" fill="currentColor"></path></svg>