<svg width="200" height="200" viewBox="0 0 200 200" fill="none" xmlns="http://www.w3.org/2000/svg"><path fill-rule="evenodd" clip-rule="evenodd" d="M167.224 56.7188L164.561 61.7498L129.172 126.229L128.577 127.418L127.266 127.746L108.033 132.153L103.814 133.057L104.418 128.835L105.488 120.317L95.5742 138.624L94.9514 139.87L93.4759 140.165L74.8895 143.563L70.7144 144.457L71.3255 140.18L72.0051 136.442L37.571 143.366L32.6106 144.242L34.0962 139.488L60.5834 59.6259L62.4309 59.318L84.4952 57.0008H89.0748L87.6909 61.1526L83.1122 74.0073L85.0895 73.7248L102.599 70.7232L106.951 70.143L106.055 74.3245L104.824 79.9986L108.766 71.6995L109.345 70.2521L110.902 69.9408L110.908 69.9396L129.581 66.1451L129.602 66.1408L133.786 65.2442L133.18 69.4836L133.178 69.4964L132.398 74.712L138.56 61.1163L139.161 59.613L140.939 59.3167L161.591 57.3117L161.607 57.3101L167.224 56.7188ZM129.007 70.3434L112.218 73.755L101.007 97.3589L97.2454 96.077L101.834 74.9126L86.4478 77.5503L79.1309 119.724L61.4602 122.874L83.452 61.1323L63.6038 63.2168L38.4349 139.112L76.9949 131.359L75.5369 139.378L92.274 136.319L107.041 109.048L110.784 110.25L108.563 127.928L125.851 123.966L160.151 61.4702L141.992 63.2333L130.122 89.4263L126.322 88.3051L129.007 70.3434ZM82.8178 74.8338L67.5397 117.727L75.669 116.278L82.6243 76.1884L82.8178 74.8338Z" fill="currentColor"></path></svg>