<svg width="200" height="200" viewBox="0 0 200 200" fill="none" xmlns="http://www.w3.org/2000/svg"><path fill-rule="evenodd" clip-rule="evenodd" d="M72.6989 49.8492C73.2118 49.9865 73.649 50.322 73.9143 50.7818L94.778 86.9454C95.0431 87.4051 95.1148 87.9512 94.9771 88.4637C94.8395 88.9762 94.5038 89.4129 94.044 89.6778C90.522 91.7071 88.1414 95.5084 88.091 99.8742V99.9722C88.091 101.077 87.1956 101.972 86.091 101.972H44.3638C43.2592 101.972 42.3638 101.077 42.3638 99.9722C42.3638 78.6384 53.9516 60.0202 71.1802 50.0502C71.6397 49.7843 72.1861 49.712 72.6989 49.8492ZM84.2196 97.9722C84.7732 93.6327 87.0659 89.8367 90.3769 87.3213L71.469 54.5477C56.9047 63.7171 47.0709 79.6735 46.4004 97.9722H84.2196Z" fill="currentColor"></path><path fill-rule="evenodd" clip-rule="evenodd" d="M127.301 49.8775C127.814 49.7403 128.36 49.8126 128.82 50.0785C146.048 60.0485 157.636 78.6667 157.636 100C157.636 101.105 156.741 102 155.636 102H114.24C114.132 102.018 114.022 102.028 113.909 102.028C112.804 102.028 111.909 101.132 111.909 100.028C111.909 95.6111 109.529 91.7612 105.957 89.7069C105.497 89.4422 105.161 89.0054 105.023 88.4927C104.885 87.9801 104.957 87.4336 105.222 86.9738L126.086 50.8101C126.351 50.3503 126.788 50.0148 127.301 49.8775ZM115.782 98.0005C115.233 93.6622 112.946 89.8667 109.624 87.3481L128.531 54.576C143.095 63.7454 152.929 79.7018 153.6 98.0005H115.782Z" fill="currentColor"></path><path fill-rule="evenodd" clip-rule="evenodd" d="M94.0428 110.321C93.0861 109.771 91.8645 110.1 91.313 111.056L70.4494 147.219C69.8983 148.174 70.2244 149.395 71.1783 149.949C79.6589 154.867 89.5223 157.664 99.9999 157.664C110.481 157.664 120.342 154.838 128.817 149.951C129.277 149.686 129.612 149.249 129.75 148.737C129.887 148.225 129.816 147.679 129.55 147.219L108.687 111.056C108.421 110.596 107.984 110.26 107.471 110.123C106.958 109.986 106.412 110.058 105.952 110.324C104.182 111.349 102.107 111.933 99.8846 111.91L99.8635 111.91C97.7635 111.91 95.759 111.309 94.0428 110.321ZM74.93 147.457L93.8412 114.678C95.6788 115.452 97.7165 115.908 99.853 115.91C102.09 115.932 104.225 115.49 106.159 114.679L125.068 147.453C117.585 151.406 109.042 153.664 99.9999 153.664C90.9527 153.664 82.4091 151.427 74.93 147.457Z" fill="currentColor"></path><path fill-rule="evenodd" clip-rule="evenodd" d="M92.2183 99.9282C92.2551 95.6281 95.7809 92.1814 100.072 92.2181C104.372 92.2548 107.818 95.7806 107.782 100.071C107.745 104.371 104.219 107.818 99.9284 107.782C95.6284 107.745 92.1816 104.219 92.2183 99.9282ZM100.038 96.2179C97.9465 96.2 96.236 97.8806 96.2182 99.9623C96.2003 102.053 97.8808 103.764 99.9626 103.782C102.054 103.8 103.764 102.119 103.782 100.037C103.8 97.9463 102.119 96.2357 100.038 96.2179Z" fill="currentColor"></path><path fill-rule="evenodd" clip-rule="evenodd" d="M100 32C62.4446 32 32 62.4446 32 100C32 137.555 62.4446 168 100 168C137.555 168 168 137.555 168 100C168 62.4446 137.555 32 100 32ZM36 100C36 64.6538 64.6538 36 100 36C135.346 36 164 64.6538 164 100C164 135.346 135.346 164 100 164C64.6538 164 36 135.346 36 100Z" fill="currentColor"></path></svg>