<svg width="200" height="200" viewBox="0 0 200 200" fill="none" xmlns="http://www.w3.org/2000/svg"><path d="M109.395 34.8988C108.301 34.7483 107.292 35.5134 107.142 36.6077C106.991 37.702 107.756 38.711 108.851 38.8615C110.956 39.151 113.055 39.5449 115.149 40.0685L115.157 40.0704C149.302 48.4618 170.186 82.921 161.796 117.063L161.795 117.066C158.743 129.562 152.195 140.264 143.438 148.417C142.629 149.17 142.584 150.435 143.336 151.244C144.089 152.052 145.355 152.097 146.163 151.345C155.474 142.677 162.437 131.295 165.68 118.018C174.598 81.7294 152.401 45.1067 116.116 36.1869C113.87 35.6257 111.63 35.206 109.395 34.8988Z" fill="currentColor"></path><path d="M56.6049 55.3265C57.4128 54.5732 57.457 53.3076 56.7037 52.4998C55.9504 51.692 54.6848 51.6477 53.877 52.4011C40.6284 64.7553 32.3501 82.3434 32.3501 101.886C32.3501 128.672 47.9264 151.82 70.5109 162.776C71.5047 163.259 72.7012 162.844 73.1833 161.85C73.6655 160.856 73.2507 159.66 72.2569 159.178C50.9978 148.864 36.3501 127.082 36.3501 101.886C36.3501 83.4988 44.1334 66.9561 56.6049 55.3265Z" fill="currentColor"></path><path d="M156.021 109.581C159.122 87.1038 148.323 64.5703 128.406 53.0178C128.315 52.9402 128.215 52.8697 128.107 52.8078C119.833 48.0515 110.239 45.3521 100.007 45.3521C71.9906 45.3521 48.761 65.7172 44.2609 92.4647C44.0777 93.5539 44.8121 94.5855 45.9014 94.7688C46.9907 94.952 48.0222 94.2176 48.2055 93.1283C52.3873 68.2726 73.9782 49.3521 100.007 49.3521C106.737 49.3521 113.163 50.6066 119.064 52.9017C119.175 52.9751 119.296 53.0384 119.425 53.0898C139.944 61.2696 152.475 80.9357 152.545 101.748L152.544 101.768L152.542 101.793L152.541 101.817C152.541 101.831 152.541 101.844 152.54 101.858L152.54 101.886C152.54 104.199 152.391 106.477 152.101 108.711C151.544 112.946 150.457 117.181 148.803 121.33L148.802 121.333C147.805 123.844 146.634 126.236 145.308 128.5C140.769 136.209 134.318 142.658 126.608 147.195C125.49 147.851 124.35 148.464 123.189 149.035C123.167 149.046 123.145 149.058 123.123 149.069C123.115 149.074 123.107 149.078 123.099 149.082C123.093 149.086 123.088 149.089 123.082 149.092C116.117 152.504 108.285 154.419 100.007 154.419C86.443 154.419 74.1091 149.273 64.7739 140.853C63.9537 140.113 62.689 140.178 61.9492 140.999C61.2094 141.819 61.2746 143.083 62.0948 143.823C72.1312 152.876 85.4089 158.419 100.007 158.419C110.658 158.419 120.621 155.473 129.126 150.351C136.998 145.624 143.785 138.952 148.659 130.694C152.423 124.35 154.983 117.207 156.021 109.581Z" fill="currentColor"></path><path d="M100.007 56.9375C93.4238 56.9375 87.1459 58.3566 81.5171 60.9151C80.5116 61.3722 80.0669 62.5579 80.524 63.5634C80.9811 64.569 82.1668 65.0136 83.1723 64.5566C88.2874 62.2315 94.0014 60.9375 100.007 60.9375C122.615 60.9375 140.955 79.278 140.955 101.886C140.955 107.321 139.895 112.493 137.981 117.225C137.567 118.249 138.062 119.415 139.086 119.829C140.11 120.243 141.275 119.748 141.689 118.724C143.791 113.526 144.955 107.846 144.955 101.886C144.955 77.0688 124.824 56.9375 100.007 56.9375Z" fill="currentColor"></path><path d="M60.276 118.363C61.2752 117.892 62.4669 118.321 62.9377 119.32C69.4839 133.215 83.6358 142.834 100.007 142.834C109.091 142.834 117.493 139.885 124.266 134.871C125.154 134.213 126.406 134.4 127.063 135.288C127.721 136.176 127.534 137.428 126.646 138.085C119.202 143.597 109.969 146.834 100.007 146.834C82.0306 146.834 66.5012 136.269 59.3191 121.025C58.8484 120.026 59.2768 118.834 60.276 118.363Z" fill="currentColor"></path><path d="M100.007 68.3325C81.4857 68.3325 66.4539 83.335 66.4539 101.886C66.4539 120.436 81.4574 135.439 100.007 135.439C118.557 135.439 133.561 120.436 133.561 101.886C133.561 98.5149 133.07 95.2833 132.147 92.1968C131.831 91.1386 130.716 90.5372 129.658 90.8537C128.6 91.1702 127.999 92.2847 128.315 93.3429C129.128 96.0625 129.561 98.9082 129.561 101.886C129.561 118.227 116.348 131.439 100.007 131.439C83.6665 131.439 70.4539 118.227 70.4539 101.886C70.4539 85.5463 83.6926 72.3325 100.007 72.3325C106.129 72.3325 111.793 74.2105 116.527 77.3916C117.444 78.0077 118.686 77.7639 119.302 76.8472C119.918 75.9304 119.675 74.6877 118.758 74.0716C113.399 70.47 106.963 68.3325 100.007 68.3325Z" fill="currentColor"></path></svg>